0
SECTION
2
HEADER
9
$HANDSEED
5
7D
9
$INSUNITS
70
6
9
$ACADVER
1
AC1021
0
ENDSEC
0
SECTION
2
CLASSES
0
ENDSEC
0
SECTION
2
TABLES
0
TABLE
2
LTYPE
5
7B
330
0
100
AcDbSymbolTable
70
5
0
LTYPE
5
2
330
7B
100
AcDbSymbolTableRecord
100
AcDbLinetypeTableRecord
2
CONTINUOUS
3
______
70
0
72
65
73
0
40
0
0
LTYPE
5
3
330
7B
100
AcDbSymbolTableRecord
100
AcDbLinetypeTableRecord
2
DASHED
3
_ _ _ 
70
0
72
65
73
2
40
10
49
5
74
0
49
-5
74
0
0
LTYPE
5
4
330
7B
100
AcDbSymbolTableRecord
100
AcDbLinetypeTableRecord
2
DOTTED
3
. . . 
70
0
72
65
73
2
40
5
49
0
74
0
49
-5
74
0
0
LTYPE
5
6
330
7B
100
AcDbSymbolTableRecord
100
AcDbLinetypeTableRecord
2
ByBlock
3

70
0
72
65
73
0
40
0
0
LTYPE
5
7
330
7B
100
AcDbSymbolTableRecord
100
AcDbLinetypeTableRecord
2
ByLayer
3

70
0
72
65
73
0
40
0
0
ENDTAB
0
TABLE
2
LAYER
5
7C
330
0
100
AcDbSymbolTable
70
6
0
LAYER
5
5
330
7C
100
AcDbSymbolTableRecord
100
AcDbLayerTableRecord
2
0
62
7
70
0
6
CONTINUOUS
390
1
0
LAYER
5
16
330
7C
100
AcDbSymbolTableRecord
100
AcDbLayerTableRecord
2
rect_polygon
62
0
70
0
6
CONTINUOUS
390
1
0
LAYER
5
35
330
7C
100
AcDbSymbolTableRecord
100
AcDbLayerTableRecord
2
stair
62
1
70
0
6
CONTINUOUS
390
1
0
LAYER
5
50
330
7C
100
AcDbSymbolTableRecord
100
AcDbLayerTableRecord
2
anchor_point
62
6
70
0
6
CONTINUOUS
390
1
0
LAYER
5
56
330
7C
100
AcDbSymbolTableRecord
100
AcDbLayerTableRecord
2
diagonal_braces
62
5
70
0
6
CONTINUOUS
390
1
0
LAYER
5
67
330
7C
100
AcDbSymbolTableRecord
100
AcDbLayerTableRecord
2
rung
62
0
70
0
6
CONTINUOUS
390
1
0
ENDTAB
0
TABLE
2
VPORT
5
8
330
0
100
AcDbSymbolTable
70
1
0
VPORT
5
E
330
8
100
AcDbSymbolTableRecord
100
AcDbViewportTableRecord
2
*ACTIVE
40
1000
70
0
0
ENDTAB
0
TABLE
2
STYLE
5
9
330
0
100
AcDbSymbolTable
70
1
0
STYLE
5
F
330
9
100
AcDbSymbolTableRecord
100
AcDbTextStyleTableRecord
2
standard
70
0
40
0
41
1
50
0
71
0
42
1
3
txt
4

0
ENDTAB
0
TABLE
2
VIEW
5
A
330
0
100
AcDbSymbolTable
70
0
0
ENDTAB
0
TABLE
2
UCS
5
B
330
0
100
AcDbSymbolTable
70
0
0
ENDTAB
0
TABLE
2
APPID
5
C
330
0
100
AcDbSymbolTable
70
1
0
APPID
5
10
330
C
100
AcDbSymbolTableRecord
100
AcDbRegAppTableRecord
2
ACAD
70
0
0
ENDTAB
0
TABLE
2
DIMSTYLE
5
D
330
0
100
AcDbSymbolTable
100
AcDbDimStyleTable
70
0
71
1
0
ENDTAB
0
TABLE
2
BLOCK_RECORD
5
78
330
0
100
AcDbSymbolTable
70
2
0
BLOCK_RECORD
5
79
330
78
100
AcDbSymbolTableRecord
100
AcDbBlockTableRecord
2
*Model_Space
70
0
280
0
281
1
0
BLOCK_RECORD
5
7A
330
78
100
AcDbSymbolTableRecord
100
AcDbBlockTableRecord
2
*Paper_Space
70
0
280
0
281
1
0
ENDTAB
0
ENDSEC
0
SECTION
2
BLOCKS
0
BLOCK
5
11
330
0
100
AcDbEntity
100
AcDbBlockBegin
2
*Model_Space
70
0
10
0
20
0
30
0
3
*Model_Space
1

0
ENDBLK
5
12
330
0
100
AcDbEntity
100
AcDbBlockEnd
0
BLOCK
5
13
330
0
100
AcDbEntity
100
AcDbBlockBegin
2
*Paper_Space
70
0
10
0
20
0
30
0
3
*Paper_Space
1

0
ENDBLK
5
14
330
0
100
AcDbEntity
100
AcDbBlockEnd
0
ENDSEC
0
SECTION
2
ENTITIES
0
LINE
5
17
330
11
100
AcDbEntity
100
AcDbLine
8
rect_polygon
10
40
20
0
30
0
11
1020
21
0
31
0
0
TEXT
5
18
330
11
100
AcDbEntity
100
AcDbText
8
rect_polygon
10
530
20
10
30
0
40
15
1
980
50
0
72
1
11
530
21
10
31
0
100
AcDbText
73
2
0
LINE
5
19
330
11
100
AcDbEntity
100
AcDbLine
8
rect_polygon
10
300
20
440
30
0
11
500
21
440
31
0
0
TEXT
5
1A
330
11
100
AcDbEntity
100
AcDbText
8
rect_polygon
10
400
20
450
30
0
40
10
1
200
50
0
72
1
11
400
21
450
31
0
100
AcDbText
73
2
0
LINE
5
1B
330
11
100
AcDbEntity
100
AcDbLine
8
rect_polygon
10
280
20
460
30
0
11
280
21
660
31
0
0
TEXT
5
1C
330
11
100
AcDbEntity
100
AcDbText
8
rect_polygon
10
290
20
560
30
0
40
10
1
200
50
90
72
1
11
290
21
560
31
0
100
AcDbText
73
2
0
LWPOLYLINE
5
1D
330
11
100
AcDbEntity
100
AcDbPolyline
8
rect_polygon
6
ByLayer
62
256
370
-1
90
4
70
1
10
300
20
460
10
300
20
560
10
400
20
560
10
400
20
460
0
LWPOLYLINE
5
1E
330
11
100
AcDbEntity
100
AcDbPolyline
8
rect_polygon
6
ByLayer
62
256
370
-1
90
4
70
1
10
300
20
560
10
300
20
660
10
400
20
660
10
400
20
560
0
LWPOLYLINE
5
1F
330
11
100
AcDbEntity
100
AcDbPolyline
8
rect_polygon
6
ByLayer
62
256
370
-1
90
4
70
1
10
400
20
460
10
400
20
560
10
500
20
560
10
500
20
460
0
LWPOLYLINE
5
20
330
11
100
AcDbEntity
100
AcDbPolyline
8
rect_polygon
6
ByLayer
62
256
370
-1
90
4
70
1
10
400
20
560
10
400
20
660
10
500
20
660
10
500
20
560
0
TEXT
5
21
330
11
100
AcDbEntity
100
AcDbText
8
rect_polygon
10
350
20
510
30
0
40
33.333333333333336
1
3
50
0
72
1
11
350
21
510
31
0
100
AcDbText
73
2
0
TEXT
5
22
330
11
100
AcDbEntity
100
AcDbText
8
rect_polygon
10
350
20
610
30
0
40
33.333333333333336
1
3
50
0
72
1
11
350
21
610
31
0
100
AcDbText
73
2
0
TEXT
5
23
330
11
100
AcDbEntity
100
AcDbText
8
rect_polygon
10
450
20
510
30
0
40
33.333333333333336
1
3
50
0
72
1
11
450
21
510
31
0
100
AcDbText
73
2
0
TEXT
5
24
330
11
100
AcDbEntity
100
AcDbText
8
rect_polygon
10
450
20
610
30
0
40
33.333333333333336
1
3
50
0
72
1
11
450
21
610
31
0
100
AcDbText
73
2
0
LWPOLYLINE
5
25
330
11
100
AcDbEntity
100
AcDbPolyline
8
rect_polygon
6
ByLayer
62
256
370
-1
90
4
70
1
10
40
20
40
10
40
20
220
10
140
20
220
10
140
20
40
0
LWPOLYLINE
5
26
330
11
100
AcDbEntity
100
AcDbPolyline
8
rect_polygon
6
ByLayer
62
256
370
-1
90
4
70
1
10
40
20
220
10
40
20
400
10
140
20
400
10
140
20
220
0
LWPOLYLINE
5
27
330
11
100
AcDbEntity
100
AcDbPolyline
8
rect_polygon
6
ByLayer
62
256
370
-1
90
4
70
1
10
140
20
40
10
140
20
220
10
240
20
220
10
240
20
40
0
LWPOLYLINE
5
28
330
11
100
AcDbEntity
100
AcDbPolyline
8
rect_polygon
6
ByLayer
62
256
370
-1
90
4
70
1
10
140
20
220
10
140
20
400
10
240
20
400
10
240
20
220
0
LWPOLYLINE
5
29
330
11
100
AcDbEntity
100
AcDbPolyline
8
rect_polygon
6
ByLayer
62
256
370
-1
90
4
70
1
10
300
20
40
10
300
20
220
10
400
20
220
10
400
20
40
0
LWPOLYLINE
5
2A
330
11
100
AcDbEntity
100
AcDbPolyline
8
rect_polygon
6
ByLayer
62
256
370
-1
90
4
70
1
10
300
20
220
10
300
20
400
10
400
20
400
10
400
20
220
0
LWPOLYLINE
5
2B
330
11
100
AcDbEntity
100
AcDbPolyline
8
rect_polygon
6
ByLayer
62
256
370
-1
90
4
70
1
10
400
20
40
10
400
20
220
10
500
20
220
10
500
20
40
0
LWPOLYLINE
5
2C
330
11
100
AcDbEntity
100
AcDbPolyline
8
rect_polygon
6
ByLayer
62
256
370
-1
90
4
70
1
10
400
20
220
10
400
20
400
10
500
20
400
10
500
20
220
0
LWPOLYLINE
5
2D
330
11
100
AcDbEntity
100
AcDbPolyline
8
rect_polygon
6
ByLayer
62
256
370
-1
90
4
70
1
10
560
20
40
10
560
20
220
10
660
20
220
10
660
20
40
0
LWPOLYLINE
5
2E
330
11
100
AcDbEntity
100
AcDbPolyline
8
rect_polygon
6
ByLayer
62
256
370
-1
90
4
70
1
10
560
20
220
10
560
20
400
10
660
20
400
10
660
20
220
0
LWPOLYLINE
5
2F
330
11
100
AcDbEntity
100
AcDbPolyline
8
rect_polygon
6
ByLayer
62
256
370
-1
90
4
70
1
10
660
20
40
10
660
20
220
10
760
20
220
10
760
20
40
0
LWPOLYLINE
5
30
330
11
100
AcDbEntity
100
AcDbPolyline
8
rect_polygon
6
ByLayer
62
256
370
-1
90
4
70
1
10
660
20
220
10
660
20
400
10
760
20
400
10
760
20
220
0
LWPOLYLINE
5
31
330
11
100
AcDbEntity
100
AcDbPolyline
8
rect_polygon
6
ByLayer
62
256
370
-1
90
4
70
1
10
820
20
40
10
820
20
220
10
920
20
220
10
920
20
40
0
LWPOLYLINE
5
32
330
11
100
AcDbEntity
100
AcDbPolyline
8
rect_polygon
6
ByLayer
62
256
370
-1
90
4
70
1
10
820
20
220
10
820
20
400
10
920
20
400
10
920
20
220
0
LWPOLYLINE
5
33
330
11
100
AcDbEntity
100
AcDbPolyline
8
rect_polygon
6
ByLayer
62
256
370
-1
90
4
70
1
10
920
20
40
10
920
20
220
10
1020
20
220
10
1020
20
40
0
LWPOLYLINE
5
34
330
11
100
AcDbEntity
100
AcDbPolyline
8
rect_polygon
6
ByLayer
62
256
370
-1
90
4
70
1
10
920
20
220
10
920
20
400
10
1020
20
400
10
1020
20
220
0
LINE
5
36
330
11
100
AcDbEntity
100
AcDbLine
8
stair
10
300
20
560
30
0
11
300
21
660
31
0
0
LINE
5
37
330
11
100
AcDbEntity
100
AcDbLine
8
stair
10
325
20
560
30
0
11
325
21
660
31
0
0
LINE
5
38
330
11
100
AcDbEntity
100
AcDbLine
8
stair
10
300
20
580
30
0
11
325
21
580
31
0
0
LINE
5
39
330
11
100
AcDbEntity
100
AcDbLine
8
stair
10
300
20
600
30
0
11
325
21
600
31
0
0
LINE
5
3A
330
11
100
AcDbEntity
100
AcDbLine
8
stair
10
300
20
620
30
0
11
325
21
620
31
0
0
LINE
5
3B
330
11
100
AcDbEntity
100
AcDbLine
8
stair
10
300
20
640
30
0
11
325
21
640
31
0
0
LINE
5
3C
330
11
100
AcDbEntity
100
AcDbLine
8
stair
10
40
20
220
30
0
11
140
21
400
31
0
0
LINE
5
3D
330
11
100
AcDbEntity
100
AcDbLine
8
stair
10
50
20
256
30
0
11
70
21
256
31
0
0
LINE
5
3E
330
11
100
AcDbEntity
100
AcDbLine
8
stair
10
70
20
292
30
0
11
90
21
292
31
0
0
LINE
5
3F
330
11
100
AcDbEntity
100
AcDbLine
8
stair
10
90
20
328
30
0
11
110
21
328
31
0
0
LINE
5
40
330
11
100
AcDbEntity
100
AcDbLine
8
stair
10
110
20
364
30
0
11
130
21
364
31
0
0
LINE
5
41
330
11
100
AcDbEntity
100
AcDbLine
8
stair
10
300
20
220
30
0
11
400
21
400
31
0
0
LINE
5
42
330
11
100
AcDbEntity
100
AcDbLine
8
stair
10
310
20
256
30
0
11
330
21
256
31
0
0
LINE
5
43
330
11
100
AcDbEntity
100
AcDbLine
8
stair
10
330
20
292
30
0
11
350
21
292
31
0
0
LINE
5
44
330
11
100
AcDbEntity
100
AcDbLine
8
stair
10
350
20
328
30
0
11
370
21
328
31
0
0
LINE
5
45
330
11
100
AcDbEntity
100
AcDbLine
8
stair
10
370
20
364
30
0
11
390
21
364
31
0
0
LINE
5
46
330
11
100
AcDbEntity
100
AcDbLine
8
stair
10
560
20
220
30
0
11
660
21
400
31
0
0
LINE
5
47
330
11
100
AcDbEntity
100
AcDbLine
8
stair
10
570
20
256
30
0
11
590
21
256
31
0
0
LINE
5
48
330
11
100
AcDbEntity
100
AcDbLine
8
stair
10
590
20
292
30
0
11
610
21
292
31
0
0
LINE
5
49
330
11
100
AcDbEntity
100
AcDbLine
8
stair
10
610
20
328
30
0
11
630
21
328
31
0
0
LINE
5
4A
330
11
100
AcDbEntity
100
AcDbLine
8
stair
10
630
20
364
30
0
11
650
21
364
31
0
0
LINE
5
4B
330
11
100
AcDbEntity
100
AcDbLine
8
stair
10
820
20
220
30
0
11
920
21
400
31
0
0
LINE
5
4C
330
11
100
AcDbEntity
100
AcDbLine
8
stair
10
830
20
256
30
0
11
850
21
256
31
0
0
LINE
5
4D
330
11
100
AcDbEntity
100
AcDbLine
8
stair
10
850
20
292
30
0
11
870
21
292
31
0
0
LINE
5
4E
330
11
100
AcDbEntity
100
AcDbLine
8
stair
10
870
20
328
30
0
11
890
21
328
31
0
0
LINE
5
4F
330
11
100
AcDbEntity
100
AcDbLine
8
stair
10
890
20
364
30
0
11
910
21
364
31
0
0
CIRCLE
5
51
330
11
100
AcDbEntity
100
AcDbCircle
8
anchor_point
10
300
20
460
30
0
40
20
0
CIRCLE
5
52
330
11
100
AcDbEntity
100
AcDbCircle
8
anchor_point
10
40
20
40
30
0
40
20
0
CIRCLE
5
53
330
11
100
AcDbEntity
100
AcDbCircle
8
anchor_point
10
300
20
40
30
0
40
20
0
CIRCLE
5
54
330
11
100
AcDbEntity
100
AcDbCircle
8
anchor_point
10
560
20
40
30
0
40
20
0
CIRCLE
5
55
330
11
100
AcDbEntity
100
AcDbCircle
8
anchor_point
10
820
20
40
30
0
40
20
0
LINE
5
57
330
11
100
AcDbEntity
100
AcDbLine
8
diagonal_braces
10
40
20
40
30
0
11
140
21
220
31
0
0
LINE
5
58
330
11
100
AcDbEntity
100
AcDbLine
8
diagonal_braces
10
40
20
220
30
0
11
140
21
400
31
0
0
LINE
5
59
330
11
100
AcDbEntity
100
AcDbLine
8
diagonal_braces
10
140
20
220
30
0
11
240
21
40
31
0
0
LINE
5
5A
330
11
100
AcDbEntity
100
AcDbLine
8
diagonal_braces
10
140
20
400
30
0
11
240
21
220
31
0
0
LINE
5
5B
330
11
100
AcDbEntity
100
AcDbLine
8
diagonal_braces
10
300
20
40
30
0
11
400
21
220
31
0
0
LINE
5
5C
330
11
100
AcDbEntity
100
AcDbLine
8
diagonal_braces
10
300
20
220
30
0
11
400
21
400
31
0
0
LINE
5
5D
330
11
100
AcDbEntity
100
AcDbLine
8
diagonal_braces
10
400
20
220
30
0
11
500
21
40
31
0
0
LINE
5
5E
330
11
100
AcDbEntity
100
AcDbLine
8
diagonal_braces
10
400
20
400
30
0
11
500
21
220
31
0
0
LINE
5
5F
330
11
100
AcDbEntity
100
AcDbLine
8
diagonal_braces
10
560
20
40
30
0
11
660
21
220
31
0
0
LINE
5
60
330
11
100
AcDbEntity
100
AcDbLine
8
diagonal_braces
10
560
20
220
30
0
11
660
21
400
31
0
0
LINE
5
61
330
11
100
AcDbEntity
100
AcDbLine
8
diagonal_braces
10
660
20
220
30
0
11
760
21
40
31
0
0
LINE
5
62
330
11
100
AcDbEntity
100
AcDbLine
8
diagonal_braces
10
660
20
400
30
0
11
760
21
220
31
0
0
LINE
5
63
330
11
100
AcDbEntity
100
AcDbLine
8
diagonal_braces
10
820
20
40
30
0
11
920
21
220
31
0
0
LINE
5
64
330
11
100
AcDbEntity
100
AcDbLine
8
diagonal_braces
10
820
20
220
30
0
11
920
21
400
31
0
0
LINE
5
65
330
11
100
AcDbEntity
100
AcDbLine
8
diagonal_braces
10
920
20
220
30
0
11
1020
21
40
31
0
0
LINE
5
66
330
11
100
AcDbEntity
100
AcDbLine
8
diagonal_braces
10
920
20
400
30
0
11
1020
21
220
31
0
0
LINE
5
68
330
11
100
AcDbEntity
100
AcDbLine
8
rung
10
40
20
85
30
0
11
140
21
85
31
0
0
LINE
5
69
330
11
100
AcDbEntity
100
AcDbLine
8
rung
10
40
20
265
30
0
11
140
21
265
31
0
0
LINE
5
6A
330
11
100
AcDbEntity
100
AcDbLine
8
rung
10
140
20
85
30
0
11
240
21
85
31
0
0
LINE
5
6B
330
11
100
AcDbEntity
100
AcDbLine
8
rung
10
140
20
265
30
0
11
240
21
265
31
0
0
LINE
5
6C
330
11
100
AcDbEntity
100
AcDbLine
8
rung
10
300
20
85
30
0
11
400
21
85
31
0
0
LINE
5
6D
330
11
100
AcDbEntity
100
AcDbLine
8
rung
10
300
20
265
30
0
11
400
21
265
31
0
0
LINE
5
6E
330
11
100
AcDbEntity
100
AcDbLine
8
rung
10
400
20
85
30
0
11
500
21
85
31
0
0
LINE
5
6F
330
11
100
AcDbEntity
100
AcDbLine
8
rung
10
400
20
265
30
0
11
500
21
265
31
0
0
LINE
5
70
330
11
100
AcDbEntity
100
AcDbLine
8
rung
10
560
20
85
30
0
11
660
21
85
31
0
0
LINE
5
71
330
11
100
AcDbEntity
100
AcDbLine
8
rung
10
560
20
265
30
0
11
660
21
265
31
0
0
LINE
5
72
330
11
100
AcDbEntity
100
AcDbLine
8
rung
10
660
20
85
30
0
11
760
21
85
31
0
0
LINE
5
73
330
11
100
AcDbEntity
100
AcDbLine
8
rung
10
660
20
265
30
0
11
760
21
265
31
0
0
LINE
5
74
330
11
100
AcDbEntity
100
AcDbLine
8
rung
10
820
20
85
30
0
11
920
21
85
31
0
0
LINE
5
75
330
11
100
AcDbEntity
100
AcDbLine
8
rung
10
820
20
265
30
0
11
920
21
265
31
0
0
LINE
5
76
330
11
100
AcDbEntity
100
AcDbLine
8
rung
10
920
20
85
30
0
11
1020
21
85
31
0
0
LINE
5
77
330
11
100
AcDbEntity
100
AcDbLine
8
rung
10
920
20
265
30
0
11
1020
21
265
31
0
0
ENDSEC
0
SECTION
2
OBJECTS
0
DICTIONARY
5
1
330
0
100
AcDbDictionary
281
1
3
ACAD_GROUP
350
15
0
DICTIONARY
5
15
330
1
100
AcDbDictionary
281
1
0
ENDSEC
0
EOF