0
SECTION
2
HEADER
9
$HANDSEED
5
3CF
9
$INSUNITS
70
6
9
$ACADVER
1
AC1021
0
ENDSEC
0
SECTION
2
CLASSES
0
ENDSEC
0
SECTION
2
TABLES
0
TABLE
2
LTYPE
5
3CD
330
0
100
AcDbSymbolTable
70
5
0
LTYPE
5
2
330
3CD
100
AcDbSymbolTableRecord
100
AcDbLinetypeTableRecord
2
CONTINUOUS
3
______
70
0
72
65
73
0
40
0
0
LTYPE
5
3
330
3CD
100
AcDbSymbolTableRecord
100
AcDbLinetypeTableRecord
2
DASHED
3
_ _ _ 
70
0
72
65
73
2
40
10
49
5
74
0
49
-5
74
0
0
LTYPE
5
4
330
3CD
100
AcDbSymbolTableRecord
100
AcDbLinetypeTableRecord
2
DOTTED
3
. . . 
70
0
72
65
73
2
40
5
49
0
74
0
49
-5
74
0
0
LTYPE
5
6
330
3CD
100
AcDbSymbolTableRecord
100
AcDbLinetypeTableRecord
2
ByBlock
3

70
0
72
65
73
0
40
0
0
LTYPE
5
7
330
3CD
100
AcDbSymbolTableRecord
100
AcDbLinetypeTableRecord
2
ByLayer
3

70
0
72
65
73
0
40
0
0
ENDTAB
0
TABLE
2
LAYER
5
3CE
330
0
100
AcDbSymbolTable
70
8
0
LAYER
5
5
330
3CE
100
AcDbSymbolTableRecord
100
AcDbLayerTableRecord
2
0
62
7
70
0
6
CONTINUOUS
390
1
0
LAYER
5
16
330
3CE
100
AcDbSymbolTableRecord
100
AcDbLayerTableRecord
2
base_line
62
7
70
0
6
CONTINUOUS
390
1
0
LAYER
5
4D
330
3CE
100
AcDbSymbolTableRecord
100
AcDbLayerTableRecord
2
space_line
62
7
70
0
6
DASHED
390
1
0
LAYER
5
57
330
3CE
100
AcDbSymbolTableRecord
100
AcDbLayerTableRecord
2
rect_polygon
62
7
70
0
6
CONTINUOUS
390
1
0
LAYER
5
1D2
330
3CE
100
AcDbSymbolTableRecord
100
AcDbLayerTableRecord
2
stair
62
1
70
0
6
CONTINUOUS
390
1
0
LAYER
5
2B4
330
3CE
100
AcDbSymbolTableRecord
100
AcDbLayerTableRecord
2
anchor_point
62
6
70
0
6
CONTINUOUS
390
1
0
LAYER
5
2C4
330
3CE
100
AcDbSymbolTableRecord
100
AcDbLayerTableRecord
2
diagonal_braces
62
5
70
0
6
CONTINUOUS
390
1
0
LAYER
5
309
330
3CE
100
AcDbSymbolTableRecord
100
AcDbLayerTableRecord
2
rung
62
7
70
0
6
CONTINUOUS
390
1
0
ENDTAB
0
TABLE
2
VPORT
5
8
330
0
100
AcDbSymbolTable
70
1
0
VPORT
5
E
330
8
100
AcDbSymbolTableRecord
100
AcDbViewportTableRecord
2
*ACTIVE
40
1000
70
0
0
ENDTAB
0
TABLE
2
STYLE
5
9
330
0
100
AcDbSymbolTable
70
1
0
STYLE
5
F
330
9
100
AcDbSymbolTableRecord
100
AcDbTextStyleTableRecord
2
standard
70
0
40
0
41
1
50
0
71
0
42
1
3
txt
4

0
ENDTAB
0
TABLE
2
VIEW
5
A
330
0
100
AcDbSymbolTable
70
0
0
ENDTAB
0
TABLE
2
UCS
5
B
330
0
100
AcDbSymbolTable
70
0
0
ENDTAB
0
TABLE
2
APPID
5
C
330
0
100
AcDbSymbolTable
70
1
0
APPID
5
10
330
C
100
AcDbSymbolTableRecord
100
AcDbRegAppTableRecord
2
ACAD
70
0
0
ENDTAB
0
TABLE
2
DIMSTYLE
5
D
330
0
100
AcDbSymbolTable
100
AcDbDimStyleTable
70
0
71
1
0
ENDTAB
0
TABLE
2
BLOCK_RECORD
5
3CA
330
0
100
AcDbSymbolTable
70
2
0
BLOCK_RECORD
5
3CB
330
3CA
100
AcDbSymbolTableRecord
100
AcDbBlockTableRecord
2
*Model_Space
70
0
280
0
281
1
0
BLOCK_RECORD
5
3CC
330
3CA
100
AcDbSymbolTableRecord
100
AcDbBlockTableRecord
2
*Paper_Space
70
0
280
0
281
1
0
ENDTAB
0
ENDSEC
0
SECTION
2
BLOCKS
0
BLOCK
5
11
330
0
100
AcDbEntity
100
AcDbBlockBegin
2
*Model_Space
70
0
10
0
20
0
30
0
3
*Model_Space
1

0
ENDBLK
5
12
330
0
100
AcDbEntity
100
AcDbBlockEnd
0
BLOCK
5
13
330
0
100
AcDbEntity
100
AcDbBlockBegin
2
*Paper_Space
70
0
10
0
20
0
30
0
3
*Paper_Space
1

0
ENDBLK
5
14
330
0
100
AcDbEntity
100
AcDbBlockEnd
0
ENDSEC
0
SECTION
2
ENTITIES
0
LINE
5
17
330
11
100
AcDbEntity
100
AcDbLine
8
base_line
10
-300
20
40
30
0
11
640
21
40
31
0
0
LINE
5
18
330
11
100
AcDbEntity
100
AcDbLine
8
base_line
10
1040
20
40
30
0
11
1268.6
21
40
31
0
0
LINE
5
19
330
11
100
AcDbEntity
100
AcDbLine
8
base_line
10
1668.6
20
40
30
0
11
2268.6
21
40
31
0
0
LINE
5
1A
330
11
100
AcDbEntity
100
AcDbLine
8
base_line
10
2668.6
20
40
30
0
11
3017.2
21
40
31
0
0
LWPOLYLINE
5
1B
330
11
100
AcDbEntity
100
AcDbPolyline
8
base_line
6
ByLayer
62
256
370
-1
90
2
70
0
10
2957.2
20
55
40
4
41
0.05
10
2957.2
20
40
40
4
41
0.05
0
LWPOLYLINE
5
1C
330
11
100
AcDbEntity
100
AcDbPolyline
8
base_line
6
ByLayer
62
256
370
-1
90
2
70
0
10
2957.2
20
175
40
4
41
0.05
10
2957.2
20
190
40
4
41
0.05
0
LINE
5
1D
330
11
100
AcDbEntity
100
AcDbLine
8
base_line
10
2957.2
20
55
30
0
11
2957.2
21
190
31
0
0
LINE
5
1E
330
11
100
AcDbEntity
100
AcDbLine
8
base_line
10
2897.2
20
190
30
0
11
2957.2
21
190
31
0
0
TEXT
5
1F
330
11
100
AcDbEntity
100
AcDbText
8
base_line
10
2947.2
20
115
30
0
40
10
1
150
50
90
72
1
11
2947.2
21
115
31
0
100
AcDbText
73
2
0
TEXT
5
20
330
11
100
AcDbEntity
100
AcDbText
8
base_line
10
-230
20
40
30
0
40
90
1
G
50
0
72
0
11
-230
21
40
31
0
100
AcDbText
73
1
0
LINE
5
21
330
11
100
AcDbEntity
100
AcDbLine
8
base_line
10
-145
20
70
30
0
11
-150
21
75
31
0
0
LINE
5
22
330
11
100
AcDbEntity
100
AcDbLine
8
base_line
10
-145
20
80
30
0
11
-150
21
75
31
0
0
LINE
5
23
330
11
100
AcDbEntity
100
AcDbLine
8
base_line
10
-140
20
75
30
0
11
-145
21
70
31
0
0
TEXT
5
24
330
11
100
AcDbEntity
100
AcDbText
8
base_line
10
-120
20
40
30
0
40
90
1
L
50
0
72
0
11
-120
21
40
31
0
100
AcDbText
73
1
0
LINE
5
25
330
11
100
AcDbEntity
100
AcDbLine
8
base_line
10
-35
20
70
30
0
11
-40
21
75
31
0
0
LINE
5
26
330
11
100
AcDbEntity
100
AcDbLine
8
base_line
10
-35
20
80
30
0
11
-40
21
75
31
0
0
LINE
5
27
330
11
100
AcDbEntity
100
AcDbLine
8
base_line
10
-30
20
75
30
0
11
-35
21
70
31
0
0
TEXT
5
28
330
11
100
AcDbEntity
100
AcDbText
8
base_line
10
1468.6
20
10
30
0
40
15
1
2857.2
50
0
72
1
11
1468.6
21
10
31
0
100
AcDbText
73
2
0
LINE
5
29
330
11
100
AcDbEntity
100
AcDbLine
8
base_line
10
1040
20
870
30
0
11
1268.6
21
870
31
0
0
TEXT
5
2A
330
11
100
AcDbEntity
100
AcDbText
8
base_line
10
1154.3
20
860
30
0
40
10
1
228.6
50
0
72
1
11
1154.3
21
860
31
0
100
AcDbText
73
2
0
LINE
5
2B
330
11
100
AcDbEntity
100
AcDbLine
8
base_line
10
1020
20
890
30
0
11
1020
21
1490
31
0
0
TEXT
5
2C
330
11
100
AcDbEntity
100
AcDbText
8
base_line
10
1010
20
1190
30
0
40
10
1
600
50
90
72
1
11
1010
21
1190
31
0
100
AcDbText
73
2
0
LINE
5
2D
330
11
100
AcDbEntity
100
AcDbLine
8
base_line
10
-100
20
-15
30
0
11
-85
21
-30
31
0
0
LINE
5
2E
330
11
100
AcDbEntity
100
AcDbLine
8
base_line
10
-55
20
-30
30
0
11
-45
21
-10
31
0
0
LINE
5
2F
330
11
100
AcDbEntity
100
AcDbLine
8
base_line
10
-80
20
-33
30
0
11
-80
21
-10
31
0
0
LINE
5
30
330
11
100
AcDbEntity
100
AcDbLine
8
base_line
10
-63
20
-35
30
0
11
-63
21
-10
31
0
0
LINE
5
31
330
11
100
AcDbEntity
100
AcDbLine
8
base_line
10
-100
20
-35
30
0
11
-45
21
-35
31
0
0
LINE
5
32
330
11
100
AcDbEntity
100
AcDbLine
8
base_line
10
-83
20
-35
30
0
11
-76
21
-48
31
0
0
LINE
5
33
330
11
100
AcDbEntity
100
AcDbLine
8
base_line
10
-68
20
-47
30
0
11
-55
21
-35
31
0
0
LINE
5
34
330
11
100
AcDbEntity
100
AcDbLine
8
base_line
10
-93
20
-50
30
0
11
-53
21
-50
31
0
0
LINE
5
35
330
11
100
AcDbEntity
100
AcDbLine
8
base_line
10
-90
20
-70
30
0
11
-55
21
-70
31
0
0
LINE
5
36
330
11
100
AcDbEntity
100
AcDbLine
8
base_line
10
-72.5
20
-50
30
0
11
-72.5
21
-90
31
0
0
LINE
5
37
330
11
100
AcDbEntity
100
AcDbLine
8
base_line
10
-95
20
-95
30
0
11
-50
21
-85
31
0
0
LINE
5
38
330
11
100
AcDbEntity
100
AcDbLine
8
base_line
10
-38
20
-40
30
0
11
-5
21
-40
31
0
0
LINE
5
39
330
11
100
AcDbEntity
100
AcDbLine
8
base_line
10
-20
20
-95
30
0
11
-20
21
-5
31
0
0
LINE
5
3A
330
11
100
AcDbEntity
100
AcDbLine
8
base_line
10
-30
20
-90
30
0
11
-20
21
-95
31
0
0
LINE
5
3B
330
11
100
AcDbEntity
100
AcDbLine
8
base_line
10
-40
20
-45
30
0
11
-33
21
-60
31
0
0
LINE
5
3C
330
11
100
AcDbEntity
100
AcDbLine
8
base_line
10
5
20
-10
30
0
11
95
21
-10
31
0
0
LINE
5
3D
330
11
100
AcDbEntity
100
AcDbLine
8
base_line
10
50
20
-10
30
0
11
50
21
-5
31
0
0
LINE
5
3E
330
11
100
AcDbEntity
100
AcDbLine
8
base_line
10
7
20
-20
30
0
11
33
21
-20
31
0
0
LINE
5
3F
330
11
100
AcDbEntity
100
AcDbLine
8
base_line
10
70
20
-90
30
0
11
80
21
-95
31
0
0
LINE
5
40
330
11
100
AcDbEntity
100
AcDbLine
8
base_line
10
70
20
-90
30
0
11
80
21
-95
31
0
0
LINE
5
41
330
11
100
AcDbEntity
100
AcDbLine
8
base_line
10
70
20
-90
30
0
11
80
21
-95
31
0
0
LINE
5
42
330
11
100
AcDbEntity
100
AcDbLine
8
base_line
10
45
20
-10
30
0
11
50
21
-22
31
0
0
LINE
5
43
330
11
100
AcDbEntity
100
AcDbLine
8
base_line
10
55
20
-10
30
0
11
50
21
-22
31
0
0
LINE
5
44
330
11
100
AcDbEntity
100
AcDbLine
8
base_line
10
50
20
-53
30
0
11
50
21
-22
31
0
0
LINE
5
45
330
11
100
AcDbEntity
100
AcDbLine
8
base_line
10
70
20
-90
30
0
11
80
21
-95
31
0
0
LINE
5
46
330
11
100
AcDbEntity
100
AcDbLine
8
base_line
10
60
20
-18
30
0
11
60
21
-53
31
0
0
LINE
5
47
330
11
100
AcDbEntity
100
AcDbLine
8
base_line
10
72
20
-46
30
0
11
60
21
-53
31
0
0
LINE
5
48
330
11
100
AcDbEntity
100
AcDbLine
8
base_line
10
70
20
-90
30
0
11
80
21
-95
31
0
0
LINE
5
49
330
11
100
AcDbEntity
100
AcDbLine
8
base_line
10
70
20
-90
30
0
11
80
21
-95
31
0
0
LINE
5
4A
330
11
100
AcDbEntity
100
AcDbLine
8
base_line
10
23
20
-62
30
0
11
75
21
-62
31
0
0
LINE
5
4B
330
11
100
AcDbEntity
100
AcDbLine
8
base_line
10
23
20
-73
30
0
11
75
21
-73
31
0
0
LINE
5
4C
330
11
100
AcDbEntity
100
AcDbLine
8
base_line
10
75
20
-95
30
0
11
75
21
-50
31
0
0
LINE
5
4E
330
11
100
AcDbEntity
100
AcDbLine
8
space_line
10
640
20
40
30
0
11
1040
21
40
31
0
0
LINE
5
4F
330
11
100
AcDbEntity
100
AcDbLine
8
space_line
10
1268.6
20
40
30
0
11
1668.6
21
40
31
0
0
LINE
5
50
330
11
100
AcDbEntity
100
AcDbLine
8
space_line
10
2268.6
20
40
30
0
11
2668.6
21
40
31
0
0
LINE
5
51
330
11
100
AcDbEntity
100
AcDbLine
8
space_line
10
640
20
490
30
0
11
2668.6
21
490
31
0
0
LINE
5
52
330
11
100
AcDbEntity
100
AcDbLine
8
space_line
10
1040
20
890
30
0
11
1040
21
40
31
0
0
LINE
5
53
330
11
100
AcDbEntity
100
AcDbLine
8
space_line
10
1268.6
20
890
30
0
11
1268.6
21
40
31
0
0
LWPOLYLINE
5
54
330
11
100
AcDbEntity
100
AcDbPolyline
8
space_line
6
ByLayer
62
256
370
-1
90
3
70
1
10
7.071067811865475
20
7.0710678118654755
10
2.58819045102521
20
-9.659258262890681
10
-9.659258262890685
20
2.588190451025203
0
LWPOLYLINE
5
55
330
11
100
AcDbEntity
100
AcDbPolyline
8
space_line
6
ByLayer
62
256
370
-1
90
5
70
1
10
30
20
12.360679774997896
10
41.75570504584946
20
3.8196601125010514
10
37.26542528005361
20
-9.999999999999998
10
22.734574719946394
20
-10
10
18.244294954150536
20
3.8196601125010488
0
LWPOLYLINE
5
56
330
11
100
AcDbEntity
100
AcDbPolyline
8
space_line
6
ByLayer
62
256
370
-1
90
2
70
0
10
10
20
10
40
3
41
0.05
10
10
20
0
40
3
41
0.05
0
LWPOLYLINE
5
58
330
11
100
AcDbEntity
100
AcDbPolyline
8
rect_polygon
6
ByLayer
62
256
370
-1
90
4
70
1
10
1040
20
890
10
1040
20
1040
10
1116.2
20
1040
10
1116.2
20
890
0
LWPOLYLINE
5
59
330
11
100
AcDbEntity
100
AcDbPolyline
8
rect_polygon
6
ByLayer
62
256
370
-1
90
4
70
1
10
1042
20
892
10
1042
20
1038
10
1114.2
20
1038
10
1114.2
20
892
0
LWPOLYLINE
5
5A
330
11
100
AcDbEntity
100
AcDbPolyline
8
rect_polygon
6
ByLayer
62
256
370
-1
90
4
70
1
10
1040
20
1040
10
1040
20
1190
10
1116.2
20
1190
10
1116.2
20
1040
0
LWPOLYLINE
5
5B
330
11
100
AcDbEntity
100
AcDbPolyline
8
rect_polygon
6
ByLayer
62
256
370
-1
90
4
70
1
10
1042
20
1042
10
1042
20
1188
10
1114.2
20
1188
10
1114.2
20
1042
0
LWPOLYLINE
5
5C
330
11
100
AcDbEntity
100
AcDbPolyline
8
rect_polygon
6
ByLayer
62
256
370
-1
90
4
70
1
10
1040
20
1190
10
1040
20
1340
10
1116.2
20
1340
10
1116.2
20
1190
0
LWPOLYLINE
5
5D
330
11
100
AcDbEntity
100
AcDbPolyline
8
rect_polygon
6
ByLayer
62
256
370
-1
90
4
70
1
10
1042
20
1192
10
1042
20
1338
10
1114.2
20
1338
10
1114.2
20
1192
0
LWPOLYLINE
5
5E
330
11
100
AcDbEntity
100
AcDbPolyline
8
rect_polygon
6
ByLayer
62
256
370
-1
90
4
70
1
10
1040
20
1340
10
1040
20
1490
10
1116.2
20
1490
10
1116.2
20
1340
0
LWPOLYLINE
5
5F
330
11
100
AcDbEntity
100
AcDbPolyline
8
rect_polygon
6
ByLayer
62
256
370
-1
90
4
70
1
10
1042
20
1342
10
1042
20
1488
10
1114.2
20
1488
10
1114.2
20
1342
0
LWPOLYLINE
5
60
330
11
100
AcDbEntity
100
AcDbPolyline
8
rect_polygon
6
ByLayer
62
256
370
-1
90
4
70
1
10
1116.2
20
890
10
1116.2
20
1040
10
1192.4
20
1040
10
1192.4
20
890
0
LWPOLYLINE
5
61
330
11
100
AcDbEntity
100
AcDbPolyline
8
rect_polygon
6
ByLayer
62
256
370
-1
90
4
70
1
10
1118.2
20
892
10
1118.2
20
1038
10
1190.4
20
1038
10
1190.4
20
892
0
LWPOLYLINE
5
62
330
11
100
AcDbEntity
100
AcDbPolyline
8
rect_polygon
6
ByLayer
62
256
370
-1
90
4
70
1
10
1116.2
20
1040
10
1116.2
20
1190
10
1192.4
20
1190
10
1192.4
20
1040
0
LWPOLYLINE
5
63
330
11
100
AcDbEntity
100
AcDbPolyline
8
rect_polygon
6
ByLayer
62
256
370
-1
90
4
70
1
10
1118.2
20
1042
10
1118.2
20
1188
10
1190.4
20
1188
10
1190.4
20
1042
0
LWPOLYLINE
5
64
330
11
100
AcDbEntity
100
AcDbPolyline
8
rect_polygon
6
ByLayer
62
256
370
-1
90
4
70
1
10
1116.2
20
1040
10
1116.2
20
1190
10
1192.4
20
1190
10
1192.4
20
1040
0
LWPOLYLINE
5
65
330
11
100
AcDbEntity
100
AcDbPolyline
8
rect_polygon
6
ByLayer
62
256
370
-1
90
4
70
1
10
1118.2
20
1042
10
1118.2
20
1188
10
1190.4
20
1188
10
1190.4
20
1042
0
LWPOLYLINE
5
66
330
11
100
AcDbEntity
100
AcDbPolyline
8
rect_polygon
6
ByLayer
62
256
370
-1
90
4
70
1
10
1116.2
20
1040
10
1116.2
20
1190
10
1192.4
20
1190
10
1192.4
20
1040
0
LWPOLYLINE
5
67
330
11
100
AcDbEntity
100
AcDbPolyline
8
rect_polygon
6
ByLayer
62
256
370
-1
90
4
70
1
10
1118.2
20
1042
10
1118.2
20
1188
10
1190.4
20
1188
10
1190.4
20
1042
0
LWPOLYLINE
5
68
330
11
100
AcDbEntity
100
AcDbPolyline
8
rect_polygon
6
ByLayer
62
256
370
-1
90
4
70
1
10
1116.2
20
1190
10
1116.2
20
1340
10
1192.4
20
1340
10
1192.4
20
1190
0
LWPOLYLINE
5
69
330
11
100
AcDbEntity
100
AcDbPolyline
8
rect_polygon
6
ByLayer
62
256
370
-1
90
4
70
1
10
1118.2
20
1192
10
1118.2
20
1338
10
1190.4
20
1338
10
1190.4
20
1192
0
LWPOLYLINE
5
6A
330
11
100
AcDbEntity
100
AcDbPolyline
8
rect_polygon
6
ByLayer
62
256
370
-1
90
4
70
1
10
1116.2
20
1190
10
1116.2
20
1340
10
1192.4
20
1340
10
1192.4
20
1190
0
LWPOLYLINE
5
6B
330
11
100
AcDbEntity
100
AcDbPolyline
8
rect_polygon
6
ByLayer
62
256
370
-1
90
4
70
1
10
1118.2
20
1192
10
1118.2
20
1338
10
1190.4
20
1338
10
1190.4
20
1192
0
LWPOLYLINE
5
6C
330
11
100
AcDbEntity
100
AcDbPolyline
8
rect_polygon
6
ByLayer
62
256
370
-1
90
4
70
1
10
1116.2
20
1190
10
1116.2
20
1340
10
1192.4
20
1340
10
1192.4
20
1190
0
LWPOLYLINE
5
6D
330
11
100
AcDbEntity
100
AcDbPolyline
8
rect_polygon
6
ByLayer
62
256
370
-1
90
4
70
1
10
1118.2
20
1192
10
1118.2
20
1338
10
1190.4
20
1338
10
1190.4
20
1192
0
LWPOLYLINE
5
6E
330
11
100
AcDbEntity
100
AcDbPolyline
8
rect_polygon
6
ByLayer
62
256
370
-1
90
4
70
1
10
1116.2
20
1340
10
1116.2
20
1490
10
1192.4
20
1490
10
1192.4
20
1340
0
LWPOLYLINE
5
6F
330
11
100
AcDbEntity
100
AcDbPolyline
8
rect_polygon
6
ByLayer
62
256
370
-1
90
4
70
1
10
1118.2
20
1342
10
1118.2
20
1488
10
1190.4
20
1488
10
1190.4
20
1342
0
LWPOLYLINE
5
70
330
11
100
AcDbEntity
100
AcDbPolyline
8
rect_polygon
6
ByLayer
62
256
370
-1
90
4
70
1
10
1116.2
20
1340
10
1116.2
20
1490
10
1192.4
20
1490
10
1192.4
20
1340
0
LWPOLYLINE
5
71
330
11
100
AcDbEntity
100
AcDbPolyline
8
rect_polygon
6
ByLayer
62
256
370
-1
90
4
70
1
10
1118.2
20
1342
10
1118.2
20
1488
10
1190.4
20
1488
10
1190.4
20
1342
0
LWPOLYLINE
5
72
330
11
100
AcDbEntity
100
AcDbPolyline
8
rect_polygon
6
ByLayer
62
256
370
-1
90
4
70
1
10
1116.2
20
1340
10
1116.2
20
1490
10
1192.4
20
1490
10
1192.4
20
1340
0
LWPOLYLINE
5
73
330
11
100
AcDbEntity
100
AcDbPolyline
8
rect_polygon
6
ByLayer
62
256
370
-1
90
4
70
1
10
1118.2
20
1342
10
1118.2
20
1488
10
1190.4
20
1488
10
1190.4
20
1342
0
LWPOLYLINE
5
74
330
11
100
AcDbEntity
100
AcDbPolyline
8
rect_polygon
6
ByLayer
62
256
370
-1
90
4
70
1
10
1192.4
20
890
10
1192.4
20
1040
10
1268.6000000000001
20
1040
10
1268.6000000000001
20
890
0
LWPOLYLINE
5
75
330
11
100
AcDbEntity
100
AcDbPolyline
8
rect_polygon
6
ByLayer
62
256
370
-1
90
4
70
1
10
1194.4
20
892
10
1194.4
20
1038
10
1266.6000000000001
20
1038
10
1266.6000000000001
20
892
0
LWPOLYLINE
5
76
330
11
100
AcDbEntity
100
AcDbPolyline
8
rect_polygon
6
ByLayer
62
256
370
-1
90
4
70
1
10
1192.4
20
1040
10
1192.4
20
1190
10
1268.6000000000001
20
1190
10
1268.6000000000001
20
1040
0
LWPOLYLINE
5
77
330
11
100
AcDbEntity
100
AcDbPolyline
8
rect_polygon
6
ByLayer
62
256
370
-1
90
4
70
1
10
1194.4
20
1042
10
1194.4
20
1188
10
1266.6000000000001
20
1188
10
1266.6000000000001
20
1042
0
LWPOLYLINE
5
78
330
11
100
AcDbEntity
100
AcDbPolyline
8
rect_polygon
6
ByLayer
62
256
370
-1
90
4
70
1
10
1192.4
20
1040
10
1192.4
20
1190
10
1268.6000000000001
20
1190
10
1268.6000000000001
20
1040
0
LWPOLYLINE
5
79
330
11
100
AcDbEntity
100
AcDbPolyline
8
rect_polygon
6
ByLayer
62
256
370
-1
90
4
70
1
10
1194.4
20
1042
10
1194.4
20
1188
10
1266.6000000000001
20
1188
10
1266.6000000000001
20
1042
0
LWPOLYLINE
5
7A
330
11
100
AcDbEntity
100
AcDbPolyline
8
rect_polygon
6
ByLayer
62
256
370
-1
90
4
70
1
10
1192.4
20
1040
10
1192.4
20
1190
10
1268.6000000000001
20
1190
10
1268.6000000000001
20
1040
0
LWPOLYLINE
5
7B
330
11
100
AcDbEntity
100
AcDbPolyline
8
rect_polygon
6
ByLayer
62
256
370
-1
90
4
70
1
10
1194.4
20
1042
10
1194.4
20
1188
10
1266.6000000000001
20
1188
10
1266.6000000000001
20
1042
0
LWPOLYLINE
5
7C
330
11
100
AcDbEntity
100
AcDbPolyline
8
rect_polygon
6
ByLayer
62
256
370
-1
90
4
70
1
10
1192.4
20
1190
10
1192.4
20
1340
10
1268.6000000000001
20
1340
10
1268.6000000000001
20
1190
0
LWPOLYLINE
5
7D
330
11
100
AcDbEntity
100
AcDbPolyline
8
rect_polygon
6
ByLayer
62
256
370
-1
90
4
70
1
10
1194.4
20
1192
10
1194.4
20
1338
10
1266.6000000000001
20
1338
10
1266.6000000000001
20
1192
0
LWPOLYLINE
5
7E
330
11
100
AcDbEntity
100
AcDbPolyline
8
rect_polygon
6
ByLayer
62
256
370
-1
90
4
70
1
10
1192.4
20
1190
10
1192.4
20
1340
10
1268.6000000000001
20
1340
10
1268.6000000000001
20
1190
0
LWPOLYLINE
5
7F
330
11
100
AcDbEntity
100
AcDbPolyline
8
rect_polygon
6
ByLayer
62
256
370
-1
90
4
70
1
10
1194.4
20
1192
10
1194.4
20
1338
10
1266.6000000000001
20
1338
10
1266.6000000000001
20
1192
0
LWPOLYLINE
5
80
330
11
100
AcDbEntity
100
AcDbPolyline
8
rect_polygon
6
ByLayer
62
256
370
-1
90
4
70
1
10
1192.4
20
1190
10
1192.4
20
1340
10
1268.6000000000001
20
1340
10
1268.6000000000001
20
1190
0
LWPOLYLINE
5
81
330
11
100
AcDbEntity
100
AcDbPolyline
8
rect_polygon
6
ByLayer
62
256
370
-1
90
4
70
1
10
1194.4
20
1192
10
1194.4
20
1338
10
1266.6000000000001
20
1338
10
1266.6000000000001
20
1192
0
LWPOLYLINE
5
82
330
11
100
AcDbEntity
100
AcDbPolyline
8
rect_polygon
6
ByLayer
62
256
370
-1
90
4
70
1
10
1192.4
20
1340
10
1192.4
20
1490
10
1268.6000000000001
20
1490
10
1268.6000000000001
20
1340
0
LWPOLYLINE
5
83
330
11
100
AcDbEntity
100
AcDbPolyline
8
rect_polygon
6
ByLayer
62
256
370
-1
90
4
70
1
10
1194.4
20
1342
10
1194.4
20
1488
10
1266.6000000000001
20
1488
10
1266.6000000000001
20
1342
0
LWPOLYLINE
5
84
330
11
100
AcDbEntity
100
AcDbPolyline
8
rect_polygon
6
ByLayer
62
256
370
-1
90
4
70
1
10
1192.4
20
1340
10
1192.4
20
1490
10
1268.6000000000001
20
1490
10
1268.6000000000001
20
1340
0
LWPOLYLINE
5
85
330
11
100
AcDbEntity
100
AcDbPolyline
8
rect_polygon
6
ByLayer
62
256
370
-1
90
4
70
1
10
1194.4
20
1342
10
1194.4
20
1488
10
1266.6000000000001
20
1488
10
1266.6000000000001
20
1342
0
LWPOLYLINE
5
86
330
11
100
AcDbEntity
100
AcDbPolyline
8
rect_polygon
6
ByLayer
62
256
370
-1
90
4
70
1
10
1192.4
20
1340
10
1192.4
20
1490
10
1268.6000000000001
20
1490
10
1268.6000000000001
20
1340
0
LWPOLYLINE
5
87
330
11
100
AcDbEntity
100
AcDbPolyline
8
rect_polygon
6
ByLayer
62
256
370
-1
90
4
70
1
10
1194.4
20
1342
10
1194.4
20
1488
10
1266.6000000000001
20
1488
10
1266.6000000000001
20
1342
0
TEXT
5
88
330
11
100
AcDbEntity
100
AcDbText
8
rect_polygon
10
1078.1
20
965
30
0
40
25.400000000000002
1
3
50
0
72
1
11
1078.1
21
965
31
0
100
AcDbText
73
2
0
TEXT
5
89
330
11
100
AcDbEntity
100
AcDbText
8
rect_polygon
10
1078.1
20
1115
30
0
40
25.400000000000002
1
3
50
0
72
1
11
1078.1
21
1115
31
0
100
AcDbText
73
2
0
TEXT
5
8A
330
11
100
AcDbEntity
100
AcDbText
8
rect_polygon
10
1078.1
20
1265
30
0
40
25.400000000000002
1
3
50
0
72
1
11
1078.1
21
1265
31
0
100
AcDbText
73
2
0
TEXT
5
8B
330
11
100
AcDbEntity
100
AcDbText
8
rect_polygon
10
1078.1
20
1415
30
0
40
25.400000000000002
1
3
50
0
72
1
11
1078.1
21
1415
31
0
100
AcDbText
73
2
0
TEXT
5
8C
330
11
100
AcDbEntity
100
AcDbText
8
rect_polygon
10
1154.3
20
965
30
0
40
25.400000000000002
1
3
50
0
72
1
11
1154.3
21
965
31
0
100
AcDbText
73
2
0
TEXT
5
8D
330
11
100
AcDbEntity
100
AcDbText
8
rect_polygon
10
1154.3
20
1115
30
0
40
25.400000000000002
1
3
50
0
72
1
11
1154.3
21
1115
31
0
100
AcDbText
73
2
0
TEXT
5
8E
330
11
100
AcDbEntity
100
AcDbText
8
rect_polygon
10
1154.3
20
1115
30
0
40
25.400000000000002
1
3
50
0
72
1
11
1154.3
21
1115
31
0
100
AcDbText
73
2
0
TEXT
5
8F
330
11
100
AcDbEntity
100
AcDbText
8
rect_polygon
10
1154.3
20
1115
30
0
40
25.400000000000002
1
3
50
0
72
1
11
1154.3
21
1115
31
0
100
AcDbText
73
2
0
TEXT
5
90
330
11
100
AcDbEntity
100
AcDbText
8
rect_polygon
10
1154.3
20
1265
30
0
40
25.400000000000002
1
3
50
0
72
1
11
1154.3
21
1265
31
0
100
AcDbText
73
2
0
TEXT
5
91
330
11
100
AcDbEntity
100
AcDbText
8
rect_polygon
10
1154.3
20
1265
30
0
40
25.400000000000002
1
3
50
0
72
1
11
1154.3
21
1265
31
0
100
AcDbText
73
2
0
TEXT
5
92
330
11
100
AcDbEntity
100
AcDbText
8
rect_polygon
10
1154.3
20
1265
30
0
40
25.400000000000002
1
3
50
0
72
1
11
1154.3
21
1265
31
0
100
AcDbText
73
2
0
TEXT
5
93
330
11
100
AcDbEntity
100
AcDbText
8
rect_polygon
10
1154.3
20
1415
30
0
40
25.400000000000002
1
3
50
0
72
1
11
1154.3
21
1415
31
0
100
AcDbText
73
2
0
TEXT
5
94
330
11
100
AcDbEntity
100
AcDbText
8
rect_polygon
10
1154.3
20
1415
30
0
40
25.400000000000002
1
3
50
0
72
1
11
1154.3
21
1415
31
0
100
AcDbText
73
2
0
TEXT
5
95
330
11
100
AcDbEntity
100
AcDbText
8
rect_polygon
10
1154.3
20
1415
30
0
40
25.400000000000002
1
3
50
0
72
1
11
1154.3
21
1415
31
0
100
AcDbText
73
2
0
TEXT
5
96
330
11
100
AcDbEntity
100
AcDbText
8
rect_polygon
10
1230.5
20
965
30
0
40
25.400000000000002
1
3
50
0
72
1
11
1230.5
21
965
31
0
100
AcDbText
73
2
0
TEXT
5
97
330
11
100
AcDbEntity
100
AcDbText
8
rect_polygon
10
1230.5
20
1115
30
0
40
25.400000000000002
1
3
50
0
72
1
11
1230.5
21
1115
31
0
100
AcDbText
73
2
0
TEXT
5
98
330
11
100
AcDbEntity
100
AcDbText
8
rect_polygon
10
1230.5
20
1115
30
0
40
25.400000000000002
1
3
50
0
72
1
11
1230.5
21
1115
31
0
100
AcDbText
73
2
0
TEXT
5
99
330
11
100
AcDbEntity
100
AcDbText
8
rect_polygon
10
1230.5
20
1115
30
0
40
25.400000000000002
1
3
50
0
72
1
11
1230.5
21
1115
31
0
100
AcDbText
73
2
0
TEXT
5
9A
330
11
100
AcDbEntity
100
AcDbText
8
rect_polygon
10
1230.5
20
1265
30
0
40
25.400000000000002
1
3
50
0
72
1
11
1230.5
21
1265
31
0
100
AcDbText
73
2
0
TEXT
5
9B
330
11
100
AcDbEntity
100
AcDbText
8
rect_polygon
10
1230.5
20
1265
30
0
40
25.400000000000002
1
3
50
0
72
1
11
1230.5
21
1265
31
0
100
AcDbText
73
2
0
TEXT
5
9C
330
11
100
AcDbEntity
100
AcDbText
8
rect_polygon
10
1230.5
20
1265
30
0
40
25.400000000000002
1
3
50
0
72
1
11
1230.5
21
1265
31
0
100
AcDbText
73
2
0
TEXT
5
9D
330
11
100
AcDbEntity
100
AcDbText
8
rect_polygon
10
1230.5
20
1415
30
0
40
25.400000000000002
1
3
50
0
72
1
11
1230.5
21
1415
31
0
100
AcDbText
73
2
0
TEXT
5
9E
330
11
100
AcDbEntity
100
AcDbText
8
rect_polygon
10
1230.5
20
1415
30
0
40
25.400000000000002
1
3
50
0
72
1
11
1230.5
21
1415
31
0
100
AcDbText
73
2
0
TEXT
5
9F
330
11
100
AcDbEntity
100
AcDbText
8
rect_polygon
10
1230.5
20
1415
30
0
40
25.400000000000002
1
3
50
0
72
1
11
1230.5
21
1415
31
0
100
AcDbText
73
2
0
LINE
5
A0
330
11
100
AcDbEntity
100
AcDbLine
8
rect_polygon
10
490
20
40
30
0
11
640
21
340
31
0
0
LINE
5
A1
330
11
100
AcDbEntity
100
AcDbLine
8
rect_polygon
10
500
20
40
30
0
11
490
21
50
31
0
0
LINE
5
A2
330
11
100
AcDbEntity
100
AcDbLine
8
rect_polygon
10
510
20
40
30
0
11
490
21
60
31
0
0
LINE
5
A3
330
11
100
AcDbEntity
100
AcDbLine
8
rect_polygon
10
530
20
40
30
0
11
490
21
80
31
0
0
LINE
5
A4
330
11
100
AcDbEntity
100
AcDbLine
8
rect_polygon
10
540
20
40
30
0
11
490
21
90
31
0
0
LINE
5
A5
330
11
100
AcDbEntity
100
AcDbLine
8
rect_polygon
10
560
20
40
30
0
11
490
21
110
31
0
0
LINE
5
A6
330
11
100
AcDbEntity
100
AcDbLine
8
rect_polygon
10
570
20
40
30
0
11
490
21
120
31
0
0
LINE
5
A7
330
11
100
AcDbEntity
100
AcDbLine
8
rect_polygon
10
590
20
40
30
0
11
490
21
140
31
0
0
LINE
5
A8
330
11
100
AcDbEntity
100
AcDbLine
8
rect_polygon
10
600
20
40
30
0
11
490
21
150
31
0
0
LINE
5
A9
330
11
100
AcDbEntity
100
AcDbLine
8
rect_polygon
10
620
20
40
30
0
11
490
21
170
31
0
0
LINE
5
AA
330
11
100
AcDbEntity
100
AcDbLine
8
rect_polygon
10
630
20
40
30
0
11
490
21
180
31
0
0
LINE
5
AB
330
11
100
AcDbEntity
100
AcDbLine
8
rect_polygon
10
640
20
50
30
0
11
490
21
200
31
0
0
LINE
5
AC
330
11
100
AcDbEntity
100
AcDbLine
8
rect_polygon
10
640
20
60
30
0
11
490
21
210
31
0
0
LINE
5
AD
330
11
100
AcDbEntity
100
AcDbLine
8
rect_polygon
10
640
20
80
30
0
11
490
21
230
31
0
0
LINE
5
AE
330
11
100
AcDbEntity
100
AcDbLine
8
rect_polygon
10
640
20
90
30
0
11
490
21
240
31
0
0
LINE
5
AF
330
11
100
AcDbEntity
100
AcDbLine
8
rect_polygon
10
640
20
110
30
0
11
490
21
260
31
0
0
LINE
5
B0
330
11
100
AcDbEntity
100
AcDbLine
8
rect_polygon
10
640
20
120
30
0
11
490
21
270
31
0
0
LINE
5
B1
330
11
100
AcDbEntity
100
AcDbLine
8
rect_polygon
10
640
20
140
30
0
11
490
21
290
31
0
0
LINE
5
B2
330
11
100
AcDbEntity
100
AcDbLine
8
rect_polygon
10
640
20
150
30
0
11
490
21
300
31
0
0
LINE
5
B3
330
11
100
AcDbEntity
100
AcDbLine
8
rect_polygon
10
640
20
170
30
0
11
490
21
320
31
0
0
LINE
5
B4
330
11
100
AcDbEntity
100
AcDbLine
8
rect_polygon
10
640
20
180
30
0
11
490
21
330
31
0
0
LINE
5
B5
330
11
100
AcDbEntity
100
AcDbLine
8
rect_polygon
10
640
20
200
30
0
11
50
21
340
31
0
0
LINE
5
B6
330
11
100
AcDbEntity
100
AcDbLine
8
rect_polygon
10
640
20
210
30
0
11
60
21
340
31
0
0
LINE
5
B7
330
11
100
AcDbEntity
100
AcDbLine
8
rect_polygon
10
640
20
230
30
0
11
80
21
340
31
0
0
LINE
5
B8
330
11
100
AcDbEntity
100
AcDbLine
8
rect_polygon
10
640
20
240
30
0
11
90
21
340
31
0
0
LINE
5
B9
330
11
100
AcDbEntity
100
AcDbLine
8
rect_polygon
10
640
20
260
30
0
11
110
21
340
31
0
0
LINE
5
BA
330
11
100
AcDbEntity
100
AcDbLine
8
rect_polygon
10
640
20
270
30
0
11
120
21
340
31
0
0
LINE
5
BB
330
11
100
AcDbEntity
100
AcDbLine
8
rect_polygon
10
640
20
290
30
0
11
140
21
340
31
0
0
LINE
5
BC
330
11
100
AcDbEntity
100
AcDbLine
8
rect_polygon
10
640
20
300
30
0
11
150
21
340
31
0
0
LINE
5
BD
330
11
100
AcDbEntity
100
AcDbLine
8
rect_polygon
10
640
20
320
30
0
11
170
21
340
31
0
0
LINE
5
BE
330
11
100
AcDbEntity
100
AcDbLine
8
rect_polygon
10
640
20
330
30
0
11
180
21
340
31
0
0
LWPOLYLINE
5
BF
330
11
100
AcDbEntity
100
AcDbPolyline
8
rect_polygon
6
ByLayer
62
256
370
-1
90
4
70
1
10
490
20
340
10
490
20
490
10
640
20
490
10
640
20
340
0
LWPOLYLINE
5
C0
330
11
100
AcDbEntity
100
AcDbPolyline
8
rect_polygon
6
ByLayer
62
256
370
-1
90
4
70
1
10
492
20
342
10
492
20
488
10
638
20
488
10
638
20
342
0
LWPOLYLINE
5
C1
330
11
100
AcDbEntity
100
AcDbPolyline
8
rect_polygon
6
ByLayer
62
256
370
-1
90
4
70
1
10
340
20
340
10
340
20
490
10
490
20
490
10
490
20
340
0
LWPOLYLINE
5
C2
330
11
100
AcDbEntity
100
AcDbPolyline
8
rect_polygon
6
ByLayer
62
256
370
-1
90
4
70
1
10
342
20
342
10
342
20
488
10
488
20
488
10
488
20
342
0
LWPOLYLINE
5
C3
330
11
100
AcDbEntity
100
AcDbPolyline
8
rect_polygon
6
ByLayer
62
256
370
-1
90
4
70
1
10
190
20
340
10
190
20
490
10
340
20
490
10
340
20
340
0
LWPOLYLINE
5
C4
330
11
100
AcDbEntity
100
AcDbPolyline
8
rect_polygon
6
ByLayer
62
256
370
-1
90
4
70
1
10
192
20
342
10
192
20
488
10
338
20
488
10
338
20
342
0
LWPOLYLINE
5
C5
330
11
100
AcDbEntity
100
AcDbPolyline
8
rect_polygon
6
ByLayer
62
256
370
-1
90
4
70
1
10
40
20
340
10
40
20
490
10
190
20
490
10
190
20
340
0
LWPOLYLINE
5
C6
330
11
100
AcDbEntity
100
AcDbPolyline
8
rect_polygon
6
ByLayer
62
256
370
-1
90
4
70
1
10
42
20
342
10
42
20
488
10
188
20
488
10
188
20
342
0
LWPOLYLINE
5
C7
330
11
100
AcDbEntity
100
AcDbPolyline
8
rect_polygon
6
ByLayer
62
256
370
-1
90
4
70
1
10
490
20
340
10
490
20
490
10
640
20
490
10
640
20
340
0
LWPOLYLINE
5
C8
330
11
100
AcDbEntity
100
AcDbPolyline
8
rect_polygon
6
ByLayer
62
256
370
-1
90
4
70
1
10
492
20
342
10
492
20
488
10
638
20
488
10
638
20
342
0
LWPOLYLINE
5
C9
330
11
100
AcDbEntity
100
AcDbPolyline
8
rect_polygon
6
ByLayer
62
256
370
-1
90
4
70
1
10
340
20
40
10
340
20
190
10
490
20
190
10
490
20
40
0
LWPOLYLINE
5
CA
330
11
100
AcDbEntity
100
AcDbPolyline
8
rect_polygon
6
ByLayer
62
256
370
-1
90
4
70
1
10
342
20
42
10
342
20
188
10
488
20
188
10
488
20
42
0
LWPOLYLINE
5
CB
330
11
100
AcDbEntity
100
AcDbPolyline
8
rect_polygon
6
ByLayer
62
256
370
-1
90
4
70
1
10
340
20
190
10
340
20
340
10
490
20
340
10
490
20
190
0
LWPOLYLINE
5
CC
330
11
100
AcDbEntity
100
AcDbPolyline
8
rect_polygon
6
ByLayer
62
256
370
-1
90
4
70
1
10
342
20
192
10
342
20
338
10
488
20
338
10
488
20
192
0
LWPOLYLINE
5
CD
330
11
100
AcDbEntity
100
AcDbPolyline
8
rect_polygon
6
ByLayer
62
256
370
-1
90
4
70
1
10
340
20
340
10
340
20
490
10
490
20
490
10
490
20
340
0
LWPOLYLINE
5
CE
330
11
100
AcDbEntity
100
AcDbPolyline
8
rect_polygon
6
ByLayer
62
256
370
-1
90
4
70
1
10
342
20
342
10
342
20
488
10
488
20
488
10
488
20
342
0
LWPOLYLINE
5
CF
330
11
100
AcDbEntity
100
AcDbPolyline
8
rect_polygon
6
ByLayer
62
256
370
-1
90
4
70
1
10
190
20
40
10
190
20
190
10
340
20
190
10
340
20
40
0
LWPOLYLINE
5
D0
330
11
100
AcDbEntity
100
AcDbPolyline
8
rect_polygon
6
ByLayer
62
256
370
-1
90
4
70
1
10
192
20
42
10
192
20
188
10
338
20
188
10
338
20
42
0
LWPOLYLINE
5
D1
330
11
100
AcDbEntity
100
AcDbPolyline
8
rect_polygon
6
ByLayer
62
256
370
-1
90
4
70
1
10
190
20
190
10
190
20
340
10
340
20
340
10
340
20
190
0
LWPOLYLINE
5
D2
330
11
100
AcDbEntity
100
AcDbPolyline
8
rect_polygon
6
ByLayer
62
256
370
-1
90
4
70
1
10
192
20
192
10
192
20
338
10
338
20
338
10
338
20
192
0
LWPOLYLINE
5
D3
330
11
100
AcDbEntity
100
AcDbPolyline
8
rect_polygon
6
ByLayer
62
256
370
-1
90
4
70
1
10
190
20
340
10
190
20
490
10
340
20
490
10
340
20
340
0
LWPOLYLINE
5
D4
330
11
100
AcDbEntity
100
AcDbPolyline
8
rect_polygon
6
ByLayer
62
256
370
-1
90
4
70
1
10
192
20
342
10
192
20
488
10
338
20
488
10
338
20
342
0
LWPOLYLINE
5
D5
330
11
100
AcDbEntity
100
AcDbPolyline
8
rect_polygon
6
ByLayer
62
256
370
-1
90
4
70
1
10
40
20
40
10
40
20
190
10
190
20
190
10
190
20
40
0
LWPOLYLINE
5
D6
330
11
100
AcDbEntity
100
AcDbPolyline
8
rect_polygon
6
ByLayer
62
256
370
-1
90
4
70
1
10
42
20
42
10
42
20
188
10
188
20
188
10
188
20
42
0
LWPOLYLINE
5
D7
330
11
100
AcDbEntity
100
AcDbPolyline
8
rect_polygon
6
ByLayer
62
256
370
-1
90
4
70
1
10
40
20
190
10
40
20
340
10
190
20
340
10
190
20
190
0
LWPOLYLINE
5
D8
330
11
100
AcDbEntity
100
AcDbPolyline
8
rect_polygon
6
ByLayer
62
256
370
-1
90
4
70
1
10
42
20
192
10
42
20
338
10
188
20
338
10
188
20
192
0
LWPOLYLINE
5
D9
330
11
100
AcDbEntity
100
AcDbPolyline
8
rect_polygon
6
ByLayer
62
256
370
-1
90
4
70
1
10
40
20
340
10
40
20
490
10
190
20
490
10
190
20
340
0
LWPOLYLINE
5
DA
330
11
100
AcDbEntity
100
AcDbPolyline
8
rect_polygon
6
ByLayer
62
256
370
-1
90
4
70
1
10
42
20
342
10
42
20
488
10
188
20
488
10
188
20
342
0
LWPOLYLINE
5
DB
330
11
100
AcDbEntity
100
AcDbPolyline
8
rect_polygon
6
ByLayer
62
256
370
-1
90
4
70
1
10
490
20
340
10
490
20
490
10
640
20
490
10
640
20
340
0
LWPOLYLINE
5
DC
330
11
100
AcDbEntity
100
AcDbPolyline
8
rect_polygon
6
ByLayer
62
256
370
-1
90
4
70
1
10
492
20
342
10
492
20
488
10
638
20
488
10
638
20
342
0
LWPOLYLINE
5
DD
330
11
100
AcDbEntity
100
AcDbPolyline
8
rect_polygon
6
ByLayer
62
256
370
-1
90
4
70
1
10
340
20
40
10
340
20
190
10
490
20
190
10
490
20
40
0
LWPOLYLINE
5
DE
330
11
100
AcDbEntity
100
AcDbPolyline
8
rect_polygon
6
ByLayer
62
256
370
-1
90
4
70
1
10
342
20
42
10
342
20
188
10
488
20
188
10
488
20
42
0
LWPOLYLINE
5
DF
330
11
100
AcDbEntity
100
AcDbPolyline
8
rect_polygon
6
ByLayer
62
256
370
-1
90
4
70
1
10
340
20
190
10
340
20
340
10
490
20
340
10
490
20
190
0
LWPOLYLINE
5
E0
330
11
100
AcDbEntity
100
AcDbPolyline
8
rect_polygon
6
ByLayer
62
256
370
-1
90
4
70
1
10
342
20
192
10
342
20
338
10
488
20
338
10
488
20
192
0
LWPOLYLINE
5
E1
330
11
100
AcDbEntity
100
AcDbPolyline
8
rect_polygon
6
ByLayer
62
256
370
-1
90
4
70
1
10
340
20
340
10
340
20
490
10
490
20
490
10
490
20
340
0
LWPOLYLINE
5
E2
330
11
100
AcDbEntity
100
AcDbPolyline
8
rect_polygon
6
ByLayer
62
256
370
-1
90
4
70
1
10
342
20
342
10
342
20
488
10
488
20
488
10
488
20
342
0
LWPOLYLINE
5
E3
330
11
100
AcDbEntity
100
AcDbPolyline
8
rect_polygon
6
ByLayer
62
256
370
-1
90
4
70
1
10
190
20
40
10
190
20
190
10
340
20
190
10
340
20
40
0
LWPOLYLINE
5
E4
330
11
100
AcDbEntity
100
AcDbPolyline
8
rect_polygon
6
ByLayer
62
256
370
-1
90
4
70
1
10
192
20
42
10
192
20
188
10
338
20
188
10
338
20
42
0
LWPOLYLINE
5
E5
330
11
100
AcDbEntity
100
AcDbPolyline
8
rect_polygon
6
ByLayer
62
256
370
-1
90
4
70
1
10
190
20
190
10
190
20
340
10
340
20
340
10
340
20
190
0
LWPOLYLINE
5
E6
330
11
100
AcDbEntity
100
AcDbPolyline
8
rect_polygon
6
ByLayer
62
256
370
-1
90
4
70
1
10
192
20
192
10
192
20
338
10
338
20
338
10
338
20
192
0
LWPOLYLINE
5
E7
330
11
100
AcDbEntity
100
AcDbPolyline
8
rect_polygon
6
ByLayer
62
256
370
-1
90
4
70
1
10
190
20
340
10
190
20
490
10
340
20
490
10
340
20
340
0
LWPOLYLINE
5
E8
330
11
100
AcDbEntity
100
AcDbPolyline
8
rect_polygon
6
ByLayer
62
256
370
-1
90
4
70
1
10
192
20
342
10
192
20
488
10
338
20
488
10
338
20
342
0
LWPOLYLINE
5
E9
330
11
100
AcDbEntity
100
AcDbPolyline
8
rect_polygon
6
ByLayer
62
256
370
-1
90
4
70
1
10
40
20
40
10
40
20
190
10
190
20
190
10
190
20
40
0
LWPOLYLINE
5
EA
330
11
100
AcDbEntity
100
AcDbPolyline
8
rect_polygon
6
ByLayer
62
256
370
-1
90
4
70
1
10
42
20
42
10
42
20
188
10
188
20
188
10
188
20
42
0
LWPOLYLINE
5
EB
330
11
100
AcDbEntity
100
AcDbPolyline
8
rect_polygon
6
ByLayer
62
256
370
-1
90
4
70
1
10
40
20
190
10
40
20
340
10
190
20
340
10
190
20
190
0
LWPOLYLINE
5
EC
330
11
100
AcDbEntity
100
AcDbPolyline
8
rect_polygon
6
ByLayer
62
256
370
-1
90
4
70
1
10
42
20
192
10
42
20
338
10
188
20
338
10
188
20
192
0
LWPOLYLINE
5
ED
330
11
100
AcDbEntity
100
AcDbPolyline
8
rect_polygon
6
ByLayer
62
256
370
-1
90
4
70
1
10
40
20
340
10
40
20
490
10
190
20
490
10
190
20
340
0
LWPOLYLINE
5
EE
330
11
100
AcDbEntity
100
AcDbPolyline
8
rect_polygon
6
ByLayer
62
256
370
-1
90
4
70
1
10
42
20
342
10
42
20
488
10
188
20
488
10
188
20
342
0
LINE
5
EF
330
11
100
AcDbEntity
100
AcDbLine
8
rect_polygon
10
1040
20
40
30
0
11
1116.2
21
340
31
0
0
LINE
5
F0
330
11
100
AcDbEntity
100
AcDbLine
8
rect_polygon
10
1050
20
40
30
0
11
1040
21
50
31
0
0
LINE
5
F1
330
11
100
AcDbEntity
100
AcDbLine
8
rect_polygon
10
1060
20
40
30
0
11
1040
21
60
31
0
0
LINE
5
F2
330
11
100
AcDbEntity
100
AcDbLine
8
rect_polygon
10
1080
20
40
30
0
11
1040
21
80
31
0
0
LINE
5
F3
330
11
100
AcDbEntity
100
AcDbLine
8
rect_polygon
10
1090
20
40
30
0
11
1040
21
90
31
0
0
LINE
5
F4
330
11
100
AcDbEntity
100
AcDbLine
8
rect_polygon
10
1110
20
40
30
0
11
1040
21
110
31
0
0
LINE
5
F5
330
11
100
AcDbEntity
100
AcDbLine
8
rect_polygon
10
1116.2
20
43.799999999999955
30
0
11
1040
21
120
31
0
0
LINE
5
F6
330
11
100
AcDbEntity
100
AcDbLine
8
rect_polygon
10
1116.2
20
63.799999999999955
30
0
11
1040
21
140
31
0
0
LINE
5
F7
330
11
100
AcDbEntity
100
AcDbLine
8
rect_polygon
10
1116.2
20
73.79999999999995
30
0
11
1040
21
150
31
0
0
LINE
5
F8
330
11
100
AcDbEntity
100
AcDbLine
8
rect_polygon
10
1116.2
20
93.79999999999995
30
0
11
1040
21
170
31
0
0
LINE
5
F9
330
11
100
AcDbEntity
100
AcDbLine
8
rect_polygon
10
1116.2
20
103.79999999999995
30
0
11
1040
21
180
31
0
0
LINE
5
FA
330
11
100
AcDbEntity
100
AcDbLine
8
rect_polygon
10
1116.2
20
123.79999999999995
30
0
11
1040
21
200
31
0
0
LINE
5
FB
330
11
100
AcDbEntity
100
AcDbLine
8
rect_polygon
10
1116.2
20
133.79999999999995
30
0
11
1040
21
210
31
0
0
LINE
5
FC
330
11
100
AcDbEntity
100
AcDbLine
8
rect_polygon
10
1116.2
20
153.79999999999995
30
0
11
1040
21
230
31
0
0
LINE
5
FD
330
11
100
AcDbEntity
100
AcDbLine
8
rect_polygon
10
1116.2
20
163.79999999999995
30
0
11
1040
21
240
31
0
0
LINE
5
FE
330
11
100
AcDbEntity
100
AcDbLine
8
rect_polygon
10
1116.2
20
183.79999999999995
30
0
11
1040
21
260
31
0
0
LINE
5
FF
330
11
100
AcDbEntity
100
AcDbLine
8
rect_polygon
10
1116.2
20
193.79999999999995
30
0
11
1040
21
270
31
0
0
LINE
5
100
330
11
100
AcDbEntity
100
AcDbLine
8
rect_polygon
10
1116.2
20
213.79999999999995
30
0
11
1040
21
290
31
0
0
LINE
5
101
330
11
100
AcDbEntity
100
AcDbLine
8
rect_polygon
10
1116.2
20
223.79999999999995
30
0
11
1040
21
300
31
0
0
LINE
5
102
330
11
100
AcDbEntity
100
AcDbLine
8
rect_polygon
10
1116.2
20
243.79999999999995
30
0
11
1040
21
320
31
0
0
LINE
5
103
330
11
100
AcDbEntity
100
AcDbLine
8
rect_polygon
10
1116.2
20
253.79999999999995
30
0
11
1040
21
330
31
0
0
LINE
5
104
330
11
100
AcDbEntity
100
AcDbLine
8
rect_polygon
10
1116.2
20
273.79999999999995
30
0
11
50
21
340
31
0
0
LINE
5
105
330
11
100
AcDbEntity
100
AcDbLine
8
rect_polygon
10
1116.2
20
283.79999999999995
30
0
11
60
21
340
31
0
0
LINE
5
106
330
11
100
AcDbEntity
100
AcDbLine
8
rect_polygon
10
1116.2
20
303.79999999999995
30
0
11
80
21
340
31
0
0
LINE
5
107
330
11
100
AcDbEntity
100
AcDbLine
8
rect_polygon
10
1116.2
20
313.79999999999995
30
0
11
90
21
340
31
0
0
LINE
5
108
330
11
100
AcDbEntity
100
AcDbLine
8
rect_polygon
10
1116.2
20
333.79999999999995
30
0
11
110
21
340
31
0
0
LWPOLYLINE
5
109
330
11
100
AcDbEntity
100
AcDbPolyline
8
rect_polygon
6
ByLayer
62
256
370
-1
90
4
70
1
10
1040
20
340
10
1040
20
490
10
1116.2
20
490
10
1116.2
20
340
0
LWPOLYLINE
5
10A
330
11
100
AcDbEntity
100
AcDbPolyline
8
rect_polygon
6
ByLayer
62
256
370
-1
90
4
70
1
10
1042
20
342
10
1042
20
488
10
1114.2
20
488
10
1114.2
20
342
0
LWPOLYLINE
5
10B
330
11
100
AcDbEntity
100
AcDbPolyline
8
rect_polygon
6
ByLayer
62
256
370
-1
90
4
70
1
10
1040
20
340
10
1040
20
490
10
1116.2
20
490
10
1116.2
20
340
0
LWPOLYLINE
5
10C
330
11
100
AcDbEntity
100
AcDbPolyline
8
rect_polygon
6
ByLayer
62
256
370
-1
90
4
70
1
10
1042
20
342
10
1042
20
488
10
1114.2
20
488
10
1114.2
20
342
0
LWPOLYLINE
5
10D
330
11
100
AcDbEntity
100
AcDbPolyline
8
rect_polygon
6
ByLayer
62
256
370
-1
90
4
70
1
10
1040
20
340
10
1040
20
490
10
1116.2
20
490
10
1116.2
20
340
0
LWPOLYLINE
5
10E
330
11
100
AcDbEntity
100
AcDbPolyline
8
rect_polygon
6
ByLayer
62
256
370
-1
90
4
70
1
10
1042
20
342
10
1042
20
488
10
1114.2
20
488
10
1114.2
20
342
0
LWPOLYLINE
5
10F
330
11
100
AcDbEntity
100
AcDbPolyline
8
rect_polygon
6
ByLayer
62
256
370
-1
90
4
70
1
10
1040
20
340
10
1040
20
490
10
1116.2
20
490
10
1116.2
20
340
0
LWPOLYLINE
5
110
330
11
100
AcDbEntity
100
AcDbPolyline
8
rect_polygon
6
ByLayer
62
256
370
-1
90
4
70
1
10
1042
20
342
10
1042
20
488
10
1114.2
20
488
10
1114.2
20
342
0
LWPOLYLINE
5
111
330
11
100
AcDbEntity
100
AcDbPolyline
8
rect_polygon
6
ByLayer
62
256
370
-1
90
4
70
1
10
1116.2
20
340
10
1116.2
20
490
10
1192.4
20
490
10
1192.4
20
340
0
LWPOLYLINE
5
112
330
11
100
AcDbEntity
100
AcDbPolyline
8
rect_polygon
6
ByLayer
62
256
370
-1
90
4
70
1
10
1118.2
20
342
10
1118.2
20
488
10
1190.4
20
488
10
1190.4
20
342
0
LWPOLYLINE
5
113
330
11
100
AcDbEntity
100
AcDbPolyline
8
rect_polygon
6
ByLayer
62
256
370
-1
90
4
70
1
10
1116.2
20
40
10
1116.2
20
190
10
1192.4
20
190
10
1192.4
20
40
0
LWPOLYLINE
5
114
330
11
100
AcDbEntity
100
AcDbPolyline
8
rect_polygon
6
ByLayer
62
256
370
-1
90
4
70
1
10
1118.2
20
42
10
1118.2
20
188
10
1190.4
20
188
10
1190.4
20
42
0
LWPOLYLINE
5
115
330
11
100
AcDbEntity
100
AcDbPolyline
8
rect_polygon
6
ByLayer
62
256
370
-1
90
4
70
1
10
1116.2
20
190
10
1116.2
20
340
10
1192.4
20
340
10
1192.4
20
190
0
LWPOLYLINE
5
116
330
11
100
AcDbEntity
100
AcDbPolyline
8
rect_polygon
6
ByLayer
62
256
370
-1
90
4
70
1
10
1118.2
20
192
10
1118.2
20
338
10
1190.4
20
338
10
1190.4
20
192
0
LWPOLYLINE
5
117
330
11
100
AcDbEntity
100
AcDbPolyline
8
rect_polygon
6
ByLayer
62
256
370
-1
90
4
70
1
10
1116.2
20
340
10
1116.2
20
490
10
1192.4
20
490
10
1192.4
20
340
0
LWPOLYLINE
5
118
330
11
100
AcDbEntity
100
AcDbPolyline
8
rect_polygon
6
ByLayer
62
256
370
-1
90
4
70
1
10
1118.2
20
342
10
1118.2
20
488
10
1190.4
20
488
10
1190.4
20
342
0
LWPOLYLINE
5
119
330
11
100
AcDbEntity
100
AcDbPolyline
8
rect_polygon
6
ByLayer
62
256
370
-1
90
4
70
1
10
1116.2
20
40
10
1116.2
20
190
10
1192.4
20
190
10
1192.4
20
40
0
LWPOLYLINE
5
11A
330
11
100
AcDbEntity
100
AcDbPolyline
8
rect_polygon
6
ByLayer
62
256
370
-1
90
4
70
1
10
1118.2
20
42
10
1118.2
20
188
10
1190.4
20
188
10
1190.4
20
42
0
LWPOLYLINE
5
11B
330
11
100
AcDbEntity
100
AcDbPolyline
8
rect_polygon
6
ByLayer
62
256
370
-1
90
4
70
1
10
1116.2
20
190
10
1116.2
20
340
10
1192.4
20
340
10
1192.4
20
190
0
LWPOLYLINE
5
11C
330
11
100
AcDbEntity
100
AcDbPolyline
8
rect_polygon
6
ByLayer
62
256
370
-1
90
4
70
1
10
1118.2
20
192
10
1118.2
20
338
10
1190.4
20
338
10
1190.4
20
192
0
LWPOLYLINE
5
11D
330
11
100
AcDbEntity
100
AcDbPolyline
8
rect_polygon
6
ByLayer
62
256
370
-1
90
4
70
1
10
1116.2
20
340
10
1116.2
20
490
10
1192.4
20
490
10
1192.4
20
340
0
LWPOLYLINE
5
11E
330
11
100
AcDbEntity
100
AcDbPolyline
8
rect_polygon
6
ByLayer
62
256
370
-1
90
4
70
1
10
1118.2
20
342
10
1118.2
20
488
10
1190.4
20
488
10
1190.4
20
342
0
LWPOLYLINE
5
11F
330
11
100
AcDbEntity
100
AcDbPolyline
8
rect_polygon
6
ByLayer
62
256
370
-1
90
4
70
1
10
1116.2
20
40
10
1116.2
20
190
10
1192.4
20
190
10
1192.4
20
40
0
LWPOLYLINE
5
120
330
11
100
AcDbEntity
100
AcDbPolyline
8
rect_polygon
6
ByLayer
62
256
370
-1
90
4
70
1
10
1118.2
20
42
10
1118.2
20
188
10
1190.4
20
188
10
1190.4
20
42
0
LWPOLYLINE
5
121
330
11
100
AcDbEntity
100
AcDbPolyline
8
rect_polygon
6
ByLayer
62
256
370
-1
90
4
70
1
10
1116.2
20
190
10
1116.2
20
340
10
1192.4
20
340
10
1192.4
20
190
0
LWPOLYLINE
5
122
330
11
100
AcDbEntity
100
AcDbPolyline
8
rect_polygon
6
ByLayer
62
256
370
-1
90
4
70
1
10
1118.2
20
192
10
1118.2
20
338
10
1190.4
20
338
10
1190.4
20
192
0
LWPOLYLINE
5
123
330
11
100
AcDbEntity
100
AcDbPolyline
8
rect_polygon
6
ByLayer
62
256
370
-1
90
4
70
1
10
1116.2
20
340
10
1116.2
20
490
10
1192.4
20
490
10
1192.4
20
340
0
LWPOLYLINE
5
124
330
11
100
AcDbEntity
100
AcDbPolyline
8
rect_polygon
6
ByLayer
62
256
370
-1
90
4
70
1
10
1118.2
20
342
10
1118.2
20
488
10
1190.4
20
488
10
1190.4
20
342
0
LWPOLYLINE
5
125
330
11
100
AcDbEntity
100
AcDbPolyline
8
rect_polygon
6
ByLayer
62
256
370
-1
90
4
70
1
10
1192.4
20
340
10
1192.4
20
490
10
1268.6000000000001
20
490
10
1268.6000000000001
20
340
0
LWPOLYLINE
5
126
330
11
100
AcDbEntity
100
AcDbPolyline
8
rect_polygon
6
ByLayer
62
256
370
-1
90
4
70
1
10
1194.4
20
342
10
1194.4
20
488
10
1266.6000000000001
20
488
10
1266.6000000000001
20
342
0
LWPOLYLINE
5
127
330
11
100
AcDbEntity
100
AcDbPolyline
8
rect_polygon
6
ByLayer
62
256
370
-1
90
4
70
1
10
1192.4
20
40
10
1192.4
20
190
10
1268.6000000000001
20
190
10
1268.6000000000001
20
40
0
LWPOLYLINE
5
128
330
11
100
AcDbEntity
100
AcDbPolyline
8
rect_polygon
6
ByLayer
62
256
370
-1
90
4
70
1
10
1194.4
20
42
10
1194.4
20
188
10
1266.6000000000001
20
188
10
1266.6000000000001
20
42
0
LWPOLYLINE
5
129
330
11
100
AcDbEntity
100
AcDbPolyline
8
rect_polygon
6
ByLayer
62
256
370
-1
90
4
70
1
10
1192.4
20
190
10
1192.4
20
340
10
1268.6000000000001
20
340
10
1268.6000000000001
20
190
0
LWPOLYLINE
5
12A
330
11
100
AcDbEntity
100
AcDbPolyline
8
rect_polygon
6
ByLayer
62
256
370
-1
90
4
70
1
10
1194.4
20
192
10
1194.4
20
338
10
1266.6000000000001
20
338
10
1266.6000000000001
20
192
0
LWPOLYLINE
5
12B
330
11
100
AcDbEntity
100
AcDbPolyline
8
rect_polygon
6
ByLayer
62
256
370
-1
90
4
70
1
10
1192.4
20
340
10
1192.4
20
490
10
1268.6000000000001
20
490
10
1268.6000000000001
20
340
0
LWPOLYLINE
5
12C
330
11
100
AcDbEntity
100
AcDbPolyline
8
rect_polygon
6
ByLayer
62
256
370
-1
90
4
70
1
10
1194.4
20
342
10
1194.4
20
488
10
1266.6000000000001
20
488
10
1266.6000000000001
20
342
0
LWPOLYLINE
5
12D
330
11
100
AcDbEntity
100
AcDbPolyline
8
rect_polygon
6
ByLayer
62
256
370
-1
90
4
70
1
10
1192.4
20
40
10
1192.4
20
190
10
1268.6000000000001
20
190
10
1268.6000000000001
20
40
0
LWPOLYLINE
5
12E
330
11
100
AcDbEntity
100
AcDbPolyline
8
rect_polygon
6
ByLayer
62
256
370
-1
90
4
70
1
10
1194.4
20
42
10
1194.4
20
188
10
1266.6000000000001
20
188
10
1266.6000000000001
20
42
0
LWPOLYLINE
5
12F
330
11
100
AcDbEntity
100
AcDbPolyline
8
rect_polygon
6
ByLayer
62
256
370
-1
90
4
70
1
10
1192.4
20
190
10
1192.4
20
340
10
1268.6000000000001
20
340
10
1268.6000000000001
20
190
0
LWPOLYLINE
5
130
330
11
100
AcDbEntity
100
AcDbPolyline
8
rect_polygon
6
ByLayer
62
256
370
-1
90
4
70
1
10
1194.4
20
192
10
1194.4
20
338
10
1266.6000000000001
20
338
10
1266.6000000000001
20
192
0
LWPOLYLINE
5
131
330
11
100
AcDbEntity
100
AcDbPolyline
8
rect_polygon
6
ByLayer
62
256
370
-1
90
4
70
1
10
1192.4
20
340
10
1192.4
20
490
10
1268.6000000000001
20
490
10
1268.6000000000001
20
340
0
LWPOLYLINE
5
132
330
11
100
AcDbEntity
100
AcDbPolyline
8
rect_polygon
6
ByLayer
62
256
370
-1
90
4
70
1
10
1194.4
20
342
10
1194.4
20
488
10
1266.6000000000001
20
488
10
1266.6000000000001
20
342
0
LWPOLYLINE
5
133
330
11
100
AcDbEntity
100
AcDbPolyline
8
rect_polygon
6
ByLayer
62
256
370
-1
90
4
70
1
10
1192.4
20
40
10
1192.4
20
190
10
1268.6000000000001
20
190
10
1268.6000000000001
20
40
0
LWPOLYLINE
5
134
330
11
100
AcDbEntity
100
AcDbPolyline
8
rect_polygon
6
ByLayer
62
256
370
-1
90
4
70
1
10
1194.4
20
42
10
1194.4
20
188
10
1266.6000000000001
20
188
10
1266.6000000000001
20
42
0
LWPOLYLINE
5
135
330
11
100
AcDbEntity
100
AcDbPolyline
8
rect_polygon
6
ByLayer
62
256
370
-1
90
4
70
1
10
1192.4
20
190
10
1192.4
20
340
10
1268.6000000000001
20
340
10
1268.6000000000001
20
190
0
LWPOLYLINE
5
136
330
11
100
AcDbEntity
100
AcDbPolyline
8
rect_polygon
6
ByLayer
62
256
370
-1
90
4
70
1
10
1194.4
20
192
10
1194.4
20
338
10
1266.6000000000001
20
338
10
1266.6000000000001
20
192
0
LWPOLYLINE
5
137
330
11
100
AcDbEntity
100
AcDbPolyline
8
rect_polygon
6
ByLayer
62
256
370
-1
90
4
70
1
10
1192.4
20
340
10
1192.4
20
490
10
1268.6000000000001
20
490
10
1268.6000000000001
20
340
0
LWPOLYLINE
5
138
330
11
100
AcDbEntity
100
AcDbPolyline
8
rect_polygon
6
ByLayer
62
256
370
-1
90
4
70
1
10
1194.4
20
342
10
1194.4
20
488
10
1266.6000000000001
20
488
10
1266.6000000000001
20
342
0
LINE
5
139
330
11
100
AcDbEntity
100
AcDbLine
8
rect_polygon
10
1668.6
20
40
30
0
11
1818.6
21
340
31
0
0
LINE
5
13A
330
11
100
AcDbEntity
100
AcDbLine
8
rect_polygon
10
1678.6
20
40
30
0
11
1668.6
21
50
31
0
0
LINE
5
13B
330
11
100
AcDbEntity
100
AcDbLine
8
rect_polygon
10
1688.6
20
40
30
0
11
1668.6
21
60
31
0
0
LINE
5
13C
330
11
100
AcDbEntity
100
AcDbLine
8
rect_polygon
10
1708.6
20
40
30
0
11
1668.6
21
80
31
0
0
LINE
5
13D
330
11
100
AcDbEntity
100
AcDbLine
8
rect_polygon
10
1718.6
20
40
30
0
11
1668.6
21
90
31
0
0
LINE
5
13E
330
11
100
AcDbEntity
100
AcDbLine
8
rect_polygon
10
1738.6
20
40
30
0
11
1668.6
21
110
31
0
0
LINE
5
13F
330
11
100
AcDbEntity
100
AcDbLine
8
rect_polygon
10
1748.6
20
40
30
0
11
1668.6
21
120
31
0
0
LINE
5
140
330
11
100
AcDbEntity
100
AcDbLine
8
rect_polygon
10
1768.6
20
40
30
0
11
1668.6
21
140
31
0
0
LINE
5
141
330
11
100
AcDbEntity
100
AcDbLine
8
rect_polygon
10
1778.6
20
40
30
0
11
1668.6
21
150
31
0
0
LINE
5
142
330
11
100
AcDbEntity
100
AcDbLine
8
rect_polygon
10
1798.6
20
40
30
0
11
1668.6
21
170
31
0
0
LINE
5
143
330
11
100
AcDbEntity
100
AcDbLine
8
rect_polygon
10
1808.6
20
40
30
0
11
1668.6
21
180
31
0
0
LINE
5
144
330
11
100
AcDbEntity
100
AcDbLine
8
rect_polygon
10
1818.6
20
50
30
0
11
1668.6
21
200
31
0
0
LINE
5
145
330
11
100
AcDbEntity
100
AcDbLine
8
rect_polygon
10
1818.6
20
60
30
0
11
1668.6
21
210
31
0
0
LINE
5
146
330
11
100
AcDbEntity
100
AcDbLine
8
rect_polygon
10
1818.6
20
80
30
0
11
1668.6
21
230
31
0
0
LINE
5
147
330
11
100
AcDbEntity
100
AcDbLine
8
rect_polygon
10
1818.6
20
90
30
0
11
1668.6
21
240
31
0
0
LINE
5
148
330
11
100
AcDbEntity
100
AcDbLine
8
rect_polygon
10
1818.6
20
110
30
0
11
1668.6
21
260
31
0
0
LINE
5
149
330
11
100
AcDbEntity
100
AcDbLine
8
rect_polygon
10
1818.6
20
120
30
0
11
1668.6
21
270
31
0
0
LINE
5
14A
330
11
100
AcDbEntity
100
AcDbLine
8
rect_polygon
10
1818.6
20
140
30
0
11
1668.6
21
290
31
0
0
LINE
5
14B
330
11
100
AcDbEntity
100
AcDbLine
8
rect_polygon
10
1818.6
20
150
30
0
11
1668.6
21
300
31
0
0
LINE
5
14C
330
11
100
AcDbEntity
100
AcDbLine
8
rect_polygon
10
1818.6
20
170
30
0
11
1668.6
21
320
31
0
0
LINE
5
14D
330
11
100
AcDbEntity
100
AcDbLine
8
rect_polygon
10
1818.6
20
180
30
0
11
1668.6
21
330
31
0
0
LINE
5
14E
330
11
100
AcDbEntity
100
AcDbLine
8
rect_polygon
10
1818.6
20
200
30
0
11
50
21
340
31
0
0
LINE
5
14F
330
11
100
AcDbEntity
100
AcDbLine
8
rect_polygon
10
1818.6
20
210
30
0
11
60
21
340
31
0
0
LINE
5
150
330
11
100
AcDbEntity
100
AcDbLine
8
rect_polygon
10
1818.6
20
230
30
0
11
80
21
340
31
0
0
LINE
5
151
330
11
100
AcDbEntity
100
AcDbLine
8
rect_polygon
10
1818.6
20
240
30
0
11
90
21
340
31
0
0
LINE
5
152
330
11
100
AcDbEntity
100
AcDbLine
8
rect_polygon
10
1818.6
20
260
30
0
11
110
21
340
31
0
0
LINE
5
153
330
11
100
AcDbEntity
100
AcDbLine
8
rect_polygon
10
1818.6
20
270
30
0
11
120
21
340
31
0
0
LINE
5
154
330
11
100
AcDbEntity
100
AcDbLine
8
rect_polygon
10
1818.6
20
290
30
0
11
140
21
340
31
0
0
LINE
5
155
330
11
100
AcDbEntity
100
AcDbLine
8
rect_polygon
10
1818.6
20
300
30
0
11
150
21
340
31
0
0
LINE
5
156
330
11
100
AcDbEntity
100
AcDbLine
8
rect_polygon
10
1818.6
20
320
30
0
11
170
21
340
31
0
0
LINE
5
157
330
11
100
AcDbEntity
100
AcDbLine
8
rect_polygon
10
1818.6
20
330
30
0
11
180
21
340
31
0
0
LWPOLYLINE
5
158
330
11
100
AcDbEntity
100
AcDbPolyline
8
rect_polygon
6
ByLayer
62
256
370
-1
90
4
70
1
10
1668.6
20
340
10
1668.6
20
490
10
1818.6
20
490
10
1818.6
20
340
0
LWPOLYLINE
5
159
330
11
100
AcDbEntity
100
AcDbPolyline
8
rect_polygon
6
ByLayer
62
256
370
-1
90
4
70
1
10
1670.6
20
342
10
1670.6
20
488
10
1816.6
20
488
10
1816.6
20
342
0
LWPOLYLINE
5
15A
330
11
100
AcDbEntity
100
AcDbPolyline
8
rect_polygon
6
ByLayer
62
256
370
-1
90
4
70
1
10
1818.6
20
340
10
1818.6
20
490
10
1968.6
20
490
10
1968.6
20
340
0
LWPOLYLINE
5
15B
330
11
100
AcDbEntity
100
AcDbPolyline
8
rect_polygon
6
ByLayer
62
256
370
-1
90
4
70
1
10
1820.6
20
342
10
1820.6
20
488
10
1966.6
20
488
10
1966.6
20
342
0
LWPOLYLINE
5
15C
330
11
100
AcDbEntity
100
AcDbPolyline
8
rect_polygon
6
ByLayer
62
256
370
-1
90
4
70
1
10
1968.6
20
340
10
1968.6
20
490
10
2118.6
20
490
10
2118.6
20
340
0
LWPOLYLINE
5
15D
330
11
100
AcDbEntity
100
AcDbPolyline
8
rect_polygon
6
ByLayer
62
256
370
-1
90
4
70
1
10
1970.6
20
342
10
1970.6
20
488
10
2116.6
20
488
10
2116.6
20
342
0
LWPOLYLINE
5
15E
330
11
100
AcDbEntity
100
AcDbPolyline
8
rect_polygon
6
ByLayer
62
256
370
-1
90
4
70
1
10
2118.6
20
340
10
2118.6
20
490
10
2268.6
20
490
10
2268.6
20
340
0
LWPOLYLINE
5
15F
330
11
100
AcDbEntity
100
AcDbPolyline
8
rect_polygon
6
ByLayer
62
256
370
-1
90
4
70
1
10
2120.6
20
342
10
2120.6
20
488
10
2266.6
20
488
10
2266.6
20
342
0
LWPOLYLINE
5
160
330
11
100
AcDbEntity
100
AcDbPolyline
8
rect_polygon
6
ByLayer
62
256
370
-1
90
4
70
1
10
1668.6
20
340
10
1668.6
20
490
10
1818.6
20
490
10
1818.6
20
340
0
LWPOLYLINE
5
161
330
11
100
AcDbEntity
100
AcDbPolyline
8
rect_polygon
6
ByLayer
62
256
370
-1
90
4
70
1
10
1670.6
20
342
10
1670.6
20
488
10
1816.6
20
488
10
1816.6
20
342
0
LWPOLYLINE
5
162
330
11
100
AcDbEntity
100
AcDbPolyline
8
rect_polygon
6
ByLayer
62
256
370
-1
90
4
70
1
10
1818.6
20
40
10
1818.6
20
190
10
1968.6
20
190
10
1968.6
20
40
0
LWPOLYLINE
5
163
330
11
100
AcDbEntity
100
AcDbPolyline
8
rect_polygon
6
ByLayer
62
256
370
-1
90
4
70
1
10
1820.6
20
42
10
1820.6
20
188
10
1966.6
20
188
10
1966.6
20
42
0
LWPOLYLINE
5
164
330
11
100
AcDbEntity
100
AcDbPolyline
8
rect_polygon
6
ByLayer
62
256
370
-1
90
4
70
1
10
1818.6
20
190
10
1818.6
20
340
10
1968.6
20
340
10
1968.6
20
190
0
LWPOLYLINE
5
165
330
11
100
AcDbEntity
100
AcDbPolyline
8
rect_polygon
6
ByLayer
62
256
370
-1
90
4
70
1
10
1820.6
20
192
10
1820.6
20
338
10
1966.6
20
338
10
1966.6
20
192
0
LWPOLYLINE
5
166
330
11
100
AcDbEntity
100
AcDbPolyline
8
rect_polygon
6
ByLayer
62
256
370
-1
90
4
70
1
10
1818.6
20
340
10
1818.6
20
490
10
1968.6
20
490
10
1968.6
20
340
0
LWPOLYLINE
5
167
330
11
100
AcDbEntity
100
AcDbPolyline
8
rect_polygon
6
ByLayer
62
256
370
-1
90
4
70
1
10
1820.6
20
342
10
1820.6
20
488
10
1966.6
20
488
10
1966.6
20
342
0
LWPOLYLINE
5
168
330
11
100
AcDbEntity
100
AcDbPolyline
8
rect_polygon
6
ByLayer
62
256
370
-1
90
4
70
1
10
1968.6
20
40
10
1968.6
20
190
10
2118.6
20
190
10
2118.6
20
40
0
LWPOLYLINE
5
169
330
11
100
AcDbEntity
100
AcDbPolyline
8
rect_polygon
6
ByLayer
62
256
370
-1
90
4
70
1
10
1970.6
20
42
10
1970.6
20
188
10
2116.6
20
188
10
2116.6
20
42
0
LWPOLYLINE
5
16A
330
11
100
AcDbEntity
100
AcDbPolyline
8
rect_polygon
6
ByLayer
62
256
370
-1
90
4
70
1
10
1968.6
20
190
10
1968.6
20
340
10
2118.6
20
340
10
2118.6
20
190
0
LWPOLYLINE
5
16B
330
11
100
AcDbEntity
100
AcDbPolyline
8
rect_polygon
6
ByLayer
62
256
370
-1
90
4
70
1
10
1970.6
20
192
10
1970.6
20
338
10
2116.6
20
338
10
2116.6
20
192
0
LWPOLYLINE
5
16C
330
11
100
AcDbEntity
100
AcDbPolyline
8
rect_polygon
6
ByLayer
62
256
370
-1
90
4
70
1
10
1968.6
20
340
10
1968.6
20
490
10
2118.6
20
490
10
2118.6
20
340
0
LWPOLYLINE
5
16D
330
11
100
AcDbEntity
100
AcDbPolyline
8
rect_polygon
6
ByLayer
62
256
370
-1
90
4
70
1
10
1970.6
20
342
10
1970.6
20
488
10
2116.6
20
488
10
2116.6
20
342
0
LWPOLYLINE
5
16E
330
11
100
AcDbEntity
100
AcDbPolyline
8
rect_polygon
6
ByLayer
62
256
370
-1
90
4
70
1
10
2118.6
20
40
10
2118.6
20
190
10
2268.6
20
190
10
2268.6
20
40
0
LWPOLYLINE
5
16F
330
11
100
AcDbEntity
100
AcDbPolyline
8
rect_polygon
6
ByLayer
62
256
370
-1
90
4
70
1
10
2120.6
20
42
10
2120.6
20
188
10
2266.6
20
188
10
2266.6
20
42
0
LWPOLYLINE
5
170
330
11
100
AcDbEntity
100
AcDbPolyline
8
rect_polygon
6
ByLayer
62
256
370
-1
90
4
70
1
10
2118.6
20
190
10
2118.6
20
340
10
2268.6
20
340
10
2268.6
20
190
0
LWPOLYLINE
5
171
330
11
100
AcDbEntity
100
AcDbPolyline
8
rect_polygon
6
ByLayer
62
256
370
-1
90
4
70
1
10
2120.6
20
192
10
2120.6
20
338
10
2266.6
20
338
10
2266.6
20
192
0
LWPOLYLINE
5
172
330
11
100
AcDbEntity
100
AcDbPolyline
8
rect_polygon
6
ByLayer
62
256
370
-1
90
4
70
1
10
2118.6
20
340
10
2118.6
20
490
10
2268.6
20
490
10
2268.6
20
340
0
LWPOLYLINE
5
173
330
11
100
AcDbEntity
100
AcDbPolyline
8
rect_polygon
6
ByLayer
62
256
370
-1
90
4
70
1
10
2120.6
20
342
10
2120.6
20
488
10
2266.6
20
488
10
2266.6
20
342
0
LWPOLYLINE
5
174
330
11
100
AcDbEntity
100
AcDbPolyline
8
rect_polygon
6
ByLayer
62
256
370
-1
90
4
70
1
10
1668.6
20
340
10
1668.6
20
490
10
1818.6
20
490
10
1818.6
20
340
0
LWPOLYLINE
5
175
330
11
100
AcDbEntity
100
AcDbPolyline
8
rect_polygon
6
ByLayer
62
256
370
-1
90
4
70
1
10
1670.6
20
342
10
1670.6
20
488
10
1816.6
20
488
10
1816.6
20
342
0
LWPOLYLINE
5
176
330
11
100
AcDbEntity
100
AcDbPolyline
8
rect_polygon
6
ByLayer
62
256
370
-1
90
4
70
1
10
1818.6
20
40
10
1818.6
20
190
10
1968.6
20
190
10
1968.6
20
40
0
LWPOLYLINE
5
177
330
11
100
AcDbEntity
100
AcDbPolyline
8
rect_polygon
6
ByLayer
62
256
370
-1
90
4
70
1
10
1820.6
20
42
10
1820.6
20
188
10
1966.6
20
188
10
1966.6
20
42
0
LWPOLYLINE
5
178
330
11
100
AcDbEntity
100
AcDbPolyline
8
rect_polygon
6
ByLayer
62
256
370
-1
90
4
70
1
10
1818.6
20
190
10
1818.6
20
340
10
1968.6
20
340
10
1968.6
20
190
0
LWPOLYLINE
5
179
330
11
100
AcDbEntity
100
AcDbPolyline
8
rect_polygon
6
ByLayer
62
256
370
-1
90
4
70
1
10
1820.6
20
192
10
1820.6
20
338
10
1966.6
20
338
10
1966.6
20
192
0
LWPOLYLINE
5
17A
330
11
100
AcDbEntity
100
AcDbPolyline
8
rect_polygon
6
ByLayer
62
256
370
-1
90
4
70
1
10
1818.6
20
340
10
1818.6
20
490
10
1968.6
20
490
10
1968.6
20
340
0
LWPOLYLINE
5
17B
330
11
100
AcDbEntity
100
AcDbPolyline
8
rect_polygon
6
ByLayer
62
256
370
-1
90
4
70
1
10
1820.6
20
342
10
1820.6
20
488
10
1966.6
20
488
10
1966.6
20
342
0
LWPOLYLINE
5
17C
330
11
100
AcDbEntity
100
AcDbPolyline
8
rect_polygon
6
ByLayer
62
256
370
-1
90
4
70
1
10
1968.6
20
40
10
1968.6
20
190
10
2118.6
20
190
10
2118.6
20
40
0
LWPOLYLINE
5
17D
330
11
100
AcDbEntity
100
AcDbPolyline
8
rect_polygon
6
ByLayer
62
256
370
-1
90
4
70
1
10
1970.6
20
42
10
1970.6
20
188
10
2116.6
20
188
10
2116.6
20
42
0
LWPOLYLINE
5
17E
330
11
100
AcDbEntity
100
AcDbPolyline
8
rect_polygon
6
ByLayer
62
256
370
-1
90
4
70
1
10
1968.6
20
190
10
1968.6
20
340
10
2118.6
20
340
10
2118.6
20
190
0
LWPOLYLINE
5
17F
330
11
100
AcDbEntity
100
AcDbPolyline
8
rect_polygon
6
ByLayer
62
256
370
-1
90
4
70
1
10
1970.6
20
192
10
1970.6
20
338
10
2116.6
20
338
10
2116.6
20
192
0
LWPOLYLINE
5
180
330
11
100
AcDbEntity
100
AcDbPolyline
8
rect_polygon
6
ByLayer
62
256
370
-1
90
4
70
1
10
1968.6
20
340
10
1968.6
20
490
10
2118.6
20
490
10
2118.6
20
340
0
LWPOLYLINE
5
181
330
11
100
AcDbEntity
100
AcDbPolyline
8
rect_polygon
6
ByLayer
62
256
370
-1
90
4
70
1
10
1970.6
20
342
10
1970.6
20
488
10
2116.6
20
488
10
2116.6
20
342
0
LWPOLYLINE
5
182
330
11
100
AcDbEntity
100
AcDbPolyline
8
rect_polygon
6
ByLayer
62
256
370
-1
90
4
70
1
10
2118.6
20
40
10
2118.6
20
190
10
2268.6
20
190
10
2268.6
20
40
0
LWPOLYLINE
5
183
330
11
100
AcDbEntity
100
AcDbPolyline
8
rect_polygon
6
ByLayer
62
256
370
-1
90
4
70
1
10
2120.6
20
42
10
2120.6
20
188
10
2266.6
20
188
10
2266.6
20
42
0
LWPOLYLINE
5
184
330
11
100
AcDbEntity
100
AcDbPolyline
8
rect_polygon
6
ByLayer
62
256
370
-1
90
4
70
1
10
2118.6
20
190
10
2118.6
20
340
10
2268.6
20
340
10
2268.6
20
190
0
LWPOLYLINE
5
185
330
11
100
AcDbEntity
100
AcDbPolyline
8
rect_polygon
6
ByLayer
62
256
370
-1
90
4
70
1
10
2120.6
20
192
10
2120.6
20
338
10
2266.6
20
338
10
2266.6
20
192
0
LWPOLYLINE
5
186
330
11
100
AcDbEntity
100
AcDbPolyline
8
rect_polygon
6
ByLayer
62
256
370
-1
90
4
70
1
10
2118.6
20
340
10
2118.6
20
490
10
2268.6
20
490
10
2268.6
20
340
0
LWPOLYLINE
5
187
330
11
100
AcDbEntity
100
AcDbPolyline
8
rect_polygon
6
ByLayer
62
256
370
-1
90
4
70
1
10
2120.6
20
342
10
2120.6
20
488
10
2266.6
20
488
10
2266.6
20
342
0
LINE
5
188
330
11
100
AcDbEntity
100
AcDbLine
8
rect_polygon
10
2821
20
40
30
0
11
2897.2
21
340
31
0
0
LINE
5
189
330
11
100
AcDbEntity
100
AcDbLine
8
rect_polygon
10
2831
20
40
30
0
11
2821
21
50
31
0
0
LINE
5
18A
330
11
100
AcDbEntity
100
AcDbLine
8
rect_polygon
10
2841
20
40
30
0
11
2821
21
60
31
0
0
LINE
5
18B
330
11
100
AcDbEntity
100
AcDbLine
8
rect_polygon
10
2861
20
40
30
0
11
2821
21
80
31
0
0
LINE
5
18C
330
11
100
AcDbEntity
100
AcDbLine
8
rect_polygon
10
2871
20
40
30
0
11
2821
21
90
31
0
0
LINE
5
18D
330
11
100
AcDbEntity
100
AcDbLine
8
rect_polygon
10
2891
20
40
30
0
11
2821
21
110
31
0
0
LINE
5
18E
330
11
100
AcDbEntity
100
AcDbLine
8
rect_polygon
10
2897.2
20
43.80000000000018
30
0
11
2821
21
120
31
0
0
LINE
5
18F
330
11
100
AcDbEntity
100
AcDbLine
8
rect_polygon
10
2897.2
20
63.80000000000018
30
0
11
2821
21
140
31
0
0
LINE
5
190
330
11
100
AcDbEntity
100
AcDbLine
8
rect_polygon
10
2897.2
20
73.80000000000018
30
0
11
2821
21
150
31
0
0
LINE
5
191
330
11
100
AcDbEntity
100
AcDbLine
8
rect_polygon
10
2897.2
20
93.80000000000018
30
0
11
2821
21
170
31
0
0
LINE
5
192
330
11
100
AcDbEntity
100
AcDbLine
8
rect_polygon
10
2897.2
20
103.80000000000018
30
0
11
2821
21
180
31
0
0
LINE
5
193
330
11
100
AcDbEntity
100
AcDbLine
8
rect_polygon
10
2897.2
20
123.80000000000018
30
0
11
2821
21
200
31
0
0
LINE
5
194
330
11
100
AcDbEntity
100
AcDbLine
8
rect_polygon
10
2897.2
20
133.80000000000018
30
0
11
2821
21
210
31
0
0
LINE
5
195
330
11
100
AcDbEntity
100
AcDbLine
8
rect_polygon
10
2897.2
20
153.80000000000018
30
0
11
2821
21
230
31
0
0
LINE
5
196
330
11
100
AcDbEntity
100
AcDbLine
8
rect_polygon
10
2897.2
20
163.80000000000018
30
0
11
2821
21
240
31
0
0
LINE
5
197
330
11
100
AcDbEntity
100
AcDbLine
8
rect_polygon
10
2897.2
20
183.80000000000018
30
0
11
2821
21
260
31
0
0
LINE
5
198
330
11
100
AcDbEntity
100
AcDbLine
8
rect_polygon
10
2897.2
20
193.80000000000018
30
0
11
2821
21
270
31
0
0
LINE
5
199
330
11
100
AcDbEntity
100
AcDbLine
8
rect_polygon
10
2897.2
20
213.80000000000018
30
0
11
2821
21
290
31
0
0
LINE
5
19A
330
11
100
AcDbEntity
100
AcDbLine
8
rect_polygon
10
2897.2
20
223.80000000000018
30
0
11
2821
21
300
31
0
0
LINE
5
19B
330
11
100
AcDbEntity
100
AcDbLine
8
rect_polygon
10
2897.2
20
243.80000000000018
30
0
11
2821
21
320
31
0
0
LINE
5
19C
330
11
100
AcDbEntity
100
AcDbLine
8
rect_polygon
10
2897.2
20
253.80000000000018
30
0
11
2821
21
330
31
0
0
LINE
5
19D
330
11
100
AcDbEntity
100
AcDbLine
8
rect_polygon
10
2897.2
20
273.8000000000002
30
0
11
50
21
340
31
0
0
LINE
5
19E
330
11
100
AcDbEntity
100
AcDbLine
8
rect_polygon
10
2897.2
20
283.8000000000002
30
0
11
60
21
340
31
0
0
LINE
5
19F
330
11
100
AcDbEntity
100
AcDbLine
8
rect_polygon
10
2897.2
20
303.8000000000002
30
0
11
80
21
340
31
0
0
LINE
5
1A0
330
11
100
AcDbEntity
100
AcDbLine
8
rect_polygon
10
2897.2
20
313.8000000000002
30
0
11
90
21
340
31
0
0
LINE
5
1A1
330
11
100
AcDbEntity
100
AcDbLine
8
rect_polygon
10
2897.2
20
333.8000000000002
30
0
11
110
21
340
31
0
0
LWPOLYLINE
5
1A2
330
11
100
AcDbEntity
100
AcDbPolyline
8
rect_polygon
6
ByLayer
62
256
370
-1
90
4
70
1
10
2821
20
340
10
2821
20
490
10
2897.2
20
490
10
2897.2
20
340
0
LWPOLYLINE
5
1A3
330
11
100
AcDbEntity
100
AcDbPolyline
8
rect_polygon
6
ByLayer
62
256
370
-1
90
4
70
1
10
2823
20
342
10
2823
20
488
10
2895.2
20
488
10
2895.2
20
342
0
LWPOLYLINE
5
1A4
330
11
100
AcDbEntity
100
AcDbPolyline
8
rect_polygon
6
ByLayer
62
256
370
-1
90
4
70
1
10
2821
20
340
10
2821
20
490
10
2897.2
20
490
10
2897.2
20
340
0
LWPOLYLINE
5
1A5
330
11
100
AcDbEntity
100
AcDbPolyline
8
rect_polygon
6
ByLayer
62
256
370
-1
90
4
70
1
10
2823
20
342
10
2823
20
488
10
2895.2
20
488
10
2895.2
20
342
0
LWPOLYLINE
5
1A6
330
11
100
AcDbEntity
100
AcDbPolyline
8
rect_polygon
6
ByLayer
62
256
370
-1
90
4
70
1
10
2821
20
340
10
2821
20
490
10
2897.2
20
490
10
2897.2
20
340
0
LWPOLYLINE
5
1A7
330
11
100
AcDbEntity
100
AcDbPolyline
8
rect_polygon
6
ByLayer
62
256
370
-1
90
4
70
1
10
2823
20
342
10
2823
20
488
10
2895.2
20
488
10
2895.2
20
342
0
LWPOLYLINE
5
1A8
330
11
100
AcDbEntity
100
AcDbPolyline
8
rect_polygon
6
ByLayer
62
256
370
-1
90
4
70
1
10
2821
20
340
10
2821
20
490
10
2897.2
20
490
10
2897.2
20
340
0
LWPOLYLINE
5
1A9
330
11
100
AcDbEntity
100
AcDbPolyline
8
rect_polygon
6
ByLayer
62
256
370
-1
90
4
70
1
10
2823
20
342
10
2823
20
488
10
2895.2
20
488
10
2895.2
20
342
0
LWPOLYLINE
5
1AA
330
11
100
AcDbEntity
100
AcDbPolyline
8
rect_polygon
6
ByLayer
62
256
370
-1
90
4
70
1
10
2744.7999999999997
20
340
10
2744.7999999999997
20
490
10
2820.9999999999995
20
490
10
2820.9999999999995
20
340
0
LWPOLYLINE
5
1AB
330
11
100
AcDbEntity
100
AcDbPolyline
8
rect_polygon
6
ByLayer
62
256
370
-1
90
4
70
1
10
2746.7999999999997
20
342
10
2746.7999999999997
20
488
10
2818.9999999999995
20
488
10
2818.9999999999995
20
342
0
LWPOLYLINE
5
1AC
330
11
100
AcDbEntity
100
AcDbPolyline
8
rect_polygon
6
ByLayer
62
256
370
-1
90
4
70
1
10
2744.7999999999997
20
40
10
2744.7999999999997
20
190
10
2820.9999999999995
20
190
10
2820.9999999999995
20
40
0
LWPOLYLINE
5
1AD
330
11
100
AcDbEntity
100
AcDbPolyline
8
rect_polygon
6
ByLayer
62
256
370
-1
90
4
70
1
10
2746.7999999999997
20
42
10
2746.7999999999997
20
188
10
2818.9999999999995
20
188
10
2818.9999999999995
20
42
0
LWPOLYLINE
5
1AE
330
11
100
AcDbEntity
100
AcDbPolyline
8
rect_polygon
6
ByLayer
62
256
370
-1
90
4
70
1
10
2744.7999999999997
20
190
10
2744.7999999999997
20
340
10
2820.9999999999995
20
340
10
2820.9999999999995
20
190
0
LWPOLYLINE
5
1AF
330
11
100
AcDbEntity
100
AcDbPolyline
8
rect_polygon
6
ByLayer
62
256
370
-1
90
4
70
1
10
2746.7999999999997
20
192
10
2746.7999999999997
20
338
10
2818.9999999999995
20
338
10
2818.9999999999995
20
192
0
LWPOLYLINE
5
1B0
330
11
100
AcDbEntity
100
AcDbPolyline
8
rect_polygon
6
ByLayer
62
256
370
-1
90
4
70
1
10
2744.7999999999997
20
340
10
2744.7999999999997
20
490
10
2820.9999999999995
20
490
10
2820.9999999999995
20
340
0
LWPOLYLINE
5
1B1
330
11
100
AcDbEntity
100
AcDbPolyline
8
rect_polygon
6
ByLayer
62
256
370
-1
90
4
70
1
10
2746.7999999999997
20
342
10
2746.7999999999997
20
488
10
2818.9999999999995
20
488
10
2818.9999999999995
20
342
0
LWPOLYLINE
5
1B2
330
11
100
AcDbEntity
100
AcDbPolyline
8
rect_polygon
6
ByLayer
62
256
370
-1
90
4
70
1
10
2744.7999999999997
20
40
10
2744.7999999999997
20
190
10
2820.9999999999995
20
190
10
2820.9999999999995
20
40
0
LWPOLYLINE
5
1B3
330
11
100
AcDbEntity
100
AcDbPolyline
8
rect_polygon
6
ByLayer
62
256
370
-1
90
4
70
1
10
2746.7999999999997
20
42
10
2746.7999999999997
20
188
10
2818.9999999999995
20
188
10
2818.9999999999995
20
42
0
LWPOLYLINE
5
1B4
330
11
100
AcDbEntity
100
AcDbPolyline
8
rect_polygon
6
ByLayer
62
256
370
-1
90
4
70
1
10
2744.7999999999997
20
190
10
2744.7999999999997
20
340
10
2820.9999999999995
20
340
10
2820.9999999999995
20
190
0
LWPOLYLINE
5
1B5
330
11
100
AcDbEntity
100
AcDbPolyline
8
rect_polygon
6
ByLayer
62
256
370
-1
90
4
70
1
10
2746.7999999999997
20
192
10
2746.7999999999997
20
338
10
2818.9999999999995
20
338
10
2818.9999999999995
20
192
0
LWPOLYLINE
5
1B6
330
11
100
AcDbEntity
100
AcDbPolyline
8
rect_polygon
6
ByLayer
62
256
370
-1
90
4
70
1
10
2744.7999999999997
20
340
10
2744.7999999999997
20
490
10
2820.9999999999995
20
490
10
2820.9999999999995
20
340
0
LWPOLYLINE
5
1B7
330
11
100
AcDbEntity
100
AcDbPolyline
8
rect_polygon
6
ByLayer
62
256
370
-1
90
4
70
1
10
2746.7999999999997
20
342
10
2746.7999999999997
20
488
10
2818.9999999999995
20
488
10
2818.9999999999995
20
342
0
LWPOLYLINE
5
1B8
330
11
100
AcDbEntity
100
AcDbPolyline
8
rect_polygon
6
ByLayer
62
256
370
-1
90
4
70
1
10
2744.7999999999997
20
40
10
2744.7999999999997
20
190
10
2820.9999999999995
20
190
10
2820.9999999999995
20
40
0
LWPOLYLINE
5
1B9
330
11
100
AcDbEntity
100
AcDbPolyline
8
rect_polygon
6
ByLayer
62
256
370
-1
90
4
70
1
10
2746.7999999999997
20
42
10
2746.7999999999997
20
188
10
2818.9999999999995
20
188
10
2818.9999999999995
20
42
0
LWPOLYLINE
5
1BA
330
11
100
AcDbEntity
100
AcDbPolyline
8
rect_polygon
6
ByLayer
62
256
370
-1
90
4
70
1
10
2744.7999999999997
20
190
10
2744.7999999999997
20
340
10
2820.9999999999995
20
340
10
2820.9999999999995
20
190
0
LWPOLYLINE
5
1BB
330
11
100
AcDbEntity
100
AcDbPolyline
8
rect_polygon
6
ByLayer
62
256
370
-1
90
4
70
1
10
2746.7999999999997
20
192
10
2746.7999999999997
20
338
10
2818.9999999999995
20
338
10
2818.9999999999995
20
192
0
LWPOLYLINE
5
1BC
330
11
100
AcDbEntity
100
AcDbPolyline
8
rect_polygon
6
ByLayer
62
256
370
-1
90
4
70
1
10
2744.7999999999997
20
340
10
2744.7999999999997
20
490
10
2820.9999999999995
20
490
10
2820.9999999999995
20
340
0
LWPOLYLINE
5
1BD
330
11
100
AcDbEntity
100
AcDbPolyline
8
rect_polygon
6
ByLayer
62
256
370
-1
90
4
70
1
10
2746.7999999999997
20
342
10
2746.7999999999997
20
488
10
2818.9999999999995
20
488
10
2818.9999999999995
20
342
0
LWPOLYLINE
5
1BE
330
11
100
AcDbEntity
100
AcDbPolyline
8
rect_polygon
6
ByLayer
62
256
370
-1
90
4
70
1
10
2668.6
20
340
10
2668.6
20
490
10
2744.7999999999997
20
490
10
2744.7999999999997
20
340
0
LWPOLYLINE
5
1BF
330
11
100
AcDbEntity
100
AcDbPolyline
8
rect_polygon
6
ByLayer
62
256
370
-1
90
4
70
1
10
2670.6
20
342
10
2670.6
20
488
10
2742.7999999999997
20
488
10
2742.7999999999997
20
342
0
LWPOLYLINE
5
1C0
330
11
100
AcDbEntity
100
AcDbPolyline
8
rect_polygon
6
ByLayer
62
256
370
-1
90
4
70
1
10
2668.6
20
40
10
2668.6
20
190
10
2744.7999999999997
20
190
10
2744.7999999999997
20
40
0
LWPOLYLINE
5
1C1
330
11
100
AcDbEntity
100
AcDbPolyline
8
rect_polygon
6
ByLayer
62
256
370
-1
90
4
70
1
10
2670.6
20
42
10
2670.6
20
188
10
2742.7999999999997
20
188
10
2742.7999999999997
20
42
0
LWPOLYLINE
5
1C2
330
11
100
AcDbEntity
100
AcDbPolyline
8
rect_polygon
6
ByLayer
62
256
370
-1
90
4
70
1
10
2668.6
20
190
10
2668.6
20
340
10
2744.7999999999997
20
340
10
2744.7999999999997
20
190
0
LWPOLYLINE
5
1C3
330
11
100
AcDbEntity
100
AcDbPolyline
8
rect_polygon
6
ByLayer
62
256
370
-1
90
4
70
1
10
2670.6
20
192
10
2670.6
20
338
10
2742.7999999999997
20
338
10
2742.7999999999997
20
192
0
LWPOLYLINE
5
1C4
330
11
100
AcDbEntity
100
AcDbPolyline
8
rect_polygon
6
ByLayer
62
256
370
-1
90
4
70
1
10
2668.6
20
340
10
2668.6
20
490
10
2744.7999999999997
20
490
10
2744.7999999999997
20
340
0
LWPOLYLINE
5
1C5
330
11
100
AcDbEntity
100
AcDbPolyline
8
rect_polygon
6
ByLayer
62
256
370
-1
90
4
70
1
10
2670.6
20
342
10
2670.6
20
488
10
2742.7999999999997
20
488
10
2742.7999999999997
20
342
0
LWPOLYLINE
5
1C6
330
11
100
AcDbEntity
100
AcDbPolyline
8
rect_polygon
6
ByLayer
62
256
370
-1
90
4
70
1
10
2668.6
20
40
10
2668.6
20
190
10
2744.7999999999997
20
190
10
2744.7999999999997
20
40
0
LWPOLYLINE
5
1C7
330
11
100
AcDbEntity
100
AcDbPolyline
8
rect_polygon
6
ByLayer
62
256
370
-1
90
4
70
1
10
2670.6
20
42
10
2670.6
20
188
10
2742.7999999999997
20
188
10
2742.7999999999997
20
42
0
LWPOLYLINE
5
1C8
330
11
100
AcDbEntity
100
AcDbPolyline
8
rect_polygon
6
ByLayer
62
256
370
-1
90
4
70
1
10
2668.6
20
190
10
2668.6
20
340
10
2744.7999999999997
20
340
10
2744.7999999999997
20
190
0
LWPOLYLINE
5
1C9
330
11
100
AcDbEntity
100
AcDbPolyline
8
rect_polygon
6
ByLayer
62
256
370
-1
90
4
70
1
10
2670.6
20
192
10
2670.6
20
338
10
2742.7999999999997
20
338
10
2742.7999999999997
20
192
0
LWPOLYLINE
5
1CA
330
11
100
AcDbEntity
100
AcDbPolyline
8
rect_polygon
6
ByLayer
62
256
370
-1
90
4
70
1
10
2668.6
20
340
10
2668.6
20
490
10
2744.7999999999997
20
490
10
2744.7999999999997
20
340
0
LWPOLYLINE
5
1CB
330
11
100
AcDbEntity
100
AcDbPolyline
8
rect_polygon
6
ByLayer
62
256
370
-1
90
4
70
1
10
2670.6
20
342
10
2670.6
20
488
10
2742.7999999999997
20
488
10
2742.7999999999997
20
342
0
LWPOLYLINE
5
1CC
330
11
100
AcDbEntity
100
AcDbPolyline
8
rect_polygon
6
ByLayer
62
256
370
-1
90
4
70
1
10
2668.6
20
40
10
2668.6
20
190
10
2744.7999999999997
20
190
10
2744.7999999999997
20
40
0
LWPOLYLINE
5
1CD
330
11
100
AcDbEntity
100
AcDbPolyline
8
rect_polygon
6
ByLayer
62
256
370
-1
90
4
70
1
10
2670.6
20
42
10
2670.6
20
188
10
2742.7999999999997
20
188
10
2742.7999999999997
20
42
0
LWPOLYLINE
5
1CE
330
11
100
AcDbEntity
100
AcDbPolyline
8
rect_polygon
6
ByLayer
62
256
370
-1
90
4
70
1
10
2668.6
20
190
10
2668.6
20
340
10
2744.7999999999997
20
340
10
2744.7999999999997
20
190
0
LWPOLYLINE
5
1CF
330
11
100
AcDbEntity
100
AcDbPolyline
8
rect_polygon
6
ByLayer
62
256
370
-1
90
4
70
1
10
2670.6
20
192
10
2670.6
20
338
10
2742.7999999999997
20
338
10
2742.7999999999997
20
192
0
LWPOLYLINE
5
1D0
330
11
100
AcDbEntity
100
AcDbPolyline
8
rect_polygon
6
ByLayer
62
256
370
-1
90
4
70
1
10
2668.6
20
340
10
2668.6
20
490
10
2744.7999999999997
20
490
10
2744.7999999999997
20
340
0
LWPOLYLINE
5
1D1
330
11
100
AcDbEntity
100
AcDbPolyline
8
rect_polygon
6
ByLayer
62
256
370
-1
90
4
70
1
10
2670.6
20
342
10
2670.6
20
488
10
2742.7999999999997
20
488
10
2742.7999999999997
20
342
0
LINE
5
1D3
330
11
100
AcDbEntity
100
AcDbLine
8
stair
10
1194.4
20
1352
30
0
11
1213.45
21
1352
31
0
0
LINE
5
1D4
330
11
100
AcDbEntity
100
AcDbLine
8
stair
10
1194.4
20
1362
30
0
11
1213.45
21
1362
31
0
0
LINE
5
1D5
330
11
100
AcDbEntity
100
AcDbLine
8
stair
10
1194.4
20
1372
30
0
11
1213.45
21
1372
31
0
0
LINE
5
1D6
330
11
100
AcDbEntity
100
AcDbLine
8
stair
10
1194.4
20
1382
30
0
11
1213.45
21
1382
31
0
0
LINE
5
1D7
330
11
100
AcDbEntity
100
AcDbLine
8
stair
10
1194.4
20
1392
30
0
11
1213.45
21
1392
31
0
0
LINE
5
1D8
330
11
100
AcDbEntity
100
AcDbLine
8
stair
10
1194.4
20
1402
30
0
11
1213.45
21
1402
31
0
0
LINE
5
1D9
330
11
100
AcDbEntity
100
AcDbLine
8
stair
10
1194.4
20
1412
30
0
11
1213.45
21
1412
31
0
0
LINE
5
1DA
330
11
100
AcDbEntity
100
AcDbLine
8
stair
10
1194.4
20
1422
30
0
11
1213.45
21
1422
31
0
0
LINE
5
1DB
330
11
100
AcDbEntity
100
AcDbLine
8
stair
10
1194.4
20
1432
30
0
11
1213.45
21
1432
31
0
0
LINE
5
1DC
330
11
100
AcDbEntity
100
AcDbLine
8
stair
10
1194.4
20
1442
30
0
11
1213.45
21
1442
31
0
0
LINE
5
1DD
330
11
100
AcDbEntity
100
AcDbLine
8
stair
10
1194.4
20
1452
30
0
11
1213.45
21
1452
31
0
0
LINE
5
1DE
330
11
100
AcDbEntity
100
AcDbLine
8
stair
10
1194.4
20
1462
30
0
11
1213.45
21
1462
31
0
0
LINE
5
1DF
330
11
100
AcDbEntity
100
AcDbLine
8
stair
10
1194.4
20
1472
30
0
11
1213.45
21
1472
31
0
0
LINE
5
1E0
330
11
100
AcDbEntity
100
AcDbLine
8
stair
10
1194.4
20
1342
30
0
11
1194.4
21
1492
31
0
0
LINE
5
1E1
330
11
100
AcDbEntity
100
AcDbLine
8
stair
10
1213.45
20
1342
30
0
11
1213.45
21
1488
31
0
0
LINE
5
1E2
330
11
100
AcDbEntity
100
AcDbLine
8
stair
10
1194.4
20
1352
30
0
11
1213.45
21
1352
31
0
0
LINE
5
1E3
330
11
100
AcDbEntity
100
AcDbLine
8
stair
10
1194.4
20
1362
30
0
11
1213.45
21
1362
31
0
0
LINE
5
1E4
330
11
100
AcDbEntity
100
AcDbLine
8
stair
10
1194.4
20
1372
30
0
11
1213.45
21
1372
31
0
0
LINE
5
1E5
330
11
100
AcDbEntity
100
AcDbLine
8
stair
10
1194.4
20
1382
30
0
11
1213.45
21
1382
31
0
0
LINE
5
1E6
330
11
100
AcDbEntity
100
AcDbLine
8
stair
10
1194.4
20
1392
30
0
11
1213.45
21
1392
31
0
0
LINE
5
1E7
330
11
100
AcDbEntity
100
AcDbLine
8
stair
10
1194.4
20
1402
30
0
11
1213.45
21
1402
31
0
0
LINE
5
1E8
330
11
100
AcDbEntity
100
AcDbLine
8
stair
10
1194.4
20
1412
30
0
11
1213.45
21
1412
31
0
0
LINE
5
1E9
330
11
100
AcDbEntity
100
AcDbLine
8
stair
10
1194.4
20
1422
30
0
11
1213.45
21
1422
31
0
0
LINE
5
1EA
330
11
100
AcDbEntity
100
AcDbLine
8
stair
10
1194.4
20
1432
30
0
11
1213.45
21
1432
31
0
0
LINE
5
1EB
330
11
100
AcDbEntity
100
AcDbLine
8
stair
10
1194.4
20
1442
30
0
11
1213.45
21
1442
31
0
0
LINE
5
1EC
330
11
100
AcDbEntity
100
AcDbLine
8
stair
10
1194.4
20
1452
30
0
11
1213.45
21
1452
31
0
0
LINE
5
1ED
330
11
100
AcDbEntity
100
AcDbLine
8
stair
10
1194.4
20
1462
30
0
11
1213.45
21
1462
31
0
0
LINE
5
1EE
330
11
100
AcDbEntity
100
AcDbLine
8
stair
10
1194.4
20
1472
30
0
11
1213.45
21
1472
31
0
0
LINE
5
1EF
330
11
100
AcDbEntity
100
AcDbLine
8
stair
10
1194.4
20
1342
30
0
11
1194.4
21
1492
31
0
0
LINE
5
1F0
330
11
100
AcDbEntity
100
AcDbLine
8
stair
10
1213.45
20
1342
30
0
11
1213.45
21
1488
31
0
0
LINE
5
1F1
330
11
100
AcDbEntity
100
AcDbLine
8
stair
10
1194.4
20
1352
30
0
11
1213.45
21
1352
31
0
0
LINE
5
1F2
330
11
100
AcDbEntity
100
AcDbLine
8
stair
10
1194.4
20
1362
30
0
11
1213.45
21
1362
31
0
0
LINE
5
1F3
330
11
100
AcDbEntity
100
AcDbLine
8
stair
10
1194.4
20
1372
30
0
11
1213.45
21
1372
31
0
0
LINE
5
1F4
330
11
100
AcDbEntity
100
AcDbLine
8
stair
10
1194.4
20
1382
30
0
11
1213.45
21
1382
31
0
0
LINE
5
1F5
330
11
100
AcDbEntity
100
AcDbLine
8
stair
10
1194.4
20
1392
30
0
11
1213.45
21
1392
31
0
0
LINE
5
1F6
330
11
100
AcDbEntity
100
AcDbLine
8
stair
10
1194.4
20
1402
30
0
11
1213.45
21
1402
31
0
0
LINE
5
1F7
330
11
100
AcDbEntity
100
AcDbLine
8
stair
10
1194.4
20
1412
30
0
11
1213.45
21
1412
31
0
0
LINE
5
1F8
330
11
100
AcDbEntity
100
AcDbLine
8
stair
10
1194.4
20
1422
30
0
11
1213.45
21
1422
31
0
0
LINE
5
1F9
330
11
100
AcDbEntity
100
AcDbLine
8
stair
10
1194.4
20
1432
30
0
11
1213.45
21
1432
31
0
0
LINE
5
1FA
330
11
100
AcDbEntity
100
AcDbLine
8
stair
10
1194.4
20
1442
30
0
11
1213.45
21
1442
31
0
0
LINE
5
1FB
330
11
100
AcDbEntity
100
AcDbLine
8
stair
10
1194.4
20
1452
30
0
11
1213.45
21
1452
31
0
0
LINE
5
1FC
330
11
100
AcDbEntity
100
AcDbLine
8
stair
10
1194.4
20
1462
30
0
11
1213.45
21
1462
31
0
0
LINE
5
1FD
330
11
100
AcDbEntity
100
AcDbLine
8
stair
10
1194.4
20
1472
30
0
11
1213.45
21
1472
31
0
0
LINE
5
1FE
330
11
100
AcDbEntity
100
AcDbLine
8
stair
10
1194.4
20
1342
30
0
11
1194.4
21
1492
31
0
0
LINE
5
1FF
330
11
100
AcDbEntity
100
AcDbLine
8
stair
10
1213.45
20
1342
30
0
11
1213.45
21
1488
31
0
0
LINE
5
200
330
11
100
AcDbEntity
100
AcDbLine
8
stair
10
40
20
40
30
0
11
190
21
190
31
0
0
LINE
5
201
330
11
100
AcDbEntity
100
AcDbLine
8
stair
10
43
20
50
30
0
11
57
21
50
31
0
0
LINE
5
202
330
11
100
AcDbEntity
100
AcDbLine
8
stair
10
53
20
60
30
0
11
67
21
60
31
0
0
LINE
5
203
330
11
100
AcDbEntity
100
AcDbLine
8
stair
10
63
20
70
30
0
11
77
21
70
31
0
0
LINE
5
204
330
11
100
AcDbEntity
100
AcDbLine
8
stair
10
73
20
80
30
0
11
87
21
80
31
0
0
LINE
5
205
330
11
100
AcDbEntity
100
AcDbLine
8
stair
10
83
20
90
30
0
11
97
21
90
31
0
0
LINE
5
206
330
11
100
AcDbEntity
100
AcDbLine
8
stair
10
93
20
100
30
0
11
107
21
100
31
0
0
LINE
5
207
330
11
100
AcDbEntity
100
AcDbLine
8
stair
10
103
20
110
30
0
11
117
21
110
31
0
0
LINE
5
208
330
11
100
AcDbEntity
100
AcDbLine
8
stair
10
113
20
120
30
0
11
127
21
120
31
0
0
LINE
5
209
330
11
100
AcDbEntity
100
AcDbLine
8
stair
10
123
20
130
30
0
11
137
21
130
31
0
0
LINE
5
20A
330
11
100
AcDbEntity
100
AcDbLine
8
stair
10
133
20
140
30
0
11
147
21
140
31
0
0
LINE
5
20B
330
11
100
AcDbEntity
100
AcDbLine
8
stair
10
143
20
150
30
0
11
157
21
150
31
0
0
LINE
5
20C
330
11
100
AcDbEntity
100
AcDbLine
8
stair
10
153
20
160
30
0
11
167
21
160
31
0
0
LINE
5
20D
330
11
100
AcDbEntity
100
AcDbLine
8
stair
10
163
20
170
30
0
11
177
21
170
31
0
0
LINE
5
20E
330
11
100
AcDbEntity
100
AcDbLine
8
stair
10
173
20
180
30
0
11
187
21
180
31
0
0
LINE
5
20F
330
11
100
AcDbEntity
100
AcDbLine
8
stair
10
40
20
190
30
0
11
190
21
340
31
0
0
LINE
5
210
330
11
100
AcDbEntity
100
AcDbLine
8
stair
10
43
20
200
30
0
11
57
21
200
31
0
0
LINE
5
211
330
11
100
AcDbEntity
100
AcDbLine
8
stair
10
53
20
210
30
0
11
67
21
210
31
0
0
LINE
5
212
330
11
100
AcDbEntity
100
AcDbLine
8
stair
10
63
20
220
30
0
11
77
21
220
31
0
0
LINE
5
213
330
11
100
AcDbEntity
100
AcDbLine
8
stair
10
73
20
230
30
0
11
87
21
230
31
0
0
LINE
5
214
330
11
100
AcDbEntity
100
AcDbLine
8
stair
10
83
20
240
30
0
11
97
21
240
31
0
0
LINE
5
215
330
11
100
AcDbEntity
100
AcDbLine
8
stair
10
93
20
250
30
0
11
107
21
250
31
0
0
LINE
5
216
330
11
100
AcDbEntity
100
AcDbLine
8
stair
10
103
20
260
30
0
11
117
21
260
31
0
0
LINE
5
217
330
11
100
AcDbEntity
100
AcDbLine
8
stair
10
113
20
270
30
0
11
127
21
270
31
0
0
LINE
5
218
330
11
100
AcDbEntity
100
AcDbLine
8
stair
10
123
20
280
30
0
11
137
21
280
31
0
0
LINE
5
219
330
11
100
AcDbEntity
100
AcDbLine
8
stair
10
133
20
290
30
0
11
147
21
290
31
0
0
LINE
5
21A
330
11
100
AcDbEntity
100
AcDbLine
8
stair
10
143
20
300
30
0
11
157
21
300
31
0
0
LINE
5
21B
330
11
100
AcDbEntity
100
AcDbLine
8
stair
10
153
20
310
30
0
11
167
21
310
31
0
0
LINE
5
21C
330
11
100
AcDbEntity
100
AcDbLine
8
stair
10
163
20
320
30
0
11
177
21
320
31
0
0
LINE
5
21D
330
11
100
AcDbEntity
100
AcDbLine
8
stair
10
173
20
330
30
0
11
187
21
330
31
0
0
LINE
5
21E
330
11
100
AcDbEntity
100
AcDbLine
8
stair
10
40
20
340
30
0
11
190
21
490
31
0
0
LINE
5
21F
330
11
100
AcDbEntity
100
AcDbLine
8
stair
10
43
20
350
30
0
11
57
21
350
31
0
0
LINE
5
220
330
11
100
AcDbEntity
100
AcDbLine
8
stair
10
53
20
360
30
0
11
67
21
360
31
0
0
LINE
5
221
330
11
100
AcDbEntity
100
AcDbLine
8
stair
10
63
20
370
30
0
11
77
21
370
31
0
0
LINE
5
222
330
11
100
AcDbEntity
100
AcDbLine
8
stair
10
73
20
380
30
0
11
87
21
380
31
0
0
LINE
5
223
330
11
100
AcDbEntity
100
AcDbLine
8
stair
10
83
20
390
30
0
11
97
21
390
31
0
0
LINE
5
224
330
11
100
AcDbEntity
100
AcDbLine
8
stair
10
93
20
400
30
0
11
107
21
400
31
0
0
LINE
5
225
330
11
100
AcDbEntity
100
AcDbLine
8
stair
10
103
20
410
30
0
11
117
21
410
31
0
0
LINE
5
226
330
11
100
AcDbEntity
100
AcDbLine
8
stair
10
113
20
420
30
0
11
127
21
420
31
0
0
LINE
5
227
330
11
100
AcDbEntity
100
AcDbLine
8
stair
10
123
20
430
30
0
11
137
21
430
31
0
0
LINE
5
228
330
11
100
AcDbEntity
100
AcDbLine
8
stair
10
133
20
440
30
0
11
147
21
440
31
0
0
LINE
5
229
330
11
100
AcDbEntity
100
AcDbLine
8
stair
10
143
20
450
30
0
11
157
21
450
31
0
0
LINE
5
22A
330
11
100
AcDbEntity
100
AcDbLine
8
stair
10
153
20
460
30
0
11
167
21
460
31
0
0
LINE
5
22B
330
11
100
AcDbEntity
100
AcDbLine
8
stair
10
163
20
470
30
0
11
177
21
470
31
0
0
LINE
5
22C
330
11
100
AcDbEntity
100
AcDbLine
8
stair
10
173
20
480
30
0
11
187
21
480
31
0
0
LINE
5
22D
330
11
100
AcDbEntity
100
AcDbLine
8
stair
10
1194.4
20
52
30
0
11
1213.45
21
52
31
0
0
LINE
5
22E
330
11
100
AcDbEntity
100
AcDbLine
8
stair
10
1194.4
20
62
30
0
11
1213.45
21
62
31
0
0
LINE
5
22F
330
11
100
AcDbEntity
100
AcDbLine
8
stair
10
1194.4
20
72
30
0
11
1213.45
21
72
31
0
0
LINE
5
230
330
11
100
AcDbEntity
100
AcDbLine
8
stair
10
1194.4
20
82
30
0
11
1213.45
21
82
31
0
0
LINE
5
231
330
11
100
AcDbEntity
100
AcDbLine
8
stair
10
1194.4
20
92
30
0
11
1213.45
21
92
31
0
0
LINE
5
232
330
11
100
AcDbEntity
100
AcDbLine
8
stair
10
1194.4
20
102
30
0
11
1213.45
21
102
31
0
0
LINE
5
233
330
11
100
AcDbEntity
100
AcDbLine
8
stair
10
1194.4
20
112
30
0
11
1213.45
21
112
31
0
0
LINE
5
234
330
11
100
AcDbEntity
100
AcDbLine
8
stair
10
1194.4
20
122
30
0
11
1213.45
21
122
31
0
0
LINE
5
235
330
11
100
AcDbEntity
100
AcDbLine
8
stair
10
1194.4
20
132
30
0
11
1213.45
21
132
31
0
0
LINE
5
236
330
11
100
AcDbEntity
100
AcDbLine
8
stair
10
1194.4
20
142
30
0
11
1213.45
21
142
31
0
0
LINE
5
237
330
11
100
AcDbEntity
100
AcDbLine
8
stair
10
1194.4
20
152
30
0
11
1213.45
21
152
31
0
0
LINE
5
238
330
11
100
AcDbEntity
100
AcDbLine
8
stair
10
1194.4
20
162
30
0
11
1213.45
21
162
31
0
0
LINE
5
239
330
11
100
AcDbEntity
100
AcDbLine
8
stair
10
1194.4
20
172
30
0
11
1213.45
21
172
31
0
0
LINE
5
23A
330
11
100
AcDbEntity
100
AcDbLine
8
stair
10
1194.4
20
42
30
0
11
1194.4
21
192
31
0
0
LINE
5
23B
330
11
100
AcDbEntity
100
AcDbLine
8
stair
10
1213.45
20
42
30
0
11
1213.45
21
188
31
0
0
LINE
5
23C
330
11
100
AcDbEntity
100
AcDbLine
8
stair
10
1194.4
20
202
30
0
11
1213.45
21
202
31
0
0
LINE
5
23D
330
11
100
AcDbEntity
100
AcDbLine
8
stair
10
1194.4
20
212
30
0
11
1213.45
21
212
31
0
0
LINE
5
23E
330
11
100
AcDbEntity
100
AcDbLine
8
stair
10
1194.4
20
222
30
0
11
1213.45
21
222
31
0
0
LINE
5
23F
330
11
100
AcDbEntity
100
AcDbLine
8
stair
10
1194.4
20
232
30
0
11
1213.45
21
232
31
0
0
LINE
5
240
330
11
100
AcDbEntity
100
AcDbLine
8
stair
10
1194.4
20
242
30
0
11
1213.45
21
242
31
0
0
LINE
5
241
330
11
100
AcDbEntity
100
AcDbLine
8
stair
10
1194.4
20
252
30
0
11
1213.45
21
252
31
0
0
LINE
5
242
330
11
100
AcDbEntity
100
AcDbLine
8
stair
10
1194.4
20
262
30
0
11
1213.45
21
262
31
0
0
LINE
5
243
330
11
100
AcDbEntity
100
AcDbLine
8
stair
10
1194.4
20
272
30
0
11
1213.45
21
272
31
0
0
LINE
5
244
330
11
100
AcDbEntity
100
AcDbLine
8
stair
10
1194.4
20
282
30
0
11
1213.45
21
282
31
0
0
LINE
5
245
330
11
100
AcDbEntity
100
AcDbLine
8
stair
10
1194.4
20
292
30
0
11
1213.45
21
292
31
0
0
LINE
5
246
330
11
100
AcDbEntity
100
AcDbLine
8
stair
10
1194.4
20
302
30
0
11
1213.45
21
302
31
0
0
LINE
5
247
330
11
100
AcDbEntity
100
AcDbLine
8
stair
10
1194.4
20
312
30
0
11
1213.45
21
312
31
0
0
LINE
5
248
330
11
100
AcDbEntity
100
AcDbLine
8
stair
10
1194.4
20
322
30
0
11
1213.45
21
322
31
0
0
LINE
5
249
330
11
100
AcDbEntity
100
AcDbLine
8
stair
10
1194.4
20
192
30
0
11
1194.4
21
342
31
0
0
LINE
5
24A
330
11
100
AcDbEntity
100
AcDbLine
8
stair
10
1213.45
20
192
30
0
11
1213.45
21
338
31
0
0
LINE
5
24B
330
11
100
AcDbEntity
100
AcDbLine
8
stair
10
1194.4
20
352
30
0
11
1213.45
21
352
31
0
0
LINE
5
24C
330
11
100
AcDbEntity
100
AcDbLine
8
stair
10
1194.4
20
362
30
0
11
1213.45
21
362
31
0
0
LINE
5
24D
330
11
100
AcDbEntity
100
AcDbLine
8
stair
10
1194.4
20
372
30
0
11
1213.45
21
372
31
0
0
LINE
5
24E
330
11
100
AcDbEntity
100
AcDbLine
8
stair
10
1194.4
20
382
30
0
11
1213.45
21
382
31
0
0
LINE
5
24F
330
11
100
AcDbEntity
100
AcDbLine
8
stair
10
1194.4
20
392
30
0
11
1213.45
21
392
31
0
0
LINE
5
250
330
11
100
AcDbEntity
100
AcDbLine
8
stair
10
1194.4
20
402
30
0
11
1213.45
21
402
31
0
0
LINE
5
251
330
11
100
AcDbEntity
100
AcDbLine
8
stair
10
1194.4
20
412
30
0
11
1213.45
21
412
31
0
0
LINE
5
252
330
11
100
AcDbEntity
100
AcDbLine
8
stair
10
1194.4
20
422
30
0
11
1213.45
21
422
31
0
0
LINE
5
253
330
11
100
AcDbEntity
100
AcDbLine
8
stair
10
1194.4
20
432
30
0
11
1213.45
21
432
31
0
0
LINE
5
254
330
11
100
AcDbEntity
100
AcDbLine
8
stair
10
1194.4
20
442
30
0
11
1213.45
21
442
31
0
0
LINE
5
255
330
11
100
AcDbEntity
100
AcDbLine
8
stair
10
1194.4
20
452
30
0
11
1213.45
21
452
31
0
0
LINE
5
256
330
11
100
AcDbEntity
100
AcDbLine
8
stair
10
1194.4
20
462
30
0
11
1213.45
21
462
31
0
0
LINE
5
257
330
11
100
AcDbEntity
100
AcDbLine
8
stair
10
1194.4
20
472
30
0
11
1213.45
21
472
31
0
0
LINE
5
258
330
11
100
AcDbEntity
100
AcDbLine
8
stair
10
1194.4
20
342
30
0
11
1194.4
21
492
31
0
0
LINE
5
259
330
11
100
AcDbEntity
100
AcDbLine
8
stair
10
1213.45
20
342
30
0
11
1213.45
21
488
31
0
0
LINE
5
25A
330
11
100
AcDbEntity
100
AcDbLine
8
stair
10
2118.6
20
40
30
0
11
2268.6
21
190
31
0
0
LINE
5
25B
330
11
100
AcDbEntity
100
AcDbLine
8
stair
10
2121.6
20
50
30
0
11
2135.6
21
50
31
0
0
LINE
5
25C
330
11
100
AcDbEntity
100
AcDbLine
8
stair
10
2131.6
20
60
30
0
11
2145.6
21
60
31
0
0
LINE
5
25D
330
11
100
AcDbEntity
100
AcDbLine
8
stair
10
2141.6
20
70
30
0
11
2155.6
21
70
31
0
0
LINE
5
25E
330
11
100
AcDbEntity
100
AcDbLine
8
stair
10
2151.6
20
80
30
0
11
2165.6
21
80
31
0
0
LINE
5
25F
330
11
100
AcDbEntity
100
AcDbLine
8
stair
10
2161.6
20
90
30
0
11
2175.6
21
90
31
0
0
LINE
5
260
330
11
100
AcDbEntity
100
AcDbLine
8
stair
10
2171.6
20
100
30
0
11
2185.6
21
100
31
0
0
LINE
5
261
330
11
100
AcDbEntity
100
AcDbLine
8
stair
10
2181.6
20
110
30
0
11
2195.6
21
110
31
0
0
LINE
5
262
330
11
100
AcDbEntity
100
AcDbLine
8
stair
10
2191.6
20
120
30
0
11
2205.6
21
120
31
0
0
LINE
5
263
330
11
100
AcDbEntity
100
AcDbLine
8
stair
10
2201.6
20
130
30
0
11
2215.6
21
130
31
0
0
LINE
5
264
330
11
100
AcDbEntity
100
AcDbLine
8
stair
10
2211.6
20
140
30
0
11
2225.6
21
140
31
0
0
LINE
5
265
330
11
100
AcDbEntity
100
AcDbLine
8
stair
10
2221.6
20
150
30
0
11
2235.6
21
150
31
0
0
LINE
5
266
330
11
100
AcDbEntity
100
AcDbLine
8
stair
10
2231.6
20
160
30
0
11
2245.6
21
160
31
0
0
LINE
5
267
330
11
100
AcDbEntity
100
AcDbLine
8
stair
10
2241.6
20
170
30
0
11
2255.6
21
170
31
0
0
LINE
5
268
330
11
100
AcDbEntity
100
AcDbLine
8
stair
10
2251.6
20
180
30
0
11
2265.6
21
180
31
0
0
LINE
5
269
330
11
100
AcDbEntity
100
AcDbLine
8
stair
10
2118.6
20
190
30
0
11
2268.6
21
340
31
0
0
LINE
5
26A
330
11
100
AcDbEntity
100
AcDbLine
8
stair
10
2121.6
20
200
30
0
11
2135.6
21
200
31
0
0
LINE
5
26B
330
11
100
AcDbEntity
100
AcDbLine
8
stair
10
2131.6
20
210
30
0
11
2145.6
21
210
31
0
0
LINE
5
26C
330
11
100
AcDbEntity
100
AcDbLine
8
stair
10
2141.6
20
220
30
0
11
2155.6
21
220
31
0
0
LINE
5
26D
330
11
100
AcDbEntity
100
AcDbLine
8
stair
10
2151.6
20
230
30
0
11
2165.6
21
230
31
0
0
LINE
5
26E
330
11
100
AcDbEntity
100
AcDbLine
8
stair
10
2161.6
20
240
30
0
11
2175.6
21
240
31
0
0
LINE
5
26F
330
11
100
AcDbEntity
100
AcDbLine
8
stair
10
2171.6
20
250
30
0
11
2185.6
21
250
31
0
0
LINE
5
270
330
11
100
AcDbEntity
100
AcDbLine
8
stair
10
2181.6
20
260
30
0
11
2195.6
21
260
31
0
0
LINE
5
271
330
11
100
AcDbEntity
100
AcDbLine
8
stair
10
2191.6
20
270
30
0
11
2205.6
21
270
31
0
0
LINE
5
272
330
11
100
AcDbEntity
100
AcDbLine
8
stair
10
2201.6
20
280
30
0
11
2215.6
21
280
31
0
0
LINE
5
273
330
11
100
AcDbEntity
100
AcDbLine
8
stair
10
2211.6
20
290
30
0
11
2225.6
21
290
31
0
0
LINE
5
274
330
11
100
AcDbEntity
100
AcDbLine
8
stair
10
2221.6
20
300
30
0
11
2235.6
21
300
31
0
0
LINE
5
275
330
11
100
AcDbEntity
100
AcDbLine
8
stair
10
2231.6
20
310
30
0
11
2245.6
21
310
31
0
0
LINE
5
276
330
11
100
AcDbEntity
100
AcDbLine
8
stair
10
2241.6
20
320
30
0
11
2255.6
21
320
31
0
0
LINE
5
277
330
11
100
AcDbEntity
100
AcDbLine
8
stair
10
2251.6
20
330
30
0
11
2265.6
21
330
31
0
0
LINE
5
278
330
11
100
AcDbEntity
100
AcDbLine
8
stair
10
2118.6
20
340
30
0
11
2268.6
21
490
31
0
0
LINE
5
279
330
11
100
AcDbEntity
100
AcDbLine
8
stair
10
2121.6
20
350
30
0
11
2135.6
21
350
31
0
0
LINE
5
27A
330
11
100
AcDbEntity
100
AcDbLine
8
stair
10
2131.6
20
360
30
0
11
2145.6
21
360
31
0
0
LINE
5
27B
330
11
100
AcDbEntity
100
AcDbLine
8
stair
10
2141.6
20
370
30
0
11
2155.6
21
370
31
0
0
LINE
5
27C
330
11
100
AcDbEntity
100
AcDbLine
8
stair
10
2151.6
20
380
30
0
11
2165.6
21
380
31
0
0
LINE
5
27D
330
11
100
AcDbEntity
100
AcDbLine
8
stair
10
2161.6
20
390
30
0
11
2175.6
21
390
31
0
0
LINE
5
27E
330
11
100
AcDbEntity
100
AcDbLine
8
stair
10
2171.6
20
400
30
0
11
2185.6
21
400
31
0
0
LINE
5
27F
330
11
100
AcDbEntity
100
AcDbLine
8
stair
10
2181.6
20
410
30
0
11
2195.6
21
410
31
0
0
LINE
5
280
330
11
100
AcDbEntity
100
AcDbLine
8
stair
10
2191.6
20
420
30
0
11
2205.6
21
420
31
0
0
LINE
5
281
330
11
100
AcDbEntity
100
AcDbLine
8
stair
10
2201.6
20
430
30
0
11
2215.6
21
430
31
0
0
LINE
5
282
330
11
100
AcDbEntity
100
AcDbLine
8
stair
10
2211.6
20
440
30
0
11
2225.6
21
440
31
0
0
LINE
5
283
330
11
100
AcDbEntity
100
AcDbLine
8
stair
10
2221.6
20
450
30
0
11
2235.6
21
450
31
0
0
LINE
5
284
330
11
100
AcDbEntity
100
AcDbLine
8
stair
10
2231.6
20
460
30
0
11
2245.6
21
460
31
0
0
LINE
5
285
330
11
100
AcDbEntity
100
AcDbLine
8
stair
10
2241.6
20
470
30
0
11
2255.6
21
470
31
0
0
LINE
5
286
330
11
100
AcDbEntity
100
AcDbLine
8
stair
10
2251.6
20
480
30
0
11
2265.6
21
480
31
0
0
LINE
5
287
330
11
100
AcDbEntity
100
AcDbLine
8
stair
10
2670.6
20
52
30
0
11
2689.65
21
52
31
0
0
LINE
5
288
330
11
100
AcDbEntity
100
AcDbLine
8
stair
10
2670.6
20
62
30
0
11
2689.65
21
62
31
0
0
LINE
5
289
330
11
100
AcDbEntity
100
AcDbLine
8
stair
10
2670.6
20
72
30
0
11
2689.65
21
72
31
0
0
LINE
5
28A
330
11
100
AcDbEntity
100
AcDbLine
8
stair
10
2670.6
20
82
30
0
11
2689.65
21
82
31
0
0
LINE
5
28B
330
11
100
AcDbEntity
100
AcDbLine
8
stair
10
2670.6
20
92
30
0
11
2689.65
21
92
31
0
0
LINE
5
28C
330
11
100
AcDbEntity
100
AcDbLine
8
stair
10
2670.6
20
102
30
0
11
2689.65
21
102
31
0
0
LINE
5
28D
330
11
100
AcDbEntity
100
AcDbLine
8
stair
10
2670.6
20
112
30
0
11
2689.65
21
112
31
0
0
LINE
5
28E
330
11
100
AcDbEntity
100
AcDbLine
8
stair
10
2670.6
20
122
30
0
11
2689.65
21
122
31
0
0
LINE
5
28F
330
11
100
AcDbEntity
100
AcDbLine
8
stair
10
2670.6
20
132
30
0
11
2689.65
21
132
31
0
0
LINE
5
290
330
11
100
AcDbEntity
100
AcDbLine
8
stair
10
2670.6
20
142
30
0
11
2689.65
21
142
31
0
0
LINE
5
291
330
11
100
AcDbEntity
100
AcDbLine
8
stair
10
2670.6
20
152
30
0
11
2689.65
21
152
31
0
0
LINE
5
292
330
11
100
AcDbEntity
100
AcDbLine
8
stair
10
2670.6
20
162
30
0
11
2689.65
21
162
31
0
0
LINE
5
293
330
11
100
AcDbEntity
100
AcDbLine
8
stair
10
2670.6
20
172
30
0
11
2689.65
21
172
31
0
0
LINE
5
294
330
11
100
AcDbEntity
100
AcDbLine
8
stair
10
2670.6
20
42
30
0
11
2670.6
21
192
31
0
0
LINE
5
295
330
11
100
AcDbEntity
100
AcDbLine
8
stair
10
2689.65
20
42
30
0
11
2689.65
21
188
31
0
0
LINE
5
296
330
11
100
AcDbEntity
100
AcDbLine
8
stair
10
2670.6
20
202
30
0
11
2689.65
21
202
31
0
0
LINE
5
297
330
11
100
AcDbEntity
100
AcDbLine
8
stair
10
2670.6
20
212
30
0
11
2689.65
21
212
31
0
0
LINE
5
298
330
11
100
AcDbEntity
100
AcDbLine
8
stair
10
2670.6
20
222
30
0
11
2689.65
21
222
31
0
0
LINE
5
299
330
11
100
AcDbEntity
100
AcDbLine
8
stair
10
2670.6
20
232
30
0
11
2689.65
21
232
31
0
0
LINE
5
29A
330
11
100
AcDbEntity
100
AcDbLine
8
stair
10
2670.6
20
242
30
0
11
2689.65
21
242
31
0
0
LINE
5
29B
330
11
100
AcDbEntity
100
AcDbLine
8
stair
10
2670.6
20
252
30
0
11
2689.65
21
252
31
0
0
LINE
5
29C
330
11
100
AcDbEntity
100
AcDbLine
8
stair
10
2670.6
20
262
30
0
11
2689.65
21
262
31
0
0
LINE
5
29D
330
11
100
AcDbEntity
100
AcDbLine
8
stair
10
2670.6
20
272
30
0
11
2689.65
21
272
31
0
0
LINE
5
29E
330
11
100
AcDbEntity
100
AcDbLine
8
stair
10
2670.6
20
282
30
0
11
2689.65
21
282
31
0
0
LINE
5
29F
330
11
100
AcDbEntity
100
AcDbLine
8
stair
10
2670.6
20
292
30
0
11
2689.65
21
292
31
0
0
LINE
5
2A0
330
11
100
AcDbEntity
100
AcDbLine
8
stair
10
2670.6
20
302
30
0
11
2689.65
21
302
31
0
0
LINE
5
2A1
330
11
100
AcDbEntity
100
AcDbLine
8
stair
10
2670.6
20
312
30
0
11
2689.65
21
312
31
0
0
LINE
5
2A2
330
11
100
AcDbEntity
100
AcDbLine
8
stair
10
2670.6
20
322
30
0
11
2689.65
21
322
31
0
0
LINE
5
2A3
330
11
100
AcDbEntity
100
AcDbLine
8
stair
10
2670.6
20
192
30
0
11
2670.6
21
342
31
0
0
LINE
5
2A4
330
11
100
AcDbEntity
100
AcDbLine
8
stair
10
2689.65
20
192
30
0
11
2689.65
21
338
31
0
0
LINE
5
2A5
330
11
100
AcDbEntity
100
AcDbLine
8
stair
10
2670.6
20
352
30
0
11
2689.65
21
352
31
0
0
LINE
5
2A6
330
11
100
AcDbEntity
100
AcDbLine
8
stair
10
2670.6
20
362
30
0
11
2689.65
21
362
31
0
0
LINE
5
2A7
330
11
100
AcDbEntity
100
AcDbLine
8
stair
10
2670.6
20
372
30
0
11
2689.65
21
372
31
0
0
LINE
5
2A8
330
11
100
AcDbEntity
100
AcDbLine
8
stair
10
2670.6
20
382
30
0
11
2689.65
21
382
31
0
0
LINE
5
2A9
330
11
100
AcDbEntity
100
AcDbLine
8
stair
10
2670.6
20
392
30
0
11
2689.65
21
392
31
0
0
LINE
5
2AA
330
11
100
AcDbEntity
100
AcDbLine
8
stair
10
2670.6
20
402
30
0
11
2689.65
21
402
31
0
0
LINE
5
2AB
330
11
100
AcDbEntity
100
AcDbLine
8
stair
10
2670.6
20
412
30
0
11
2689.65
21
412
31
0
0
LINE
5
2AC
330
11
100
AcDbEntity
100
AcDbLine
8
stair
10
2670.6
20
422
30
0
11
2689.65
21
422
31
0
0
LINE
5
2AD
330
11
100
AcDbEntity
100
AcDbLine
8
stair
10
2670.6
20
432
30
0
11
2689.65
21
432
31
0
0
LINE
5
2AE
330
11
100
AcDbEntity
100
AcDbLine
8
stair
10
2670.6
20
442
30
0
11
2689.65
21
442
31
0
0
LINE
5
2AF
330
11
100
AcDbEntity
100
AcDbLine
8
stair
10
2670.6
20
452
30
0
11
2689.65
21
452
31
0
0
LINE
5
2B0
330
11
100
AcDbEntity
100
AcDbLine
8
stair
10
2670.6
20
462
30
0
11
2689.65
21
462
31
0
0
LINE
5
2B1
330
11
100
AcDbEntity
100
AcDbLine
8
stair
10
2670.6
20
472
30
0
11
2689.65
21
472
31
0
0
LINE
5
2B2
330
11
100
AcDbEntity
100
AcDbLine
8
stair
10
2670.6
20
342
30
0
11
2670.6
21
492
31
0
0
LINE
5
2B3
330
11
100
AcDbEntity
100
AcDbLine
8
stair
10
2689.65
20
342
30
0
11
2689.65
21
488
31
0
0
CIRCLE
5
2B5
330
11
100
AcDbEntity
100
AcDbCircle
8
anchor_point
10
1116.2
20
1190
30
0
40
15
0
CIRCLE
5
2B6
330
11
100
AcDbEntity
100
AcDbCircle
8
anchor_point
10
1116.2
20
1190
30
0
40
20
0
CIRCLE
5
2B7
330
11
100
AcDbEntity
100
AcDbCircle
8
anchor_point
10
1116.2
20
1190
30
0
40
25
0
CIRCLE
5
2B8
330
11
100
AcDbEntity
100
AcDbCircle
8
anchor_point
10
190
20
340
30
0
40
15
0
CIRCLE
5
2B9
330
11
100
AcDbEntity
100
AcDbCircle
8
anchor_point
10
190
20
340
30
0
40
20
0
CIRCLE
5
2BA
330
11
100
AcDbEntity
100
AcDbCircle
8
anchor_point
10
190
20
340
30
0
40
25
0
CIRCLE
5
2BB
330
11
100
AcDbEntity
100
AcDbCircle
8
anchor_point
10
1116.2
20
340
30
0
40
15
0
CIRCLE
5
2BC
330
11
100
AcDbEntity
100
AcDbCircle
8
anchor_point
10
1116.2
20
340
30
0
40
20
0
CIRCLE
5
2BD
330
11
100
AcDbEntity
100
AcDbCircle
8
anchor_point
10
1116.2
20
340
30
0
40
25
0
CIRCLE
5
2BE
330
11
100
AcDbEntity
100
AcDbCircle
8
anchor_point
10
1968.6
20
340
30
0
40
15
0
CIRCLE
5
2BF
330
11
100
AcDbEntity
100
AcDbCircle
8
anchor_point
10
1968.6
20
340
30
0
40
20
0
CIRCLE
5
2C0
330
11
100
AcDbEntity
100
AcDbCircle
8
anchor_point
10
1968.6
20
340
30
0
40
25
0
CIRCLE
5
2C1
330
11
100
AcDbEntity
100
AcDbCircle
8
anchor_point
10
2744.7999999999997
20
340
30
0
40
15
0
CIRCLE
5
2C2
330
11
100
AcDbEntity
100
AcDbCircle
8
anchor_point
10
2744.7999999999997
20
340
30
0
40
20
0
CIRCLE
5
2C3
330
11
100
AcDbEntity
100
AcDbCircle
8
anchor_point
10
2744.7999999999997
20
340
30
0
40
25
0
LWPOLYLINE
5
2C5
330
11
100
AcDbEntity
100
AcDbPolyline
8
diagonal_braces
6
ByLayer
62
256
370
-1
90
2
70
0
10
490
20
340
40
2
41
2
10
640
20
490
40
2
41
2
0
LWPOLYLINE
5
2C6
330
11
100
AcDbEntity
100
AcDbPolyline
8
diagonal_braces
6
ByLayer
62
256
370
-1
90
2
70
0
10
340
20
340
40
2
41
2
10
490
20
490
40
2
41
2
0
LWPOLYLINE
5
2C7
330
11
100
AcDbEntity
100
AcDbPolyline
8
diagonal_braces
6
ByLayer
62
256
370
-1
90
2
70
0
10
190
20
490
40
2
41
2
10
340
20
340
40
2
41
2
0
LWPOLYLINE
5
2C8
330
11
100
AcDbEntity
100
AcDbPolyline
8
diagonal_braces
6
ByLayer
62
256
370
-1
90
2
70
0
10
40
20
490
40
2
41
2
10
190
20
340
40
2
41
2
0
LWPOLYLINE
5
2C9
330
11
100
AcDbEntity
100
AcDbPolyline
8
diagonal_braces
6
ByLayer
62
256
370
-1
90
2
70
0
10
490
20
340
40
2
41
2
10
640
20
490
40
2
41
2
0
LWPOLYLINE
5
2CA
330
11
100
AcDbEntity
100
AcDbPolyline
8
diagonal_braces
6
ByLayer
62
256
370
-1
90
2
70
0
10
340
20
40
40
2
41
2
10
490
20
190
40
2
41
2
0
LWPOLYLINE
5
2CB
330
11
100
AcDbEntity
100
AcDbPolyline
8
diagonal_braces
6
ByLayer
62
256
370
-1
90
2
70
0
10
340
20
190
40
2
41
2
10
490
20
340
40
2
41
2
0
LWPOLYLINE
5
2CC
330
11
100
AcDbEntity
100
AcDbPolyline
8
diagonal_braces
6
ByLayer
62
256
370
-1
90
2
70
0
10
340
20
340
40
2
41
2
10
490
20
490
40
2
41
2
0
LWPOLYLINE
5
2CD
330
11
100
AcDbEntity
100
AcDbPolyline
8
diagonal_braces
6
ByLayer
62
256
370
-1
90
2
70
0
10
190
20
190
40
2
41
2
10
340
20
40
40
2
41
2
0
LWPOLYLINE
5
2CE
330
11
100
AcDbEntity
100
AcDbPolyline
8
diagonal_braces
6
ByLayer
62
256
370
-1
90
2
70
0
10
190
20
340
40
2
41
2
10
340
20
190
40
2
41
2
0
LWPOLYLINE
5
2CF
330
11
100
AcDbEntity
100
AcDbPolyline
8
diagonal_braces
6
ByLayer
62
256
370
-1
90
2
70
0
10
190
20
490
40
2
41
2
10
340
20
340
40
2
41
2
0
LWPOLYLINE
5
2D0
330
11
100
AcDbEntity
100
AcDbPolyline
8
diagonal_braces
6
ByLayer
62
256
370
-1
90
2
70
0
10
40
20
190
40
2
41
2
10
190
20
40
40
2
41
2
0
LWPOLYLINE
5
2D1
330
11
100
AcDbEntity
100
AcDbPolyline
8
diagonal_braces
6
ByLayer
62
256
370
-1
90
2
70
0
10
40
20
340
40
2
41
2
10
190
20
190
40
2
41
2
0
LWPOLYLINE
5
2D2
330
11
100
AcDbEntity
100
AcDbPolyline
8
diagonal_braces
6
ByLayer
62
256
370
-1
90
2
70
0
10
40
20
490
40
2
41
2
10
190
20
340
40
2
41
2
0
LWPOLYLINE
5
2D3
330
11
100
AcDbEntity
100
AcDbPolyline
8
diagonal_braces
6
ByLayer
62
256
370
-1
90
2
70
0
10
490
20
340
40
2
41
2
10
640
20
490
40
2
41
2
0
LWPOLYLINE
5
2D4
330
11
100
AcDbEntity
100
AcDbPolyline
8
diagonal_braces
6
ByLayer
62
256
370
-1
90
2
70
0
10
340
20
40
40
2
41
2
10
490
20
190
40
2
41
2
0
LWPOLYLINE
5
2D5
330
11
100
AcDbEntity
100
AcDbPolyline
8
diagonal_braces
6
ByLayer
62
256
370
-1
90
2
70
0
10
340
20
190
40
2
41
2
10
490
20
340
40
2
41
2
0
LWPOLYLINE
5
2D6
330
11
100
AcDbEntity
100
AcDbPolyline
8
diagonal_braces
6
ByLayer
62
256
370
-1
90
2
70
0
10
340
20
340
40
2
41
2
10
490
20
490
40
2
41
2
0
LWPOLYLINE
5
2D7
330
11
100
AcDbEntity
100
AcDbPolyline
8
diagonal_braces
6
ByLayer
62
256
370
-1
90
2
70
0
10
190
20
190
40
2
41
2
10
340
20
40
40
2
41
2
0
LWPOLYLINE
5
2D8
330
11
100
AcDbEntity
100
AcDbPolyline
8
diagonal_braces
6
ByLayer
62
256
370
-1
90
2
70
0
10
190
20
340
40
2
41
2
10
340
20
190
40
2
41
2
0
LWPOLYLINE
5
2D9
330
11
100
AcDbEntity
100
AcDbPolyline
8
diagonal_braces
6
ByLayer
62
256
370
-1
90
2
70
0
10
190
20
490
40
2
41
2
10
340
20
340
40
2
41
2
0
LWPOLYLINE
5
2DA
330
11
100
AcDbEntity
100
AcDbPolyline
8
diagonal_braces
6
ByLayer
62
256
370
-1
90
2
70
0
10
40
20
190
40
2
41
2
10
190
20
40
40
2
41
2
0
LWPOLYLINE
5
2DB
330
11
100
AcDbEntity
100
AcDbPolyline
8
diagonal_braces
6
ByLayer
62
256
370
-1
90
2
70
0
10
40
20
340
40
2
41
2
10
190
20
190
40
2
41
2
0
LWPOLYLINE
5
2DC
330
11
100
AcDbEntity
100
AcDbPolyline
8
diagonal_braces
6
ByLayer
62
256
370
-1
90
2
70
0
10
40
20
490
40
2
41
2
10
190
20
340
40
2
41
2
0
LWPOLYLINE
5
2DD
330
11
100
AcDbEntity
100
AcDbPolyline
8
diagonal_braces
6
ByLayer
62
256
370
-1
90
2
70
0
10
1116.2
20
490
40
2
41
2
10
1192.4
20
340
40
2
41
2
0
LWPOLYLINE
5
2DE
330
11
100
AcDbEntity
100
AcDbPolyline
8
diagonal_braces
6
ByLayer
62
256
370
-1
90
2
70
0
10
1116.2
20
190
40
2
41
2
10
1192.4
20
40
40
2
41
2
0
LWPOLYLINE
5
2DF
330
11
100
AcDbEntity
100
AcDbPolyline
8
diagonal_braces
6
ByLayer
62
256
370
-1
90
2
70
0
10
1116.2
20
340
40
2
41
2
10
1192.4
20
190
40
2
41
2
0
LWPOLYLINE
5
2E0
330
11
100
AcDbEntity
100
AcDbPolyline
8
diagonal_braces
6
ByLayer
62
256
370
-1
90
2
70
0
10
1116.2
20
490
40
2
41
2
10
1192.4
20
340
40
2
41
2
0
LWPOLYLINE
5
2E1
330
11
100
AcDbEntity
100
AcDbPolyline
8
diagonal_braces
6
ByLayer
62
256
370
-1
90
2
70
0
10
1116.2
20
190
40
2
41
2
10
1192.4
20
40
40
2
41
2
0
LWPOLYLINE
5
2E2
330
11
100
AcDbEntity
100
AcDbPolyline
8
diagonal_braces
6
ByLayer
62
256
370
-1
90
2
70
0
10
1116.2
20
340
40
2
41
2
10
1192.4
20
190
40
2
41
2
0
LWPOLYLINE
5
2E3
330
11
100
AcDbEntity
100
AcDbPolyline
8
diagonal_braces
6
ByLayer
62
256
370
-1
90
2
70
0
10
1116.2
20
490
40
2
41
2
10
1192.4
20
340
40
2
41
2
0
LWPOLYLINE
5
2E4
330
11
100
AcDbEntity
100
AcDbPolyline
8
diagonal_braces
6
ByLayer
62
256
370
-1
90
2
70
0
10
1116.2
20
190
40
2
41
2
10
1192.4
20
40
40
2
41
2
0
LWPOLYLINE
5
2E5
330
11
100
AcDbEntity
100
AcDbPolyline
8
diagonal_braces
6
ByLayer
62
256
370
-1
90
2
70
0
10
1116.2
20
340
40
2
41
2
10
1192.4
20
190
40
2
41
2
0
LWPOLYLINE
5
2E6
330
11
100
AcDbEntity
100
AcDbPolyline
8
diagonal_braces
6
ByLayer
62
256
370
-1
90
2
70
0
10
1116.2
20
490
40
2
41
2
10
1192.4
20
340
40
2
41
2
0
LWPOLYLINE
5
2E7
330
11
100
AcDbEntity
100
AcDbPolyline
8
diagonal_braces
6
ByLayer
62
256
370
-1
90
2
70
0
10
1668.6
20
340
40
2
41
2
10
1818.6
20
490
40
2
41
2
0
LWPOLYLINE
5
2E8
330
11
100
AcDbEntity
100
AcDbPolyline
8
diagonal_braces
6
ByLayer
62
256
370
-1
90
2
70
0
10
1818.6
20
340
40
2
41
2
10
1968.6
20
490
40
2
41
2
0
LWPOLYLINE
5
2E9
330
11
100
AcDbEntity
100
AcDbPolyline
8
diagonal_braces
6
ByLayer
62
256
370
-1
90
2
70
0
10
1968.6
20
490
40
2
41
2
10
2118.6
20
340
40
2
41
2
0
LWPOLYLINE
5
2EA
330
11
100
AcDbEntity
100
AcDbPolyline
8
diagonal_braces
6
ByLayer
62
256
370
-1
90
2
70
0
10
2118.6
20
490
40
2
41
2
10
2268.6
20
340
40
2
41
2
0
LWPOLYLINE
5
2EB
330
11
100
AcDbEntity
100
AcDbPolyline
8
diagonal_braces
6
ByLayer
62
256
370
-1
90
2
70
0
10
1668.6
20
340
40
2
41
2
10
1818.6
20
490
40
2
41
2
0
LWPOLYLINE
5
2EC
330
11
100
AcDbEntity
100
AcDbPolyline
8
diagonal_braces
6
ByLayer
62
256
370
-1
90
2
70
0
10
1818.6
20
40
40
2
41
2
10
1968.6
20
190
40
2
41
2
0
LWPOLYLINE
5
2ED
330
11
100
AcDbEntity
100
AcDbPolyline
8
diagonal_braces
6
ByLayer
62
256
370
-1
90
2
70
0
10
1818.6
20
190
40
2
41
2
10
1968.6
20
340
40
2
41
2
0
LWPOLYLINE
5
2EE
330
11
100
AcDbEntity
100
AcDbPolyline
8
diagonal_braces
6
ByLayer
62
256
370
-1
90
2
70
0
10
1818.6
20
340
40
2
41
2
10
1968.6
20
490
40
2
41
2
0
LWPOLYLINE
5
2EF
330
11
100
AcDbEntity
100
AcDbPolyline
8
diagonal_braces
6
ByLayer
62
256
370
-1
90
2
70
0
10
1968.6
20
190
40
2
41
2
10
2118.6
20
40
40
2
41
2
0
LWPOLYLINE
5
2F0
330
11
100
AcDbEntity
100
AcDbPolyline
8
diagonal_braces
6
ByLayer
62
256
370
-1
90
2
70
0
10
1968.6
20
340
40
2
41
2
10
2118.6
20
190
40
2
41
2
0
LWPOLYLINE
5
2F1
330
11
100
AcDbEntity
100
AcDbPolyline
8
diagonal_braces
6
ByLayer
62
256
370
-1
90
2
70
0
10
1968.6
20
490
40
2
41
2
10
2118.6
20
340
40
2
41
2
0
LWPOLYLINE
5
2F2
330
11
100
AcDbEntity
100
AcDbPolyline
8
diagonal_braces
6
ByLayer
62
256
370
-1
90
2
70
0
10
2118.6
20
190
40
2
41
2
10
2268.6
20
40
40
2
41
2
0
LWPOLYLINE
5
2F3
330
11
100
AcDbEntity
100
AcDbPolyline
8
diagonal_braces
6
ByLayer
62
256
370
-1
90
2
70
0
10
2118.6
20
340
40
2
41
2
10
2268.6
20
190
40
2
41
2
0
LWPOLYLINE
5
2F4
330
11
100
AcDbEntity
100
AcDbPolyline
8
diagonal_braces
6
ByLayer
62
256
370
-1
90
2
70
0
10
2118.6
20
490
40
2
41
2
10
2268.6
20
340
40
2
41
2
0
LWPOLYLINE
5
2F5
330
11
100
AcDbEntity
100
AcDbPolyline
8
diagonal_braces
6
ByLayer
62
256
370
-1
90
2
70
0
10
1668.6
20
340
40
2
41
2
10
1818.6
20
490
40
2
41
2
0
LWPOLYLINE
5
2F6
330
11
100
AcDbEntity
100
AcDbPolyline
8
diagonal_braces
6
ByLayer
62
256
370
-1
90
2
70
0
10
1818.6
20
40
40
2
41
2
10
1968.6
20
190
40
2
41
2
0
LWPOLYLINE
5
2F7
330
11
100
AcDbEntity
100
AcDbPolyline
8
diagonal_braces
6
ByLayer
62
256
370
-1
90
2
70
0
10
1818.6
20
190
40
2
41
2
10
1968.6
20
340
40
2
41
2
0
LWPOLYLINE
5
2F8
330
11
100
AcDbEntity
100
AcDbPolyline
8
diagonal_braces
6
ByLayer
62
256
370
-1
90
2
70
0
10
1818.6
20
340
40
2
41
2
10
1968.6
20
490
40
2
41
2
0
LWPOLYLINE
5
2F9
330
11
100
AcDbEntity
100
AcDbPolyline
8
diagonal_braces
6
ByLayer
62
256
370
-1
90
2
70
0
10
1968.6
20
190
40
2
41
2
10
2118.6
20
40
40
2
41
2
0
LWPOLYLINE
5
2FA
330
11
100
AcDbEntity
100
AcDbPolyline
8
diagonal_braces
6
ByLayer
62
256
370
-1
90
2
70
0
10
1968.6
20
340
40
2
41
2
10
2118.6
20
190
40
2
41
2
0
LWPOLYLINE
5
2FB
330
11
100
AcDbEntity
100
AcDbPolyline
8
diagonal_braces
6
ByLayer
62
256
370
-1
90
2
70
0
10
1968.6
20
490
40
2
41
2
10
2118.6
20
340
40
2
41
2
0
LWPOLYLINE
5
2FC
330
11
100
AcDbEntity
100
AcDbPolyline
8
diagonal_braces
6
ByLayer
62
256
370
-1
90
2
70
0
10
2118.6
20
190
40
2
41
2
10
2268.6
20
40
40
2
41
2
0
LWPOLYLINE
5
2FD
330
11
100
AcDbEntity
100
AcDbPolyline
8
diagonal_braces
6
ByLayer
62
256
370
-1
90
2
70
0
10
2118.6
20
340
40
2
41
2
10
2268.6
20
190
40
2
41
2
0
LWPOLYLINE
5
2FE
330
11
100
AcDbEntity
100
AcDbPolyline
8
diagonal_braces
6
ByLayer
62
256
370
-1
90
2
70
0
10
2118.6
20
490
40
2
41
2
10
2268.6
20
340
40
2
41
2
0
LWPOLYLINE
5
2FF
330
11
100
AcDbEntity
100
AcDbPolyline
8
diagonal_braces
6
ByLayer
62
256
370
-1
90
2
70
0
10
2744.7999999999997
20
490
40
2
41
2
10
2820.9999999999995
20
340
40
2
41
2
0
LWPOLYLINE
5
300
330
11
100
AcDbEntity
100
AcDbPolyline
8
diagonal_braces
6
ByLayer
62
256
370
-1
90
2
70
0
10
2744.7999999999997
20
190
40
2
41
2
10
2820.9999999999995
20
40
40
2
41
2
0
LWPOLYLINE
5
301
330
11
100
AcDbEntity
100
AcDbPolyline
8
diagonal_braces
6
ByLayer
62
256
370
-1
90
2
70
0
10
2744.7999999999997
20
340
40
2
41
2
10
2820.9999999999995
20
190
40
2
41
2
0
LWPOLYLINE
5
302
330
11
100
AcDbEntity
100
AcDbPolyline
8
diagonal_braces
6
ByLayer
62
256
370
-1
90
2
70
0
10
2744.7999999999997
20
490
40
2
41
2
10
2820.9999999999995
20
340
40
2
41
2
0
LWPOLYLINE
5
303
330
11
100
AcDbEntity
100
AcDbPolyline
8
diagonal_braces
6
ByLayer
62
256
370
-1
90
2
70
0
10
2744.7999999999997
20
190
40
2
41
2
10
2820.9999999999995
20
40
40
2
41
2
0
LWPOLYLINE
5
304
330
11
100
AcDbEntity
100
AcDbPolyline
8
diagonal_braces
6
ByLayer
62
256
370
-1
90
2
70
0
10
2744.7999999999997
20
340
40
2
41
2
10
2820.9999999999995
20
190
40
2
41
2
0
LWPOLYLINE
5
305
330
11
100
AcDbEntity
100
AcDbPolyline
8
diagonal_braces
6
ByLayer
62
256
370
-1
90
2
70
0
10
2744.7999999999997
20
490
40
2
41
2
10
2820.9999999999995
20
340
40
2
41
2
0
LWPOLYLINE
5
306
330
11
100
AcDbEntity
100
AcDbPolyline
8
diagonal_braces
6
ByLayer
62
256
370
-1
90
2
70
0
10
2744.7999999999997
20
190
40
2
41
2
10
2820.9999999999995
20
40
40
2
41
2
0
LWPOLYLINE
5
307
330
11
100
AcDbEntity
100
AcDbPolyline
8
diagonal_braces
6
ByLayer
62
256
370
-1
90
2
70
0
10
2744.7999999999997
20
340
40
2
41
2
10
2820.9999999999995
20
190
40
2
41
2
0
LWPOLYLINE
5
308
330
11
100
AcDbEntity
100
AcDbPolyline
8
diagonal_braces
6
ByLayer
62
256
370
-1
90
2
70
0
10
2744.7999999999997
20
490
40
2
41
2
10
2820.9999999999995
20
340
40
2
41
2
0
LINE
5
30A
330
11
100
AcDbEntity
100
AcDbLine
8
rung
10
492
20
385
30
0
11
638
21
385
31
0
0
LINE
5
30B
330
11
100
AcDbEntity
100
AcDbLine
8
rung
10
492
20
387
30
0
11
638
21
387
31
0
0
LINE
5
30C
330
11
100
AcDbEntity
100
AcDbLine
8
rung
10
342
20
385
30
0
11
488
21
385
31
0
0
LINE
5
30D
330
11
100
AcDbEntity
100
AcDbLine
8
rung
10
342
20
387
30
0
11
488
21
387
31
0
0
LINE
5
30E
330
11
100
AcDbEntity
100
AcDbLine
8
rung
10
192
20
385
30
0
11
338
21
385
31
0
0
LINE
5
30F
330
11
100
AcDbEntity
100
AcDbLine
8
rung
10
192
20
387
30
0
11
338
21
387
31
0
0
LINE
5
310
330
11
100
AcDbEntity
100
AcDbLine
8
rung
10
42
20
385
30
0
11
188
21
385
31
0
0
LINE
5
311
330
11
100
AcDbEntity
100
AcDbLine
8
rung
10
42
20
387
30
0
11
188
21
387
31
0
0
LINE
5
312
330
11
100
AcDbEntity
100
AcDbLine
8
rung
10
492
20
385
30
0
11
638
21
385
31
0
0
LINE
5
313
330
11
100
AcDbEntity
100
AcDbLine
8
rung
10
492
20
387
30
0
11
638
21
387
31
0
0
LINE
5
314
330
11
100
AcDbEntity
100
AcDbLine
8
rung
10
342
20
85
30
0
11
488
21
85
31
0
0
LINE
5
315
330
11
100
AcDbEntity
100
AcDbLine
8
rung
10
342
20
87
30
0
11
488
21
87
31
0
0
LINE
5
316
330
11
100
AcDbEntity
100
AcDbLine
8
rung
10
342
20
235
30
0
11
488
21
235
31
0
0
LINE
5
317
330
11
100
AcDbEntity
100
AcDbLine
8
rung
10
342
20
237
30
0
11
488
21
237
31
0
0
LINE
5
318
330
11
100
AcDbEntity
100
AcDbLine
8
rung
10
342
20
385
30
0
11
488
21
385
31
0
0
LINE
5
319
330
11
100
AcDbEntity
100
AcDbLine
8
rung
10
342
20
387
30
0
11
488
21
387
31
0
0
LINE
5
31A
330
11
100
AcDbEntity
100
AcDbLine
8
rung
10
192
20
85
30
0
11
338
21
85
31
0
0
LINE
5
31B
330
11
100
AcDbEntity
100
AcDbLine
8
rung
10
192
20
87
30
0
11
338
21
87
31
0
0
LINE
5
31C
330
11
100
AcDbEntity
100
AcDbLine
8
rung
10
192
20
235
30
0
11
338
21
235
31
0
0
LINE
5
31D
330
11
100
AcDbEntity
100
AcDbLine
8
rung
10
192
20
237
30
0
11
338
21
237
31
0
0
LINE
5
31E
330
11
100
AcDbEntity
100
AcDbLine
8
rung
10
192
20
385
30
0
11
338
21
385
31
0
0
LINE
5
31F
330
11
100
AcDbEntity
100
AcDbLine
8
rung
10
192
20
387
30
0
11
338
21
387
31
0
0
LINE
5
320
330
11
100
AcDbEntity
100
AcDbLine
8
rung
10
42
20
85
30
0
11
188
21
85
31
0
0
LINE
5
321
330
11
100
AcDbEntity
100
AcDbLine
8
rung
10
42
20
87
30
0
11
188
21
87
31
0
0
LINE
5
322
330
11
100
AcDbEntity
100
AcDbLine
8
rung
10
42
20
235
30
0
11
188
21
235
31
0
0
LINE
5
323
330
11
100
AcDbEntity
100
AcDbLine
8
rung
10
42
20
237
30
0
11
188
21
237
31
0
0
LINE
5
324
330
11
100
AcDbEntity
100
AcDbLine
8
rung
10
42
20
385
30
0
11
188
21
385
31
0
0
LINE
5
325
330
11
100
AcDbEntity
100
AcDbLine
8
rung
10
42
20
387
30
0
11
188
21
387
31
0
0
LINE
5
326
330
11
100
AcDbEntity
100
AcDbLine
8
rung
10
492
20
385
30
0
11
638
21
385
31
0
0
LINE
5
327
330
11
100
AcDbEntity
100
AcDbLine
8
rung
10
492
20
387
30
0
11
638
21
387
31
0
0
LINE
5
328
330
11
100
AcDbEntity
100
AcDbLine
8
rung
10
342
20
85
30
0
11
488
21
85
31
0
0
LINE
5
329
330
11
100
AcDbEntity
100
AcDbLine
8
rung
10
342
20
87
30
0
11
488
21
87
31
0
0
LINE
5
32A
330
11
100
AcDbEntity
100
AcDbLine
8
rung
10
342
20
235
30
0
11
488
21
235
31
0
0
LINE
5
32B
330
11
100
AcDbEntity
100
AcDbLine
8
rung
10
342
20
237
30
0
11
488
21
237
31
0
0
LINE
5
32C
330
11
100
AcDbEntity
100
AcDbLine
8
rung
10
342
20
385
30
0
11
488
21
385
31
0
0
LINE
5
32D
330
11
100
AcDbEntity
100
AcDbLine
8
rung
10
342
20
387
30
0
11
488
21
387
31
0
0
LINE
5
32E
330
11
100
AcDbEntity
100
AcDbLine
8
rung
10
192
20
85
30
0
11
338
21
85
31
0
0
LINE
5
32F
330
11
100
AcDbEntity
100
AcDbLine
8
rung
10
192
20
87
30
0
11
338
21
87
31
0
0
LINE
5
330
330
11
100
AcDbEntity
100
AcDbLine
8
rung
10
192
20
235
30
0
11
338
21
235
31
0
0
LINE
5
331
330
11
100
AcDbEntity
100
AcDbLine
8
rung
10
192
20
237
30
0
11
338
21
237
31
0
0
LINE
5
332
330
11
100
AcDbEntity
100
AcDbLine
8
rung
10
192
20
385
30
0
11
338
21
385
31
0
0
LINE
5
333
330
11
100
AcDbEntity
100
AcDbLine
8
rung
10
192
20
387
30
0
11
338
21
387
31
0
0
LINE
5
334
330
11
100
AcDbEntity
100
AcDbLine
8
rung
10
42
20
85
30
0
11
188
21
85
31
0
0
LINE
5
335
330
11
100
AcDbEntity
100
AcDbLine
8
rung
10
42
20
87
30
0
11
188
21
87
31
0
0
LINE
5
336
330
11
100
AcDbEntity
100
AcDbLine
8
rung
10
42
20
235
30
0
11
188
21
235
31
0
0
LINE
5
337
330
11
100
AcDbEntity
100
AcDbLine
8
rung
10
42
20
237
30
0
11
188
21
237
31
0
0
LINE
5
338
330
11
100
AcDbEntity
100
AcDbLine
8
rung
10
42
20
385
30
0
11
188
21
385
31
0
0
LINE
5
339
330
11
100
AcDbEntity
100
AcDbLine
8
rung
10
42
20
387
30
0
11
188
21
387
31
0
0
LINE
5
33A
330
11
100
AcDbEntity
100
AcDbLine
8
rung
10
1042
20
385
30
0
11
1114.2
21
385
31
0
0
LINE
5
33B
330
11
100
AcDbEntity
100
AcDbLine
8
rung
10
1042
20
387
30
0
11
1114.2
21
387
31
0
0
LINE
5
33C
330
11
100
AcDbEntity
100
AcDbLine
8
rung
10
1042
20
385
30
0
11
1114.2
21
385
31
0
0
LINE
5
33D
330
11
100
AcDbEntity
100
AcDbLine
8
rung
10
1042
20
387
30
0
11
1114.2
21
387
31
0
0
LINE
5
33E
330
11
100
AcDbEntity
100
AcDbLine
8
rung
10
1042
20
385
30
0
11
1114.2
21
385
31
0
0
LINE
5
33F
330
11
100
AcDbEntity
100
AcDbLine
8
rung
10
1042
20
387
30
0
11
1114.2
21
387
31
0
0
LINE
5
340
330
11
100
AcDbEntity
100
AcDbLine
8
rung
10
1042
20
385
30
0
11
1114.2
21
385
31
0
0
LINE
5
341
330
11
100
AcDbEntity
100
AcDbLine
8
rung
10
1042
20
387
30
0
11
1114.2
21
387
31
0
0
LINE
5
342
330
11
100
AcDbEntity
100
AcDbLine
8
rung
10
1118.2
20
385
30
0
11
1190.4
21
385
31
0
0
LINE
5
343
330
11
100
AcDbEntity
100
AcDbLine
8
rung
10
1118.2
20
387
30
0
11
1190.4
21
387
31
0
0
LINE
5
344
330
11
100
AcDbEntity
100
AcDbLine
8
rung
10
1118.2
20
85
30
0
11
1190.4
21
85
31
0
0
LINE
5
345
330
11
100
AcDbEntity
100
AcDbLine
8
rung
10
1118.2
20
87
30
0
11
1190.4
21
87
31
0
0
LINE
5
346
330
11
100
AcDbEntity
100
AcDbLine
8
rung
10
1118.2
20
235
30
0
11
1190.4
21
235
31
0
0
LINE
5
347
330
11
100
AcDbEntity
100
AcDbLine
8
rung
10
1118.2
20
237
30
0
11
1190.4
21
237
31
0
0
LINE
5
348
330
11
100
AcDbEntity
100
AcDbLine
8
rung
10
1118.2
20
385
30
0
11
1190.4
21
385
31
0
0
LINE
5
349
330
11
100
AcDbEntity
100
AcDbLine
8
rung
10
1118.2
20
387
30
0
11
1190.4
21
387
31
0
0
LINE
5
34A
330
11
100
AcDbEntity
100
AcDbLine
8
rung
10
1118.2
20
85
30
0
11
1190.4
21
85
31
0
0
LINE
5
34B
330
11
100
AcDbEntity
100
AcDbLine
8
rung
10
1118.2
20
87
30
0
11
1190.4
21
87
31
0
0
LINE
5
34C
330
11
100
AcDbEntity
100
AcDbLine
8
rung
10
1118.2
20
235
30
0
11
1190.4
21
235
31
0
0
LINE
5
34D
330
11
100
AcDbEntity
100
AcDbLine
8
rung
10
1118.2
20
237
30
0
11
1190.4
21
237
31
0
0
LINE
5
34E
330
11
100
AcDbEntity
100
AcDbLine
8
rung
10
1118.2
20
385
30
0
11
1190.4
21
385
31
0
0
LINE
5
34F
330
11
100
AcDbEntity
100
AcDbLine
8
rung
10
1118.2
20
387
30
0
11
1190.4
21
387
31
0
0
LINE
5
350
330
11
100
AcDbEntity
100
AcDbLine
8
rung
10
1118.2
20
85
30
0
11
1190.4
21
85
31
0
0
LINE
5
351
330
11
100
AcDbEntity
100
AcDbLine
8
rung
10
1118.2
20
87
30
0
11
1190.4
21
87
31
0
0
LINE
5
352
330
11
100
AcDbEntity
100
AcDbLine
8
rung
10
1118.2
20
235
30
0
11
1190.4
21
235
31
0
0
LINE
5
353
330
11
100
AcDbEntity
100
AcDbLine
8
rung
10
1118.2
20
237
30
0
11
1190.4
21
237
31
0
0
LINE
5
354
330
11
100
AcDbEntity
100
AcDbLine
8
rung
10
1118.2
20
385
30
0
11
1190.4
21
385
31
0
0
LINE
5
355
330
11
100
AcDbEntity
100
AcDbLine
8
rung
10
1118.2
20
387
30
0
11
1190.4
21
387
31
0
0
LINE
5
356
330
11
100
AcDbEntity
100
AcDbLine
8
rung
10
1194.4
20
385
30
0
11
1266.6000000000001
21
385
31
0
0
LINE
5
357
330
11
100
AcDbEntity
100
AcDbLine
8
rung
10
1194.4
20
387
30
0
11
1266.6000000000001
21
387
31
0
0
LINE
5
358
330
11
100
AcDbEntity
100
AcDbLine
8
rung
10
1194.4
20
85
30
0
11
1266.6000000000001
21
85
31
0
0
LINE
5
359
330
11
100
AcDbEntity
100
AcDbLine
8
rung
10
1194.4
20
87
30
0
11
1266.6000000000001
21
87
31
0
0
LINE
5
35A
330
11
100
AcDbEntity
100
AcDbLine
8
rung
10
1194.4
20
235
30
0
11
1266.6000000000001
21
235
31
0
0
LINE
5
35B
330
11
100
AcDbEntity
100
AcDbLine
8
rung
10
1194.4
20
237
30
0
11
1266.6000000000001
21
237
31
0
0
LINE
5
35C
330
11
100
AcDbEntity
100
AcDbLine
8
rung
10
1194.4
20
385
30
0
11
1266.6000000000001
21
385
31
0
0
LINE
5
35D
330
11
100
AcDbEntity
100
AcDbLine
8
rung
10
1194.4
20
387
30
0
11
1266.6000000000001
21
387
31
0
0
LINE
5
35E
330
11
100
AcDbEntity
100
AcDbLine
8
rung
10
1194.4
20
85
30
0
11
1266.6000000000001
21
85
31
0
0
LINE
5
35F
330
11
100
AcDbEntity
100
AcDbLine
8
rung
10
1194.4
20
87
30
0
11
1266.6000000000001
21
87
31
0
0
LINE
5
360
330
11
100
AcDbEntity
100
AcDbLine
8
rung
10
1194.4
20
235
30
0
11
1266.6000000000001
21
235
31
0
0
LINE
5
361
330
11
100
AcDbEntity
100
AcDbLine
8
rung
10
1194.4
20
237
30
0
11
1266.6000000000001
21
237
31
0
0
LINE
5
362
330
11
100
AcDbEntity
100
AcDbLine
8
rung
10
1194.4
20
385
30
0
11
1266.6000000000001
21
385
31
0
0
LINE
5
363
330
11
100
AcDbEntity
100
AcDbLine
8
rung
10
1194.4
20
387
30
0
11
1266.6000000000001
21
387
31
0
0
LINE
5
364
330
11
100
AcDbEntity
100
AcDbLine
8
rung
10
1194.4
20
85
30
0
11
1266.6000000000001
21
85
31
0
0
LINE
5
365
330
11
100
AcDbEntity
100
AcDbLine
8
rung
10
1194.4
20
87
30
0
11
1266.6000000000001
21
87
31
0
0
LINE
5
366
330
11
100
AcDbEntity
100
AcDbLine
8
rung
10
1194.4
20
235
30
0
11
1266.6000000000001
21
235
31
0
0
LINE
5
367
330
11
100
AcDbEntity
100
AcDbLine
8
rung
10
1194.4
20
237
30
0
11
1266.6000000000001
21
237
31
0
0
LINE
5
368
330
11
100
AcDbEntity
100
AcDbLine
8
rung
10
1194.4
20
385
30
0
11
1266.6000000000001
21
385
31
0
0
LINE
5
369
330
11
100
AcDbEntity
100
AcDbLine
8
rung
10
1194.4
20
387
30
0
11
1266.6000000000001
21
387
31
0
0
LINE
5
36A
330
11
100
AcDbEntity
100
AcDbLine
8
rung
10
1670.6
20
385
30
0
11
1816.6
21
385
31
0
0
LINE
5
36B
330
11
100
AcDbEntity
100
AcDbLine
8
rung
10
1670.6
20
387
30
0
11
1816.6
21
387
31
0
0
LINE
5
36C
330
11
100
AcDbEntity
100
AcDbLine
8
rung
10
1820.6
20
385
30
0
11
1966.6
21
385
31
0
0
LINE
5
36D
330
11
100
AcDbEntity
100
AcDbLine
8
rung
10
1820.6
20
387
30
0
11
1966.6
21
387
31
0
0
LINE
5
36E
330
11
100
AcDbEntity
100
AcDbLine
8
rung
10
1970.6
20
385
30
0
11
2116.6
21
385
31
0
0
LINE
5
36F
330
11
100
AcDbEntity
100
AcDbLine
8
rung
10
1970.6
20
387
30
0
11
2116.6
21
387
31
0
0
LINE
5
370
330
11
100
AcDbEntity
100
AcDbLine
8
rung
10
2120.6
20
385
30
0
11
2266.6
21
385
31
0
0
LINE
5
371
330
11
100
AcDbEntity
100
AcDbLine
8
rung
10
2120.6
20
387
30
0
11
2266.6
21
387
31
0
0
LINE
5
372
330
11
100
AcDbEntity
100
AcDbLine
8
rung
10
1670.6
20
385
30
0
11
1816.6
21
385
31
0
0
LINE
5
373
330
11
100
AcDbEntity
100
AcDbLine
8
rung
10
1670.6
20
387
30
0
11
1816.6
21
387
31
0
0
LINE
5
374
330
11
100
AcDbEntity
100
AcDbLine
8
rung
10
1820.6
20
85
30
0
11
1966.6
21
85
31
0
0
LINE
5
375
330
11
100
AcDbEntity
100
AcDbLine
8
rung
10
1820.6
20
87
30
0
11
1966.6
21
87
31
0
0
LINE
5
376
330
11
100
AcDbEntity
100
AcDbLine
8
rung
10
1820.6
20
235
30
0
11
1966.6
21
235
31
0
0
LINE
5
377
330
11
100
AcDbEntity
100
AcDbLine
8
rung
10
1820.6
20
237
30
0
11
1966.6
21
237
31
0
0
LINE
5
378
330
11
100
AcDbEntity
100
AcDbLine
8
rung
10
1820.6
20
385
30
0
11
1966.6
21
385
31
0
0
LINE
5
379
330
11
100
AcDbEntity
100
AcDbLine
8
rung
10
1820.6
20
387
30
0
11
1966.6
21
387
31
0
0
LINE
5
37A
330
11
100
AcDbEntity
100
AcDbLine
8
rung
10
1970.6
20
85
30
0
11
2116.6
21
85
31
0
0
LINE
5
37B
330
11
100
AcDbEntity
100
AcDbLine
8
rung
10
1970.6
20
87
30
0
11
2116.6
21
87
31
0
0
LINE
5
37C
330
11
100
AcDbEntity
100
AcDbLine
8
rung
10
1970.6
20
235
30
0
11
2116.6
21
235
31
0
0
LINE
5
37D
330
11
100
AcDbEntity
100
AcDbLine
8
rung
10
1970.6
20
237
30
0
11
2116.6
21
237
31
0
0
LINE
5
37E
330
11
100
AcDbEntity
100
AcDbLine
8
rung
10
1970.6
20
385
30
0
11
2116.6
21
385
31
0
0
LINE
5
37F
330
11
100
AcDbEntity
100
AcDbLine
8
rung
10
1970.6
20
387
30
0
11
2116.6
21
387
31
0
0
LINE
5
380
330
11
100
AcDbEntity
100
AcDbLine
8
rung
10
2120.6
20
85
30
0
11
2266.6
21
85
31
0
0
LINE
5
381
330
11
100
AcDbEntity
100
AcDbLine
8
rung
10
2120.6
20
87
30
0
11
2266.6
21
87
31
0
0
LINE
5
382
330
11
100
AcDbEntity
100
AcDbLine
8
rung
10
2120.6
20
235
30
0
11
2266.6
21
235
31
0
0
LINE
5
383
330
11
100
AcDbEntity
100
AcDbLine
8
rung
10
2120.6
20
237
30
0
11
2266.6
21
237
31
0
0
LINE
5
384
330
11
100
AcDbEntity
100
AcDbLine
8
rung
10
2120.6
20
385
30
0
11
2266.6
21
385
31
0
0
LINE
5
385
330
11
100
AcDbEntity
100
AcDbLine
8
rung
10
2120.6
20
387
30
0
11
2266.6
21
387
31
0
0
LINE
5
386
330
11
100
AcDbEntity
100
AcDbLine
8
rung
10
1670.6
20
385
30
0
11
1816.6
21
385
31
0
0
LINE
5
387
330
11
100
AcDbEntity
100
AcDbLine
8
rung
10
1670.6
20
387
30
0
11
1816.6
21
387
31
0
0
LINE
5
388
330
11
100
AcDbEntity
100
AcDbLine
8
rung
10
1820.6
20
85
30
0
11
1966.6
21
85
31
0
0
LINE
5
389
330
11
100
AcDbEntity
100
AcDbLine
8
rung
10
1820.6
20
87
30
0
11
1966.6
21
87
31
0
0
LINE
5
38A
330
11
100
AcDbEntity
100
AcDbLine
8
rung
10
1820.6
20
235
30
0
11
1966.6
21
235
31
0
0
LINE
5
38B
330
11
100
AcDbEntity
100
AcDbLine
8
rung
10
1820.6
20
237
30
0
11
1966.6
21
237
31
0
0
LINE
5
38C
330
11
100
AcDbEntity
100
AcDbLine
8
rung
10
1820.6
20
385
30
0
11
1966.6
21
385
31
0
0
LINE
5
38D
330
11
100
AcDbEntity
100
AcDbLine
8
rung
10
1820.6
20
387
30
0
11
1966.6
21
387
31
0
0
LINE
5
38E
330
11
100
AcDbEntity
100
AcDbLine
8
rung
10
1970.6
20
85
30
0
11
2116.6
21
85
31
0
0
LINE
5
38F
330
11
100
AcDbEntity
100
AcDbLine
8
rung
10
1970.6
20
87
30
0
11
2116.6
21
87
31
0
0
LINE
5
390
330
11
100
AcDbEntity
100
AcDbLine
8
rung
10
1970.6
20
235
30
0
11
2116.6
21
235
31
0
0
LINE
5
391
330
11
100
AcDbEntity
100
AcDbLine
8
rung
10
1970.6
20
237
30
0
11
2116.6
21
237
31
0
0
LINE
5
392
330
11
100
AcDbEntity
100
AcDbLine
8
rung
10
1970.6
20
385
30
0
11
2116.6
21
385
31
0
0
LINE
5
393
330
11
100
AcDbEntity
100
AcDbLine
8
rung
10
1970.6
20
387
30
0
11
2116.6
21
387
31
0
0
LINE
5
394
330
11
100
AcDbEntity
100
AcDbLine
8
rung
10
2120.6
20
85
30
0
11
2266.6
21
85
31
0
0
LINE
5
395
330
11
100
AcDbEntity
100
AcDbLine
8
rung
10
2120.6
20
87
30
0
11
2266.6
21
87
31
0
0
LINE
5
396
330
11
100
AcDbEntity
100
AcDbLine
8
rung
10
2120.6
20
235
30
0
11
2266.6
21
235
31
0
0
LINE
5
397
330
11
100
AcDbEntity
100
AcDbLine
8
rung
10
2120.6
20
237
30
0
11
2266.6
21
237
31
0
0
LINE
5
398
330
11
100
AcDbEntity
100
AcDbLine
8
rung
10
2120.6
20
385
30
0
11
2266.6
21
385
31
0
0
LINE
5
399
330
11
100
AcDbEntity
100
AcDbLine
8
rung
10
2120.6
20
387
30
0
11
2266.6
21
387
31
0
0
LINE
5
39A
330
11
100
AcDbEntity
100
AcDbLine
8
rung
10
2823
20
385
30
0
11
2895.2
21
385
31
0
0
LINE
5
39B
330
11
100
AcDbEntity
100
AcDbLine
8
rung
10
2823
20
387
30
0
11
2895.2
21
387
31
0
0
LINE
5
39C
330
11
100
AcDbEntity
100
AcDbLine
8
rung
10
2823
20
385
30
0
11
2895.2
21
385
31
0
0
LINE
5
39D
330
11
100
AcDbEntity
100
AcDbLine
8
rung
10
2823
20
387
30
0
11
2895.2
21
387
31
0
0
LINE
5
39E
330
11
100
AcDbEntity
100
AcDbLine
8
rung
10
2823
20
385
30
0
11
2895.2
21
385
31
0
0
LINE
5
39F
330
11
100
AcDbEntity
100
AcDbLine
8
rung
10
2823
20
387
30
0
11
2895.2
21
387
31
0
0
LINE
5
3A0
330
11
100
AcDbEntity
100
AcDbLine
8
rung
10
2823
20
385
30
0
11
2895.2
21
385
31
0
0
LINE
5
3A1
330
11
100
AcDbEntity
100
AcDbLine
8
rung
10
2823
20
387
30
0
11
2895.2
21
387
31
0
0
LINE
5
3A2
330
11
100
AcDbEntity
100
AcDbLine
8
rung
10
2746.7999999999997
20
385
30
0
11
2818.9999999999995
21
385
31
0
0
LINE
5
3A3
330
11
100
AcDbEntity
100
AcDbLine
8
rung
10
2746.7999999999997
20
387
30
0
11
2818.9999999999995
21
387
31
0
0
LINE
5
3A4
330
11
100
AcDbEntity
100
AcDbLine
8
rung
10
2746.7999999999997
20
85
30
0
11
2818.9999999999995
21
85
31
0
0
LINE
5
3A5
330
11
100
AcDbEntity
100
AcDbLine
8
rung
10
2746.7999999999997
20
87
30
0
11
2818.9999999999995
21
87
31
0
0
LINE
5
3A6
330
11
100
AcDbEntity
100
AcDbLine
8
rung
10
2746.7999999999997
20
235
30
0
11
2818.9999999999995
21
235
31
0
0
LINE
5
3A7
330
11
100
AcDbEntity
100
AcDbLine
8
rung
10
2746.7999999999997
20
237
30
0
11
2818.9999999999995
21
237
31
0
0
LINE
5
3A8
330
11
100
AcDbEntity
100
AcDbLine
8
rung
10
2746.7999999999997
20
385
30
0
11
2818.9999999999995
21
385
31
0
0
LINE
5
3A9
330
11
100
AcDbEntity
100
AcDbLine
8
rung
10
2746.7999999999997
20
387
30
0
11
2818.9999999999995
21
387
31
0
0
LINE
5
3AA
330
11
100
AcDbEntity
100
AcDbLine
8
rung
10
2746.7999999999997
20
85
30
0
11
2818.9999999999995
21
85
31
0
0
LINE
5
3AB
330
11
100
AcDbEntity
100
AcDbLine
8
rung
10
2746.7999999999997
20
87
30
0
11
2818.9999999999995
21
87
31
0
0
LINE
5
3AC
330
11
100
AcDbEntity
100
AcDbLine
8
rung
10
2746.7999999999997
20
235
30
0
11
2818.9999999999995
21
235
31
0
0
LINE
5
3AD
330
11
100
AcDbEntity
100
AcDbLine
8
rung
10
2746.7999999999997
20
237
30
0
11
2818.9999999999995
21
237
31
0
0
LINE
5
3AE
330
11
100
AcDbEntity
100
AcDbLine
8
rung
10
2746.7999999999997
20
385
30
0
11
2818.9999999999995
21
385
31
0
0
LINE
5
3AF
330
11
100
AcDbEntity
100
AcDbLine
8
rung
10
2746.7999999999997
20
387
30
0
11
2818.9999999999995
21
387
31
0
0
LINE
5
3B0
330
11
100
AcDbEntity
100
AcDbLine
8
rung
10
2746.7999999999997
20
85
30
0
11
2818.9999999999995
21
85
31
0
0
LINE
5
3B1
330
11
100
AcDbEntity
100
AcDbLine
8
rung
10
2746.7999999999997
20
87
30
0
11
2818.9999999999995
21
87
31
0
0
LINE
5
3B2
330
11
100
AcDbEntity
100
AcDbLine
8
rung
10
2746.7999999999997
20
235
30
0
11
2818.9999999999995
21
235
31
0
0
LINE
5
3B3
330
11
100
AcDbEntity
100
AcDbLine
8
rung
10
2746.7999999999997
20
237
30
0
11
2818.9999999999995
21
237
31
0
0
LINE
5
3B4
330
11
100
AcDbEntity
100
AcDbLine
8
rung
10
2746.7999999999997
20
385
30
0
11
2818.9999999999995
21
385
31
0
0
LINE
5
3B5
330
11
100
AcDbEntity
100
AcDbLine
8
rung
10
2746.7999999999997
20
387
30
0
11
2818.9999999999995
21
387
31
0
0
LINE
5
3B6
330
11
100
AcDbEntity
100
AcDbLine
8
rung
10
2670.6
20
385
30
0
11
2742.7999999999997
21
385
31
0
0
LINE
5
3B7
330
11
100
AcDbEntity
100
AcDbLine
8
rung
10
2670.6
20
387
30
0
11
2742.7999999999997
21
387
31
0
0
LINE
5
3B8
330
11
100
AcDbEntity
100
AcDbLine
8
rung
10
2670.6
20
85
30
0
11
2742.7999999999997
21
85
31
0
0
LINE
5
3B9
330
11
100
AcDbEntity
100
AcDbLine
8
rung
10
2670.6
20
87
30
0
11
2742.7999999999997
21
87
31
0
0
LINE
5
3BA
330
11
100
AcDbEntity
100
AcDbLine
8
rung
10
2670.6
20
235
30
0
11
2742.7999999999997
21
235
31
0
0
LINE
5
3BB
330
11
100
AcDbEntity
100
AcDbLine
8
rung
10
2670.6
20
237
30
0
11
2742.7999999999997
21
237
31
0
0
LINE
5
3BC
330
11
100
AcDbEntity
100
AcDbLine
8
rung
10
2670.6
20
385
30
0
11
2742.7999999999997
21
385
31
0
0
LINE
5
3BD
330
11
100
AcDbEntity
100
AcDbLine
8
rung
10
2670.6
20
387
30
0
11
2742.7999999999997
21
387
31
0
0
LINE
5
3BE
330
11
100
AcDbEntity
100
AcDbLine
8
rung
10
2670.6
20
85
30
0
11
2742.7999999999997
21
85
31
0
0
LINE
5
3BF
330
11
100
AcDbEntity
100
AcDbLine
8
rung
10
2670.6
20
87
30
0
11
2742.7999999999997
21
87
31
0
0
LINE
5
3C0
330
11
100
AcDbEntity
100
AcDbLine
8
rung
10
2670.6
20
235
30
0
11
2742.7999999999997
21
235
31
0
0
LINE
5
3C1
330
11
100
AcDbEntity
100
AcDbLine
8
rung
10
2670.6
20
237
30
0
11
2742.7999999999997
21
237
31
0
0
LINE
5
3C2
330
11
100
AcDbEntity
100
AcDbLine
8
rung
10
2670.6
20
385
30
0
11
2742.7999999999997
21
385
31
0
0
LINE
5
3C3
330
11
100
AcDbEntity
100
AcDbLine
8
rung
10
2670.6
20
387
30
0
11
2742.7999999999997
21
387
31
0
0
LINE
5
3C4
330
11
100
AcDbEntity
100
AcDbLine
8
rung
10
2670.6
20
85
30
0
11
2742.7999999999997
21
85
31
0
0
LINE
5
3C5
330
11
100
AcDbEntity
100
AcDbLine
8
rung
10
2670.6
20
87
30
0
11
2742.7999999999997
21
87
31
0
0
LINE
5
3C6
330
11
100
AcDbEntity
100
AcDbLine
8
rung
10
2670.6
20
235
30
0
11
2742.7999999999997
21
235
31
0
0
LINE
5
3C7
330
11
100
AcDbEntity
100
AcDbLine
8
rung
10
2670.6
20
237
30
0
11
2742.7999999999997
21
237
31
0
0
LINE
5
3C8
330
11
100
AcDbEntity
100
AcDbLine
8
rung
10
2670.6
20
385
30
0
11
2742.7999999999997
21
385
31
0
0
LINE
5
3C9
330
11
100
AcDbEntity
100
AcDbLine
8
rung
10
2670.6
20
387
30
0
11
2742.7999999999997
21
387
31
0
0
ENDSEC
0
SECTION
2
OBJECTS
0
DICTIONARY
5
1
330
0
100
AcDbDictionary
281
1
3
ACAD_GROUP
350
15
0
DICTIONARY
5
15
330
1
100
AcDbDictionary
281
1
0
ENDSEC
0
EOF