0
SECTION
2
HEADER
9
$HANDSEED
5
6FD
9
$INSUNITS
70
6
9
$ACADVER
1
AC1021
0
ENDSEC
0
SECTION
2
CLASSES
0
ENDSEC
0
SECTION
2
TABLES
0
TABLE
2
LTYPE
5
6FB
330
0
100
AcDbSymbolTable
70
5
0
LTYPE
5
380
330
6FB
100
AcDbSymbolTableRecord
100
AcDbLinetypeTableRecord
2
CONTINUOUS
3
______
70
0
72
65
73
0
40
0
0
LTYPE
5
381
330
6FB
100
AcDbSymbolTableRecord
100
AcDbLinetypeTableRecord
2
DASHED
3
_ _ _ 
70
0
72
65
73
2
40
10
49
5
74
0
49
-5
74
0
0
LTYPE
5
382
330
6FB
100
AcDbSymbolTableRecord
100
AcDbLinetypeTableRecord
2
DOTTED
3
. . . 
70
0
72
65
73
2
40
5
49
0
74
0
49
-5
74
0
0
LTYPE
5
384
330
6FB
100
AcDbSymbolTableRecord
100
AcDbLinetypeTableRecord
2
ByBlock
3

70
0
72
65
73
0
40
0
0
LTYPE
5
385
330
6FB
100
AcDbSymbolTableRecord
100
AcDbLinetypeTableRecord
2
ByLayer
3

70
0
72
65
73
0
40
0
0
ENDTAB
0
TABLE
2
LAYER
5
6FC
330
0
100
AcDbSymbolTable
70
8
0
LAYER
5
383
330
6FC
100
AcDbSymbolTableRecord
100
AcDbLayerTableRecord
2
0
62
7
70
0
6
CONTINUOUS
390
1
0
LAYER
5
394
330
6FC
100
AcDbSymbolTableRecord
100
AcDbLayerTableRecord
2
base_line
62
7
70
0
6
CONTINUOUS
390
1
0
LAYER
5
3CB
330
6FC
100
AcDbSymbolTableRecord
100
AcDbLayerTableRecord
2
space_line
62
7
70
0
6
DASHED
390
1
0
LAYER
5
3D5
330
6FC
100
AcDbSymbolTableRecord
100
AcDbLayerTableRecord
2
rect_polygon
62
7
70
0
6
CONTINUOUS
390
1
0
LAYER
5
500
330
6FC
100
AcDbSymbolTableRecord
100
AcDbLayerTableRecord
2
stair
62
1
70
0
6
CONTINUOUS
390
1
0
LAYER
5
5E2
330
6FC
100
AcDbSymbolTableRecord
100
AcDbLayerTableRecord
2
anchor_point
62
6
70
0
6
CONTINUOUS
390
1
0
LAYER
5
5F2
330
6FC
100
AcDbSymbolTableRecord
100
AcDbLayerTableRecord
2
diagonal_braces
62
5
70
0
6
CONTINUOUS
390
1
0
LAYER
5
637
330
6FC
100
AcDbSymbolTableRecord
100
AcDbLayerTableRecord
2
rung
62
7
70
0
6
CONTINUOUS
390
1
0
ENDTAB
0
TABLE
2
VPORT
5
386
330
0
100
AcDbSymbolTable
70
1
0
VPORT
5
38C
330
386
100
AcDbSymbolTableRecord
100
AcDbViewportTableRecord
2
*ACTIVE
40
1000
70
0
0
ENDTAB
0
TABLE
2
STYLE
5
387
330
0
100
AcDbSymbolTable
70
1
0
STYLE
5
38D
330
387
100
AcDbSymbolTableRecord
100
AcDbTextStyleTableRecord
2
standard
70
0
40
0
41
1
50
0
71
0
42
1
3
txt
4

0
ENDTAB
0
TABLE
2
VIEW
5
388
330
0
100
AcDbSymbolTable
70
0
0
ENDTAB
0
TABLE
2
UCS
5
389
330
0
100
AcDbSymbolTable
70
0
0
ENDTAB
0
TABLE
2
APPID
5
38A
330
0
100
AcDbSymbolTable
70
1
0
APPID
5
38E
330
38A
100
AcDbSymbolTableRecord
100
AcDbRegAppTableRecord
2
ACAD
70
0
0
ENDTAB
0
TABLE
2
DIMSTYLE
5
38B
330
0
100
AcDbSymbolTable
100
AcDbDimStyleTable
70
0
71
1
0
ENDTAB
0
TABLE
2
BLOCK_RECORD
5
6F8
330
0
100
AcDbSymbolTable
70
2
0
BLOCK_RECORD
5
6F9
330
6F8
100
AcDbSymbolTableRecord
100
AcDbBlockTableRecord
2
*Model_Space
70
0
280
0
281
1
0
BLOCK_RECORD
5
6FA
330
6F8
100
AcDbSymbolTableRecord
100
AcDbBlockTableRecord
2
*Paper_Space
70
0
280
0
281
1
0
ENDTAB
0
ENDSEC
0
SECTION
2
BLOCKS
0
BLOCK
5
38F
330
0
100
AcDbEntity
100
AcDbBlockBegin
2
*Model_Space
70
0
10
0
20
0
30
0
3
*Model_Space
1

0
ENDBLK
5
390
330
0
100
AcDbEntity
100
AcDbBlockEnd
0
BLOCK
5
391
330
0
100
AcDbEntity
100
AcDbBlockBegin
2
*Paper_Space
70
0
10
0
20
0
30
0
3
*Paper_Space
1

0
ENDBLK
5
392
330
0
100
AcDbEntity
100
AcDbBlockEnd
0
ENDSEC
0
SECTION
2
ENTITIES
0
LINE
5
395
330
38F
100
AcDbEntity
100
AcDbLine
8
base_line
10
-300
20
40
30
0
11
640
21
40
31
0
0
LINE
5
396
330
38F
100
AcDbEntity
100
AcDbLine
8
base_line
10
1040
20
40
30
0
11
1268.6
21
40
31
0
0
LINE
5
397
330
38F
100
AcDbEntity
100
AcDbLine
8
base_line
10
1668.6
20
40
30
0
11
2268.6
21
40
31
0
0
LINE
5
398
330
38F
100
AcDbEntity
100
AcDbLine
8
base_line
10
2668.6
20
40
30
0
11
3017.2
21
40
31
0
0
LWPOLYLINE
5
399
330
38F
100
AcDbEntity
100
AcDbPolyline
8
base_line
6
ByLayer
62
256
370
-1
90
2
70
0
10
2957.2
20
55
40
4
41
0.05
10
2957.2
20
40
40
4
41
0.05
0
LWPOLYLINE
5
39A
330
38F
100
AcDbEntity
100
AcDbPolyline
8
base_line
6
ByLayer
62
256
370
-1
90
2
70
0
10
2957.2
20
175
40
4
41
0.05
10
2957.2
20
190
40
4
41
0.05
0
LINE
5
39B
330
38F
100
AcDbEntity
100
AcDbLine
8
base_line
10
2957.2
20
55
30
0
11
2957.2
21
190
31
0
0
LINE
5
39C
330
38F
100
AcDbEntity
100
AcDbLine
8
base_line
10
2897.2
20
190
30
0
11
2957.2
21
190
31
0
0
TEXT
5
39D
330
38F
100
AcDbEntity
100
AcDbText
8
base_line
10
2947.2
20
115
30
0
40
10
1
150
50
90
72
1
11
2947.2
21
115
31
0
100
AcDbText
73
2
0
TEXT
5
39E
330
38F
100
AcDbEntity
100
AcDbText
8
base_line
10
-230
20
40
30
0
40
90
1
G
50
0
72
0
11
-230
21
40
31
0
100
AcDbText
73
1
0
LINE
5
39F
330
38F
100
AcDbEntity
100
AcDbLine
8
base_line
10
-145
20
70
30
0
11
-150
21
75
31
0
0
LINE
5
3A0
330
38F
100
AcDbEntity
100
AcDbLine
8
base_line
10
-145
20
80
30
0
11
-150
21
75
31
0
0
LINE
5
3A1
330
38F
100
AcDbEntity
100
AcDbLine
8
base_line
10
-140
20
75
30
0
11
-145
21
70
31
0
0
TEXT
5
3A2
330
38F
100
AcDbEntity
100
AcDbText
8
base_line
10
-120
20
40
30
0
40
90
1
L
50
0
72
0
11
-120
21
40
31
0
100
AcDbText
73
1
0
LINE
5
3A3
330
38F
100
AcDbEntity
100
AcDbLine
8
base_line
10
-35
20
70
30
0
11
-40
21
75
31
0
0
LINE
5
3A4
330
38F
100
AcDbEntity
100
AcDbLine
8
base_line
10
-35
20
80
30
0
11
-40
21
75
31
0
0
LINE
5
3A5
330
38F
100
AcDbEntity
100
AcDbLine
8
base_line
10
-30
20
75
30
0
11
-35
21
70
31
0
0
TEXT
5
3A6
330
38F
100
AcDbEntity
100
AcDbText
8
base_line
10
1468.6
20
10
30
0
40
15
1
2857.2
50
0
72
1
11
1468.6
21
10
31
0
100
AcDbText
73
2
0
LINE
5
3A7
330
38F
100
AcDbEntity
100
AcDbLine
8
base_line
10
1040
20
870
30
0
11
1268.6
21
870
31
0
0
TEXT
5
3A8
330
38F
100
AcDbEntity
100
AcDbText
8
base_line
10
1154.3
20
860
30
0
40
10
1
228.6
50
0
72
1
11
1154.3
21
860
31
0
100
AcDbText
73
2
0
LINE
5
3A9
330
38F
100
AcDbEntity
100
AcDbLine
8
base_line
10
1020
20
890
30
0
11
1020
21
1490
31
0
0
TEXT
5
3AA
330
38F
100
AcDbEntity
100
AcDbText
8
base_line
10
1010
20
1190
30
0
40
10
1
600
50
90
72
1
11
1010
21
1190
31
0
100
AcDbText
73
2
0
LINE
5
3AB
330
38F
100
AcDbEntity
100
AcDbLine
8
base_line
10
-100
20
-15
30
0
11
-85
21
-30
31
0
0
LINE
5
3AC
330
38F
100
AcDbEntity
100
AcDbLine
8
base_line
10
-55
20
-30
30
0
11
-45
21
-10
31
0
0
LINE
5
3AD
330
38F
100
AcDbEntity
100
AcDbLine
8
base_line
10
-80
20
-33
30
0
11
-80
21
-10
31
0
0
LINE
5
3AE
330
38F
100
AcDbEntity
100
AcDbLine
8
base_line
10
-63
20
-35
30
0
11
-63
21
-10
31
0
0
LINE
5
3AF
330
38F
100
AcDbEntity
100
AcDbLine
8
base_line
10
-100
20
-35
30
0
11
-45
21
-35
31
0
0
LINE
5
3B0
330
38F
100
AcDbEntity
100
AcDbLine
8
base_line
10
-83
20
-35
30
0
11
-76
21
-48
31
0
0
LINE
5
3B1
330
38F
100
AcDbEntity
100
AcDbLine
8
base_line
10
-68
20
-47
30
0
11
-55
21
-35
31
0
0
LINE
5
3B2
330
38F
100
AcDbEntity
100
AcDbLine
8
base_line
10
-93
20
-50
30
0
11
-53
21
-50
31
0
0
LINE
5
3B3
330
38F
100
AcDbEntity
100
AcDbLine
8
base_line
10
-90
20
-70
30
0
11
-55
21
-70
31
0
0
LINE
5
3B4
330
38F
100
AcDbEntity
100
AcDbLine
8
base_line
10
-72.5
20
-50
30
0
11
-72.5
21
-90
31
0
0
LINE
5
3B5
330
38F
100
AcDbEntity
100
AcDbLine
8
base_line
10
-95
20
-95
30
0
11
-50
21
-85
31
0
0
LINE
5
3B6
330
38F
100
AcDbEntity
100
AcDbLine
8
base_line
10
-38
20
-40
30
0
11
-5
21
-40
31
0
0
LINE
5
3B7
330
38F
100
AcDbEntity
100
AcDbLine
8
base_line
10
-20
20
-95
30
0
11
-20
21
-5
31
0
0
LINE
5
3B8
330
38F
100
AcDbEntity
100
AcDbLine
8
base_line
10
-30
20
-90
30
0
11
-20
21
-95
31
0
0
LINE
5
3B9
330
38F
100
AcDbEntity
100
AcDbLine
8
base_line
10
-40
20
-45
30
0
11
-33
21
-60
31
0
0
LINE
5
3BA
330
38F
100
AcDbEntity
100
AcDbLine
8
base_line
10
5
20
-10
30
0
11
95
21
-10
31
0
0
LINE
5
3BB
330
38F
100
AcDbEntity
100
AcDbLine
8
base_line
10
50
20
-10
30
0
11
50
21
-5
31
0
0
LINE
5
3BC
330
38F
100
AcDbEntity
100
AcDbLine
8
base_line
10
7
20
-20
30
0
11
33
21
-20
31
0
0
LINE
5
3BD
330
38F
100
AcDbEntity
100
AcDbLine
8
base_line
10
70
20
-90
30
0
11
80
21
-95
31
0
0
LINE
5
3BE
330
38F
100
AcDbEntity
100
AcDbLine
8
base_line
10
70
20
-90
30
0
11
80
21
-95
31
0
0
LINE
5
3BF
330
38F
100
AcDbEntity
100
AcDbLine
8
base_line
10
70
20
-90
30
0
11
80
21
-95
31
0
0
LINE
5
3C0
330
38F
100
AcDbEntity
100
AcDbLine
8
base_line
10
45
20
-10
30
0
11
50
21
-22
31
0
0
LINE
5
3C1
330
38F
100
AcDbEntity
100
AcDbLine
8
base_line
10
55
20
-10
30
0
11
50
21
-22
31
0
0
LINE
5
3C2
330
38F
100
AcDbEntity
100
AcDbLine
8
base_line
10
50
20
-53
30
0
11
50
21
-22
31
0
0
LINE
5
3C3
330
38F
100
AcDbEntity
100
AcDbLine
8
base_line
10
70
20
-90
30
0
11
80
21
-95
31
0
0
LINE
5
3C4
330
38F
100
AcDbEntity
100
AcDbLine
8
base_line
10
60
20
-18
30
0
11
60
21
-53
31
0
0
LINE
5
3C5
330
38F
100
AcDbEntity
100
AcDbLine
8
base_line
10
72
20
-46
30
0
11
60
21
-53
31
0
0
LINE
5
3C6
330
38F
100
AcDbEntity
100
AcDbLine
8
base_line
10
70
20
-90
30
0
11
80
21
-95
31
0
0
LINE
5
3C7
330
38F
100
AcDbEntity
100
AcDbLine
8
base_line
10
70
20
-90
30
0
11
80
21
-95
31
0
0
LINE
5
3C8
330
38F
100
AcDbEntity
100
AcDbLine
8
base_line
10
23
20
-62
30
0
11
75
21
-62
31
0
0
LINE
5
3C9
330
38F
100
AcDbEntity
100
AcDbLine
8
base_line
10
23
20
-73
30
0
11
75
21
-73
31
0
0
LINE
5
3CA
330
38F
100
AcDbEntity
100
AcDbLine
8
base_line
10
75
20
-95
30
0
11
75
21
-50
31
0
0
LINE
5
3CC
330
38F
100
AcDbEntity
100
AcDbLine
8
space_line
10
640
20
40
30
0
11
1040
21
40
31
0
0
LINE
5
3CD
330
38F
100
AcDbEntity
100
AcDbLine
8
space_line
10
1268.6
20
40
30
0
11
1668.6
21
40
31
0
0
LINE
5
3CE
330
38F
100
AcDbEntity
100
AcDbLine
8
space_line
10
2268.6
20
40
30
0
11
2668.6
21
40
31
0
0
LINE
5
3CF
330
38F
100
AcDbEntity
100
AcDbLine
8
space_line
10
640
20
490
30
0
11
2668.6
21
490
31
0
0
LINE
5
3D0
330
38F
100
AcDbEntity
100
AcDbLine
8
space_line
10
1040
20
890
30
0
11
1040
21
40
31
0
0
LINE
5
3D1
330
38F
100
AcDbEntity
100
AcDbLine
8
space_line
10
1268.6
20
890
30
0
11
1268.6
21
40
31
0
0
LWPOLYLINE
5
3D2
330
38F
100
AcDbEntity
100
AcDbPolyline
8
space_line
6
ByLayer
62
256
370
-1
90
3
70
1
10
7.071067811865475
20
7.0710678118654755
10
2.58819045102521
20
-9.659258262890681
10
-9.659258262890685
20
2.588190451025203
0
LWPOLYLINE
5
3D3
330
38F
100
AcDbEntity
100
AcDbPolyline
8
space_line
6
ByLayer
62
256
370
-1
90
5
70
1
10
30
20
12.360679774997896
10
41.75570504584946
20
3.8196601125010514
10
37.26542528005361
20
-9.999999999999998
10
22.734574719946394
20
-10
10
18.244294954150536
20
3.8196601125010488
0
LWPOLYLINE
5
3D4
330
38F
100
AcDbEntity
100
AcDbPolyline
8
space_line
6
ByLayer
62
256
370
-1
90
2
70
0
10
10
20
10
40
3
41
0.05
10
10
20
0
40
3
41
0.05
0
LWPOLYLINE
5
3D6
330
38F
100
AcDbEntity
100
AcDbPolyline
8
rect_polygon
6
ByLayer
62
256
370
-1
90
4
70
1
10
1040
20
890
10
1040
20
1040
10
1116.2
20
1040
10
1116.2
20
890
0
LWPOLYLINE
5
3D7
330
38F
100
AcDbEntity
100
AcDbPolyline
8
rect_polygon
6
ByLayer
62
256
370
-1
90
4
70
1
10
1042
20
892
10
1042
20
1038
10
1114.2
20
1038
10
1114.2
20
892
0
LWPOLYLINE
5
3D8
330
38F
100
AcDbEntity
100
AcDbPolyline
8
rect_polygon
6
ByLayer
62
256
370
-1
90
4
70
1
10
1040
20
1040
10
1040
20
1190
10
1116.2
20
1190
10
1116.2
20
1040
0
LWPOLYLINE
5
3D9
330
38F
100
AcDbEntity
100
AcDbPolyline
8
rect_polygon
6
ByLayer
62
256
370
-1
90
4
70
1
10
1042
20
1042
10
1042
20
1188
10
1114.2
20
1188
10
1114.2
20
1042
0
LWPOLYLINE
5
3DA
330
38F
100
AcDbEntity
100
AcDbPolyline
8
rect_polygon
6
ByLayer
62
256
370
-1
90
4
70
1
10
1040
20
1190
10
1040
20
1340
10
1116.2
20
1340
10
1116.2
20
1190
0
LWPOLYLINE
5
3DB
330
38F
100
AcDbEntity
100
AcDbPolyline
8
rect_polygon
6
ByLayer
62
256
370
-1
90
4
70
1
10
1042
20
1192
10
1042
20
1338
10
1114.2
20
1338
10
1114.2
20
1192
0
LWPOLYLINE
5
3DC
330
38F
100
AcDbEntity
100
AcDbPolyline
8
rect_polygon
6
ByLayer
62
256
370
-1
90
4
70
1
10
1040
20
1340
10
1040
20
1490
10
1116.2
20
1490
10
1116.2
20
1340
0
LWPOLYLINE
5
3DD
330
38F
100
AcDbEntity
100
AcDbPolyline
8
rect_polygon
6
ByLayer
62
256
370
-1
90
4
70
1
10
1042
20
1342
10
1042
20
1488
10
1114.2
20
1488
10
1114.2
20
1342
0
LWPOLYLINE
5
3DE
330
38F
100
AcDbEntity
100
AcDbPolyline
8
rect_polygon
6
ByLayer
62
256
370
-1
90
4
70
1
10
1116.2
20
890
10
1116.2
20
1040
10
1192.4
20
1040
10
1192.4
20
890
0
LWPOLYLINE
5
3DF
330
38F
100
AcDbEntity
100
AcDbPolyline
8
rect_polygon
6
ByLayer
62
256
370
-1
90
4
70
1
10
1118.2
20
892
10
1118.2
20
1038
10
1190.4
20
1038
10
1190.4
20
892
0
LWPOLYLINE
5
3E0
330
38F
100
AcDbEntity
100
AcDbPolyline
8
rect_polygon
6
ByLayer
62
256
370
-1
90
4
70
1
10
1116.2
20
1040
10
1116.2
20
1190
10
1192.4
20
1190
10
1192.4
20
1040
0
LWPOLYLINE
5
3E1
330
38F
100
AcDbEntity
100
AcDbPolyline
8
rect_polygon
6
ByLayer
62
256
370
-1
90
4
70
1
10
1118.2
20
1042
10
1118.2
20
1188
10
1190.4
20
1188
10
1190.4
20
1042
0
LWPOLYLINE
5
3E2
330
38F
100
AcDbEntity
100
AcDbPolyline
8
rect_polygon
6
ByLayer
62
256
370
-1
90
4
70
1
10
1116.2
20
1040
10
1116.2
20
1190
10
1192.4
20
1190
10
1192.4
20
1040
0
LWPOLYLINE
5
3E3
330
38F
100
AcDbEntity
100
AcDbPolyline
8
rect_polygon
6
ByLayer
62
256
370
-1
90
4
70
1
10
1118.2
20
1042
10
1118.2
20
1188
10
1190.4
20
1188
10
1190.4
20
1042
0
LWPOLYLINE
5
3E4
330
38F
100
AcDbEntity
100
AcDbPolyline
8
rect_polygon
6
ByLayer
62
256
370
-1
90
4
70
1
10
1116.2
20
1040
10
1116.2
20
1190
10
1192.4
20
1190
10
1192.4
20
1040
0
LWPOLYLINE
5
3E5
330
38F
100
AcDbEntity
100
AcDbPolyline
8
rect_polygon
6
ByLayer
62
256
370
-1
90
4
70
1
10
1118.2
20
1042
10
1118.2
20
1188
10
1190.4
20
1188
10
1190.4
20
1042
0
LWPOLYLINE
5
3E6
330
38F
100
AcDbEntity
100
AcDbPolyline
8
rect_polygon
6
ByLayer
62
256
370
-1
90
4
70
1
10
1116.2
20
1190
10
1116.2
20
1340
10
1192.4
20
1340
10
1192.4
20
1190
0
LWPOLYLINE
5
3E7
330
38F
100
AcDbEntity
100
AcDbPolyline
8
rect_polygon
6
ByLayer
62
256
370
-1
90
4
70
1
10
1118.2
20
1192
10
1118.2
20
1338
10
1190.4
20
1338
10
1190.4
20
1192
0
LWPOLYLINE
5
3E8
330
38F
100
AcDbEntity
100
AcDbPolyline
8
rect_polygon
6
ByLayer
62
256
370
-1
90
4
70
1
10
1116.2
20
1190
10
1116.2
20
1340
10
1192.4
20
1340
10
1192.4
20
1190
0
LWPOLYLINE
5
3E9
330
38F
100
AcDbEntity
100
AcDbPolyline
8
rect_polygon
6
ByLayer
62
256
370
-1
90
4
70
1
10
1118.2
20
1192
10
1118.2
20
1338
10
1190.4
20
1338
10
1190.4
20
1192
0
LWPOLYLINE
5
3EA
330
38F
100
AcDbEntity
100
AcDbPolyline
8
rect_polygon
6
ByLayer
62
256
370
-1
90
4
70
1
10
1116.2
20
1190
10
1116.2
20
1340
10
1192.4
20
1340
10
1192.4
20
1190
0
LWPOLYLINE
5
3EB
330
38F
100
AcDbEntity
100
AcDbPolyline
8
rect_polygon
6
ByLayer
62
256
370
-1
90
4
70
1
10
1118.2
20
1192
10
1118.2
20
1338
10
1190.4
20
1338
10
1190.4
20
1192
0
LWPOLYLINE
5
3EC
330
38F
100
AcDbEntity
100
AcDbPolyline
8
rect_polygon
6
ByLayer
62
256
370
-1
90
4
70
1
10
1116.2
20
1340
10
1116.2
20
1490
10
1192.4
20
1490
10
1192.4
20
1340
0
LWPOLYLINE
5
3ED
330
38F
100
AcDbEntity
100
AcDbPolyline
8
rect_polygon
6
ByLayer
62
256
370
-1
90
4
70
1
10
1118.2
20
1342
10
1118.2
20
1488
10
1190.4
20
1488
10
1190.4
20
1342
0
LWPOLYLINE
5
3EE
330
38F
100
AcDbEntity
100
AcDbPolyline
8
rect_polygon
6
ByLayer
62
256
370
-1
90
4
70
1
10
1116.2
20
1340
10
1116.2
20
1490
10
1192.4
20
1490
10
1192.4
20
1340
0
LWPOLYLINE
5
3EF
330
38F
100
AcDbEntity
100
AcDbPolyline
8
rect_polygon
6
ByLayer
62
256
370
-1
90
4
70
1
10
1118.2
20
1342
10
1118.2
20
1488
10
1190.4
20
1488
10
1190.4
20
1342
0
LWPOLYLINE
5
3F0
330
38F
100
AcDbEntity
100
AcDbPolyline
8
rect_polygon
6
ByLayer
62
256
370
-1
90
4
70
1
10
1116.2
20
1340
10
1116.2
20
1490
10
1192.4
20
1490
10
1192.4
20
1340
0
LWPOLYLINE
5
3F1
330
38F
100
AcDbEntity
100
AcDbPolyline
8
rect_polygon
6
ByLayer
62
256
370
-1
90
4
70
1
10
1118.2
20
1342
10
1118.2
20
1488
10
1190.4
20
1488
10
1190.4
20
1342
0
LWPOLYLINE
5
3F2
330
38F
100
AcDbEntity
100
AcDbPolyline
8
rect_polygon
6
ByLayer
62
256
370
-1
90
4
70
1
10
1192.4
20
890
10
1192.4
20
1040
10
1268.6000000000001
20
1040
10
1268.6000000000001
20
890
0
LWPOLYLINE
5
3F3
330
38F
100
AcDbEntity
100
AcDbPolyline
8
rect_polygon
6
ByLayer
62
256
370
-1
90
4
70
1
10
1194.4
20
892
10
1194.4
20
1038
10
1266.6000000000001
20
1038
10
1266.6000000000001
20
892
0
LWPOLYLINE
5
3F4
330
38F
100
AcDbEntity
100
AcDbPolyline
8
rect_polygon
6
ByLayer
62
256
370
-1
90
4
70
1
10
1192.4
20
1040
10
1192.4
20
1190
10
1268.6000000000001
20
1190
10
1268.6000000000001
20
1040
0
LWPOLYLINE
5
3F5
330
38F
100
AcDbEntity
100
AcDbPolyline
8
rect_polygon
6
ByLayer
62
256
370
-1
90
4
70
1
10
1194.4
20
1042
10
1194.4
20
1188
10
1266.6000000000001
20
1188
10
1266.6000000000001
20
1042
0
LWPOLYLINE
5
3F6
330
38F
100
AcDbEntity
100
AcDbPolyline
8
rect_polygon
6
ByLayer
62
256
370
-1
90
4
70
1
10
1192.4
20
1040
10
1192.4
20
1190
10
1268.6000000000001
20
1190
10
1268.6000000000001
20
1040
0
LWPOLYLINE
5
3F7
330
38F
100
AcDbEntity
100
AcDbPolyline
8
rect_polygon
6
ByLayer
62
256
370
-1
90
4
70
1
10
1194.4
20
1042
10
1194.4
20
1188
10
1266.6000000000001
20
1188
10
1266.6000000000001
20
1042
0
LWPOLYLINE
5
3F8
330
38F
100
AcDbEntity
100
AcDbPolyline
8
rect_polygon
6
ByLayer
62
256
370
-1
90
4
70
1
10
1192.4
20
1040
10
1192.4
20
1190
10
1268.6000000000001
20
1190
10
1268.6000000000001
20
1040
0
LWPOLYLINE
5
3F9
330
38F
100
AcDbEntity
100
AcDbPolyline
8
rect_polygon
6
ByLayer
62
256
370
-1
90
4
70
1
10
1194.4
20
1042
10
1194.4
20
1188
10
1266.6000000000001
20
1188
10
1266.6000000000001
20
1042
0
LWPOLYLINE
5
3FA
330
38F
100
AcDbEntity
100
AcDbPolyline
8
rect_polygon
6
ByLayer
62
256
370
-1
90
4
70
1
10
1192.4
20
1190
10
1192.4
20
1340
10
1268.6000000000001
20
1340
10
1268.6000000000001
20
1190
0
LWPOLYLINE
5
3FB
330
38F
100
AcDbEntity
100
AcDbPolyline
8
rect_polygon
6
ByLayer
62
256
370
-1
90
4
70
1
10
1194.4
20
1192
10
1194.4
20
1338
10
1266.6000000000001
20
1338
10
1266.6000000000001
20
1192
0
LWPOLYLINE
5
3FC
330
38F
100
AcDbEntity
100
AcDbPolyline
8
rect_polygon
6
ByLayer
62
256
370
-1
90
4
70
1
10
1192.4
20
1190
10
1192.4
20
1340
10
1268.6000000000001
20
1340
10
1268.6000000000001
20
1190
0
LWPOLYLINE
5
3FD
330
38F
100
AcDbEntity
100
AcDbPolyline
8
rect_polygon
6
ByLayer
62
256
370
-1
90
4
70
1
10
1194.4
20
1192
10
1194.4
20
1338
10
1266.6000000000001
20
1338
10
1266.6000000000001
20
1192
0
LWPOLYLINE
5
3FE
330
38F
100
AcDbEntity
100
AcDbPolyline
8
rect_polygon
6
ByLayer
62
256
370
-1
90
4
70
1
10
1192.4
20
1190
10
1192.4
20
1340
10
1268.6000000000001
20
1340
10
1268.6000000000001
20
1190
0
LWPOLYLINE
5
3FF
330
38F
100
AcDbEntity
100
AcDbPolyline
8
rect_polygon
6
ByLayer
62
256
370
-1
90
4
70
1
10
1194.4
20
1192
10
1194.4
20
1338
10
1266.6000000000001
20
1338
10
1266.6000000000001
20
1192
0
LWPOLYLINE
5
400
330
38F
100
AcDbEntity
100
AcDbPolyline
8
rect_polygon
6
ByLayer
62
256
370
-1
90
4
70
1
10
1192.4
20
1340
10
1192.4
20
1490
10
1268.6000000000001
20
1490
10
1268.6000000000001
20
1340
0
LWPOLYLINE
5
401
330
38F
100
AcDbEntity
100
AcDbPolyline
8
rect_polygon
6
ByLayer
62
256
370
-1
90
4
70
1
10
1194.4
20
1342
10
1194.4
20
1488
10
1266.6000000000001
20
1488
10
1266.6000000000001
20
1342
0
LWPOLYLINE
5
402
330
38F
100
AcDbEntity
100
AcDbPolyline
8
rect_polygon
6
ByLayer
62
256
370
-1
90
4
70
1
10
1192.4
20
1340
10
1192.4
20
1490
10
1268.6000000000001
20
1490
10
1268.6000000000001
20
1340
0
LWPOLYLINE
5
403
330
38F
100
AcDbEntity
100
AcDbPolyline
8
rect_polygon
6
ByLayer
62
256
370
-1
90
4
70
1
10
1194.4
20
1342
10
1194.4
20
1488
10
1266.6000000000001
20
1488
10
1266.6000000000001
20
1342
0
LWPOLYLINE
5
404
330
38F
100
AcDbEntity
100
AcDbPolyline
8
rect_polygon
6
ByLayer
62
256
370
-1
90
4
70
1
10
1192.4
20
1340
10
1192.4
20
1490
10
1268.6000000000001
20
1490
10
1268.6000000000001
20
1340
0
LWPOLYLINE
5
405
330
38F
100
AcDbEntity
100
AcDbPolyline
8
rect_polygon
6
ByLayer
62
256
370
-1
90
4
70
1
10
1194.4
20
1342
10
1194.4
20
1488
10
1266.6000000000001
20
1488
10
1266.6000000000001
20
1342
0
TEXT
5
406
330
38F
100
AcDbEntity
100
AcDbText
8
rect_polygon
10
1078.1
20
965
30
0
40
25.400000000000002
1
3
50
0
72
1
11
1078.1
21
965
31
0
100
AcDbText
73
2
0
TEXT
5
407
330
38F
100
AcDbEntity
100
AcDbText
8
rect_polygon
10
1078.1
20
1115
30
0
40
25.400000000000002
1
3
50
0
72
1
11
1078.1
21
1115
31
0
100
AcDbText
73
2
0
TEXT
5
408
330
38F
100
AcDbEntity
100
AcDbText
8
rect_polygon
10
1078.1
20
1265
30
0
40
25.400000000000002
1
3
50
0
72
1
11
1078.1
21
1265
31
0
100
AcDbText
73
2
0
TEXT
5
409
330
38F
100
AcDbEntity
100
AcDbText
8
rect_polygon
10
1078.1
20
1415
30
0
40
25.400000000000002
1
3
50
0
72
1
11
1078.1
21
1415
31
0
100
AcDbText
73
2
0
TEXT
5
40A
330
38F
100
AcDbEntity
100
AcDbText
8
rect_polygon
10
1154.3
20
965
30
0
40
25.400000000000002
1
3
50
0
72
1
11
1154.3
21
965
31
0
100
AcDbText
73
2
0
TEXT
5
40B
330
38F
100
AcDbEntity
100
AcDbText
8
rect_polygon
10
1154.3
20
1115
30
0
40
25.400000000000002
1
3
50
0
72
1
11
1154.3
21
1115
31
0
100
AcDbText
73
2
0
TEXT
5
40C
330
38F
100
AcDbEntity
100
AcDbText
8
rect_polygon
10
1154.3
20
1115
30
0
40
25.400000000000002
1
3
50
0
72
1
11
1154.3
21
1115
31
0
100
AcDbText
73
2
0
TEXT
5
40D
330
38F
100
AcDbEntity
100
AcDbText
8
rect_polygon
10
1154.3
20
1115
30
0
40
25.400000000000002
1
3
50
0
72
1
11
1154.3
21
1115
31
0
100
AcDbText
73
2
0
TEXT
5
40E
330
38F
100
AcDbEntity
100
AcDbText
8
rect_polygon
10
1154.3
20
1265
30
0
40
25.400000000000002
1
3
50
0
72
1
11
1154.3
21
1265
31
0
100
AcDbText
73
2
0
TEXT
5
40F
330
38F
100
AcDbEntity
100
AcDbText
8
rect_polygon
10
1154.3
20
1265
30
0
40
25.400000000000002
1
3
50
0
72
1
11
1154.3
21
1265
31
0
100
AcDbText
73
2
0
TEXT
5
410
330
38F
100
AcDbEntity
100
AcDbText
8
rect_polygon
10
1154.3
20
1265
30
0
40
25.400000000000002
1
3
50
0
72
1
11
1154.3
21
1265
31
0
100
AcDbText
73
2
0
TEXT
5
411
330
38F
100
AcDbEntity
100
AcDbText
8
rect_polygon
10
1154.3
20
1415
30
0
40
25.400000000000002
1
3
50
0
72
1
11
1154.3
21
1415
31
0
100
AcDbText
73
2
0
TEXT
5
412
330
38F
100
AcDbEntity
100
AcDbText
8
rect_polygon
10
1154.3
20
1415
30
0
40
25.400000000000002
1
3
50
0
72
1
11
1154.3
21
1415
31
0
100
AcDbText
73
2
0
TEXT
5
413
330
38F
100
AcDbEntity
100
AcDbText
8
rect_polygon
10
1154.3
20
1415
30
0
40
25.400000000000002
1
3
50
0
72
1
11
1154.3
21
1415
31
0
100
AcDbText
73
2
0
TEXT
5
414
330
38F
100
AcDbEntity
100
AcDbText
8
rect_polygon
10
1230.5
20
965
30
0
40
25.400000000000002
1
3
50
0
72
1
11
1230.5
21
965
31
0
100
AcDbText
73
2
0
TEXT
5
415
330
38F
100
AcDbEntity
100
AcDbText
8
rect_polygon
10
1230.5
20
1115
30
0
40
25.400000000000002
1
3
50
0
72
1
11
1230.5
21
1115
31
0
100
AcDbText
73
2
0
TEXT
5
416
330
38F
100
AcDbEntity
100
AcDbText
8
rect_polygon
10
1230.5
20
1115
30
0
40
25.400000000000002
1
3
50
0
72
1
11
1230.5
21
1115
31
0
100
AcDbText
73
2
0
TEXT
5
417
330
38F
100
AcDbEntity
100
AcDbText
8
rect_polygon
10
1230.5
20
1115
30
0
40
25.400000000000002
1
3
50
0
72
1
11
1230.5
21
1115
31
0
100
AcDbText
73
2
0
TEXT
5
418
330
38F
100
AcDbEntity
100
AcDbText
8
rect_polygon
10
1230.5
20
1265
30
0
40
25.400000000000002
1
3
50
0
72
1
11
1230.5
21
1265
31
0
100
AcDbText
73
2
0
TEXT
5
419
330
38F
100
AcDbEntity
100
AcDbText
8
rect_polygon
10
1230.5
20
1265
30
0
40
25.400000000000002
1
3
50
0
72
1
11
1230.5
21
1265
31
0
100
AcDbText
73
2
0
TEXT
5
41A
330
38F
100
AcDbEntity
100
AcDbText
8
rect_polygon
10
1230.5
20
1265
30
0
40
25.400000000000002
1
3
50
0
72
1
11
1230.5
21
1265
31
0
100
AcDbText
73
2
0
TEXT
5
41B
330
38F
100
AcDbEntity
100
AcDbText
8
rect_polygon
10
1230.5
20
1415
30
0
40
25.400000000000002
1
3
50
0
72
1
11
1230.5
21
1415
31
0
100
AcDbText
73
2
0
TEXT
5
41C
330
38F
100
AcDbEntity
100
AcDbText
8
rect_polygon
10
1230.5
20
1415
30
0
40
25.400000000000002
1
3
50
0
72
1
11
1230.5
21
1415
31
0
100
AcDbText
73
2
0
TEXT
5
41D
330
38F
100
AcDbEntity
100
AcDbText
8
rect_polygon
10
1230.5
20
1415
30
0
40
25.400000000000002
1
3
50
0
72
1
11
1230.5
21
1415
31
0
100
AcDbText
73
2
0
LINE
5
41E
330
38F
100
AcDbEntity
100
AcDbLine
8
rect_polygon
10
490
20
40
30
0
11
640
21
340
31
0
0
LINE
5
41F
330
38F
100
AcDbEntity
100
AcDbLine
8
rect_polygon
10
500
20
40
30
0
11
490
21
50
31
0
0
LINE
5
420
330
38F
100
AcDbEntity
100
AcDbLine
8
rect_polygon
10
510
20
40
30
0
11
490
21
NaN
31
0
0
LINE
5
421
330
38F
100
AcDbEntity
100
AcDbLine
8
rect_polygon
10
530
20
40
30
0
11
490
21
NaN
31
0
0
LINE
5
422
330
38F
100
AcDbEntity
100
AcDbLine
8
rect_polygon
10
540
20
40
30
0
11
490
21
NaN
31
0
0
LINE
5
423
330
38F
100
AcDbEntity
100
AcDbLine
8
rect_polygon
10
560
20
40
30
0
11
490
21
NaN
31
0
0
LINE
5
424
330
38F
100
AcDbEntity
100
AcDbLine
8
rect_polygon
10
570
20
40
30
0
11
490
21
NaN
31
0
0
LINE
5
425
330
38F
100
AcDbEntity
100
AcDbLine
8
rect_polygon
10
590
20
40
30
0
11
490
21
NaN
31
0
0
LINE
5
426
330
38F
100
AcDbEntity
100
AcDbLine
8
rect_polygon
10
600
20
40
30
0
11
490
21
NaN
31
0
0
LINE
5
427
330
38F
100
AcDbEntity
100
AcDbLine
8
rect_polygon
10
620
20
40
30
0
11
490
21
NaN
31
0
0
LINE
5
428
330
38F
100
AcDbEntity
100
AcDbLine
8
rect_polygon
10
630
20
40
30
0
11
490
21
NaN
31
0
0
LWPOLYLINE
5
429
330
38F
100
AcDbEntity
100
AcDbPolyline
8
rect_polygon
6
ByLayer
62
256
370
-1
90
4
70
1
10
490
20
340
10
490
20
490
10
640
20
490
10
640
20
340
0
LWPOLYLINE
5
42A
330
38F
100
AcDbEntity
100
AcDbPolyline
8
rect_polygon
6
ByLayer
62
256
370
-1
90
4
70
1
10
492
20
342
10
492
20
488
10
638
20
488
10
638
20
342
0
LWPOLYLINE
5
42B
330
38F
100
AcDbEntity
100
AcDbPolyline
8
rect_polygon
6
ByLayer
62
256
370
-1
90
4
70
1
10
340
20
340
10
340
20
490
10
490
20
490
10
490
20
340
0
LWPOLYLINE
5
42C
330
38F
100
AcDbEntity
100
AcDbPolyline
8
rect_polygon
6
ByLayer
62
256
370
-1
90
4
70
1
10
342
20
342
10
342
20
488
10
488
20
488
10
488
20
342
0
LWPOLYLINE
5
42D
330
38F
100
AcDbEntity
100
AcDbPolyline
8
rect_polygon
6
ByLayer
62
256
370
-1
90
4
70
1
10
190
20
340
10
190
20
490
10
340
20
490
10
340
20
340
0
LWPOLYLINE
5
42E
330
38F
100
AcDbEntity
100
AcDbPolyline
8
rect_polygon
6
ByLayer
62
256
370
-1
90
4
70
1
10
192
20
342
10
192
20
488
10
338
20
488
10
338
20
342
0
LWPOLYLINE
5
42F
330
38F
100
AcDbEntity
100
AcDbPolyline
8
rect_polygon
6
ByLayer
62
256
370
-1
90
4
70
1
10
40
20
340
10
40
20
490
10
190
20
490
10
190
20
340
0
LWPOLYLINE
5
430
330
38F
100
AcDbEntity
100
AcDbPolyline
8
rect_polygon
6
ByLayer
62
256
370
-1
90
4
70
1
10
42
20
342
10
42
20
488
10
188
20
488
10
188
20
342
0
LWPOLYLINE
5
431
330
38F
100
AcDbEntity
100
AcDbPolyline
8
rect_polygon
6
ByLayer
62
256
370
-1
90
4
70
1
10
490
20
340
10
490
20
490
10
640
20
490
10
640
20
340
0
LWPOLYLINE
5
432
330
38F
100
AcDbEntity
100
AcDbPolyline
8
rect_polygon
6
ByLayer
62
256
370
-1
90
4
70
1
10
492
20
342
10
492
20
488
10
638
20
488
10
638
20
342
0
LWPOLYLINE
5
433
330
38F
100
AcDbEntity
100
AcDbPolyline
8
rect_polygon
6
ByLayer
62
256
370
-1
90
4
70
1
10
340
20
40
10
340
20
190
10
490
20
190
10
490
20
40
0
LWPOLYLINE
5
434
330
38F
100
AcDbEntity
100
AcDbPolyline
8
rect_polygon
6
ByLayer
62
256
370
-1
90
4
70
1
10
342
20
42
10
342
20
188
10
488
20
188
10
488
20
42
0
LWPOLYLINE
5
435
330
38F
100
AcDbEntity
100
AcDbPolyline
8
rect_polygon
6
ByLayer
62
256
370
-1
90
4
70
1
10
340
20
190
10
340
20
340
10
490
20
340
10
490
20
190
0
LWPOLYLINE
5
436
330
38F
100
AcDbEntity
100
AcDbPolyline
8
rect_polygon
6
ByLayer
62
256
370
-1
90
4
70
1
10
342
20
192
10
342
20
338
10
488
20
338
10
488
20
192
0
LWPOLYLINE
5
437
330
38F
100
AcDbEntity
100
AcDbPolyline
8
rect_polygon
6
ByLayer
62
256
370
-1
90
4
70
1
10
340
20
340
10
340
20
490
10
490
20
490
10
490
20
340
0
LWPOLYLINE
5
438
330
38F
100
AcDbEntity
100
AcDbPolyline
8
rect_polygon
6
ByLayer
62
256
370
-1
90
4
70
1
10
342
20
342
10
342
20
488
10
488
20
488
10
488
20
342
0
LWPOLYLINE
5
439
330
38F
100
AcDbEntity
100
AcDbPolyline
8
rect_polygon
6
ByLayer
62
256
370
-1
90
4
70
1
10
190
20
40
10
190
20
190
10
340
20
190
10
340
20
40
0
LWPOLYLINE
5
43A
330
38F
100
AcDbEntity
100
AcDbPolyline
8
rect_polygon
6
ByLayer
62
256
370
-1
90
4
70
1
10
192
20
42
10
192
20
188
10
338
20
188
10
338
20
42
0
LWPOLYLINE
5
43B
330
38F
100
AcDbEntity
100
AcDbPolyline
8
rect_polygon
6
ByLayer
62
256
370
-1
90
4
70
1
10
190
20
190
10
190
20
340
10
340
20
340
10
340
20
190
0
LWPOLYLINE
5
43C
330
38F
100
AcDbEntity
100
AcDbPolyline
8
rect_polygon
6
ByLayer
62
256
370
-1
90
4
70
1
10
192
20
192
10
192
20
338
10
338
20
338
10
338
20
192
0
LWPOLYLINE
5
43D
330
38F
100
AcDbEntity
100
AcDbPolyline
8
rect_polygon
6
ByLayer
62
256
370
-1
90
4
70
1
10
190
20
340
10
190
20
490
10
340
20
490
10
340
20
340
0
LWPOLYLINE
5
43E
330
38F
100
AcDbEntity
100
AcDbPolyline
8
rect_polygon
6
ByLayer
62
256
370
-1
90
4
70
1
10
192
20
342
10
192
20
488
10
338
20
488
10
338
20
342
0
LWPOLYLINE
5
43F
330
38F
100
AcDbEntity
100
AcDbPolyline
8
rect_polygon
6
ByLayer
62
256
370
-1
90
4
70
1
10
40
20
40
10
40
20
190
10
190
20
190
10
190
20
40
0
LWPOLYLINE
5
440
330
38F
100
AcDbEntity
100
AcDbPolyline
8
rect_polygon
6
ByLayer
62
256
370
-1
90
4
70
1
10
42
20
42
10
42
20
188
10
188
20
188
10
188
20
42
0
LWPOLYLINE
5
441
330
38F
100
AcDbEntity
100
AcDbPolyline
8
rect_polygon
6
ByLayer
62
256
370
-1
90
4
70
1
10
40
20
190
10
40
20
340
10
190
20
340
10
190
20
190
0
LWPOLYLINE
5
442
330
38F
100
AcDbEntity
100
AcDbPolyline
8
rect_polygon
6
ByLayer
62
256
370
-1
90
4
70
1
10
42
20
192
10
42
20
338
10
188
20
338
10
188
20
192
0
LWPOLYLINE
5
443
330
38F
100
AcDbEntity
100
AcDbPolyline
8
rect_polygon
6
ByLayer
62
256
370
-1
90
4
70
1
10
40
20
340
10
40
20
490
10
190
20
490
10
190
20
340
0
LWPOLYLINE
5
444
330
38F
100
AcDbEntity
100
AcDbPolyline
8
rect_polygon
6
ByLayer
62
256
370
-1
90
4
70
1
10
42
20
342
10
42
20
488
10
188
20
488
10
188
20
342
0
LWPOLYLINE
5
445
330
38F
100
AcDbEntity
100
AcDbPolyline
8
rect_polygon
6
ByLayer
62
256
370
-1
90
4
70
1
10
490
20
340
10
490
20
490
10
640
20
490
10
640
20
340
0
LWPOLYLINE
5
446
330
38F
100
AcDbEntity
100
AcDbPolyline
8
rect_polygon
6
ByLayer
62
256
370
-1
90
4
70
1
10
492
20
342
10
492
20
488
10
638
20
488
10
638
20
342
0
LWPOLYLINE
5
447
330
38F
100
AcDbEntity
100
AcDbPolyline
8
rect_polygon
6
ByLayer
62
256
370
-1
90
4
70
1
10
340
20
40
10
340
20
190
10
490
20
190
10
490
20
40
0
LWPOLYLINE
5
448
330
38F
100
AcDbEntity
100
AcDbPolyline
8
rect_polygon
6
ByLayer
62
256
370
-1
90
4
70
1
10
342
20
42
10
342
20
188
10
488
20
188
10
488
20
42
0
LWPOLYLINE
5
449
330
38F
100
AcDbEntity
100
AcDbPolyline
8
rect_polygon
6
ByLayer
62
256
370
-1
90
4
70
1
10
340
20
190
10
340
20
340
10
490
20
340
10
490
20
190
0
LWPOLYLINE
5
44A
330
38F
100
AcDbEntity
100
AcDbPolyline
8
rect_polygon
6
ByLayer
62
256
370
-1
90
4
70
1
10
342
20
192
10
342
20
338
10
488
20
338
10
488
20
192
0
LWPOLYLINE
5
44B
330
38F
100
AcDbEntity
100
AcDbPolyline
8
rect_polygon
6
ByLayer
62
256
370
-1
90
4
70
1
10
340
20
340
10
340
20
490
10
490
20
490
10
490
20
340
0
LWPOLYLINE
5
44C
330
38F
100
AcDbEntity
100
AcDbPolyline
8
rect_polygon
6
ByLayer
62
256
370
-1
90
4
70
1
10
342
20
342
10
342
20
488
10
488
20
488
10
488
20
342
0
LWPOLYLINE
5
44D
330
38F
100
AcDbEntity
100
AcDbPolyline
8
rect_polygon
6
ByLayer
62
256
370
-1
90
4
70
1
10
190
20
40
10
190
20
190
10
340
20
190
10
340
20
40
0
LWPOLYLINE
5
44E
330
38F
100
AcDbEntity
100
AcDbPolyline
8
rect_polygon
6
ByLayer
62
256
370
-1
90
4
70
1
10
192
20
42
10
192
20
188
10
338
20
188
10
338
20
42
0
LWPOLYLINE
5
44F
330
38F
100
AcDbEntity
100
AcDbPolyline
8
rect_polygon
6
ByLayer
62
256
370
-1
90
4
70
1
10
190
20
190
10
190
20
340
10
340
20
340
10
340
20
190
0
LWPOLYLINE
5
450
330
38F
100
AcDbEntity
100
AcDbPolyline
8
rect_polygon
6
ByLayer
62
256
370
-1
90
4
70
1
10
192
20
192
10
192
20
338
10
338
20
338
10
338
20
192
0
LWPOLYLINE
5
451
330
38F
100
AcDbEntity
100
AcDbPolyline
8
rect_polygon
6
ByLayer
62
256
370
-1
90
4
70
1
10
190
20
340
10
190
20
490
10
340
20
490
10
340
20
340
0
LWPOLYLINE
5
452
330
38F
100
AcDbEntity
100
AcDbPolyline
8
rect_polygon
6
ByLayer
62
256
370
-1
90
4
70
1
10
192
20
342
10
192
20
488
10
338
20
488
10
338
20
342
0
LWPOLYLINE
5
453
330
38F
100
AcDbEntity
100
AcDbPolyline
8
rect_polygon
6
ByLayer
62
256
370
-1
90
4
70
1
10
40
20
40
10
40
20
190
10
190
20
190
10
190
20
40
0
LWPOLYLINE
5
454
330
38F
100
AcDbEntity
100
AcDbPolyline
8
rect_polygon
6
ByLayer
62
256
370
-1
90
4
70
1
10
42
20
42
10
42
20
188
10
188
20
188
10
188
20
42
0
LWPOLYLINE
5
455
330
38F
100
AcDbEntity
100
AcDbPolyline
8
rect_polygon
6
ByLayer
62
256
370
-1
90
4
70
1
10
40
20
190
10
40
20
340
10
190
20
340
10
190
20
190
0
LWPOLYLINE
5
456
330
38F
100
AcDbEntity
100
AcDbPolyline
8
rect_polygon
6
ByLayer
62
256
370
-1
90
4
70
1
10
42
20
192
10
42
20
338
10
188
20
338
10
188
20
192
0
LWPOLYLINE
5
457
330
38F
100
AcDbEntity
100
AcDbPolyline
8
rect_polygon
6
ByLayer
62
256
370
-1
90
4
70
1
10
40
20
340
10
40
20
490
10
190
20
490
10
190
20
340
0
LWPOLYLINE
5
458
330
38F
100
AcDbEntity
100
AcDbPolyline
8
rect_polygon
6
ByLayer
62
256
370
-1
90
4
70
1
10
42
20
342
10
42
20
488
10
188
20
488
10
188
20
342
0
LINE
5
459
330
38F
100
AcDbEntity
100
AcDbLine
8
rect_polygon
10
1040
20
40
30
0
11
1116.2
21
340
31
0
0
LINE
5
45A
330
38F
100
AcDbEntity
100
AcDbLine
8
rect_polygon
10
1050
20
40
30
0
11
1040
21
50
31
0
0
LINE
5
45B
330
38F
100
AcDbEntity
100
AcDbLine
8
rect_polygon
10
1060
20
40
30
0
11
1040
21
NaN
31
0
0
LINE
5
45C
330
38F
100
AcDbEntity
100
AcDbLine
8
rect_polygon
10
1080
20
40
30
0
11
1040
21
NaN
31
0
0
LINE
5
45D
330
38F
100
AcDbEntity
100
AcDbLine
8
rect_polygon
10
1090
20
40
30
0
11
1040
21
NaN
31
0
0
LINE
5
45E
330
38F
100
AcDbEntity
100
AcDbLine
8
rect_polygon
10
1110
20
40
30
0
11
1040
21
NaN
31
0
0
LWPOLYLINE
5
45F
330
38F
100
AcDbEntity
100
AcDbPolyline
8
rect_polygon
6
ByLayer
62
256
370
-1
90
4
70
1
10
1040
20
340
10
1040
20
490
10
1116.2
20
490
10
1116.2
20
340
0
LWPOLYLINE
5
460
330
38F
100
AcDbEntity
100
AcDbPolyline
8
rect_polygon
6
ByLayer
62
256
370
-1
90
4
70
1
10
1042
20
342
10
1042
20
488
10
1114.2
20
488
10
1114.2
20
342
0
LWPOLYLINE
5
461
330
38F
100
AcDbEntity
100
AcDbPolyline
8
rect_polygon
6
ByLayer
62
256
370
-1
90
4
70
1
10
1040
20
340
10
1040
20
490
10
1116.2
20
490
10
1116.2
20
340
0
LWPOLYLINE
5
462
330
38F
100
AcDbEntity
100
AcDbPolyline
8
rect_polygon
6
ByLayer
62
256
370
-1
90
4
70
1
10
1042
20
342
10
1042
20
488
10
1114.2
20
488
10
1114.2
20
342
0
LWPOLYLINE
5
463
330
38F
100
AcDbEntity
100
AcDbPolyline
8
rect_polygon
6
ByLayer
62
256
370
-1
90
4
70
1
10
1040
20
340
10
1040
20
490
10
1116.2
20
490
10
1116.2
20
340
0
LWPOLYLINE
5
464
330
38F
100
AcDbEntity
100
AcDbPolyline
8
rect_polygon
6
ByLayer
62
256
370
-1
90
4
70
1
10
1042
20
342
10
1042
20
488
10
1114.2
20
488
10
1114.2
20
342
0
LWPOLYLINE
5
465
330
38F
100
AcDbEntity
100
AcDbPolyline
8
rect_polygon
6
ByLayer
62
256
370
-1
90
4
70
1
10
1040
20
340
10
1040
20
490
10
1116.2
20
490
10
1116.2
20
340
0
LWPOLYLINE
5
466
330
38F
100
AcDbEntity
100
AcDbPolyline
8
rect_polygon
6
ByLayer
62
256
370
-1
90
4
70
1
10
1042
20
342
10
1042
20
488
10
1114.2
20
488
10
1114.2
20
342
0
LWPOLYLINE
5
467
330
38F
100
AcDbEntity
100
AcDbPolyline
8
rect_polygon
6
ByLayer
62
256
370
-1
90
4
70
1
10
1116.2
20
340
10
1116.2
20
490
10
1192.4
20
490
10
1192.4
20
340
0
LWPOLYLINE
5
468
330
38F
100
AcDbEntity
100
AcDbPolyline
8
rect_polygon
6
ByLayer
62
256
370
-1
90
4
70
1
10
1118.2
20
342
10
1118.2
20
488
10
1190.4
20
488
10
1190.4
20
342
0
LWPOLYLINE
5
469
330
38F
100
AcDbEntity
100
AcDbPolyline
8
rect_polygon
6
ByLayer
62
256
370
-1
90
4
70
1
10
1116.2
20
40
10
1116.2
20
190
10
1192.4
20
190
10
1192.4
20
40
0
LWPOLYLINE
5
46A
330
38F
100
AcDbEntity
100
AcDbPolyline
8
rect_polygon
6
ByLayer
62
256
370
-1
90
4
70
1
10
1118.2
20
42
10
1118.2
20
188
10
1190.4
20
188
10
1190.4
20
42
0
LWPOLYLINE
5
46B
330
38F
100
AcDbEntity
100
AcDbPolyline
8
rect_polygon
6
ByLayer
62
256
370
-1
90
4
70
1
10
1116.2
20
190
10
1116.2
20
340
10
1192.4
20
340
10
1192.4
20
190
0
LWPOLYLINE
5
46C
330
38F
100
AcDbEntity
100
AcDbPolyline
8
rect_polygon
6
ByLayer
62
256
370
-1
90
4
70
1
10
1118.2
20
192
10
1118.2
20
338
10
1190.4
20
338
10
1190.4
20
192
0
LWPOLYLINE
5
46D
330
38F
100
AcDbEntity
100
AcDbPolyline
8
rect_polygon
6
ByLayer
62
256
370
-1
90
4
70
1
10
1116.2
20
340
10
1116.2
20
490
10
1192.4
20
490
10
1192.4
20
340
0
LWPOLYLINE
5
46E
330
38F
100
AcDbEntity
100
AcDbPolyline
8
rect_polygon
6
ByLayer
62
256
370
-1
90
4
70
1
10
1118.2
20
342
10
1118.2
20
488
10
1190.4
20
488
10
1190.4
20
342
0
LWPOLYLINE
5
46F
330
38F
100
AcDbEntity
100
AcDbPolyline
8
rect_polygon
6
ByLayer
62
256
370
-1
90
4
70
1
10
1116.2
20
40
10
1116.2
20
190
10
1192.4
20
190
10
1192.4
20
40
0
LWPOLYLINE
5
470
330
38F
100
AcDbEntity
100
AcDbPolyline
8
rect_polygon
6
ByLayer
62
256
370
-1
90
4
70
1
10
1118.2
20
42
10
1118.2
20
188
10
1190.4
20
188
10
1190.4
20
42
0
LWPOLYLINE
5
471
330
38F
100
AcDbEntity
100
AcDbPolyline
8
rect_polygon
6
ByLayer
62
256
370
-1
90
4
70
1
10
1116.2
20
190
10
1116.2
20
340
10
1192.4
20
340
10
1192.4
20
190
0
LWPOLYLINE
5
472
330
38F
100
AcDbEntity
100
AcDbPolyline
8
rect_polygon
6
ByLayer
62
256
370
-1
90
4
70
1
10
1118.2
20
192
10
1118.2
20
338
10
1190.4
20
338
10
1190.4
20
192
0
LWPOLYLINE
5
473
330
38F
100
AcDbEntity
100
AcDbPolyline
8
rect_polygon
6
ByLayer
62
256
370
-1
90
4
70
1
10
1116.2
20
340
10
1116.2
20
490
10
1192.4
20
490
10
1192.4
20
340
0
LWPOLYLINE
5
474
330
38F
100
AcDbEntity
100
AcDbPolyline
8
rect_polygon
6
ByLayer
62
256
370
-1
90
4
70
1
10
1118.2
20
342
10
1118.2
20
488
10
1190.4
20
488
10
1190.4
20
342
0
LWPOLYLINE
5
475
330
38F
100
AcDbEntity
100
AcDbPolyline
8
rect_polygon
6
ByLayer
62
256
370
-1
90
4
70
1
10
1116.2
20
40
10
1116.2
20
190
10
1192.4
20
190
10
1192.4
20
40
0
LWPOLYLINE
5
476
330
38F
100
AcDbEntity
100
AcDbPolyline
8
rect_polygon
6
ByLayer
62
256
370
-1
90
4
70
1
10
1118.2
20
42
10
1118.2
20
188
10
1190.4
20
188
10
1190.4
20
42
0
LWPOLYLINE
5
477
330
38F
100
AcDbEntity
100
AcDbPolyline
8
rect_polygon
6
ByLayer
62
256
370
-1
90
4
70
1
10
1116.2
20
190
10
1116.2
20
340
10
1192.4
20
340
10
1192.4
20
190
0
LWPOLYLINE
5
478
330
38F
100
AcDbEntity
100
AcDbPolyline
8
rect_polygon
6
ByLayer
62
256
370
-1
90
4
70
1
10
1118.2
20
192
10
1118.2
20
338
10
1190.4
20
338
10
1190.4
20
192
0
LWPOLYLINE
5
479
330
38F
100
AcDbEntity
100
AcDbPolyline
8
rect_polygon
6
ByLayer
62
256
370
-1
90
4
70
1
10
1116.2
20
340
10
1116.2
20
490
10
1192.4
20
490
10
1192.4
20
340
0
LWPOLYLINE
5
47A
330
38F
100
AcDbEntity
100
AcDbPolyline
8
rect_polygon
6
ByLayer
62
256
370
-1
90
4
70
1
10
1118.2
20
342
10
1118.2
20
488
10
1190.4
20
488
10
1190.4
20
342
0
LWPOLYLINE
5
47B
330
38F
100
AcDbEntity
100
AcDbPolyline
8
rect_polygon
6
ByLayer
62
256
370
-1
90
4
70
1
10
1192.4
20
340
10
1192.4
20
490
10
1268.6000000000001
20
490
10
1268.6000000000001
20
340
0
LWPOLYLINE
5
47C
330
38F
100
AcDbEntity
100
AcDbPolyline
8
rect_polygon
6
ByLayer
62
256
370
-1
90
4
70
1
10
1194.4
20
342
10
1194.4
20
488
10
1266.6000000000001
20
488
10
1266.6000000000001
20
342
0
LWPOLYLINE
5
47D
330
38F
100
AcDbEntity
100
AcDbPolyline
8
rect_polygon
6
ByLayer
62
256
370
-1
90
4
70
1
10
1192.4
20
40
10
1192.4
20
190
10
1268.6000000000001
20
190
10
1268.6000000000001
20
40
0
LWPOLYLINE
5
47E
330
38F
100
AcDbEntity
100
AcDbPolyline
8
rect_polygon
6
ByLayer
62
256
370
-1
90
4
70
1
10
1194.4
20
42
10
1194.4
20
188
10
1266.6000000000001
20
188
10
1266.6000000000001
20
42
0
LWPOLYLINE
5
47F
330
38F
100
AcDbEntity
100
AcDbPolyline
8
rect_polygon
6
ByLayer
62
256
370
-1
90
4
70
1
10
1192.4
20
190
10
1192.4
20
340
10
1268.6000000000001
20
340
10
1268.6000000000001
20
190
0
LWPOLYLINE
5
480
330
38F
100
AcDbEntity
100
AcDbPolyline
8
rect_polygon
6
ByLayer
62
256
370
-1
90
4
70
1
10
1194.4
20
192
10
1194.4
20
338
10
1266.6000000000001
20
338
10
1266.6000000000001
20
192
0
LWPOLYLINE
5
481
330
38F
100
AcDbEntity
100
AcDbPolyline
8
rect_polygon
6
ByLayer
62
256
370
-1
90
4
70
1
10
1192.4
20
340
10
1192.4
20
490
10
1268.6000000000001
20
490
10
1268.6000000000001
20
340
0
LWPOLYLINE
5
482
330
38F
100
AcDbEntity
100
AcDbPolyline
8
rect_polygon
6
ByLayer
62
256
370
-1
90
4
70
1
10
1194.4
20
342
10
1194.4
20
488
10
1266.6000000000001
20
488
10
1266.6000000000001
20
342
0
LWPOLYLINE
5
483
330
38F
100
AcDbEntity
100
AcDbPolyline
8
rect_polygon
6
ByLayer
62
256
370
-1
90
4
70
1
10
1192.4
20
40
10
1192.4
20
190
10
1268.6000000000001
20
190
10
1268.6000000000001
20
40
0
LWPOLYLINE
5
484
330
38F
100
AcDbEntity
100
AcDbPolyline
8
rect_polygon
6
ByLayer
62
256
370
-1
90
4
70
1
10
1194.4
20
42
10
1194.4
20
188
10
1266.6000000000001
20
188
10
1266.6000000000001
20
42
0
LWPOLYLINE
5
485
330
38F
100
AcDbEntity
100
AcDbPolyline
8
rect_polygon
6
ByLayer
62
256
370
-1
90
4
70
1
10
1192.4
20
190
10
1192.4
20
340
10
1268.6000000000001
20
340
10
1268.6000000000001
20
190
0
LWPOLYLINE
5
486
330
38F
100
AcDbEntity
100
AcDbPolyline
8
rect_polygon
6
ByLayer
62
256
370
-1
90
4
70
1
10
1194.4
20
192
10
1194.4
20
338
10
1266.6000000000001
20
338
10
1266.6000000000001
20
192
0
LWPOLYLINE
5
487
330
38F
100
AcDbEntity
100
AcDbPolyline
8
rect_polygon
6
ByLayer
62
256
370
-1
90
4
70
1
10
1192.4
20
340
10
1192.4
20
490
10
1268.6000000000001
20
490
10
1268.6000000000001
20
340
0
LWPOLYLINE
5
488
330
38F
100
AcDbEntity
100
AcDbPolyline
8
rect_polygon
6
ByLayer
62
256
370
-1
90
4
70
1
10
1194.4
20
342
10
1194.4
20
488
10
1266.6000000000001
20
488
10
1266.6000000000001
20
342
0
LWPOLYLINE
5
489
330
38F
100
AcDbEntity
100
AcDbPolyline
8
rect_polygon
6
ByLayer
62
256
370
-1
90
4
70
1
10
1192.4
20
40
10
1192.4
20
190
10
1268.6000000000001
20
190
10
1268.6000000000001
20
40
0
LWPOLYLINE
5
48A
330
38F
100
AcDbEntity
100
AcDbPolyline
8
rect_polygon
6
ByLayer
62
256
370
-1
90
4
70
1
10
1194.4
20
42
10
1194.4
20
188
10
1266.6000000000001
20
188
10
1266.6000000000001
20
42
0
LWPOLYLINE
5
48B
330
38F
100
AcDbEntity
100
AcDbPolyline
8
rect_polygon
6
ByLayer
62
256
370
-1
90
4
70
1
10
1192.4
20
190
10
1192.4
20
340
10
1268.6000000000001
20
340
10
1268.6000000000001
20
190
0
LWPOLYLINE
5
48C
330
38F
100
AcDbEntity
100
AcDbPolyline
8
rect_polygon
6
ByLayer
62
256
370
-1
90
4
70
1
10
1194.4
20
192
10
1194.4
20
338
10
1266.6000000000001
20
338
10
1266.6000000000001
20
192
0
LWPOLYLINE
5
48D
330
38F
100
AcDbEntity
100
AcDbPolyline
8
rect_polygon
6
ByLayer
62
256
370
-1
90
4
70
1
10
1192.4
20
340
10
1192.4
20
490
10
1268.6000000000001
20
490
10
1268.6000000000001
20
340
0
LWPOLYLINE
5
48E
330
38F
100
AcDbEntity
100
AcDbPolyline
8
rect_polygon
6
ByLayer
62
256
370
-1
90
4
70
1
10
1194.4
20
342
10
1194.4
20
488
10
1266.6000000000001
20
488
10
1266.6000000000001
20
342
0
LINE
5
48F
330
38F
100
AcDbEntity
100
AcDbLine
8
rect_polygon
10
1668.6
20
40
30
0
11
1818.6
21
340
31
0
0
LINE
5
490
330
38F
100
AcDbEntity
100
AcDbLine
8
rect_polygon
10
1678.6
20
40
30
0
11
1668.6
21
50
31
0
0
LINE
5
491
330
38F
100
AcDbEntity
100
AcDbLine
8
rect_polygon
10
1688.6
20
40
30
0
11
1668.6
21
NaN
31
0
0
LINE
5
492
330
38F
100
AcDbEntity
100
AcDbLine
8
rect_polygon
10
1708.6
20
40
30
0
11
1668.6
21
NaN
31
0
0
LINE
5
493
330
38F
100
AcDbEntity
100
AcDbLine
8
rect_polygon
10
1718.6
20
40
30
0
11
1668.6
21
NaN
31
0
0
LINE
5
494
330
38F
100
AcDbEntity
100
AcDbLine
8
rect_polygon
10
1738.6
20
40
30
0
11
1668.6
21
NaN
31
0
0
LINE
5
495
330
38F
100
AcDbEntity
100
AcDbLine
8
rect_polygon
10
1748.6
20
40
30
0
11
1668.6
21
NaN
31
0
0
LINE
5
496
330
38F
100
AcDbEntity
100
AcDbLine
8
rect_polygon
10
1768.6
20
40
30
0
11
1668.6
21
NaN
31
0
0
LINE
5
497
330
38F
100
AcDbEntity
100
AcDbLine
8
rect_polygon
10
1778.6
20
40
30
0
11
1668.6
21
NaN
31
0
0
LINE
5
498
330
38F
100
AcDbEntity
100
AcDbLine
8
rect_polygon
10
1798.6
20
40
30
0
11
1668.6
21
NaN
31
0
0
LINE
5
499
330
38F
100
AcDbEntity
100
AcDbLine
8
rect_polygon
10
1808.6
20
40
30
0
11
1668.6
21
NaN
31
0
0
LWPOLYLINE
5
49A
330
38F
100
AcDbEntity
100
AcDbPolyline
8
rect_polygon
6
ByLayer
62
256
370
-1
90
4
70
1
10
1668.6
20
340
10
1668.6
20
490
10
1818.6
20
490
10
1818.6
20
340
0
LWPOLYLINE
5
49B
330
38F
100
AcDbEntity
100
AcDbPolyline
8
rect_polygon
6
ByLayer
62
256
370
-1
90
4
70
1
10
1670.6
20
342
10
1670.6
20
488
10
1816.6
20
488
10
1816.6
20
342
0
LWPOLYLINE
5
49C
330
38F
100
AcDbEntity
100
AcDbPolyline
8
rect_polygon
6
ByLayer
62
256
370
-1
90
4
70
1
10
1818.6
20
340
10
1818.6
20
490
10
1968.6
20
490
10
1968.6
20
340
0
LWPOLYLINE
5
49D
330
38F
100
AcDbEntity
100
AcDbPolyline
8
rect_polygon
6
ByLayer
62
256
370
-1
90
4
70
1
10
1820.6
20
342
10
1820.6
20
488
10
1966.6
20
488
10
1966.6
20
342
0
LWPOLYLINE
5
49E
330
38F
100
AcDbEntity
100
AcDbPolyline
8
rect_polygon
6
ByLayer
62
256
370
-1
90
4
70
1
10
1968.6
20
340
10
1968.6
20
490
10
2118.6
20
490
10
2118.6
20
340
0
LWPOLYLINE
5
49F
330
38F
100
AcDbEntity
100
AcDbPolyline
8
rect_polygon
6
ByLayer
62
256
370
-1
90
4
70
1
10
1970.6
20
342
10
1970.6
20
488
10
2116.6
20
488
10
2116.6
20
342
0
LWPOLYLINE
5
4A0
330
38F
100
AcDbEntity
100
AcDbPolyline
8
rect_polygon
6
ByLayer
62
256
370
-1
90
4
70
1
10
2118.6
20
340
10
2118.6
20
490
10
2268.6
20
490
10
2268.6
20
340
0
LWPOLYLINE
5
4A1
330
38F
100
AcDbEntity
100
AcDbPolyline
8
rect_polygon
6
ByLayer
62
256
370
-1
90
4
70
1
10
2120.6
20
342
10
2120.6
20
488
10
2266.6
20
488
10
2266.6
20
342
0
LWPOLYLINE
5
4A2
330
38F
100
AcDbEntity
100
AcDbPolyline
8
rect_polygon
6
ByLayer
62
256
370
-1
90
4
70
1
10
1668.6
20
340
10
1668.6
20
490
10
1818.6
20
490
10
1818.6
20
340
0
LWPOLYLINE
5
4A3
330
38F
100
AcDbEntity
100
AcDbPolyline
8
rect_polygon
6
ByLayer
62
256
370
-1
90
4
70
1
10
1670.6
20
342
10
1670.6
20
488
10
1816.6
20
488
10
1816.6
20
342
0
LWPOLYLINE
5
4A4
330
38F
100
AcDbEntity
100
AcDbPolyline
8
rect_polygon
6
ByLayer
62
256
370
-1
90
4
70
1
10
1818.6
20
40
10
1818.6
20
190
10
1968.6
20
190
10
1968.6
20
40
0
LWPOLYLINE
5
4A5
330
38F
100
AcDbEntity
100
AcDbPolyline
8
rect_polygon
6
ByLayer
62
256
370
-1
90
4
70
1
10
1820.6
20
42
10
1820.6
20
188
10
1966.6
20
188
10
1966.6
20
42
0
LWPOLYLINE
5
4A6
330
38F
100
AcDbEntity
100
AcDbPolyline
8
rect_polygon
6
ByLayer
62
256
370
-1
90
4
70
1
10
1818.6
20
190
10
1818.6
20
340
10
1968.6
20
340
10
1968.6
20
190
0
LWPOLYLINE
5
4A7
330
38F
100
AcDbEntity
100
AcDbPolyline
8
rect_polygon
6
ByLayer
62
256
370
-1
90
4
70
1
10
1820.6
20
192
10
1820.6
20
338
10
1966.6
20
338
10
1966.6
20
192
0
LWPOLYLINE
5
4A8
330
38F
100
AcDbEntity
100
AcDbPolyline
8
rect_polygon
6
ByLayer
62
256
370
-1
90
4
70
1
10
1818.6
20
340
10
1818.6
20
490
10
1968.6
20
490
10
1968.6
20
340
0
LWPOLYLINE
5
4A9
330
38F
100
AcDbEntity
100
AcDbPolyline
8
rect_polygon
6
ByLayer
62
256
370
-1
90
4
70
1
10
1820.6
20
342
10
1820.6
20
488
10
1966.6
20
488
10
1966.6
20
342
0
LWPOLYLINE
5
4AA
330
38F
100
AcDbEntity
100
AcDbPolyline
8
rect_polygon
6
ByLayer
62
256
370
-1
90
4
70
1
10
1968.6
20
40
10
1968.6
20
190
10
2118.6
20
190
10
2118.6
20
40
0
LWPOLYLINE
5
4AB
330
38F
100
AcDbEntity
100
AcDbPolyline
8
rect_polygon
6
ByLayer
62
256
370
-1
90
4
70
1
10
1970.6
20
42
10
1970.6
20
188
10
2116.6
20
188
10
2116.6
20
42
0
LWPOLYLINE
5
4AC
330
38F
100
AcDbEntity
100
AcDbPolyline
8
rect_polygon
6
ByLayer
62
256
370
-1
90
4
70
1
10
1968.6
20
190
10
1968.6
20
340
10
2118.6
20
340
10
2118.6
20
190
0
LWPOLYLINE
5
4AD
330
38F
100
AcDbEntity
100
AcDbPolyline
8
rect_polygon
6
ByLayer
62
256
370
-1
90
4
70
1
10
1970.6
20
192
10
1970.6
20
338
10
2116.6
20
338
10
2116.6
20
192
0
LWPOLYLINE
5
4AE
330
38F
100
AcDbEntity
100
AcDbPolyline
8
rect_polygon
6
ByLayer
62
256
370
-1
90
4
70
1
10
1968.6
20
340
10
1968.6
20
490
10
2118.6
20
490
10
2118.6
20
340
0
LWPOLYLINE
5
4AF
330
38F
100
AcDbEntity
100
AcDbPolyline
8
rect_polygon
6
ByLayer
62
256
370
-1
90
4
70
1
10
1970.6
20
342
10
1970.6
20
488
10
2116.6
20
488
10
2116.6
20
342
0
LWPOLYLINE
5
4B0
330
38F
100
AcDbEntity
100
AcDbPolyline
8
rect_polygon
6
ByLayer
62
256
370
-1
90
4
70
1
10
2118.6
20
40
10
2118.6
20
190
10
2268.6
20
190
10
2268.6
20
40
0
LWPOLYLINE
5
4B1
330
38F
100
AcDbEntity
100
AcDbPolyline
8
rect_polygon
6
ByLayer
62
256
370
-1
90
4
70
1
10
2120.6
20
42
10
2120.6
20
188
10
2266.6
20
188
10
2266.6
20
42
0
LWPOLYLINE
5
4B2
330
38F
100
AcDbEntity
100
AcDbPolyline
8
rect_polygon
6
ByLayer
62
256
370
-1
90
4
70
1
10
2118.6
20
190
10
2118.6
20
340
10
2268.6
20
340
10
2268.6
20
190
0
LWPOLYLINE
5
4B3
330
38F
100
AcDbEntity
100
AcDbPolyline
8
rect_polygon
6
ByLayer
62
256
370
-1
90
4
70
1
10
2120.6
20
192
10
2120.6
20
338
10
2266.6
20
338
10
2266.6
20
192
0
LWPOLYLINE
5
4B4
330
38F
100
AcDbEntity
100
AcDbPolyline
8
rect_polygon
6
ByLayer
62
256
370
-1
90
4
70
1
10
2118.6
20
340
10
2118.6
20
490
10
2268.6
20
490
10
2268.6
20
340
0
LWPOLYLINE
5
4B5
330
38F
100
AcDbEntity
100
AcDbPolyline
8
rect_polygon
6
ByLayer
62
256
370
-1
90
4
70
1
10
2120.6
20
342
10
2120.6
20
488
10
2266.6
20
488
10
2266.6
20
342
0
LWPOLYLINE
5
4B6
330
38F
100
AcDbEntity
100
AcDbPolyline
8
rect_polygon
6
ByLayer
62
256
370
-1
90
4
70
1
10
1668.6
20
340
10
1668.6
20
490
10
1818.6
20
490
10
1818.6
20
340
0
LWPOLYLINE
5
4B7
330
38F
100
AcDbEntity
100
AcDbPolyline
8
rect_polygon
6
ByLayer
62
256
370
-1
90
4
70
1
10
1670.6
20
342
10
1670.6
20
488
10
1816.6
20
488
10
1816.6
20
342
0
LWPOLYLINE
5
4B8
330
38F
100
AcDbEntity
100
AcDbPolyline
8
rect_polygon
6
ByLayer
62
256
370
-1
90
4
70
1
10
1818.6
20
40
10
1818.6
20
190
10
1968.6
20
190
10
1968.6
20
40
0
LWPOLYLINE
5
4B9
330
38F
100
AcDbEntity
100
AcDbPolyline
8
rect_polygon
6
ByLayer
62
256
370
-1
90
4
70
1
10
1820.6
20
42
10
1820.6
20
188
10
1966.6
20
188
10
1966.6
20
42
0
LWPOLYLINE
5
4BA
330
38F
100
AcDbEntity
100
AcDbPolyline
8
rect_polygon
6
ByLayer
62
256
370
-1
90
4
70
1
10
1818.6
20
190
10
1818.6
20
340
10
1968.6
20
340
10
1968.6
20
190
0
LWPOLYLINE
5
4BB
330
38F
100
AcDbEntity
100
AcDbPolyline
8
rect_polygon
6
ByLayer
62
256
370
-1
90
4
70
1
10
1820.6
20
192
10
1820.6
20
338
10
1966.6
20
338
10
1966.6
20
192
0
LWPOLYLINE
5
4BC
330
38F
100
AcDbEntity
100
AcDbPolyline
8
rect_polygon
6
ByLayer
62
256
370
-1
90
4
70
1
10
1818.6
20
340
10
1818.6
20
490
10
1968.6
20
490
10
1968.6
20
340
0
LWPOLYLINE
5
4BD
330
38F
100
AcDbEntity
100
AcDbPolyline
8
rect_polygon
6
ByLayer
62
256
370
-1
90
4
70
1
10
1820.6
20
342
10
1820.6
20
488
10
1966.6
20
488
10
1966.6
20
342
0
LWPOLYLINE
5
4BE
330
38F
100
AcDbEntity
100
AcDbPolyline
8
rect_polygon
6
ByLayer
62
256
370
-1
90
4
70
1
10
1968.6
20
40
10
1968.6
20
190
10
2118.6
20
190
10
2118.6
20
40
0
LWPOLYLINE
5
4BF
330
38F
100
AcDbEntity
100
AcDbPolyline
8
rect_polygon
6
ByLayer
62
256
370
-1
90
4
70
1
10
1970.6
20
42
10
1970.6
20
188
10
2116.6
20
188
10
2116.6
20
42
0
LWPOLYLINE
5
4C0
330
38F
100
AcDbEntity
100
AcDbPolyline
8
rect_polygon
6
ByLayer
62
256
370
-1
90
4
70
1
10
1968.6
20
190
10
1968.6
20
340
10
2118.6
20
340
10
2118.6
20
190
0
LWPOLYLINE
5
4C1
330
38F
100
AcDbEntity
100
AcDbPolyline
8
rect_polygon
6
ByLayer
62
256
370
-1
90
4
70
1
10
1970.6
20
192
10
1970.6
20
338
10
2116.6
20
338
10
2116.6
20
192
0
LWPOLYLINE
5
4C2
330
38F
100
AcDbEntity
100
AcDbPolyline
8
rect_polygon
6
ByLayer
62
256
370
-1
90
4
70
1
10
1968.6
20
340
10
1968.6
20
490
10
2118.6
20
490
10
2118.6
20
340
0
LWPOLYLINE
5
4C3
330
38F
100
AcDbEntity
100
AcDbPolyline
8
rect_polygon
6
ByLayer
62
256
370
-1
90
4
70
1
10
1970.6
20
342
10
1970.6
20
488
10
2116.6
20
488
10
2116.6
20
342
0
LWPOLYLINE
5
4C4
330
38F
100
AcDbEntity
100
AcDbPolyline
8
rect_polygon
6
ByLayer
62
256
370
-1
90
4
70
1
10
2118.6
20
40
10
2118.6
20
190
10
2268.6
20
190
10
2268.6
20
40
0
LWPOLYLINE
5
4C5
330
38F
100
AcDbEntity
100
AcDbPolyline
8
rect_polygon
6
ByLayer
62
256
370
-1
90
4
70
1
10
2120.6
20
42
10
2120.6
20
188
10
2266.6
20
188
10
2266.6
20
42
0
LWPOLYLINE
5
4C6
330
38F
100
AcDbEntity
100
AcDbPolyline
8
rect_polygon
6
ByLayer
62
256
370
-1
90
4
70
1
10
2118.6
20
190
10
2118.6
20
340
10
2268.6
20
340
10
2268.6
20
190
0
LWPOLYLINE
5
4C7
330
38F
100
AcDbEntity
100
AcDbPolyline
8
rect_polygon
6
ByLayer
62
256
370
-1
90
4
70
1
10
2120.6
20
192
10
2120.6
20
338
10
2266.6
20
338
10
2266.6
20
192
0
LWPOLYLINE
5
4C8
330
38F
100
AcDbEntity
100
AcDbPolyline
8
rect_polygon
6
ByLayer
62
256
370
-1
90
4
70
1
10
2118.6
20
340
10
2118.6
20
490
10
2268.6
20
490
10
2268.6
20
340
0
LWPOLYLINE
5
4C9
330
38F
100
AcDbEntity
100
AcDbPolyline
8
rect_polygon
6
ByLayer
62
256
370
-1
90
4
70
1
10
2120.6
20
342
10
2120.6
20
488
10
2266.6
20
488
10
2266.6
20
342
0
LINE
5
4CA
330
38F
100
AcDbEntity
100
AcDbLine
8
rect_polygon
10
2821
20
40
30
0
11
2897.2
21
340
31
0
0
LINE
5
4CB
330
38F
100
AcDbEntity
100
AcDbLine
8
rect_polygon
10
2831
20
40
30
0
11
2821
21
50
31
0
0
LINE
5
4CC
330
38F
100
AcDbEntity
100
AcDbLine
8
rect_polygon
10
2841
20
40
30
0
11
2821
21
NaN
31
0
0
LINE
5
4CD
330
38F
100
AcDbEntity
100
AcDbLine
8
rect_polygon
10
2861
20
40
30
0
11
2821
21
NaN
31
0
0
LINE
5
4CE
330
38F
100
AcDbEntity
100
AcDbLine
8
rect_polygon
10
2871
20
40
30
0
11
2821
21
NaN
31
0
0
LINE
5
4CF
330
38F
100
AcDbEntity
100
AcDbLine
8
rect_polygon
10
2891
20
40
30
0
11
2821
21
NaN
31
0
0
LWPOLYLINE
5
4D0
330
38F
100
AcDbEntity
100
AcDbPolyline
8
rect_polygon
6
ByLayer
62
256
370
-1
90
4
70
1
10
2821
20
340
10
2821
20
490
10
2897.2
20
490
10
2897.2
20
340
0
LWPOLYLINE
5
4D1
330
38F
100
AcDbEntity
100
AcDbPolyline
8
rect_polygon
6
ByLayer
62
256
370
-1
90
4
70
1
10
2823
20
342
10
2823
20
488
10
2895.2
20
488
10
2895.2
20
342
0
LWPOLYLINE
5
4D2
330
38F
100
AcDbEntity
100
AcDbPolyline
8
rect_polygon
6
ByLayer
62
256
370
-1
90
4
70
1
10
2821
20
340
10
2821
20
490
10
2897.2
20
490
10
2897.2
20
340
0
LWPOLYLINE
5
4D3
330
38F
100
AcDbEntity
100
AcDbPolyline
8
rect_polygon
6
ByLayer
62
256
370
-1
90
4
70
1
10
2823
20
342
10
2823
20
488
10
2895.2
20
488
10
2895.2
20
342
0
LWPOLYLINE
5
4D4
330
38F
100
AcDbEntity
100
AcDbPolyline
8
rect_polygon
6
ByLayer
62
256
370
-1
90
4
70
1
10
2821
20
340
10
2821
20
490
10
2897.2
20
490
10
2897.2
20
340
0
LWPOLYLINE
5
4D5
330
38F
100
AcDbEntity
100
AcDbPolyline
8
rect_polygon
6
ByLayer
62
256
370
-1
90
4
70
1
10
2823
20
342
10
2823
20
488
10
2895.2
20
488
10
2895.2
20
342
0
LWPOLYLINE
5
4D6
330
38F
100
AcDbEntity
100
AcDbPolyline
8
rect_polygon
6
ByLayer
62
256
370
-1
90
4
70
1
10
2821
20
340
10
2821
20
490
10
2897.2
20
490
10
2897.2
20
340
0
LWPOLYLINE
5
4D7
330
38F
100
AcDbEntity
100
AcDbPolyline
8
rect_polygon
6
ByLayer
62
256
370
-1
90
4
70
1
10
2823
20
342
10
2823
20
488
10
2895.2
20
488
10
2895.2
20
342
0
LWPOLYLINE
5
4D8
330
38F
100
AcDbEntity
100
AcDbPolyline
8
rect_polygon
6
ByLayer
62
256
370
-1
90
4
70
1
10
2744.7999999999997
20
340
10
2744.7999999999997
20
490
10
2820.9999999999995
20
490
10
2820.9999999999995
20
340
0
LWPOLYLINE
5
4D9
330
38F
100
AcDbEntity
100
AcDbPolyline
8
rect_polygon
6
ByLayer
62
256
370
-1
90
4
70
1
10
2746.7999999999997
20
342
10
2746.7999999999997
20
488
10
2818.9999999999995
20
488
10
2818.9999999999995
20
342
0
LWPOLYLINE
5
4DA
330
38F
100
AcDbEntity
100
AcDbPolyline
8
rect_polygon
6
ByLayer
62
256
370
-1
90
4
70
1
10
2744.7999999999997
20
40
10
2744.7999999999997
20
190
10
2820.9999999999995
20
190
10
2820.9999999999995
20
40
0
LWPOLYLINE
5
4DB
330
38F
100
AcDbEntity
100
AcDbPolyline
8
rect_polygon
6
ByLayer
62
256
370
-1
90
4
70
1
10
2746.7999999999997
20
42
10
2746.7999999999997
20
188
10
2818.9999999999995
20
188
10
2818.9999999999995
20
42
0
LWPOLYLINE
5
4DC
330
38F
100
AcDbEntity
100
AcDbPolyline
8
rect_polygon
6
ByLayer
62
256
370
-1
90
4
70
1
10
2744.7999999999997
20
190
10
2744.7999999999997
20
340
10
2820.9999999999995
20
340
10
2820.9999999999995
20
190
0
LWPOLYLINE
5
4DD
330
38F
100
AcDbEntity
100
AcDbPolyline
8
rect_polygon
6
ByLayer
62
256
370
-1
90
4
70
1
10
2746.7999999999997
20
192
10
2746.7999999999997
20
338
10
2818.9999999999995
20
338
10
2818.9999999999995
20
192
0
LWPOLYLINE
5
4DE
330
38F
100
AcDbEntity
100
AcDbPolyline
8
rect_polygon
6
ByLayer
62
256
370
-1
90
4
70
1
10
2744.7999999999997
20
340
10
2744.7999999999997
20
490
10
2820.9999999999995
20
490
10
2820.9999999999995
20
340
0
LWPOLYLINE
5
4DF
330
38F
100
AcDbEntity
100
AcDbPolyline
8
rect_polygon
6
ByLayer
62
256
370
-1
90
4
70
1
10
2746.7999999999997
20
342
10
2746.7999999999997
20
488
10
2818.9999999999995
20
488
10
2818.9999999999995
20
342
0
LWPOLYLINE
5
4E0
330
38F
100
AcDbEntity
100
AcDbPolyline
8
rect_polygon
6
ByLayer
62
256
370
-1
90
4
70
1
10
2744.7999999999997
20
40
10
2744.7999999999997
20
190
10
2820.9999999999995
20
190
10
2820.9999999999995
20
40
0
LWPOLYLINE
5
4E1
330
38F
100
AcDbEntity
100
AcDbPolyline
8
rect_polygon
6
ByLayer
62
256
370
-1
90
4
70
1
10
2746.7999999999997
20
42
10
2746.7999999999997
20
188
10
2818.9999999999995
20
188
10
2818.9999999999995
20
42
0
LWPOLYLINE
5
4E2
330
38F
100
AcDbEntity
100
AcDbPolyline
8
rect_polygon
6
ByLayer
62
256
370
-1
90
4
70
1
10
2744.7999999999997
20
190
10
2744.7999999999997
20
340
10
2820.9999999999995
20
340
10
2820.9999999999995
20
190
0
LWPOLYLINE
5
4E3
330
38F
100
AcDbEntity
100
AcDbPolyline
8
rect_polygon
6
ByLayer
62
256
370
-1
90
4
70
1
10
2746.7999999999997
20
192
10
2746.7999999999997
20
338
10
2818.9999999999995
20
338
10
2818.9999999999995
20
192
0
LWPOLYLINE
5
4E4
330
38F
100
AcDbEntity
100
AcDbPolyline
8
rect_polygon
6
ByLayer
62
256
370
-1
90
4
70
1
10
2744.7999999999997
20
340
10
2744.7999999999997
20
490
10
2820.9999999999995
20
490
10
2820.9999999999995
20
340
0
LWPOLYLINE
5
4E5
330
38F
100
AcDbEntity
100
AcDbPolyline
8
rect_polygon
6
ByLayer
62
256
370
-1
90
4
70
1
10
2746.7999999999997
20
342
10
2746.7999999999997
20
488
10
2818.9999999999995
20
488
10
2818.9999999999995
20
342
0
LWPOLYLINE
5
4E6
330
38F
100
AcDbEntity
100
AcDbPolyline
8
rect_polygon
6
ByLayer
62
256
370
-1
90
4
70
1
10
2744.7999999999997
20
40
10
2744.7999999999997
20
190
10
2820.9999999999995
20
190
10
2820.9999999999995
20
40
0
LWPOLYLINE
5
4E7
330
38F
100
AcDbEntity
100
AcDbPolyline
8
rect_polygon
6
ByLayer
62
256
370
-1
90
4
70
1
10
2746.7999999999997
20
42
10
2746.7999999999997
20
188
10
2818.9999999999995
20
188
10
2818.9999999999995
20
42
0
LWPOLYLINE
5
4E8
330
38F
100
AcDbEntity
100
AcDbPolyline
8
rect_polygon
6
ByLayer
62
256
370
-1
90
4
70
1
10
2744.7999999999997
20
190
10
2744.7999999999997
20
340
10
2820.9999999999995
20
340
10
2820.9999999999995
20
190
0
LWPOLYLINE
5
4E9
330
38F
100
AcDbEntity
100
AcDbPolyline
8
rect_polygon
6
ByLayer
62
256
370
-1
90
4
70
1
10
2746.7999999999997
20
192
10
2746.7999999999997
20
338
10
2818.9999999999995
20
338
10
2818.9999999999995
20
192
0
LWPOLYLINE
5
4EA
330
38F
100
AcDbEntity
100
AcDbPolyline
8
rect_polygon
6
ByLayer
62
256
370
-1
90
4
70
1
10
2744.7999999999997
20
340
10
2744.7999999999997
20
490
10
2820.9999999999995
20
490
10
2820.9999999999995
20
340
0
LWPOLYLINE
5
4EB
330
38F
100
AcDbEntity
100
AcDbPolyline
8
rect_polygon
6
ByLayer
62
256
370
-1
90
4
70
1
10
2746.7999999999997
20
342
10
2746.7999999999997
20
488
10
2818.9999999999995
20
488
10
2818.9999999999995
20
342
0
LWPOLYLINE
5
4EC
330
38F
100
AcDbEntity
100
AcDbPolyline
8
rect_polygon
6
ByLayer
62
256
370
-1
90
4
70
1
10
2668.6
20
340
10
2668.6
20
490
10
2744.7999999999997
20
490
10
2744.7999999999997
20
340
0
LWPOLYLINE
5
4ED
330
38F
100
AcDbEntity
100
AcDbPolyline
8
rect_polygon
6
ByLayer
62
256
370
-1
90
4
70
1
10
2670.6
20
342
10
2670.6
20
488
10
2742.7999999999997
20
488
10
2742.7999999999997
20
342
0
LWPOLYLINE
5
4EE
330
38F
100
AcDbEntity
100
AcDbPolyline
8
rect_polygon
6
ByLayer
62
256
370
-1
90
4
70
1
10
2668.6
20
40
10
2668.6
20
190
10
2744.7999999999997
20
190
10
2744.7999999999997
20
40
0
LWPOLYLINE
5
4EF
330
38F
100
AcDbEntity
100
AcDbPolyline
8
rect_polygon
6
ByLayer
62
256
370
-1
90
4
70
1
10
2670.6
20
42
10
2670.6
20
188
10
2742.7999999999997
20
188
10
2742.7999999999997
20
42
0
LWPOLYLINE
5
4F0
330
38F
100
AcDbEntity
100
AcDbPolyline
8
rect_polygon
6
ByLayer
62
256
370
-1
90
4
70
1
10
2668.6
20
190
10
2668.6
20
340
10
2744.7999999999997
20
340
10
2744.7999999999997
20
190
0
LWPOLYLINE
5
4F1
330
38F
100
AcDbEntity
100
AcDbPolyline
8
rect_polygon
6
ByLayer
62
256
370
-1
90
4
70
1
10
2670.6
20
192
10
2670.6
20
338
10
2742.7999999999997
20
338
10
2742.7999999999997
20
192
0
LWPOLYLINE
5
4F2
330
38F
100
AcDbEntity
100
AcDbPolyline
8
rect_polygon
6
ByLayer
62
256
370
-1
90
4
70
1
10
2668.6
20
340
10
2668.6
20
490
10
2744.7999999999997
20
490
10
2744.7999999999997
20
340
0
LWPOLYLINE
5
4F3
330
38F
100
AcDbEntity
100
AcDbPolyline
8
rect_polygon
6
ByLayer
62
256
370
-1
90
4
70
1
10
2670.6
20
342
10
2670.6
20
488
10
2742.7999999999997
20
488
10
2742.7999999999997
20
342
0
LWPOLYLINE
5
4F4
330
38F
100
AcDbEntity
100
AcDbPolyline
8
rect_polygon
6
ByLayer
62
256
370
-1
90
4
70
1
10
2668.6
20
40
10
2668.6
20
190
10
2744.7999999999997
20
190
10
2744.7999999999997
20
40
0
LWPOLYLINE
5
4F5
330
38F
100
AcDbEntity
100
AcDbPolyline
8
rect_polygon
6
ByLayer
62
256
370
-1
90
4
70
1
10
2670.6
20
42
10
2670.6
20
188
10
2742.7999999999997
20
188
10
2742.7999999999997
20
42
0
LWPOLYLINE
5
4F6
330
38F
100
AcDbEntity
100
AcDbPolyline
8
rect_polygon
6
ByLayer
62
256
370
-1
90
4
70
1
10
2668.6
20
190
10
2668.6
20
340
10
2744.7999999999997
20
340
10
2744.7999999999997
20
190
0
LWPOLYLINE
5
4F7
330
38F
100
AcDbEntity
100
AcDbPolyline
8
rect_polygon
6
ByLayer
62
256
370
-1
90
4
70
1
10
2670.6
20
192
10
2670.6
20
338
10
2742.7999999999997
20
338
10
2742.7999999999997
20
192
0
LWPOLYLINE
5
4F8
330
38F
100
AcDbEntity
100
AcDbPolyline
8
rect_polygon
6
ByLayer
62
256
370
-1
90
4
70
1
10
2668.6
20
340
10
2668.6
20
490
10
2744.7999999999997
20
490
10
2744.7999999999997
20
340
0
LWPOLYLINE
5
4F9
330
38F
100
AcDbEntity
100
AcDbPolyline
8
rect_polygon
6
ByLayer
62
256
370
-1
90
4
70
1
10
2670.6
20
342
10
2670.6
20
488
10
2742.7999999999997
20
488
10
2742.7999999999997
20
342
0
LWPOLYLINE
5
4FA
330
38F
100
AcDbEntity
100
AcDbPolyline
8
rect_polygon
6
ByLayer
62
256
370
-1
90
4
70
1
10
2668.6
20
40
10
2668.6
20
190
10
2744.7999999999997
20
190
10
2744.7999999999997
20
40
0
LWPOLYLINE
5
4FB
330
38F
100
AcDbEntity
100
AcDbPolyline
8
rect_polygon
6
ByLayer
62
256
370
-1
90
4
70
1
10
2670.6
20
42
10
2670.6
20
188
10
2742.7999999999997
20
188
10
2742.7999999999997
20
42
0
LWPOLYLINE
5
4FC
330
38F
100
AcDbEntity
100
AcDbPolyline
8
rect_polygon
6
ByLayer
62
256
370
-1
90
4
70
1
10
2668.6
20
190
10
2668.6
20
340
10
2744.7999999999997
20
340
10
2744.7999999999997
20
190
0
LWPOLYLINE
5
4FD
330
38F
100
AcDbEntity
100
AcDbPolyline
8
rect_polygon
6
ByLayer
62
256
370
-1
90
4
70
1
10
2670.6
20
192
10
2670.6
20
338
10
2742.7999999999997
20
338
10
2742.7999999999997
20
192
0
LWPOLYLINE
5
4FE
330
38F
100
AcDbEntity
100
AcDbPolyline
8
rect_polygon
6
ByLayer
62
256
370
-1
90
4
70
1
10
2668.6
20
340
10
2668.6
20
490
10
2744.7999999999997
20
490
10
2744.7999999999997
20
340
0
LWPOLYLINE
5
4FF
330
38F
100
AcDbEntity
100
AcDbPolyline
8
rect_polygon
6
ByLayer
62
256
370
-1
90
4
70
1
10
2670.6
20
342
10
2670.6
20
488
10
2742.7999999999997
20
488
10
2742.7999999999997
20
342
0
LINE
5
501
330
38F
100
AcDbEntity
100
AcDbLine
8
stair
10
1194.4
20
1352
30
0
11
1213.45
21
1352
31
0
0
LINE
5
502
330
38F
100
AcDbEntity
100
AcDbLine
8
stair
10
1194.4
20
1362
30
0
11
1213.45
21
1362
31
0
0
LINE
5
503
330
38F
100
AcDbEntity
100
AcDbLine
8
stair
10
1194.4
20
1372
30
0
11
1213.45
21
1372
31
0
0
LINE
5
504
330
38F
100
AcDbEntity
100
AcDbLine
8
stair
10
1194.4
20
1382
30
0
11
1213.45
21
1382
31
0
0
LINE
5
505
330
38F
100
AcDbEntity
100
AcDbLine
8
stair
10
1194.4
20
1392
30
0
11
1213.45
21
1392
31
0
0
LINE
5
506
330
38F
100
AcDbEntity
100
AcDbLine
8
stair
10
1194.4
20
1402
30
0
11
1213.45
21
1402
31
0
0
LINE
5
507
330
38F
100
AcDbEntity
100
AcDbLine
8
stair
10
1194.4
20
1412
30
0
11
1213.45
21
1412
31
0
0
LINE
5
508
330
38F
100
AcDbEntity
100
AcDbLine
8
stair
10
1194.4
20
1422
30
0
11
1213.45
21
1422
31
0
0
LINE
5
509
330
38F
100
AcDbEntity
100
AcDbLine
8
stair
10
1194.4
20
1432
30
0
11
1213.45
21
1432
31
0
0
LINE
5
50A
330
38F
100
AcDbEntity
100
AcDbLine
8
stair
10
1194.4
20
1442
30
0
11
1213.45
21
1442
31
0
0
LINE
5
50B
330
38F
100
AcDbEntity
100
AcDbLine
8
stair
10
1194.4
20
1452
30
0
11
1213.45
21
1452
31
0
0
LINE
5
50C
330
38F
100
AcDbEntity
100
AcDbLine
8
stair
10
1194.4
20
1462
30
0
11
1213.45
21
1462
31
0
0
LINE
5
50D
330
38F
100
AcDbEntity
100
AcDbLine
8
stair
10
1194.4
20
1472
30
0
11
1213.45
21
1472
31
0
0
LINE
5
50E
330
38F
100
AcDbEntity
100
AcDbLine
8
stair
10
1194.4
20
1342
30
0
11
1194.4
21
1492
31
0
0
LINE
5
50F
330
38F
100
AcDbEntity
100
AcDbLine
8
stair
10
1213.45
20
1342
30
0
11
1213.45
21
1488
31
0
0
LINE
5
510
330
38F
100
AcDbEntity
100
AcDbLine
8
stair
10
1194.4
20
1352
30
0
11
1213.45
21
1352
31
0
0
LINE
5
511
330
38F
100
AcDbEntity
100
AcDbLine
8
stair
10
1194.4
20
1362
30
0
11
1213.45
21
1362
31
0
0
LINE
5
512
330
38F
100
AcDbEntity
100
AcDbLine
8
stair
10
1194.4
20
1372
30
0
11
1213.45
21
1372
31
0
0
LINE
5
513
330
38F
100
AcDbEntity
100
AcDbLine
8
stair
10
1194.4
20
1382
30
0
11
1213.45
21
1382
31
0
0
LINE
5
514
330
38F
100
AcDbEntity
100
AcDbLine
8
stair
10
1194.4
20
1392
30
0
11
1213.45
21
1392
31
0
0
LINE
5
515
330
38F
100
AcDbEntity
100
AcDbLine
8
stair
10
1194.4
20
1402
30
0
11
1213.45
21
1402
31
0
0
LINE
5
516
330
38F
100
AcDbEntity
100
AcDbLine
8
stair
10
1194.4
20
1412
30
0
11
1213.45
21
1412
31
0
0
LINE
5
517
330
38F
100
AcDbEntity
100
AcDbLine
8
stair
10
1194.4
20
1422
30
0
11
1213.45
21
1422
31
0
0
LINE
5
518
330
38F
100
AcDbEntity
100
AcDbLine
8
stair
10
1194.4
20
1432
30
0
11
1213.45
21
1432
31
0
0
LINE
5
519
330
38F
100
AcDbEntity
100
AcDbLine
8
stair
10
1194.4
20
1442
30
0
11
1213.45
21
1442
31
0
0
LINE
5
51A
330
38F
100
AcDbEntity
100
AcDbLine
8
stair
10
1194.4
20
1452
30
0
11
1213.45
21
1452
31
0
0
LINE
5
51B
330
38F
100
AcDbEntity
100
AcDbLine
8
stair
10
1194.4
20
1462
30
0
11
1213.45
21
1462
31
0
0
LINE
5
51C
330
38F
100
AcDbEntity
100
AcDbLine
8
stair
10
1194.4
20
1472
30
0
11
1213.45
21
1472
31
0
0
LINE
5
51D
330
38F
100
AcDbEntity
100
AcDbLine
8
stair
10
1194.4
20
1342
30
0
11
1194.4
21
1492
31
0
0
LINE
5
51E
330
38F
100
AcDbEntity
100
AcDbLine
8
stair
10
1213.45
20
1342
30
0
11
1213.45
21
1488
31
0
0
LINE
5
51F
330
38F
100
AcDbEntity
100
AcDbLine
8
stair
10
1194.4
20
1352
30
0
11
1213.45
21
1352
31
0
0
LINE
5
520
330
38F
100
AcDbEntity
100
AcDbLine
8
stair
10
1194.4
20
1362
30
0
11
1213.45
21
1362
31
0
0
LINE
5
521
330
38F
100
AcDbEntity
100
AcDbLine
8
stair
10
1194.4
20
1372
30
0
11
1213.45
21
1372
31
0
0
LINE
5
522
330
38F
100
AcDbEntity
100
AcDbLine
8
stair
10
1194.4
20
1382
30
0
11
1213.45
21
1382
31
0
0
LINE
5
523
330
38F
100
AcDbEntity
100
AcDbLine
8
stair
10
1194.4
20
1392
30
0
11
1213.45
21
1392
31
0
0
LINE
5
524
330
38F
100
AcDbEntity
100
AcDbLine
8
stair
10
1194.4
20
1402
30
0
11
1213.45
21
1402
31
0
0
LINE
5
525
330
38F
100
AcDbEntity
100
AcDbLine
8
stair
10
1194.4
20
1412
30
0
11
1213.45
21
1412
31
0
0
LINE
5
526
330
38F
100
AcDbEntity
100
AcDbLine
8
stair
10
1194.4
20
1422
30
0
11
1213.45
21
1422
31
0
0
LINE
5
527
330
38F
100
AcDbEntity
100
AcDbLine
8
stair
10
1194.4
20
1432
30
0
11
1213.45
21
1432
31
0
0
LINE
5
528
330
38F
100
AcDbEntity
100
AcDbLine
8
stair
10
1194.4
20
1442
30
0
11
1213.45
21
1442
31
0
0
LINE
5
529
330
38F
100
AcDbEntity
100
AcDbLine
8
stair
10
1194.4
20
1452
30
0
11
1213.45
21
1452
31
0
0
LINE
5
52A
330
38F
100
AcDbEntity
100
AcDbLine
8
stair
10
1194.4
20
1462
30
0
11
1213.45
21
1462
31
0
0
LINE
5
52B
330
38F
100
AcDbEntity
100
AcDbLine
8
stair
10
1194.4
20
1472
30
0
11
1213.45
21
1472
31
0
0
LINE
5
52C
330
38F
100
AcDbEntity
100
AcDbLine
8
stair
10
1194.4
20
1342
30
0
11
1194.4
21
1492
31
0
0
LINE
5
52D
330
38F
100
AcDbEntity
100
AcDbLine
8
stair
10
1213.45
20
1342
30
0
11
1213.45
21
1488
31
0
0
LINE
5
52E
330
38F
100
AcDbEntity
100
AcDbLine
8
stair
10
40
20
40
30
0
11
190
21
190
31
0
0
LINE
5
52F
330
38F
100
AcDbEntity
100
AcDbLine
8
stair
10
43
20
50
30
0
11
57
21
50
31
0
0
LINE
5
530
330
38F
100
AcDbEntity
100
AcDbLine
8
stair
10
53
20
60
30
0
11
67
21
60
31
0
0
LINE
5
531
330
38F
100
AcDbEntity
100
AcDbLine
8
stair
10
63
20
70
30
0
11
77
21
70
31
0
0
LINE
5
532
330
38F
100
AcDbEntity
100
AcDbLine
8
stair
10
73
20
80
30
0
11
87
21
80
31
0
0
LINE
5
533
330
38F
100
AcDbEntity
100
AcDbLine
8
stair
10
83
20
90
30
0
11
97
21
90
31
0
0
LINE
5
534
330
38F
100
AcDbEntity
100
AcDbLine
8
stair
10
93
20
100
30
0
11
107
21
100
31
0
0
LINE
5
535
330
38F
100
AcDbEntity
100
AcDbLine
8
stair
10
103
20
110
30
0
11
117
21
110
31
0
0
LINE
5
536
330
38F
100
AcDbEntity
100
AcDbLine
8
stair
10
113
20
120
30
0
11
127
21
120
31
0
0
LINE
5
537
330
38F
100
AcDbEntity
100
AcDbLine
8
stair
10
123
20
130
30
0
11
137
21
130
31
0
0
LINE
5
538
330
38F
100
AcDbEntity
100
AcDbLine
8
stair
10
133
20
140
30
0
11
147
21
140
31
0
0
LINE
5
539
330
38F
100
AcDbEntity
100
AcDbLine
8
stair
10
143
20
150
30
0
11
157
21
150
31
0
0
LINE
5
53A
330
38F
100
AcDbEntity
100
AcDbLine
8
stair
10
153
20
160
30
0
11
167
21
160
31
0
0
LINE
5
53B
330
38F
100
AcDbEntity
100
AcDbLine
8
stair
10
163
20
170
30
0
11
177
21
170
31
0
0
LINE
5
53C
330
38F
100
AcDbEntity
100
AcDbLine
8
stair
10
173
20
180
30
0
11
187
21
180
31
0
0
LINE
5
53D
330
38F
100
AcDbEntity
100
AcDbLine
8
stair
10
40
20
190
30
0
11
190
21
340
31
0
0
LINE
5
53E
330
38F
100
AcDbEntity
100
AcDbLine
8
stair
10
43
20
200
30
0
11
57
21
200
31
0
0
LINE
5
53F
330
38F
100
AcDbEntity
100
AcDbLine
8
stair
10
53
20
210
30
0
11
67
21
210
31
0
0
LINE
5
540
330
38F
100
AcDbEntity
100
AcDbLine
8
stair
10
63
20
220
30
0
11
77
21
220
31
0
0
LINE
5
541
330
38F
100
AcDbEntity
100
AcDbLine
8
stair
10
73
20
230
30
0
11
87
21
230
31
0
0
LINE
5
542
330
38F
100
AcDbEntity
100
AcDbLine
8
stair
10
83
20
240
30
0
11
97
21
240
31
0
0
LINE
5
543
330
38F
100
AcDbEntity
100
AcDbLine
8
stair
10
93
20
250
30
0
11
107
21
250
31
0
0
LINE
5
544
330
38F
100
AcDbEntity
100
AcDbLine
8
stair
10
103
20
260
30
0
11
117
21
260
31
0
0
LINE
5
545
330
38F
100
AcDbEntity
100
AcDbLine
8
stair
10
113
20
270
30
0
11
127
21
270
31
0
0
LINE
5
546
330
38F
100
AcDbEntity
100
AcDbLine
8
stair
10
123
20
280
30
0
11
137
21
280
31
0
0
LINE
5
547
330
38F
100
AcDbEntity
100
AcDbLine
8
stair
10
133
20
290
30
0
11
147
21
290
31
0
0
LINE
5
548
330
38F
100
AcDbEntity
100
AcDbLine
8
stair
10
143
20
300
30
0
11
157
21
300
31
0
0
LINE
5
549
330
38F
100
AcDbEntity
100
AcDbLine
8
stair
10
153
20
310
30
0
11
167
21
310
31
0
0
LINE
5
54A
330
38F
100
AcDbEntity
100
AcDbLine
8
stair
10
163
20
320
30
0
11
177
21
320
31
0
0
LINE
5
54B
330
38F
100
AcDbEntity
100
AcDbLine
8
stair
10
173
20
330
30
0
11
187
21
330
31
0
0
LINE
5
54C
330
38F
100
AcDbEntity
100
AcDbLine
8
stair
10
40
20
340
30
0
11
190
21
490
31
0
0
LINE
5
54D
330
38F
100
AcDbEntity
100
AcDbLine
8
stair
10
43
20
350
30
0
11
57
21
350
31
0
0
LINE
5
54E
330
38F
100
AcDbEntity
100
AcDbLine
8
stair
10
53
20
360
30
0
11
67
21
360
31
0
0
LINE
5
54F
330
38F
100
AcDbEntity
100
AcDbLine
8
stair
10
63
20
370
30
0
11
77
21
370
31
0
0
LINE
5
550
330
38F
100
AcDbEntity
100
AcDbLine
8
stair
10
73
20
380
30
0
11
87
21
380
31
0
0
LINE
5
551
330
38F
100
AcDbEntity
100
AcDbLine
8
stair
10
83
20
390
30
0
11
97
21
390
31
0
0
LINE
5
552
330
38F
100
AcDbEntity
100
AcDbLine
8
stair
10
93
20
400
30
0
11
107
21
400
31
0
0
LINE
5
553
330
38F
100
AcDbEntity
100
AcDbLine
8
stair
10
103
20
410
30
0
11
117
21
410
31
0
0
LINE
5
554
330
38F
100
AcDbEntity
100
AcDbLine
8
stair
10
113
20
420
30
0
11
127
21
420
31
0
0
LINE
5
555
330
38F
100
AcDbEntity
100
AcDbLine
8
stair
10
123
20
430
30
0
11
137
21
430
31
0
0
LINE
5
556
330
38F
100
AcDbEntity
100
AcDbLine
8
stair
10
133
20
440
30
0
11
147
21
440
31
0
0
LINE
5
557
330
38F
100
AcDbEntity
100
AcDbLine
8
stair
10
143
20
450
30
0
11
157
21
450
31
0
0
LINE
5
558
330
38F
100
AcDbEntity
100
AcDbLine
8
stair
10
153
20
460
30
0
11
167
21
460
31
0
0
LINE
5
559
330
38F
100
AcDbEntity
100
AcDbLine
8
stair
10
163
20
470
30
0
11
177
21
470
31
0
0
LINE
5
55A
330
38F
100
AcDbEntity
100
AcDbLine
8
stair
10
173
20
480
30
0
11
187
21
480
31
0
0
LINE
5
55B
330
38F
100
AcDbEntity
100
AcDbLine
8
stair
10
1194.4
20
52
30
0
11
1213.45
21
52
31
0
0
LINE
5
55C
330
38F
100
AcDbEntity
100
AcDbLine
8
stair
10
1194.4
20
62
30
0
11
1213.45
21
62
31
0
0
LINE
5
55D
330
38F
100
AcDbEntity
100
AcDbLine
8
stair
10
1194.4
20
72
30
0
11
1213.45
21
72
31
0
0
LINE
5
55E
330
38F
100
AcDbEntity
100
AcDbLine
8
stair
10
1194.4
20
82
30
0
11
1213.45
21
82
31
0
0
LINE
5
55F
330
38F
100
AcDbEntity
100
AcDbLine
8
stair
10
1194.4
20
92
30
0
11
1213.45
21
92
31
0
0
LINE
5
560
330
38F
100
AcDbEntity
100
AcDbLine
8
stair
10
1194.4
20
102
30
0
11
1213.45
21
102
31
0
0
LINE
5
561
330
38F
100
AcDbEntity
100
AcDbLine
8
stair
10
1194.4
20
112
30
0
11
1213.45
21
112
31
0
0
LINE
5
562
330
38F
100
AcDbEntity
100
AcDbLine
8
stair
10
1194.4
20
122
30
0
11
1213.45
21
122
31
0
0
LINE
5
563
330
38F
100
AcDbEntity
100
AcDbLine
8
stair
10
1194.4
20
132
30
0
11
1213.45
21
132
31
0
0
LINE
5
564
330
38F
100
AcDbEntity
100
AcDbLine
8
stair
10
1194.4
20
142
30
0
11
1213.45
21
142
31
0
0
LINE
5
565
330
38F
100
AcDbEntity
100
AcDbLine
8
stair
10
1194.4
20
152
30
0
11
1213.45
21
152
31
0
0
LINE
5
566
330
38F
100
AcDbEntity
100
AcDbLine
8
stair
10
1194.4
20
162
30
0
11
1213.45
21
162
31
0
0
LINE
5
567
330
38F
100
AcDbEntity
100
AcDbLine
8
stair
10
1194.4
20
172
30
0
11
1213.45
21
172
31
0
0
LINE
5
568
330
38F
100
AcDbEntity
100
AcDbLine
8
stair
10
1194.4
20
42
30
0
11
1194.4
21
192
31
0
0
LINE
5
569
330
38F
100
AcDbEntity
100
AcDbLine
8
stair
10
1213.45
20
42
30
0
11
1213.45
21
188
31
0
0
LINE
5
56A
330
38F
100
AcDbEntity
100
AcDbLine
8
stair
10
1194.4
20
202
30
0
11
1213.45
21
202
31
0
0
LINE
5
56B
330
38F
100
AcDbEntity
100
AcDbLine
8
stair
10
1194.4
20
212
30
0
11
1213.45
21
212
31
0
0
LINE
5
56C
330
38F
100
AcDbEntity
100
AcDbLine
8
stair
10
1194.4
20
222
30
0
11
1213.45
21
222
31
0
0
LINE
5
56D
330
38F
100
AcDbEntity
100
AcDbLine
8
stair
10
1194.4
20
232
30
0
11
1213.45
21
232
31
0
0
LINE
5
56E
330
38F
100
AcDbEntity
100
AcDbLine
8
stair
10
1194.4
20
242
30
0
11
1213.45
21
242
31
0
0
LINE
5
56F
330
38F
100
AcDbEntity
100
AcDbLine
8
stair
10
1194.4
20
252
30
0
11
1213.45
21
252
31
0
0
LINE
5
570
330
38F
100
AcDbEntity
100
AcDbLine
8
stair
10
1194.4
20
262
30
0
11
1213.45
21
262
31
0
0
LINE
5
571
330
38F
100
AcDbEntity
100
AcDbLine
8
stair
10
1194.4
20
272
30
0
11
1213.45
21
272
31
0
0
LINE
5
572
330
38F
100
AcDbEntity
100
AcDbLine
8
stair
10
1194.4
20
282
30
0
11
1213.45
21
282
31
0
0
LINE
5
573
330
38F
100
AcDbEntity
100
AcDbLine
8
stair
10
1194.4
20
292
30
0
11
1213.45
21
292
31
0
0
LINE
5
574
330
38F
100
AcDbEntity
100
AcDbLine
8
stair
10
1194.4
20
302
30
0
11
1213.45
21
302
31
0
0
LINE
5
575
330
38F
100
AcDbEntity
100
AcDbLine
8
stair
10
1194.4
20
312
30
0
11
1213.45
21
312
31
0
0
LINE
5
576
330
38F
100
AcDbEntity
100
AcDbLine
8
stair
10
1194.4
20
322
30
0
11
1213.45
21
322
31
0
0
LINE
5
577
330
38F
100
AcDbEntity
100
AcDbLine
8
stair
10
1194.4
20
192
30
0
11
1194.4
21
342
31
0
0
LINE
5
578
330
38F
100
AcDbEntity
100
AcDbLine
8
stair
10
1213.45
20
192
30
0
11
1213.45
21
338
31
0
0
LINE
5
579
330
38F
100
AcDbEntity
100
AcDbLine
8
stair
10
1194.4
20
352
30
0
11
1213.45
21
352
31
0
0
LINE
5
57A
330
38F
100
AcDbEntity
100
AcDbLine
8
stair
10
1194.4
20
362
30
0
11
1213.45
21
362
31
0
0
LINE
5
57B
330
38F
100
AcDbEntity
100
AcDbLine
8
stair
10
1194.4
20
372
30
0
11
1213.45
21
372
31
0
0
LINE
5
57C
330
38F
100
AcDbEntity
100
AcDbLine
8
stair
10
1194.4
20
382
30
0
11
1213.45
21
382
31
0
0
LINE
5
57D
330
38F
100
AcDbEntity
100
AcDbLine
8
stair
10
1194.4
20
392
30
0
11
1213.45
21
392
31
0
0
LINE
5
57E
330
38F
100
AcDbEntity
100
AcDbLine
8
stair
10
1194.4
20
402
30
0
11
1213.45
21
402
31
0
0
LINE
5
57F
330
38F
100
AcDbEntity
100
AcDbLine
8
stair
10
1194.4
20
412
30
0
11
1213.45
21
412
31
0
0
LINE
5
580
330
38F
100
AcDbEntity
100
AcDbLine
8
stair
10
1194.4
20
422
30
0
11
1213.45
21
422
31
0
0
LINE
5
581
330
38F
100
AcDbEntity
100
AcDbLine
8
stair
10
1194.4
20
432
30
0
11
1213.45
21
432
31
0
0
LINE
5
582
330
38F
100
AcDbEntity
100
AcDbLine
8
stair
10
1194.4
20
442
30
0
11
1213.45
21
442
31
0
0
LINE
5
583
330
38F
100
AcDbEntity
100
AcDbLine
8
stair
10
1194.4
20
452
30
0
11
1213.45
21
452
31
0
0
LINE
5
584
330
38F
100
AcDbEntity
100
AcDbLine
8
stair
10
1194.4
20
462
30
0
11
1213.45
21
462
31
0
0
LINE
5
585
330
38F
100
AcDbEntity
100
AcDbLine
8
stair
10
1194.4
20
472
30
0
11
1213.45
21
472
31
0
0
LINE
5
586
330
38F
100
AcDbEntity
100
AcDbLine
8
stair
10
1194.4
20
342
30
0
11
1194.4
21
492
31
0
0
LINE
5
587
330
38F
100
AcDbEntity
100
AcDbLine
8
stair
10
1213.45
20
342
30
0
11
1213.45
21
488
31
0
0
LINE
5
588
330
38F
100
AcDbEntity
100
AcDbLine
8
stair
10
2118.6
20
40
30
0
11
2268.6
21
190
31
0
0
LINE
5
589
330
38F
100
AcDbEntity
100
AcDbLine
8
stair
10
2121.6
20
50
30
0
11
2135.6
21
50
31
0
0
LINE
5
58A
330
38F
100
AcDbEntity
100
AcDbLine
8
stair
10
2131.6
20
60
30
0
11
2145.6
21
60
31
0
0
LINE
5
58B
330
38F
100
AcDbEntity
100
AcDbLine
8
stair
10
2141.6
20
70
30
0
11
2155.6
21
70
31
0
0
LINE
5
58C
330
38F
100
AcDbEntity
100
AcDbLine
8
stair
10
2151.6
20
80
30
0
11
2165.6
21
80
31
0
0
LINE
5
58D
330
38F
100
AcDbEntity
100
AcDbLine
8
stair
10
2161.6
20
90
30
0
11
2175.6
21
90
31
0
0
LINE
5
58E
330
38F
100
AcDbEntity
100
AcDbLine
8
stair
10
2171.6
20
100
30
0
11
2185.6
21
100
31
0
0
LINE
5
58F
330
38F
100
AcDbEntity
100
AcDbLine
8
stair
10
2181.6
20
110
30
0
11
2195.6
21
110
31
0
0
LINE
5
590
330
38F
100
AcDbEntity
100
AcDbLine
8
stair
10
2191.6
20
120
30
0
11
2205.6
21
120
31
0
0
LINE
5
591
330
38F
100
AcDbEntity
100
AcDbLine
8
stair
10
2201.6
20
130
30
0
11
2215.6
21
130
31
0
0
LINE
5
592
330
38F
100
AcDbEntity
100
AcDbLine
8
stair
10
2211.6
20
140
30
0
11
2225.6
21
140
31
0
0
LINE
5
593
330
38F
100
AcDbEntity
100
AcDbLine
8
stair
10
2221.6
20
150
30
0
11
2235.6
21
150
31
0
0
LINE
5
594
330
38F
100
AcDbEntity
100
AcDbLine
8
stair
10
2231.6
20
160
30
0
11
2245.6
21
160
31
0
0
LINE
5
595
330
38F
100
AcDbEntity
100
AcDbLine
8
stair
10
2241.6
20
170
30
0
11
2255.6
21
170
31
0
0
LINE
5
596
330
38F
100
AcDbEntity
100
AcDbLine
8
stair
10
2251.6
20
180
30
0
11
2265.6
21
180
31
0
0
LINE
5
597
330
38F
100
AcDbEntity
100
AcDbLine
8
stair
10
2118.6
20
190
30
0
11
2268.6
21
340
31
0
0
LINE
5
598
330
38F
100
AcDbEntity
100
AcDbLine
8
stair
10
2121.6
20
200
30
0
11
2135.6
21
200
31
0
0
LINE
5
599
330
38F
100
AcDbEntity
100
AcDbLine
8
stair
10
2131.6
20
210
30
0
11
2145.6
21
210
31
0
0
LINE
5
59A
330
38F
100
AcDbEntity
100
AcDbLine
8
stair
10
2141.6
20
220
30
0
11
2155.6
21
220
31
0
0
LINE
5
59B
330
38F
100
AcDbEntity
100
AcDbLine
8
stair
10
2151.6
20
230
30
0
11
2165.6
21
230
31
0
0
LINE
5
59C
330
38F
100
AcDbEntity
100
AcDbLine
8
stair
10
2161.6
20
240
30
0
11
2175.6
21
240
31
0
0
LINE
5
59D
330
38F
100
AcDbEntity
100
AcDbLine
8
stair
10
2171.6
20
250
30
0
11
2185.6
21
250
31
0
0
LINE
5
59E
330
38F
100
AcDbEntity
100
AcDbLine
8
stair
10
2181.6
20
260
30
0
11
2195.6
21
260
31
0
0
LINE
5
59F
330
38F
100
AcDbEntity
100
AcDbLine
8
stair
10
2191.6
20
270
30
0
11
2205.6
21
270
31
0
0
LINE
5
5A0
330
38F
100
AcDbEntity
100
AcDbLine
8
stair
10
2201.6
20
280
30
0
11
2215.6
21
280
31
0
0
LINE
5
5A1
330
38F
100
AcDbEntity
100
AcDbLine
8
stair
10
2211.6
20
290
30
0
11
2225.6
21
290
31
0
0
LINE
5
5A2
330
38F
100
AcDbEntity
100
AcDbLine
8
stair
10
2221.6
20
300
30
0
11
2235.6
21
300
31
0
0
LINE
5
5A3
330
38F
100
AcDbEntity
100
AcDbLine
8
stair
10
2231.6
20
310
30
0
11
2245.6
21
310
31
0
0
LINE
5
5A4
330
38F
100
AcDbEntity
100
AcDbLine
8
stair
10
2241.6
20
320
30
0
11
2255.6
21
320
31
0
0
LINE
5
5A5
330
38F
100
AcDbEntity
100
AcDbLine
8
stair
10
2251.6
20
330
30
0
11
2265.6
21
330
31
0
0
LINE
5
5A6
330
38F
100
AcDbEntity
100
AcDbLine
8
stair
10
2118.6
20
340
30
0
11
2268.6
21
490
31
0
0
LINE
5
5A7
330
38F
100
AcDbEntity
100
AcDbLine
8
stair
10
2121.6
20
350
30
0
11
2135.6
21
350
31
0
0
LINE
5
5A8
330
38F
100
AcDbEntity
100
AcDbLine
8
stair
10
2131.6
20
360
30
0
11
2145.6
21
360
31
0
0
LINE
5
5A9
330
38F
100
AcDbEntity
100
AcDbLine
8
stair
10
2141.6
20
370
30
0
11
2155.6
21
370
31
0
0
LINE
5
5AA
330
38F
100
AcDbEntity
100
AcDbLine
8
stair
10
2151.6
20
380
30
0
11
2165.6
21
380
31
0
0
LINE
5
5AB
330
38F
100
AcDbEntity
100
AcDbLine
8
stair
10
2161.6
20
390
30
0
11
2175.6
21
390
31
0
0
LINE
5
5AC
330
38F
100
AcDbEntity
100
AcDbLine
8
stair
10
2171.6
20
400
30
0
11
2185.6
21
400
31
0
0
LINE
5
5AD
330
38F
100
AcDbEntity
100
AcDbLine
8
stair
10
2181.6
20
410
30
0
11
2195.6
21
410
31
0
0
LINE
5
5AE
330
38F
100
AcDbEntity
100
AcDbLine
8
stair
10
2191.6
20
420
30
0
11
2205.6
21
420
31
0
0
LINE
5
5AF
330
38F
100
AcDbEntity
100
AcDbLine
8
stair
10
2201.6
20
430
30
0
11
2215.6
21
430
31
0
0
LINE
5
5B0
330
38F
100
AcDbEntity
100
AcDbLine
8
stair
10
2211.6
20
440
30
0
11
2225.6
21
440
31
0
0
LINE
5
5B1
330
38F
100
AcDbEntity
100
AcDbLine
8
stair
10
2221.6
20
450
30
0
11
2235.6
21
450
31
0
0
LINE
5
5B2
330
38F
100
AcDbEntity
100
AcDbLine
8
stair
10
2231.6
20
460
30
0
11
2245.6
21
460
31
0
0
LINE
5
5B3
330
38F
100
AcDbEntity
100
AcDbLine
8
stair
10
2241.6
20
470
30
0
11
2255.6
21
470
31
0
0
LINE
5
5B4
330
38F
100
AcDbEntity
100
AcDbLine
8
stair
10
2251.6
20
480
30
0
11
2265.6
21
480
31
0
0
LINE
5
5B5
330
38F
100
AcDbEntity
100
AcDbLine
8
stair
10
2670.6
20
52
30
0
11
2689.65
21
52
31
0
0
LINE
5
5B6
330
38F
100
AcDbEntity
100
AcDbLine
8
stair
10
2670.6
20
62
30
0
11
2689.65
21
62
31
0
0
LINE
5
5B7
330
38F
100
AcDbEntity
100
AcDbLine
8
stair
10
2670.6
20
72
30
0
11
2689.65
21
72
31
0
0
LINE
5
5B8
330
38F
100
AcDbEntity
100
AcDbLine
8
stair
10
2670.6
20
82
30
0
11
2689.65
21
82
31
0
0
LINE
5
5B9
330
38F
100
AcDbEntity
100
AcDbLine
8
stair
10
2670.6
20
92
30
0
11
2689.65
21
92
31
0
0
LINE
5
5BA
330
38F
100
AcDbEntity
100
AcDbLine
8
stair
10
2670.6
20
102
30
0
11
2689.65
21
102
31
0
0
LINE
5
5BB
330
38F
100
AcDbEntity
100
AcDbLine
8
stair
10
2670.6
20
112
30
0
11
2689.65
21
112
31
0
0
LINE
5
5BC
330
38F
100
AcDbEntity
100
AcDbLine
8
stair
10
2670.6
20
122
30
0
11
2689.65
21
122
31
0
0
LINE
5
5BD
330
38F
100
AcDbEntity
100
AcDbLine
8
stair
10
2670.6
20
132
30
0
11
2689.65
21
132
31
0
0
LINE
5
5BE
330
38F
100
AcDbEntity
100
AcDbLine
8
stair
10
2670.6
20
142
30
0
11
2689.65
21
142
31
0
0
LINE
5
5BF
330
38F
100
AcDbEntity
100
AcDbLine
8
stair
10
2670.6
20
152
30
0
11
2689.65
21
152
31
0
0
LINE
5
5C0
330
38F
100
AcDbEntity
100
AcDbLine
8
stair
10
2670.6
20
162
30
0
11
2689.65
21
162
31
0
0
LINE
5
5C1
330
38F
100
AcDbEntity
100
AcDbLine
8
stair
10
2670.6
20
172
30
0
11
2689.65
21
172
31
0
0
LINE
5
5C2
330
38F
100
AcDbEntity
100
AcDbLine
8
stair
10
2670.6
20
42
30
0
11
2670.6
21
192
31
0
0
LINE
5
5C3
330
38F
100
AcDbEntity
100
AcDbLine
8
stair
10
2689.65
20
42
30
0
11
2689.65
21
188
31
0
0
LINE
5
5C4
330
38F
100
AcDbEntity
100
AcDbLine
8
stair
10
2670.6
20
202
30
0
11
2689.65
21
202
31
0
0
LINE
5
5C5
330
38F
100
AcDbEntity
100
AcDbLine
8
stair
10
2670.6
20
212
30
0
11
2689.65
21
212
31
0
0
LINE
5
5C6
330
38F
100
AcDbEntity
100
AcDbLine
8
stair
10
2670.6
20
222
30
0
11
2689.65
21
222
31
0
0
LINE
5
5C7
330
38F
100
AcDbEntity
100
AcDbLine
8
stair
10
2670.6
20
232
30
0
11
2689.65
21
232
31
0
0
LINE
5
5C8
330
38F
100
AcDbEntity
100
AcDbLine
8
stair
10
2670.6
20
242
30
0
11
2689.65
21
242
31
0
0
LINE
5
5C9
330
38F
100
AcDbEntity
100
AcDbLine
8
stair
10
2670.6
20
252
30
0
11
2689.65
21
252
31
0
0
LINE
5
5CA
330
38F
100
AcDbEntity
100
AcDbLine
8
stair
10
2670.6
20
262
30
0
11
2689.65
21
262
31
0
0
LINE
5
5CB
330
38F
100
AcDbEntity
100
AcDbLine
8
stair
10
2670.6
20
272
30
0
11
2689.65
21
272
31
0
0
LINE
5
5CC
330
38F
100
AcDbEntity
100
AcDbLine
8
stair
10
2670.6
20
282
30
0
11
2689.65
21
282
31
0
0
LINE
5
5CD
330
38F
100
AcDbEntity
100
AcDbLine
8
stair
10
2670.6
20
292
30
0
11
2689.65
21
292
31
0
0
LINE
5
5CE
330
38F
100
AcDbEntity
100
AcDbLine
8
stair
10
2670.6
20
302
30
0
11
2689.65
21
302
31
0
0
LINE
5
5CF
330
38F
100
AcDbEntity
100
AcDbLine
8
stair
10
2670.6
20
312
30
0
11
2689.65
21
312
31
0
0
LINE
5
5D0
330
38F
100
AcDbEntity
100
AcDbLine
8
stair
10
2670.6
20
322
30
0
11
2689.65
21
322
31
0
0
LINE
5
5D1
330
38F
100
AcDbEntity
100
AcDbLine
8
stair
10
2670.6
20
192
30
0
11
2670.6
21
342
31
0
0
LINE
5
5D2
330
38F
100
AcDbEntity
100
AcDbLine
8
stair
10
2689.65
20
192
30
0
11
2689.65
21
338
31
0
0
LINE
5
5D3
330
38F
100
AcDbEntity
100
AcDbLine
8
stair
10
2670.6
20
352
30
0
11
2689.65
21
352
31
0
0
LINE
5
5D4
330
38F
100
AcDbEntity
100
AcDbLine
8
stair
10
2670.6
20
362
30
0
11
2689.65
21
362
31
0
0
LINE
5
5D5
330
38F
100
AcDbEntity
100
AcDbLine
8
stair
10
2670.6
20
372
30
0
11
2689.65
21
372
31
0
0
LINE
5
5D6
330
38F
100
AcDbEntity
100
AcDbLine
8
stair
10
2670.6
20
382
30
0
11
2689.65
21
382
31
0
0
LINE
5
5D7
330
38F
100
AcDbEntity
100
AcDbLine
8
stair
10
2670.6
20
392
30
0
11
2689.65
21
392
31
0
0
LINE
5
5D8
330
38F
100
AcDbEntity
100
AcDbLine
8
stair
10
2670.6
20
402
30
0
11
2689.65
21
402
31
0
0
LINE
5
5D9
330
38F
100
AcDbEntity
100
AcDbLine
8
stair
10
2670.6
20
412
30
0
11
2689.65
21
412
31
0
0
LINE
5
5DA
330
38F
100
AcDbEntity
100
AcDbLine
8
stair
10
2670.6
20
422
30
0
11
2689.65
21
422
31
0
0
LINE
5
5DB
330
38F
100
AcDbEntity
100
AcDbLine
8
stair
10
2670.6
20
432
30
0
11
2689.65
21
432
31
0
0
LINE
5
5DC
330
38F
100
AcDbEntity
100
AcDbLine
8
stair
10
2670.6
20
442
30
0
11
2689.65
21
442
31
0
0
LINE
5
5DD
330
38F
100
AcDbEntity
100
AcDbLine
8
stair
10
2670.6
20
452
30
0
11
2689.65
21
452
31
0
0
LINE
5
5DE
330
38F
100
AcDbEntity
100
AcDbLine
8
stair
10
2670.6
20
462
30
0
11
2689.65
21
462
31
0
0
LINE
5
5DF
330
38F
100
AcDbEntity
100
AcDbLine
8
stair
10
2670.6
20
472
30
0
11
2689.65
21
472
31
0
0
LINE
5
5E0
330
38F
100
AcDbEntity
100
AcDbLine
8
stair
10
2670.6
20
342
30
0
11
2670.6
21
492
31
0
0
LINE
5
5E1
330
38F
100
AcDbEntity
100
AcDbLine
8
stair
10
2689.65
20
342
30
0
11
2689.65
21
488
31
0
0
CIRCLE
5
5E3
330
38F
100
AcDbEntity
100
AcDbCircle
8
anchor_point
10
1116.2
20
1190
30
0
40
15
0
CIRCLE
5
5E4
330
38F
100
AcDbEntity
100
AcDbCircle
8
anchor_point
10
1116.2
20
1190
30
0
40
20
0
CIRCLE
5
5E5
330
38F
100
AcDbEntity
100
AcDbCircle
8
anchor_point
10
1116.2
20
1190
30
0
40
25
0
CIRCLE
5
5E6
330
38F
100
AcDbEntity
100
AcDbCircle
8
anchor_point
10
190
20
340
30
0
40
15
0
CIRCLE
5
5E7
330
38F
100
AcDbEntity
100
AcDbCircle
8
anchor_point
10
190
20
340
30
0
40
20
0
CIRCLE
5
5E8
330
38F
100
AcDbEntity
100
AcDbCircle
8
anchor_point
10
190
20
340
30
0
40
25
0
CIRCLE
5
5E9
330
38F
100
AcDbEntity
100
AcDbCircle
8
anchor_point
10
1116.2
20
340
30
0
40
15
0
CIRCLE
5
5EA
330
38F
100
AcDbEntity
100
AcDbCircle
8
anchor_point
10
1116.2
20
340
30
0
40
20
0
CIRCLE
5
5EB
330
38F
100
AcDbEntity
100
AcDbCircle
8
anchor_point
10
1116.2
20
340
30
0
40
25
0
CIRCLE
5
5EC
330
38F
100
AcDbEntity
100
AcDbCircle
8
anchor_point
10
1968.6
20
340
30
0
40
15
0
CIRCLE
5
5ED
330
38F
100
AcDbEntity
100
AcDbCircle
8
anchor_point
10
1968.6
20
340
30
0
40
20
0
CIRCLE
5
5EE
330
38F
100
AcDbEntity
100
AcDbCircle
8
anchor_point
10
1968.6
20
340
30
0
40
25
0
CIRCLE
5
5EF
330
38F
100
AcDbEntity
100
AcDbCircle
8
anchor_point
10
2744.7999999999997
20
340
30
0
40
15
0
CIRCLE
5
5F0
330
38F
100
AcDbEntity
100
AcDbCircle
8
anchor_point
10
2744.7999999999997
20
340
30
0
40
20
0
CIRCLE
5
5F1
330
38F
100
AcDbEntity
100
AcDbCircle
8
anchor_point
10
2744.7999999999997
20
340
30
0
40
25
0
LWPOLYLINE
5
5F3
330
38F
100
AcDbEntity
100
AcDbPolyline
8
diagonal_braces
6
ByLayer
62
256
370
-1
90
2
70
0
10
490
20
340
40
2
41
2
10
640
20
490
40
2
41
2
0
LWPOLYLINE
5
5F4
330
38F
100
AcDbEntity
100
AcDbPolyline
8
diagonal_braces
6
ByLayer
62
256
370
-1
90
2
70
0
10
340
20
340
40
2
41
2
10
490
20
490
40
2
41
2
0
LWPOLYLINE
5
5F5
330
38F
100
AcDbEntity
100
AcDbPolyline
8
diagonal_braces
6
ByLayer
62
256
370
-1
90
2
70
0
10
190
20
490
40
2
41
2
10
340
20
340
40
2
41
2
0
LWPOLYLINE
5
5F6
330
38F
100
AcDbEntity
100
AcDbPolyline
8
diagonal_braces
6
ByLayer
62
256
370
-1
90
2
70
0
10
40
20
490
40
2
41
2
10
190
20
340
40
2
41
2
0
LWPOLYLINE
5
5F7
330
38F
100
AcDbEntity
100
AcDbPolyline
8
diagonal_braces
6
ByLayer
62
256
370
-1
90
2
70
0
10
490
20
340
40
2
41
2
10
640
20
490
40
2
41
2
0
LWPOLYLINE
5
5F8
330
38F
100
AcDbEntity
100
AcDbPolyline
8
diagonal_braces
6
ByLayer
62
256
370
-1
90
2
70
0
10
340
20
40
40
2
41
2
10
490
20
190
40
2
41
2
0
LWPOLYLINE
5
5F9
330
38F
100
AcDbEntity
100
AcDbPolyline
8
diagonal_braces
6
ByLayer
62
256
370
-1
90
2
70
0
10
340
20
190
40
2
41
2
10
490
20
340
40
2
41
2
0
LWPOLYLINE
5
5FA
330
38F
100
AcDbEntity
100
AcDbPolyline
8
diagonal_braces
6
ByLayer
62
256
370
-1
90
2
70
0
10
340
20
340
40
2
41
2
10
490
20
490
40
2
41
2
0
LWPOLYLINE
5
5FB
330
38F
100
AcDbEntity
100
AcDbPolyline
8
diagonal_braces
6
ByLayer
62
256
370
-1
90
2
70
0
10
190
20
190
40
2
41
2
10
340
20
40
40
2
41
2
0
LWPOLYLINE
5
5FC
330
38F
100
AcDbEntity
100
AcDbPolyline
8
diagonal_braces
6
ByLayer
62
256
370
-1
90
2
70
0
10
190
20
340
40
2
41
2
10
340
20
190
40
2
41
2
0
LWPOLYLINE
5
5FD
330
38F
100
AcDbEntity
100
AcDbPolyline
8
diagonal_braces
6
ByLayer
62
256
370
-1
90
2
70
0
10
190
20
490
40
2
41
2
10
340
20
340
40
2
41
2
0
LWPOLYLINE
5
5FE
330
38F
100
AcDbEntity
100
AcDbPolyline
8
diagonal_braces
6
ByLayer
62
256
370
-1
90
2
70
0
10
40
20
190
40
2
41
2
10
190
20
40
40
2
41
2
0
LWPOLYLINE
5
5FF
330
38F
100
AcDbEntity
100
AcDbPolyline
8
diagonal_braces
6
ByLayer
62
256
370
-1
90
2
70
0
10
40
20
340
40
2
41
2
10
190
20
190
40
2
41
2
0
LWPOLYLINE
5
600
330
38F
100
AcDbEntity
100
AcDbPolyline
8
diagonal_braces
6
ByLayer
62
256
370
-1
90
2
70
0
10
40
20
490
40
2
41
2
10
190
20
340
40
2
41
2
0
LWPOLYLINE
5
601
330
38F
100
AcDbEntity
100
AcDbPolyline
8
diagonal_braces
6
ByLayer
62
256
370
-1
90
2
70
0
10
490
20
340
40
2
41
2
10
640
20
490
40
2
41
2
0
LWPOLYLINE
5
602
330
38F
100
AcDbEntity
100
AcDbPolyline
8
diagonal_braces
6
ByLayer
62
256
370
-1
90
2
70
0
10
340
20
40
40
2
41
2
10
490
20
190
40
2
41
2
0
LWPOLYLINE
5
603
330
38F
100
AcDbEntity
100
AcDbPolyline
8
diagonal_braces
6
ByLayer
62
256
370
-1
90
2
70
0
10
340
20
190
40
2
41
2
10
490
20
340
40
2
41
2
0
LWPOLYLINE
5
604
330
38F
100
AcDbEntity
100
AcDbPolyline
8
diagonal_braces
6
ByLayer
62
256
370
-1
90
2
70
0
10
340
20
340
40
2
41
2
10
490
20
490
40
2
41
2
0
LWPOLYLINE
5
605
330
38F
100
AcDbEntity
100
AcDbPolyline
8
diagonal_braces
6
ByLayer
62
256
370
-1
90
2
70
0
10
190
20
190
40
2
41
2
10
340
20
40
40
2
41
2
0
LWPOLYLINE
5
606
330
38F
100
AcDbEntity
100
AcDbPolyline
8
diagonal_braces
6
ByLayer
62
256
370
-1
90
2
70
0
10
190
20
340
40
2
41
2
10
340
20
190
40
2
41
2
0
LWPOLYLINE
5
607
330
38F
100
AcDbEntity
100
AcDbPolyline
8
diagonal_braces
6
ByLayer
62
256
370
-1
90
2
70
0
10
190
20
490
40
2
41
2
10
340
20
340
40
2
41
2
0
LWPOLYLINE
5
608
330
38F
100
AcDbEntity
100
AcDbPolyline
8
diagonal_braces
6
ByLayer
62
256
370
-1
90
2
70
0
10
40
20
190
40
2
41
2
10
190
20
40
40
2
41
2
0
LWPOLYLINE
5
609
330
38F
100
AcDbEntity
100
AcDbPolyline
8
diagonal_braces
6
ByLayer
62
256
370
-1
90
2
70
0
10
40
20
340
40
2
41
2
10
190
20
190
40
2
41
2
0
LWPOLYLINE
5
60A
330
38F
100
AcDbEntity
100
AcDbPolyline
8
diagonal_braces
6
ByLayer
62
256
370
-1
90
2
70
0
10
40
20
490
40
2
41
2
10
190
20
340
40
2
41
2
0
LWPOLYLINE
5
60B
330
38F
100
AcDbEntity
100
AcDbPolyline
8
diagonal_braces
6
ByLayer
62
256
370
-1
90
2
70
0
10
1116.2
20
490
40
2
41
2
10
1192.4
20
340
40
2
41
2
0
LWPOLYLINE
5
60C
330
38F
100
AcDbEntity
100
AcDbPolyline
8
diagonal_braces
6
ByLayer
62
256
370
-1
90
2
70
0
10
1116.2
20
190
40
2
41
2
10
1192.4
20
40
40
2
41
2
0
LWPOLYLINE
5
60D
330
38F
100
AcDbEntity
100
AcDbPolyline
8
diagonal_braces
6
ByLayer
62
256
370
-1
90
2
70
0
10
1116.2
20
340
40
2
41
2
10
1192.4
20
190
40
2
41
2
0
LWPOLYLINE
5
60E
330
38F
100
AcDbEntity
100
AcDbPolyline
8
diagonal_braces
6
ByLayer
62
256
370
-1
90
2
70
0
10
1116.2
20
490
40
2
41
2
10
1192.4
20
340
40
2
41
2
0
LWPOLYLINE
5
60F
330
38F
100
AcDbEntity
100
AcDbPolyline
8
diagonal_braces
6
ByLayer
62
256
370
-1
90
2
70
0
10
1116.2
20
190
40
2
41
2
10
1192.4
20
40
40
2
41
2
0
LWPOLYLINE
5
610
330
38F
100
AcDbEntity
100
AcDbPolyline
8
diagonal_braces
6
ByLayer
62
256
370
-1
90
2
70
0
10
1116.2
20
340
40
2
41
2
10
1192.4
20
190
40
2
41
2
0
LWPOLYLINE
5
611
330
38F
100
AcDbEntity
100
AcDbPolyline
8
diagonal_braces
6
ByLayer
62
256
370
-1
90
2
70
0
10
1116.2
20
490
40
2
41
2
10
1192.4
20
340
40
2
41
2
0
LWPOLYLINE
5
612
330
38F
100
AcDbEntity
100
AcDbPolyline
8
diagonal_braces
6
ByLayer
62
256
370
-1
90
2
70
0
10
1116.2
20
190
40
2
41
2
10
1192.4
20
40
40
2
41
2
0
LWPOLYLINE
5
613
330
38F
100
AcDbEntity
100
AcDbPolyline
8
diagonal_braces
6
ByLayer
62
256
370
-1
90
2
70
0
10
1116.2
20
340
40
2
41
2
10
1192.4
20
190
40
2
41
2
0
LWPOLYLINE
5
614
330
38F
100
AcDbEntity
100
AcDbPolyline
8
diagonal_braces
6
ByLayer
62
256
370
-1
90
2
70
0
10
1116.2
20
490
40
2
41
2
10
1192.4
20
340
40
2
41
2
0
LWPOLYLINE
5
615
330
38F
100
AcDbEntity
100
AcDbPolyline
8
diagonal_braces
6
ByLayer
62
256
370
-1
90
2
70
0
10
1668.6
20
340
40
2
41
2
10
1818.6
20
490
40
2
41
2
0
LWPOLYLINE
5
616
330
38F
100
AcDbEntity
100
AcDbPolyline
8
diagonal_braces
6
ByLayer
62
256
370
-1
90
2
70
0
10
1818.6
20
340
40
2
41
2
10
1968.6
20
490
40
2
41
2
0
LWPOLYLINE
5
617
330
38F
100
AcDbEntity
100
AcDbPolyline
8
diagonal_braces
6
ByLayer
62
256
370
-1
90
2
70
0
10
1968.6
20
490
40
2
41
2
10
2118.6
20
340
40
2
41
2
0
LWPOLYLINE
5
618
330
38F
100
AcDbEntity
100
AcDbPolyline
8
diagonal_braces
6
ByLayer
62
256
370
-1
90
2
70
0
10
2118.6
20
490
40
2
41
2
10
2268.6
20
340
40
2
41
2
0
LWPOLYLINE
5
619
330
38F
100
AcDbEntity
100
AcDbPolyline
8
diagonal_braces
6
ByLayer
62
256
370
-1
90
2
70
0
10
1668.6
20
340
40
2
41
2
10
1818.6
20
490
40
2
41
2
0
LWPOLYLINE
5
61A
330
38F
100
AcDbEntity
100
AcDbPolyline
8
diagonal_braces
6
ByLayer
62
256
370
-1
90
2
70
0
10
1818.6
20
40
40
2
41
2
10
1968.6
20
190
40
2
41
2
0
LWPOLYLINE
5
61B
330
38F
100
AcDbEntity
100
AcDbPolyline
8
diagonal_braces
6
ByLayer
62
256
370
-1
90
2
70
0
10
1818.6
20
190
40
2
41
2
10
1968.6
20
340
40
2
41
2
0
LWPOLYLINE
5
61C
330
38F
100
AcDbEntity
100
AcDbPolyline
8
diagonal_braces
6
ByLayer
62
256
370
-1
90
2
70
0
10
1818.6
20
340
40
2
41
2
10
1968.6
20
490
40
2
41
2
0
LWPOLYLINE
5
61D
330
38F
100
AcDbEntity
100
AcDbPolyline
8
diagonal_braces
6
ByLayer
62
256
370
-1
90
2
70
0
10
1968.6
20
190
40
2
41
2
10
2118.6
20
40
40
2
41
2
0
LWPOLYLINE
5
61E
330
38F
100
AcDbEntity
100
AcDbPolyline
8
diagonal_braces
6
ByLayer
62
256
370
-1
90
2
70
0
10
1968.6
20
340
40
2
41
2
10
2118.6
20
190
40
2
41
2
0
LWPOLYLINE
5
61F
330
38F
100
AcDbEntity
100
AcDbPolyline
8
diagonal_braces
6
ByLayer
62
256
370
-1
90
2
70
0
10
1968.6
20
490
40
2
41
2
10
2118.6
20
340
40
2
41
2
0
LWPOLYLINE
5
620
330
38F
100
AcDbEntity
100
AcDbPolyline
8
diagonal_braces
6
ByLayer
62
256
370
-1
90
2
70
0
10
2118.6
20
190
40
2
41
2
10
2268.6
20
40
40
2
41
2
0
LWPOLYLINE
5
621
330
38F
100
AcDbEntity
100
AcDbPolyline
8
diagonal_braces
6
ByLayer
62
256
370
-1
90
2
70
0
10
2118.6
20
340
40
2
41
2
10
2268.6
20
190
40
2
41
2
0
LWPOLYLINE
5
622
330
38F
100
AcDbEntity
100
AcDbPolyline
8
diagonal_braces
6
ByLayer
62
256
370
-1
90
2
70
0
10
2118.6
20
490
40
2
41
2
10
2268.6
20
340
40
2
41
2
0
LWPOLYLINE
5
623
330
38F
100
AcDbEntity
100
AcDbPolyline
8
diagonal_braces
6
ByLayer
62
256
370
-1
90
2
70
0
10
1668.6
20
340
40
2
41
2
10
1818.6
20
490
40
2
41
2
0
LWPOLYLINE
5
624
330
38F
100
AcDbEntity
100
AcDbPolyline
8
diagonal_braces
6
ByLayer
62
256
370
-1
90
2
70
0
10
1818.6
20
40
40
2
41
2
10
1968.6
20
190
40
2
41
2
0
LWPOLYLINE
5
625
330
38F
100
AcDbEntity
100
AcDbPolyline
8
diagonal_braces
6
ByLayer
62
256
370
-1
90
2
70
0
10
1818.6
20
190
40
2
41
2
10
1968.6
20
340
40
2
41
2
0
LWPOLYLINE
5
626
330
38F
100
AcDbEntity
100
AcDbPolyline
8
diagonal_braces
6
ByLayer
62
256
370
-1
90
2
70
0
10
1818.6
20
340
40
2
41
2
10
1968.6
20
490
40
2
41
2
0
LWPOLYLINE
5
627
330
38F
100
AcDbEntity
100
AcDbPolyline
8
diagonal_braces
6
ByLayer
62
256
370
-1
90
2
70
0
10
1968.6
20
190
40
2
41
2
10
2118.6
20
40
40
2
41
2
0
LWPOLYLINE
5
628
330
38F
100
AcDbEntity
100
AcDbPolyline
8
diagonal_braces
6
ByLayer
62
256
370
-1
90
2
70
0
10
1968.6
20
340
40
2
41
2
10
2118.6
20
190
40
2
41
2
0
LWPOLYLINE
5
629
330
38F
100
AcDbEntity
100
AcDbPolyline
8
diagonal_braces
6
ByLayer
62
256
370
-1
90
2
70
0
10
1968.6
20
490
40
2
41
2
10
2118.6
20
340
40
2
41
2
0
LWPOLYLINE
5
62A
330
38F
100
AcDbEntity
100
AcDbPolyline
8
diagonal_braces
6
ByLayer
62
256
370
-1
90
2
70
0
10
2118.6
20
190
40
2
41
2
10
2268.6
20
40
40
2
41
2
0
LWPOLYLINE
5
62B
330
38F
100
AcDbEntity
100
AcDbPolyline
8
diagonal_braces
6
ByLayer
62
256
370
-1
90
2
70
0
10
2118.6
20
340
40
2
41
2
10
2268.6
20
190
40
2
41
2
0
LWPOLYLINE
5
62C
330
38F
100
AcDbEntity
100
AcDbPolyline
8
diagonal_braces
6
ByLayer
62
256
370
-1
90
2
70
0
10
2118.6
20
490
40
2
41
2
10
2268.6
20
340
40
2
41
2
0
LWPOLYLINE
5
62D
330
38F
100
AcDbEntity
100
AcDbPolyline
8
diagonal_braces
6
ByLayer
62
256
370
-1
90
2
70
0
10
2744.7999999999997
20
490
40
2
41
2
10
2820.9999999999995
20
340
40
2
41
2
0
LWPOLYLINE
5
62E
330
38F
100
AcDbEntity
100
AcDbPolyline
8
diagonal_braces
6
ByLayer
62
256
370
-1
90
2
70
0
10
2744.7999999999997
20
190
40
2
41
2
10
2820.9999999999995
20
40
40
2
41
2
0
LWPOLYLINE
5
62F
330
38F
100
AcDbEntity
100
AcDbPolyline
8
diagonal_braces
6
ByLayer
62
256
370
-1
90
2
70
0
10
2744.7999999999997
20
340
40
2
41
2
10
2820.9999999999995
20
190
40
2
41
2
0
LWPOLYLINE
5
630
330
38F
100
AcDbEntity
100
AcDbPolyline
8
diagonal_braces
6
ByLayer
62
256
370
-1
90
2
70
0
10
2744.7999999999997
20
490
40
2
41
2
10
2820.9999999999995
20
340
40
2
41
2
0
LWPOLYLINE
5
631
330
38F
100
AcDbEntity
100
AcDbPolyline
8
diagonal_braces
6
ByLayer
62
256
370
-1
90
2
70
0
10
2744.7999999999997
20
190
40
2
41
2
10
2820.9999999999995
20
40
40
2
41
2
0
LWPOLYLINE
5
632
330
38F
100
AcDbEntity
100
AcDbPolyline
8
diagonal_braces
6
ByLayer
62
256
370
-1
90
2
70
0
10
2744.7999999999997
20
340
40
2
41
2
10
2820.9999999999995
20
190
40
2
41
2
0
LWPOLYLINE
5
633
330
38F
100
AcDbEntity
100
AcDbPolyline
8
diagonal_braces
6
ByLayer
62
256
370
-1
90
2
70
0
10
2744.7999999999997
20
490
40
2
41
2
10
2820.9999999999995
20
340
40
2
41
2
0
LWPOLYLINE
5
634
330
38F
100
AcDbEntity
100
AcDbPolyline
8
diagonal_braces
6
ByLayer
62
256
370
-1
90
2
70
0
10
2744.7999999999997
20
190
40
2
41
2
10
2820.9999999999995
20
40
40
2
41
2
0
LWPOLYLINE
5
635
330
38F
100
AcDbEntity
100
AcDbPolyline
8
diagonal_braces
6
ByLayer
62
256
370
-1
90
2
70
0
10
2744.7999999999997
20
340
40
2
41
2
10
2820.9999999999995
20
190
40
2
41
2
0
LWPOLYLINE
5
636
330
38F
100
AcDbEntity
100
AcDbPolyline
8
diagonal_braces
6
ByLayer
62
256
370
-1
90
2
70
0
10
2744.7999999999997
20
490
40
2
41
2
10
2820.9999999999995
20
340
40
2
41
2
0
LINE
5
638
330
38F
100
AcDbEntity
100
AcDbLine
8
rung
10
492
20
385
30
0
11
638
21
385
31
0
0
LINE
5
639
330
38F
100
AcDbEntity
100
AcDbLine
8
rung
10
492
20
387
30
0
11
638
21
387
31
0
0
LINE
5
63A
330
38F
100
AcDbEntity
100
AcDbLine
8
rung
10
342
20
385
30
0
11
488
21
385
31
0
0
LINE
5
63B
330
38F
100
AcDbEntity
100
AcDbLine
8
rung
10
342
20
387
30
0
11
488
21
387
31
0
0
LINE
5
63C
330
38F
100
AcDbEntity
100
AcDbLine
8
rung
10
192
20
385
30
0
11
338
21
385
31
0
0
LINE
5
63D
330
38F
100
AcDbEntity
100
AcDbLine
8
rung
10
192
20
387
30
0
11
338
21
387
31
0
0
LINE
5
63E
330
38F
100
AcDbEntity
100
AcDbLine
8
rung
10
42
20
385
30
0
11
188
21
385
31
0
0
LINE
5
63F
330
38F
100
AcDbEntity
100
AcDbLine
8
rung
10
42
20
387
30
0
11
188
21
387
31
0
0
LINE
5
640
330
38F
100
AcDbEntity
100
AcDbLine
8
rung
10
492
20
385
30
0
11
638
21
385
31
0
0
LINE
5
641
330
38F
100
AcDbEntity
100
AcDbLine
8
rung
10
492
20
387
30
0
11
638
21
387
31
0
0
LINE
5
642
330
38F
100
AcDbEntity
100
AcDbLine
8
rung
10
342
20
85
30
0
11
488
21
85
31
0
0
LINE
5
643
330
38F
100
AcDbEntity
100
AcDbLine
8
rung
10
342
20
87
30
0
11
488
21
87
31
0
0
LINE
5
644
330
38F
100
AcDbEntity
100
AcDbLine
8
rung
10
342
20
235
30
0
11
488
21
235
31
0
0
LINE
5
645
330
38F
100
AcDbEntity
100
AcDbLine
8
rung
10
342
20
237
30
0
11
488
21
237
31
0
0
LINE
5
646
330
38F
100
AcDbEntity
100
AcDbLine
8
rung
10
342
20
385
30
0
11
488
21
385
31
0
0
LINE
5
647
330
38F
100
AcDbEntity
100
AcDbLine
8
rung
10
342
20
387
30
0
11
488
21
387
31
0
0
LINE
5
648
330
38F
100
AcDbEntity
100
AcDbLine
8
rung
10
192
20
85
30
0
11
338
21
85
31
0
0
LINE
5
649
330
38F
100
AcDbEntity
100
AcDbLine
8
rung
10
192
20
87
30
0
11
338
21
87
31
0
0
LINE
5
64A
330
38F
100
AcDbEntity
100
AcDbLine
8
rung
10
192
20
235
30
0
11
338
21
235
31
0
0
LINE
5
64B
330
38F
100
AcDbEntity
100
AcDbLine
8
rung
10
192
20
237
30
0
11
338
21
237
31
0
0
LINE
5
64C
330
38F
100
AcDbEntity
100
AcDbLine
8
rung
10
192
20
385
30
0
11
338
21
385
31
0
0
LINE
5
64D
330
38F
100
AcDbEntity
100
AcDbLine
8
rung
10
192
20
387
30
0
11
338
21
387
31
0
0
LINE
5
64E
330
38F
100
AcDbEntity
100
AcDbLine
8
rung
10
42
20
85
30
0
11
188
21
85
31
0
0
LINE
5
64F
330
38F
100
AcDbEntity
100
AcDbLine
8
rung
10
42
20
87
30
0
11
188
21
87
31
0
0
LINE
5
650
330
38F
100
AcDbEntity
100
AcDbLine
8
rung
10
42
20
235
30
0
11
188
21
235
31
0
0
LINE
5
651
330
38F
100
AcDbEntity
100
AcDbLine
8
rung
10
42
20
237
30
0
11
188
21
237
31
0
0
LINE
5
652
330
38F
100
AcDbEntity
100
AcDbLine
8
rung
10
42
20
385
30
0
11
188
21
385
31
0
0
LINE
5
653
330
38F
100
AcDbEntity
100
AcDbLine
8
rung
10
42
20
387
30
0
11
188
21
387
31
0
0
LINE
5
654
330
38F
100
AcDbEntity
100
AcDbLine
8
rung
10
492
20
385
30
0
11
638
21
385
31
0
0
LINE
5
655
330
38F
100
AcDbEntity
100
AcDbLine
8
rung
10
492
20
387
30
0
11
638
21
387
31
0
0
LINE
5
656
330
38F
100
AcDbEntity
100
AcDbLine
8
rung
10
342
20
85
30
0
11
488
21
85
31
0
0
LINE
5
657
330
38F
100
AcDbEntity
100
AcDbLine
8
rung
10
342
20
87
30
0
11
488
21
87
31
0
0
LINE
5
658
330
38F
100
AcDbEntity
100
AcDbLine
8
rung
10
342
20
235
30
0
11
488
21
235
31
0
0
LINE
5
659
330
38F
100
AcDbEntity
100
AcDbLine
8
rung
10
342
20
237
30
0
11
488
21
237
31
0
0
LINE
5
65A
330
38F
100
AcDbEntity
100
AcDbLine
8
rung
10
342
20
385
30
0
11
488
21
385
31
0
0
LINE
5
65B
330
38F
100
AcDbEntity
100
AcDbLine
8
rung
10
342
20
387
30
0
11
488
21
387
31
0
0
LINE
5
65C
330
38F
100
AcDbEntity
100
AcDbLine
8
rung
10
192
20
85
30
0
11
338
21
85
31
0
0
LINE
5
65D
330
38F
100
AcDbEntity
100
AcDbLine
8
rung
10
192
20
87
30
0
11
338
21
87
31
0
0
LINE
5
65E
330
38F
100
AcDbEntity
100
AcDbLine
8
rung
10
192
20
235
30
0
11
338
21
235
31
0
0
LINE
5
65F
330
38F
100
AcDbEntity
100
AcDbLine
8
rung
10
192
20
237
30
0
11
338
21
237
31
0
0
LINE
5
660
330
38F
100
AcDbEntity
100
AcDbLine
8
rung
10
192
20
385
30
0
11
338
21
385
31
0
0
LINE
5
661
330
38F
100
AcDbEntity
100
AcDbLine
8
rung
10
192
20
387
30
0
11
338
21
387
31
0
0
LINE
5
662
330
38F
100
AcDbEntity
100
AcDbLine
8
rung
10
42
20
85
30
0
11
188
21
85
31
0
0
LINE
5
663
330
38F
100
AcDbEntity
100
AcDbLine
8
rung
10
42
20
87
30
0
11
188
21
87
31
0
0
LINE
5
664
330
38F
100
AcDbEntity
100
AcDbLine
8
rung
10
42
20
235
30
0
11
188
21
235
31
0
0
LINE
5
665
330
38F
100
AcDbEntity
100
AcDbLine
8
rung
10
42
20
237
30
0
11
188
21
237
31
0
0
LINE
5
666
330
38F
100
AcDbEntity
100
AcDbLine
8
rung
10
42
20
385
30
0
11
188
21
385
31
0
0
LINE
5
667
330
38F
100
AcDbEntity
100
AcDbLine
8
rung
10
42
20
387
30
0
11
188
21
387
31
0
0
LINE
5
668
330
38F
100
AcDbEntity
100
AcDbLine
8
rung
10
1042
20
385
30
0
11
1114.2
21
385
31
0
0
LINE
5
669
330
38F
100
AcDbEntity
100
AcDbLine
8
rung
10
1042
20
387
30
0
11
1114.2
21
387
31
0
0
LINE
5
66A
330
38F
100
AcDbEntity
100
AcDbLine
8
rung
10
1042
20
385
30
0
11
1114.2
21
385
31
0
0
LINE
5
66B
330
38F
100
AcDbEntity
100
AcDbLine
8
rung
10
1042
20
387
30
0
11
1114.2
21
387
31
0
0
LINE
5
66C
330
38F
100
AcDbEntity
100
AcDbLine
8
rung
10
1042
20
385
30
0
11
1114.2
21
385
31
0
0
LINE
5
66D
330
38F
100
AcDbEntity
100
AcDbLine
8
rung
10
1042
20
387
30
0
11
1114.2
21
387
31
0
0
LINE
5
66E
330
38F
100
AcDbEntity
100
AcDbLine
8
rung
10
1042
20
385
30
0
11
1114.2
21
385
31
0
0
LINE
5
66F
330
38F
100
AcDbEntity
100
AcDbLine
8
rung
10
1042
20
387
30
0
11
1114.2
21
387
31
0
0
LINE
5
670
330
38F
100
AcDbEntity
100
AcDbLine
8
rung
10
1118.2
20
385
30
0
11
1190.4
21
385
31
0
0
LINE
5
671
330
38F
100
AcDbEntity
100
AcDbLine
8
rung
10
1118.2
20
387
30
0
11
1190.4
21
387
31
0
0
LINE
5
672
330
38F
100
AcDbEntity
100
AcDbLine
8
rung
10
1118.2
20
85
30
0
11
1190.4
21
85
31
0
0
LINE
5
673
330
38F
100
AcDbEntity
100
AcDbLine
8
rung
10
1118.2
20
87
30
0
11
1190.4
21
87
31
0
0
LINE
5
674
330
38F
100
AcDbEntity
100
AcDbLine
8
rung
10
1118.2
20
235
30
0
11
1190.4
21
235
31
0
0
LINE
5
675
330
38F
100
AcDbEntity
100
AcDbLine
8
rung
10
1118.2
20
237
30
0
11
1190.4
21
237
31
0
0
LINE
5
676
330
38F
100
AcDbEntity
100
AcDbLine
8
rung
10
1118.2
20
385
30
0
11
1190.4
21
385
31
0
0
LINE
5
677
330
38F
100
AcDbEntity
100
AcDbLine
8
rung
10
1118.2
20
387
30
0
11
1190.4
21
387
31
0
0
LINE
5
678
330
38F
100
AcDbEntity
100
AcDbLine
8
rung
10
1118.2
20
85
30
0
11
1190.4
21
85
31
0
0
LINE
5
679
330
38F
100
AcDbEntity
100
AcDbLine
8
rung
10
1118.2
20
87
30
0
11
1190.4
21
87
31
0
0
LINE
5
67A
330
38F
100
AcDbEntity
100
AcDbLine
8
rung
10
1118.2
20
235
30
0
11
1190.4
21
235
31
0
0
LINE
5
67B
330
38F
100
AcDbEntity
100
AcDbLine
8
rung
10
1118.2
20
237
30
0
11
1190.4
21
237
31
0
0
LINE
5
67C
330
38F
100
AcDbEntity
100
AcDbLine
8
rung
10
1118.2
20
385
30
0
11
1190.4
21
385
31
0
0
LINE
5
67D
330
38F
100
AcDbEntity
100
AcDbLine
8
rung
10
1118.2
20
387
30
0
11
1190.4
21
387
31
0
0
LINE
5
67E
330
38F
100
AcDbEntity
100
AcDbLine
8
rung
10
1118.2
20
85
30
0
11
1190.4
21
85
31
0
0
LINE
5
67F
330
38F
100
AcDbEntity
100
AcDbLine
8
rung
10
1118.2
20
87
30
0
11
1190.4
21
87
31
0
0
LINE
5
680
330
38F
100
AcDbEntity
100
AcDbLine
8
rung
10
1118.2
20
235
30
0
11
1190.4
21
235
31
0
0
LINE
5
681
330
38F
100
AcDbEntity
100
AcDbLine
8
rung
10
1118.2
20
237
30
0
11
1190.4
21
237
31
0
0
LINE
5
682
330
38F
100
AcDbEntity
100
AcDbLine
8
rung
10
1118.2
20
385
30
0
11
1190.4
21
385
31
0
0
LINE
5
683
330
38F
100
AcDbEntity
100
AcDbLine
8
rung
10
1118.2
20
387
30
0
11
1190.4
21
387
31
0
0
LINE
5
684
330
38F
100
AcDbEntity
100
AcDbLine
8
rung
10
1194.4
20
385
30
0
11
1266.6000000000001
21
385
31
0
0
LINE
5
685
330
38F
100
AcDbEntity
100
AcDbLine
8
rung
10
1194.4
20
387
30
0
11
1266.6000000000001
21
387
31
0
0
LINE
5
686
330
38F
100
AcDbEntity
100
AcDbLine
8
rung
10
1194.4
20
85
30
0
11
1266.6000000000001
21
85
31
0
0
LINE
5
687
330
38F
100
AcDbEntity
100
AcDbLine
8
rung
10
1194.4
20
87
30
0
11
1266.6000000000001
21
87
31
0
0
LINE
5
688
330
38F
100
AcDbEntity
100
AcDbLine
8
rung
10
1194.4
20
235
30
0
11
1266.6000000000001
21
235
31
0
0
LINE
5
689
330
38F
100
AcDbEntity
100
AcDbLine
8
rung
10
1194.4
20
237
30
0
11
1266.6000000000001
21
237
31
0
0
LINE
5
68A
330
38F
100
AcDbEntity
100
AcDbLine
8
rung
10
1194.4
20
385
30
0
11
1266.6000000000001
21
385
31
0
0
LINE
5
68B
330
38F
100
AcDbEntity
100
AcDbLine
8
rung
10
1194.4
20
387
30
0
11
1266.6000000000001
21
387
31
0
0
LINE
5
68C
330
38F
100
AcDbEntity
100
AcDbLine
8
rung
10
1194.4
20
85
30
0
11
1266.6000000000001
21
85
31
0
0
LINE
5
68D
330
38F
100
AcDbEntity
100
AcDbLine
8
rung
10
1194.4
20
87
30
0
11
1266.6000000000001
21
87
31
0
0
LINE
5
68E
330
38F
100
AcDbEntity
100
AcDbLine
8
rung
10
1194.4
20
235
30
0
11
1266.6000000000001
21
235
31
0
0
LINE
5
68F
330
38F
100
AcDbEntity
100
AcDbLine
8
rung
10
1194.4
20
237
30
0
11
1266.6000000000001
21
237
31
0
0
LINE
5
690
330
38F
100
AcDbEntity
100
AcDbLine
8
rung
10
1194.4
20
385
30
0
11
1266.6000000000001
21
385
31
0
0
LINE
5
691
330
38F
100
AcDbEntity
100
AcDbLine
8
rung
10
1194.4
20
387
30
0
11
1266.6000000000001
21
387
31
0
0
LINE
5
692
330
38F
100
AcDbEntity
100
AcDbLine
8
rung
10
1194.4
20
85
30
0
11
1266.6000000000001
21
85
31
0
0
LINE
5
693
330
38F
100
AcDbEntity
100
AcDbLine
8
rung
10
1194.4
20
87
30
0
11
1266.6000000000001
21
87
31
0
0
LINE
5
694
330
38F
100
AcDbEntity
100
AcDbLine
8
rung
10
1194.4
20
235
30
0
11
1266.6000000000001
21
235
31
0
0
LINE
5
695
330
38F
100
AcDbEntity
100
AcDbLine
8
rung
10
1194.4
20
237
30
0
11
1266.6000000000001
21
237
31
0
0
LINE
5
696
330
38F
100
AcDbEntity
100
AcDbLine
8
rung
10
1194.4
20
385
30
0
11
1266.6000000000001
21
385
31
0
0
LINE
5
697
330
38F
100
AcDbEntity
100
AcDbLine
8
rung
10
1194.4
20
387
30
0
11
1266.6000000000001
21
387
31
0
0
LINE
5
698
330
38F
100
AcDbEntity
100
AcDbLine
8
rung
10
1670.6
20
385
30
0
11
1816.6
21
385
31
0
0
LINE
5
699
330
38F
100
AcDbEntity
100
AcDbLine
8
rung
10
1670.6
20
387
30
0
11
1816.6
21
387
31
0
0
LINE
5
69A
330
38F
100
AcDbEntity
100
AcDbLine
8
rung
10
1820.6
20
385
30
0
11
1966.6
21
385
31
0
0
LINE
5
69B
330
38F
100
AcDbEntity
100
AcDbLine
8
rung
10
1820.6
20
387
30
0
11
1966.6
21
387
31
0
0
LINE
5
69C
330
38F
100
AcDbEntity
100
AcDbLine
8
rung
10
1970.6
20
385
30
0
11
2116.6
21
385
31
0
0
LINE
5
69D
330
38F
100
AcDbEntity
100
AcDbLine
8
rung
10
1970.6
20
387
30
0
11
2116.6
21
387
31
0
0
LINE
5
69E
330
38F
100
AcDbEntity
100
AcDbLine
8
rung
10
2120.6
20
385
30
0
11
2266.6
21
385
31
0
0
LINE
5
69F
330
38F
100
AcDbEntity
100
AcDbLine
8
rung
10
2120.6
20
387
30
0
11
2266.6
21
387
31
0
0
LINE
5
6A0
330
38F
100
AcDbEntity
100
AcDbLine
8
rung
10
1670.6
20
385
30
0
11
1816.6
21
385
31
0
0
LINE
5
6A1
330
38F
100
AcDbEntity
100
AcDbLine
8
rung
10
1670.6
20
387
30
0
11
1816.6
21
387
31
0
0
LINE
5
6A2
330
38F
100
AcDbEntity
100
AcDbLine
8
rung
10
1820.6
20
85
30
0
11
1966.6
21
85
31
0
0
LINE
5
6A3
330
38F
100
AcDbEntity
100
AcDbLine
8
rung
10
1820.6
20
87
30
0
11
1966.6
21
87
31
0
0
LINE
5
6A4
330
38F
100
AcDbEntity
100
AcDbLine
8
rung
10
1820.6
20
235
30
0
11
1966.6
21
235
31
0
0
LINE
5
6A5
330
38F
100
AcDbEntity
100
AcDbLine
8
rung
10
1820.6
20
237
30
0
11
1966.6
21
237
31
0
0
LINE
5
6A6
330
38F
100
AcDbEntity
100
AcDbLine
8
rung
10
1820.6
20
385
30
0
11
1966.6
21
385
31
0
0
LINE
5
6A7
330
38F
100
AcDbEntity
100
AcDbLine
8
rung
10
1820.6
20
387
30
0
11
1966.6
21
387
31
0
0
LINE
5
6A8
330
38F
100
AcDbEntity
100
AcDbLine
8
rung
10
1970.6
20
85
30
0
11
2116.6
21
85
31
0
0
LINE
5
6A9
330
38F
100
AcDbEntity
100
AcDbLine
8
rung
10
1970.6
20
87
30
0
11
2116.6
21
87
31
0
0
LINE
5
6AA
330
38F
100
AcDbEntity
100
AcDbLine
8
rung
10
1970.6
20
235
30
0
11
2116.6
21
235
31
0
0
LINE
5
6AB
330
38F
100
AcDbEntity
100
AcDbLine
8
rung
10
1970.6
20
237
30
0
11
2116.6
21
237
31
0
0
LINE
5
6AC
330
38F
100
AcDbEntity
100
AcDbLine
8
rung
10
1970.6
20
385
30
0
11
2116.6
21
385
31
0
0
LINE
5
6AD
330
38F
100
AcDbEntity
100
AcDbLine
8
rung
10
1970.6
20
387
30
0
11
2116.6
21
387
31
0
0
LINE
5
6AE
330
38F
100
AcDbEntity
100
AcDbLine
8
rung
10
2120.6
20
85
30
0
11
2266.6
21
85
31
0
0
LINE
5
6AF
330
38F
100
AcDbEntity
100
AcDbLine
8
rung
10
2120.6
20
87
30
0
11
2266.6
21
87
31
0
0
LINE
5
6B0
330
38F
100
AcDbEntity
100
AcDbLine
8
rung
10
2120.6
20
235
30
0
11
2266.6
21
235
31
0
0
LINE
5
6B1
330
38F
100
AcDbEntity
100
AcDbLine
8
rung
10
2120.6
20
237
30
0
11
2266.6
21
237
31
0
0
LINE
5
6B2
330
38F
100
AcDbEntity
100
AcDbLine
8
rung
10
2120.6
20
385
30
0
11
2266.6
21
385
31
0
0
LINE
5
6B3
330
38F
100
AcDbEntity
100
AcDbLine
8
rung
10
2120.6
20
387
30
0
11
2266.6
21
387
31
0
0
LINE
5
6B4
330
38F
100
AcDbEntity
100
AcDbLine
8
rung
10
1670.6
20
385
30
0
11
1816.6
21
385
31
0
0
LINE
5
6B5
330
38F
100
AcDbEntity
100
AcDbLine
8
rung
10
1670.6
20
387
30
0
11
1816.6
21
387
31
0
0
LINE
5
6B6
330
38F
100
AcDbEntity
100
AcDbLine
8
rung
10
1820.6
20
85
30
0
11
1966.6
21
85
31
0
0
LINE
5
6B7
330
38F
100
AcDbEntity
100
AcDbLine
8
rung
10
1820.6
20
87
30
0
11
1966.6
21
87
31
0
0
LINE
5
6B8
330
38F
100
AcDbEntity
100
AcDbLine
8
rung
10
1820.6
20
235
30
0
11
1966.6
21
235
31
0
0
LINE
5
6B9
330
38F
100
AcDbEntity
100
AcDbLine
8
rung
10
1820.6
20
237
30
0
11
1966.6
21
237
31
0
0
LINE
5
6BA
330
38F
100
AcDbEntity
100
AcDbLine
8
rung
10
1820.6
20
385
30
0
11
1966.6
21
385
31
0
0
LINE
5
6BB
330
38F
100
AcDbEntity
100
AcDbLine
8
rung
10
1820.6
20
387
30
0
11
1966.6
21
387
31
0
0
LINE
5
6BC
330
38F
100
AcDbEntity
100
AcDbLine
8
rung
10
1970.6
20
85
30
0
11
2116.6
21
85
31
0
0
LINE
5
6BD
330
38F
100
AcDbEntity
100
AcDbLine
8
rung
10
1970.6
20
87
30
0
11
2116.6
21
87
31
0
0
LINE
5
6BE
330
38F
100
AcDbEntity
100
AcDbLine
8
rung
10
1970.6
20
235
30
0
11
2116.6
21
235
31
0
0
LINE
5
6BF
330
38F
100
AcDbEntity
100
AcDbLine
8
rung
10
1970.6
20
237
30
0
11
2116.6
21
237
31
0
0
LINE
5
6C0
330
38F
100
AcDbEntity
100
AcDbLine
8
rung
10
1970.6
20
385
30
0
11
2116.6
21
385
31
0
0
LINE
5
6C1
330
38F
100
AcDbEntity
100
AcDbLine
8
rung
10
1970.6
20
387
30
0
11
2116.6
21
387
31
0
0
LINE
5
6C2
330
38F
100
AcDbEntity
100
AcDbLine
8
rung
10
2120.6
20
85
30
0
11
2266.6
21
85
31
0
0
LINE
5
6C3
330
38F
100
AcDbEntity
100
AcDbLine
8
rung
10
2120.6
20
87
30
0
11
2266.6
21
87
31
0
0
LINE
5
6C4
330
38F
100
AcDbEntity
100
AcDbLine
8
rung
10
2120.6
20
235
30
0
11
2266.6
21
235
31
0
0
LINE
5
6C5
330
38F
100
AcDbEntity
100
AcDbLine
8
rung
10
2120.6
20
237
30
0
11
2266.6
21
237
31
0
0
LINE
5
6C6
330
38F
100
AcDbEntity
100
AcDbLine
8
rung
10
2120.6
20
385
30
0
11
2266.6
21
385
31
0
0
LINE
5
6C7
330
38F
100
AcDbEntity
100
AcDbLine
8
rung
10
2120.6
20
387
30
0
11
2266.6
21
387
31
0
0
LINE
5
6C8
330
38F
100
AcDbEntity
100
AcDbLine
8
rung
10
2823
20
385
30
0
11
2895.2
21
385
31
0
0
LINE
5
6C9
330
38F
100
AcDbEntity
100
AcDbLine
8
rung
10
2823
20
387
30
0
11
2895.2
21
387
31
0
0
LINE
5
6CA
330
38F
100
AcDbEntity
100
AcDbLine
8
rung
10
2823
20
385
30
0
11
2895.2
21
385
31
0
0
LINE
5
6CB
330
38F
100
AcDbEntity
100
AcDbLine
8
rung
10
2823
20
387
30
0
11
2895.2
21
387
31
0
0
LINE
5
6CC
330
38F
100
AcDbEntity
100
AcDbLine
8
rung
10
2823
20
385
30
0
11
2895.2
21
385
31
0
0
LINE
5
6CD
330
38F
100
AcDbEntity
100
AcDbLine
8
rung
10
2823
20
387
30
0
11
2895.2
21
387
31
0
0
LINE
5
6CE
330
38F
100
AcDbEntity
100
AcDbLine
8
rung
10
2823
20
385
30
0
11
2895.2
21
385
31
0
0
LINE
5
6CF
330
38F
100
AcDbEntity
100
AcDbLine
8
rung
10
2823
20
387
30
0
11
2895.2
21
387
31
0
0
LINE
5
6D0
330
38F
100
AcDbEntity
100
AcDbLine
8
rung
10
2746.7999999999997
20
385
30
0
11
2818.9999999999995
21
385
31
0
0
LINE
5
6D1
330
38F
100
AcDbEntity
100
AcDbLine
8
rung
10
2746.7999999999997
20
387
30
0
11
2818.9999999999995
21
387
31
0
0
LINE
5
6D2
330
38F
100
AcDbEntity
100
AcDbLine
8
rung
10
2746.7999999999997
20
85
30
0
11
2818.9999999999995
21
85
31
0
0
LINE
5
6D3
330
38F
100
AcDbEntity
100
AcDbLine
8
rung
10
2746.7999999999997
20
87
30
0
11
2818.9999999999995
21
87
31
0
0
LINE
5
6D4
330
38F
100
AcDbEntity
100
AcDbLine
8
rung
10
2746.7999999999997
20
235
30
0
11
2818.9999999999995
21
235
31
0
0
LINE
5
6D5
330
38F
100
AcDbEntity
100
AcDbLine
8
rung
10
2746.7999999999997
20
237
30
0
11
2818.9999999999995
21
237
31
0
0
LINE
5
6D6
330
38F
100
AcDbEntity
100
AcDbLine
8
rung
10
2746.7999999999997
20
385
30
0
11
2818.9999999999995
21
385
31
0
0
LINE
5
6D7
330
38F
100
AcDbEntity
100
AcDbLine
8
rung
10
2746.7999999999997
20
387
30
0
11
2818.9999999999995
21
387
31
0
0
LINE
5
6D8
330
38F
100
AcDbEntity
100
AcDbLine
8
rung
10
2746.7999999999997
20
85
30
0
11
2818.9999999999995
21
85
31
0
0
LINE
5
6D9
330
38F
100
AcDbEntity
100
AcDbLine
8
rung
10
2746.7999999999997
20
87
30
0
11
2818.9999999999995
21
87
31
0
0
LINE
5
6DA
330
38F
100
AcDbEntity
100
AcDbLine
8
rung
10
2746.7999999999997
20
235
30
0
11
2818.9999999999995
21
235
31
0
0
LINE
5
6DB
330
38F
100
AcDbEntity
100
AcDbLine
8
rung
10
2746.7999999999997
20
237
30
0
11
2818.9999999999995
21
237
31
0
0
LINE
5
6DC
330
38F
100
AcDbEntity
100
AcDbLine
8
rung
10
2746.7999999999997
20
385
30
0
11
2818.9999999999995
21
385
31
0
0
LINE
5
6DD
330
38F
100
AcDbEntity
100
AcDbLine
8
rung
10
2746.7999999999997
20
387
30
0
11
2818.9999999999995
21
387
31
0
0
LINE
5
6DE
330
38F
100
AcDbEntity
100
AcDbLine
8
rung
10
2746.7999999999997
20
85
30
0
11
2818.9999999999995
21
85
31
0
0
LINE
5
6DF
330
38F
100
AcDbEntity
100
AcDbLine
8
rung
10
2746.7999999999997
20
87
30
0
11
2818.9999999999995
21
87
31
0
0
LINE
5
6E0
330
38F
100
AcDbEntity
100
AcDbLine
8
rung
10
2746.7999999999997
20
235
30
0
11
2818.9999999999995
21
235
31
0
0
LINE
5
6E1
330
38F
100
AcDbEntity
100
AcDbLine
8
rung
10
2746.7999999999997
20
237
30
0
11
2818.9999999999995
21
237
31
0
0
LINE
5
6E2
330
38F
100
AcDbEntity
100
AcDbLine
8
rung
10
2746.7999999999997
20
385
30
0
11
2818.9999999999995
21
385
31
0
0
LINE
5
6E3
330
38F
100
AcDbEntity
100
AcDbLine
8
rung
10
2746.7999999999997
20
387
30
0
11
2818.9999999999995
21
387
31
0
0
LINE
5
6E4
330
38F
100
AcDbEntity
100
AcDbLine
8
rung
10
2670.6
20
385
30
0
11
2742.7999999999997
21
385
31
0
0
LINE
5
6E5
330
38F
100
AcDbEntity
100
AcDbLine
8
rung
10
2670.6
20
387
30
0
11
2742.7999999999997
21
387
31
0
0
LINE
5
6E6
330
38F
100
AcDbEntity
100
AcDbLine
8
rung
10
2670.6
20
85
30
0
11
2742.7999999999997
21
85
31
0
0
LINE
5
6E7
330
38F
100
AcDbEntity
100
AcDbLine
8
rung
10
2670.6
20
87
30
0
11
2742.7999999999997
21
87
31
0
0
LINE
5
6E8
330
38F
100
AcDbEntity
100
AcDbLine
8
rung
10
2670.6
20
235
30
0
11
2742.7999999999997
21
235
31
0
0
LINE
5
6E9
330
38F
100
AcDbEntity
100
AcDbLine
8
rung
10
2670.6
20
237
30
0
11
2742.7999999999997
21
237
31
0
0
LINE
5
6EA
330
38F
100
AcDbEntity
100
AcDbLine
8
rung
10
2670.6
20
385
30
0
11
2742.7999999999997
21
385
31
0
0
LINE
5
6EB
330
38F
100
AcDbEntity
100
AcDbLine
8
rung
10
2670.6
20
387
30
0
11
2742.7999999999997
21
387
31
0
0
LINE
5
6EC
330
38F
100
AcDbEntity
100
AcDbLine
8
rung
10
2670.6
20
85
30
0
11
2742.7999999999997
21
85
31
0
0
LINE
5
6ED
330
38F
100
AcDbEntity
100
AcDbLine
8
rung
10
2670.6
20
87
30
0
11
2742.7999999999997
21
87
31
0
0
LINE
5
6EE
330
38F
100
AcDbEntity
100
AcDbLine
8
rung
10
2670.6
20
235
30
0
11
2742.7999999999997
21
235
31
0
0
LINE
5
6EF
330
38F
100
AcDbEntity
100
AcDbLine
8
rung
10
2670.6
20
237
30
0
11
2742.7999999999997
21
237
31
0
0
LINE
5
6F0
330
38F
100
AcDbEntity
100
AcDbLine
8
rung
10
2670.6
20
385
30
0
11
2742.7999999999997
21
385
31
0
0
LINE
5
6F1
330
38F
100
AcDbEntity
100
AcDbLine
8
rung
10
2670.6
20
387
30
0
11
2742.7999999999997
21
387
31
0
0
LINE
5
6F2
330
38F
100
AcDbEntity
100
AcDbLine
8
rung
10
2670.6
20
85
30
0
11
2742.7999999999997
21
85
31
0
0
LINE
5
6F3
330
38F
100
AcDbEntity
100
AcDbLine
8
rung
10
2670.6
20
87
30
0
11
2742.7999999999997
21
87
31
0
0
LINE
5
6F4
330
38F
100
AcDbEntity
100
AcDbLine
8
rung
10
2670.6
20
235
30
0
11
2742.7999999999997
21
235
31
0
0
LINE
5
6F5
330
38F
100
AcDbEntity
100
AcDbLine
8
rung
10
2670.6
20
237
30
0
11
2742.7999999999997
21
237
31
0
0
LINE
5
6F6
330
38F
100
AcDbEntity
100
AcDbLine
8
rung
10
2670.6
20
385
30
0
11
2742.7999999999997
21
385
31
0
0
LINE
5
6F7
330
38F
100
AcDbEntity
100
AcDbLine
8
rung
10
2670.6
20
387
30
0
11
2742.7999999999997
21
387
31
0
0
ENDSEC
0
SECTION
2
OBJECTS
0
DICTIONARY
5
37F
330
0
100
AcDbDictionary
281
1
3
ACAD_GROUP
350
393
0
DICTIONARY
5
393
330
37F
100
AcDbDictionary
281
1
0
ENDSEC
0
EOF